<?xml version="1.0" encoding="utf-8"?>
<!-- Generator: Adobe Illustrator 18.0.0, SVG Export Plug-In . SVG Version: 6.00 Build 0)  -->
<!DOCTYPE svg PUBLIC "-//W3C//DTD SVG 1.1//EN" "http://www.w3.org/Graphics/SVG/1.1/DTD/svg11.dtd">
<svg version="1.1" id="Layer_1" xmlns="http://www.w3.org/2000/svg" xmlns:xlink="http://www.w3.org/1999/xlink" x="0px" y="0px"
	 viewBox="0 0 250 80" enable-background="new 0 0 250 80" xml:space="preserve">
<path fill="#19191C" d="M160.8,40.9c0,0,0.8-0.8,1.3-1.3c1.8-2.1,2.3-5.8,1.8-8.4c-0.2-1.1-0.5-1.9-1.2-2.8c-1.7-2.1-4-3.5-6.5-4.8
	c-0.4-0.2-0.9-0.4-1.3-0.5c-0.4-0.1-0.9-0.3-0.9-0.3l-0.9,3.1c0,0,1.1,0,1.8,0c0.7,0,1.4,0.1,2.1,0.3c1.7,0.4,3.5,1.5,4.1,3.3
	c0.1,0.1,0.1,0.3,0.1,0.4c0.1,0.1,0.6,0.5,0.9,0.8c0.1,0.1,0.6,0.9,0.7,1.2c0.1,0.4,0.3,0.8,0.3,1.3c0.3,1.6-0.2,3.9-0.9,5.4
	C161.8,39.3,160.8,40.9,160.8,40.9z"/>
<path fill="#19191C" d="M46.3,1.1l-7,0.1l-7-0.1l-9.6,57.3h-2.7v19.8h18.2V58.4h-4.3l1.4-8.8h8.3l1.2,8.8h-4.1v19.8h18.2V58.4h-2.8
	L46.3,1.1z M36.7,40l2.5-15.1L41.8,40H36.7z"/>
<path fill="#19191C" d="M123.1,43.1h-10.4l0.1,11.6l0,0.2c-0.8,2.6-2.3,4-4.1,4c-0.6,0-2.6-0.2-3.6-2.2V23c0.7-1.5,2-2.2,4.1-2.2
	c1.2,0,2.8,0.9,3.8,2.4v8.7h10.4V0.5h-0.4h-10v3.4c-1.7-2.3-4.2-3.7-6.6-3.6C100,0.5,96.1,5.8,94.3,16.4h0v0.2c0,0,0,0,0,0l0,43.9
	h-0.1c0.6,12.5,7.4,18.1,13.9,18.1c9.9,0,14.9-7.8,15.4-23.7l0-11.8H123.1z"/>
<path fill="#19191C" d="M123.5,54.9l0-0.1C123.5,54.8,123.5,54.9,123.5,54.9L123.5,54.9z"/>
<path fill="#19191C" d="M86.2,38.4c2.3-0.8,5.6-4,6.1-9.3h0l0-0.6c0,0,0.2-10.5,0.2-12.3h0c0,0,0,0,0-0.1c0-0.1,0-0.2,0-0.2
	c0,0,0-0.3,0-0.4C92.1,7,86.1,0.9,78,0.7v0h-0.4H59.3v20.4c0,0,3.7,0,4.3,0c0,0.8,0,36.3,0,37.1c-0.6,0-3.8,0-3.8,0v20.4h18.3v0
	c8.5-0.2,14.1-6.1,14.9-15.4l0-1.9h0V48.8h0C93,43.4,90,39,86.2,38.4z M73.5,19.9h0.4c0,0,1.1-0.1,2.6-0.1c0.8,0.1,1.7,0.1,1.7,0.1
	c2.7,0.2,4.2,2.2,4.2,5v4.3c0,2.1-0.9,4.3-3.6,5.1l-0.3,0.1h-4.9V19.9z M82.4,54.2c-0.1,3-1.6,4.6-4.3,4.8l0-0.1h-4.6V43.3h0.4
	c0,0,3.8-0.2,5,0.1l1.1,0.5c1.6,0.9,2.4,2.7,2.4,5.1L82.4,54.2z"/>
<path fill="#19191C" d="M201.3,46.9c-0.1-0.3-0.3-0.7-0.3-0.7l-2.5,0.2c0,0,0,0.1,0,0.2c0,0.1,0.1,0.2,0.2,0.3
	c0.2,0.2,0.5,1.5,0.5,1.5c0,0.3-0.1,1.1-0.1,1.1s-0.5-0.4-0.8-0.6c-0.2-0.1-0.4-0.2-0.6-0.2c-0.3-0.1-0.9-0.1-0.9-0.1
	s0.5,0.7,0.8,1.2c0.1,0.2,0.6,1.4,0.7,1.7c0.1,0.4,0.2,1.1,0.2,1.1s-0.4-0.2-0.6-0.3c-0.2-0.1-0.7-0.1-0.7-0.1s0.7,1.7,0.8,2.1
	c0,0,0.2,0.9,0.1,1.1c0,0.1-0.1,0.3-0.1,0.3l-1-0.4c0,0,0.3,0.6,0.3,0.9c0.2,0.8-0.1,1.5-0.5,2c-0.1,0.2-0.3,0.4-0.5,0.5
	c-0.3,0.2-1,0.6-1,0.6l1.8-2.4c0.1-0.1,0.1-0.1,0.1-0.1c0-0.2-0.2-0.3-0.3-0.2c-0.2,0-0.4,0.1-0.6,0.2c-0.4,0.2-4.8,2.5-7.3,3.8
	c-0.1,0-0.1,0-0.2,0l-6.6-3.3c0,0,0,0.2-0.1,0.3c-0.1,0.1-0.1,0.1-0.1,0.1s-0.2-0.3-0.4-0.5c-0.3-0.4-1.6-2.5-2.1-3.2
	c-0.2-0.2-0.3-0.4-0.3-0.4s0.1-0.1,0.2-0.1c0.2-0.1,0.4-0.6,0.3-0.7c0-0.1-0.2-0.2-0.4-0.3c-0.8-0.6-1.5-2-1.8-2.6
	c-0.1-0.3-0.5-1.2-0.8-2.3c-1.9-5.4-4.1-11-4.4-11.5c-0.5-0.8-1.2-1.6-1.7-2c-0.3-0.2-0.6-0.4-0.6-0.4s0.7,2.1,0.8,2.6
	c0.1,0.5,0.1,0.8,0.2,1.3c0.1,0.5,0.4,1.2,0.4,1.2l0.2-1.1c0,0,0.1,0.3,0.1,0.6c0.1,1-0.2,1.6,0.1,2.1c0.1,0.2,0.4,0.6,0.4,0.6
	l0.4-1.3c0,0,0.1,0.2,0.2,0.4c0.2,0.5,0.3,1.5,0.2,2c-0.1,0.7-0.2,1,0.1,0.9c0.1,0,0.1,0,0.2-0.1l0,0l0,0.1l0,0
	c0.1,0.1,0.2,0.5,0.2,0.8c0.1,0.8,0.2,0.9,0.1,2.1c0,0.3-0.1,0.6-0.1,0.6s0.8-0.4,1-0.5c0,0,0.2,0.1,0.3,0.2
	c0.1,0.5,0.2,0.9,0.2,1.4l1.2,2.7c0-0.1,0.1-0.2,0.1-0.2s0.6,3.3,0.8,3.9c0.3,1.2,1.8,4.2,3,5.1c0.3,0.2,1.4,0.8,1.3,1
	c0,0.1-0.2,0.1-0.3,0.2c-0.3,0.2-0.4,1.1-0.5,1.4c0,0.3,0.2,1.6,0.2,2.4c0.1,1.2-0.3,4.6-0.8,5.6c-0.3,0.7-1.1,1.3-1.9,1.7
	c0,0,0,0,0,0c-0.3,0.2-0.7,0.4-1.2,0.7c0,0,0,0,0,0.1c0,0,0,0.1,0,0.1c0,0.1-0.1,0.2-0.1,0.4c0,0.1,0,0.4,0,0.5
	c0.1,0.3,0.3,0.7,0.3,0.7s0.4-0.5,0.7-0.6c0.2-0.1,1.9-0.9,1.9-0.9l-0.1,0.8c0,0,1-0.1,1-0.1c0,0,0,0.1,0,0.1c0,0.4,0.5,0.7,0.6,0.7
	c0.1,0,0.7-0.3,1-0.4c0.2-0.1,1.4-0.3,1.7-0.3c1.2-0.1,3.6,0,4.5-0.1c0.3,0,0.3-0.3,0.4-0.5l-0.2-7.7c0,0-0.5-0.2-0.9-0.4
	c-0.9-0.4-2.6-1.5-3.4-2.1c-0.4-0.3-1-0.8-1-0.8s0.5,0.3,0.7,0.4c0.1,0.1,0.1,0.1,0.1,0.1c0.1,0.1,1.9,1.2,2.4,1.4
	c0.8,0.4,1.5,0.6,2.2,0.9c0.1,0,0.1,0,0.2,0l4.7-2.2c0.1,0,0.1-0.1,0.2-0.1c0,0,0.1-0.1,0.1-0.1c0.2-0.1,0.5-0.1,0.5-0.1l-5.4,2.9
	l0.4,7.9c0.1,0.3,0.2,0.5,0.3,0.6c0.2,0,1.1,0.1,1.3,0.1c0.3,0,3.5-0.3,4-0.2c0.6,0,2,0.4,2.5,0.9c0.1,0.2,0.3,0.4,0.3,0.4
	s0-1.1,0-1.3c0-0.2-0.1-0.3-0.1-0.3c0.1-0.3,0.8,0.5,1.1,0.5c0,0,0.3-0.1,0.3-0.1c0.2-0.2,0.2-0.6,0.1-1c0-0.1-0.1-0.2-0.1-0.3
	c-0.1-0.1-0.2-0.2-0.2-0.3c0,0,0.1,0,0.1,0c0.3,0,0.9,0.3,1.1,0.5c0.2,0.2,0.5,0.5,0.5,0.5s0.1-0.3,0.1-0.5c0.1-0.2,0-0.5-0.1-0.7
	c-0.1-0.1-0.2-0.3-0.2-0.4c-0.8-0.4-1.8-0.8-2-0.9c-0.1-0.1-0.2-0.2-0.3-0.3c-0.1,0-0.2-0.1-0.2-0.1c-0.8-0.5-1.1-1.8-1.2-3
	c0-0.4,0-2.2,0.1-2.4c0-0.2,0.7-1.8,0.9-2c0.6-0.9,1.8-2.7,1.8-3c0.2-0.5,0.4-1.4,0.4-2c0-0.4,0-1,0-1l0.3,0.6c0,0,0.3-0.6,0.4-0.9
	c0-0.1,0-0.2,0-0.2l0,0.1c0.1-0.3,0.2-1.3,0.1-1.4c0-0.1-0.1-0.2-0.1-0.2c0-0.1,0-0.1,0-0.2c0-0.3-0.4-2-0.4-2s0.1,0.1,0.2,0.1
	c0,0,0,0.1,0,0.1c0,0,0.1,0.1,0.2,0.1c0.1,0,0.3-0.4,0.4-0.7c-0.1-0.3-0.1-0.5-0.1-0.5l0.1,0.1c0.1,0,0.1,0,0.1,0.1c0,0,0,0.1,0,0.1
	c0,0,0,0,0,0c0.1-0.3,0.2-0.6,0.2-0.7C201.6,48.9,201.5,47.7,201.3,46.9z"/>
<path fill="#19191C" d="M239.3,62.6c-0.3-2.3-1.4-10.1-1.6-11.7c0-0.4-0.1-0.9-0.1-1.4c-1-10.6,0.4-15.3-6-33.1
	c-0.8-2.1-2.3-5.3-3.9-7.1c-0.4-0.5-1.1-1.1-1.1-1.1v0c0,0,0,0,0,0c0,0-0.1,0-0.1-0.1c0,0,0-0.1,0-0.1h0c0,0-0.4-0.4-0.8-0.7
	c-1.9-1.6-4-2.3-6.3-2.4c-0.3,0-1.1,0.1-1.4,0.1c-0.3,0.1-0.8,0.2-1.2,0.3l-2.5,0.8c-4.2,1.3-8,5.8-10.3,9.2
	c-0.6,0.9-1.3,1.9-1.9,3.1c-1.1,1.9-2.7,4.9-2.7,4.9s-13.5-7.8-15.8-9.1c-3.8-2.1-6.7-3.5-10.3-5l-4.7-1.8c-1.2-0.5-2.5-0.9-3.4-1.3
	c-2.5-0.9-6.8-2.1-9.6-2.7c-0.9-0.2-3.9-0.7-5-0.8c-0.3,0-0.6,0-0.6,0s0.1-0.9,0-1.2c-0.1-1-0.9-1.3-1.8-1.3
	c-1.3,0.1-3.7,0.6-4.4,1.6c-0.1,0.1-0.2,0.6-0.2,0.7c0,0.4,0.1,1.1,0,1.2c0,0.1-0.1,0.1-0.3,0.2c-0.5,0.2-1.4,0.7-1.4,0.7
	s-0.2-0.3-0.3-0.5c-1-1.3-1.9-1.3-3.1-0.4c-0.8,0.6-1.4,1.1-1.7,2c-0.2,0.6-0.2,1.3,0.2,1.9c0.2,0.3,0.7,1,0.7,1s-0.7,1.3-1.3,2.2
	c-2.6,4.6-3.9,9.6-4.4,14.6c-0.1,0.8-0.5,10.8-0.8,16.1c-0.1,2.5-0.8,9.5-1.5,12.4c-0.2,0.7-0.7,2.4-1.2,3.1c-0.4,0.7-1.3,1.8-1.3,2
	c-0.1,0.3,0.1,1,0.5,1.2c0.9,0.4,1.9-0.2,2.7-0.7c0.5-0.3,1.3-0.9,1.8-1.3c0.5-0.5,1.2-1.3,1.2-1.3s0.3,1.4,0.5,2.3
	c0.5,1.7,2.2,6,3.6,7.2c0.6,0.6,1.4,0.6,1.9,0c0.4-0.4,0.3-0.6,0.1-1c-1.4-2.8-1.8-2.9-2.8-5.9c-0.4-1.2-0.9-3-0.9-3
	s0.1,0.2,0.2,0.3c0.3,0.4,1.3,0.8,1.9,1c0.4,0.1,0.9,0.2,0.9,0.2s-0.5-1.6-0.8-2.6c-0.5-2.2-0.3-3.7,0.4-5.8
	c0.3-0.8,3.2-8.1,3.2-8.1s1,1.3,1.2,1.6c0.1,0.2,0.3,0.7,0.4,1.1c0.5,1.5,1.8,2.6,3.2,2.9c2,0.5,4.3-0.1,6.4-0.9
	c0.5-0.2,1.1-0.4,1.1-0.4l0.8,1c0,0-2,1.5-2.1,1.6c-0.2,0.3-0.3,0.9,0.1,1.2c0.4,0.3,0.8,0.3,1.2,0.2c0.3-0.1,1-0.5,1.2-0.7
	c0.3-0.2,0.6-0.5,0.6-0.5s0.1,0.2,0.3,0.4c0.1,0.1,0.2,0.3,0.2,0.3s-2,1.4-2.3,1.7c-0.3,0.4-0.4,0.8-0.1,1.3
	c0.3,0.5,0.6,0.5,1.2,0.2c0.2-0.1,0.6-0.3,0.8-0.5c0.4-0.4,1.1-1,1.1-1l0.3,0.7c0,0-0.7,0.7-1.1,1.2c-0.3,0.4-0.8,1-0.8,1.4
	c0.1,0.6,0.6,1,1.2,1c0.4-0.1,0.8-0.4,1-0.7c0.3-0.4,0.7-1.1,0.7-1.1l2.1,2.7l1-1.1l-0.9,1.3c0,0,0.2,0.2,0.4,0.3
	c0.3,0.2,0.9,0.4,1.2,0.3c0.8-0.1,1.5-1,1.1-1.9c0-0.1,0-0.1-0.1-0.2l-2-3.5c0,0,0.4-0.4,0.7-0.7c0.7-0.6,2.3-1.1,2.9-1.3
	c1.3-0.3,2.5-0.3,3.9,0c0.3,0.1,0.5,0.1,0.8,0.3c0.5,0.2,1.3,0.3,1.7,0.5l0.3,0.3c0.6,0.7,4.7,4.4,4.9,4.7c0.4,0.7,2.2,3.6,2.3,3.9
	c0.6,1.6,0.3,8.3,0.2,9.4c-0.1,1-0.6,1.6-1.4,2.1c-0.3,0.2-1.7,0.7-2.5,1c-2.2,1-2.8,3.2-1.8,5.5c0.2,0.4,0.8,1.4,1.2,1.6
	c0.2,0.1,0.4,0.2,0.4,0.2l0.1-0.6l0.9,1.4l0.2-0.9l1.6,1.2c0,0,0-0.4,0.1-0.7c0.2-1,0.9-1.6,1.8-1.9c0.6-0.2,1.4-0.3,1.9-0.4
	c0.6,0,4.3,0.3,4.7,0.3c0.6,0,1.4-0.2,1.9-0.4c0.4-0.2,1.2-0.8,1.2-0.8s0.2,0.2,0.3,0.3c0.4,0.3,1.4,0.7,1.8,0.8
	c0.3,0.1,1.8,0.2,2.6,0.1c0.8,0,4-0.2,4.9,0.3c0.4,0.2,0.9,1,0.8,1.6c0,0.2-0.1,0.4,0,0.5c0.2,0.2,1.1-0.8,1.3-1.3
	c0.1-0.1,0.1-0.3,0.1-0.3s0.1,0.1,0.2,0.2c0.1,0.1,0.1,0.2,0.2,0.3c0.1,0.2,0.2,0.7,0.2,0.7s0.2-0.2,0.3-0.3
	c0.2-0.3,0.6-0.9,0.7-1.2c0.1-0.3,0.2-0.6,0.2-0.6L203,78c0,0,0.4-0.4,0.6-0.7c0.7-0.9,1-2.6,0.9-3.5c-0.1-1.5-0.9-2.8-2.2-3.7
	c-0.2-0.1-0.3-0.2-0.5-0.3c-1.6-0.7-2.3-0.5-3-1.1c-0.2-0.2-0.3-0.3-0.4-0.5c-0.4-0.8-0.5-2.8-0.5-3.6c0.1-0.9,0.2-1.4,0.6-2.2
	c0.5-0.9,2.1-3.6,2.1-3.6s0.1,0.1,0.2,0.3c0.1,0.1,0.3,0.8,0.3,0.8s0.5-0.7,0.9-1.2c0.7-1,1.6-3.1,1.4-4.6c0-0.3-0.1-0.8-0.1-0.8
	s0.4,0.1,0.6,0.3c0.2,0.2,0.5,0.4,0.5,0.4l0.7-3.1c0,0,0.4,0.1,0.6,0.3c0.2,0.1,0.6,0.6,0.6,0.6l0.7-2.5c0,0,0.3,0.2,0.5,0.3
	c0.2,0.1,0.4,0.3,0.7,0.6c0.2,0.2,0.4,0.5,0.4,0.5l0.8-3.1c0,0,0.4,0.2,0.6,0.3c0.1,0.1,0.2,0.1,0.3,0.2c0.3,0.3,0.9,1,0.9,1
	s0.2-0.6,0.3-0.9c0.1-0.3,0.2-0.7,0.2-1.1c0-0.4,0.1-0.9,0.1-0.9l1.6,1c0,0,0.3-0.8,0.5-1.3c0.3-0.6,0.8-1.3,1.4-1.8
	c0.1-0.1,0.2-0.1,0.3-0.2v0.8c0,0.1,0.1,0,0.2-0.3c0.1-0.2,0.3-0.7,0.5-1.1c0.2-0.4,0.6-0.9,1-1.2c0.3-0.3,0.8-0.6,1-0.7
	c0.1-0.1,0.2-0.1,0.2,0c0.1,0.3,0.4,1.2,0.6,1.8c0.1,0.3,0.4,0.9,0.6,1.2c0.3,0.5,0.9,1.3,1.1,1.6c0.1,0.1,0.3,0.2,0.3,0
	c0.1-0.1,0.2-0.4,0.3-0.6c0.1-0.2,0.3-0.3,0.3-0.3s0.4,1,0.6,1.5c0.1,0.3,0.2,0.6,0.4,0.8c0,0.1,0.1,0.2,0.1,0.2
	c0.3,0.5,0.3,0.6,0.5,0.2l0.3-0.5h0.1c0,0,0,0,0.1,0.1c0.1,0.3,0.2,0.6,0.3,0.9c0.1,0.2,0.3,0.7,0.5,1.1c0,0,0.2,0.4,0.4,0.7
	l0.5,0.9h0.2c0,0,0.1-0.3,0.3-0.6c0.2-0.3,0.5-0.6,0.5-0.6s1.2,1.7,1.8,2.4c0.1,0.2,0.7,0.7,0.9,0.8c0.1,0.1,0.2,0.1,0.3,0.2
	c0.1,0.1,0.2,0.3,0.2,0.4c0,0.1,0,0.2,0,0.3c0.2,1.1,0.1,1.4,0.6,2.4c0.1,0.3,0.3,0.5,0.4,0.9c0,0.1,0.2,0.3,0.3,0.4
	c0.1,0.1,0.4,0.2,0.6,0.2c0,0,0.1-0.2,0.1-0.4c0,0,0,0,0-0.1c0-0.1,0.1-0.2,0.1-0.2c0,0,0.6,0.8,0.9,1.3c0.2,0.2,0.7,0.8,0.8,0.9
	c0.4,0.3,0.7,0.4,1.1,0.8c0.3,0.4,0.6,1.1,0.8,1.3c0.1,0.1,0.2,0.2,0.4,0.4c0.3,0.3,0.9,0.7,1.2,0.9c0.5,0.3,1.5,0.8,1.9,0.9
	C239.6,64.1,239.5,63.7,239.3,62.6z M153,42.9c-2.3,1-5.8,1.6-8.2,0.5c-2-0.9-2.2-2.6-1.4-4.7c1.3-3.6,4.2-6.3,7.8-7.8
	c1.7-0.7,6.2-1.9,8.2-0.6c0.6,0.4,1,1.2,1,2.1C160.2,36.9,156.8,41.2,153,42.9z M145.6,32.2l-0.7,0.7l-0.8-1.4l0.7-0.7L145.6,32.2z
	 M145.4,30.2l0.8-0.7l0.7,1.3l-0.8,0.7L145.4,30.2z M147,29.6c0,0,0.2-0.1,0.3-0.3c0.3-0.2,1.7-0.9,1.7-0.9l0.8,1.3l-1.9,1L147,29.6
	z M163.1,33.1c-0.1-0.4-0.2-0.9-0.3-1.3c-0.1-0.2-0.6-1.1-0.7-1.2c-0.3-0.3-0.8-0.7-0.9-0.8c-0.1-0.1-0.1-0.2-0.1-0.4
	c-0.6-1.8-2.4-3-4.1-3.3c-0.7-0.2-1.4-0.3-2.1-0.3c-0.7,0-1.8,0-1.8,0l0.9-3.1c0,0,0.5,0.1,0.9,0.3c0.4,0.1,1,0.4,1.3,0.5
	c2.5,1.3,4.8,2.7,6.5,4.8c0.7,0.9,1,1.7,1.2,2.8c0.5,2.6,0,6.3-1.8,8.4c-0.5,0.6-1.3,1.3-1.3,1.3s1-1.6,1.3-2.4
	C162.9,37.1,163.4,34.7,163.1,33.1z M166.5,44.8c-0.1,0.3-0.5,1-0.6,1.3c-0.1,0.2-0.9,0.9-1.2,1.1c-0.7,0.5-2.4,1.4-3,1.8
	c-0.1,0.1-0.4,0.4-0.5,0.6c-0.1,0.1-0.1,0.3-0.2,0.4c0,0-0.1,0-0.1,0s0.2-0.5,0.4-0.8c0.1-0.2,0.5-0.6,0.6-0.7c0,0-0.1-0.2-0.1-0.2
	c-0.1-0.1-0.3-0.1-0.3-0.1l-1.2,1l-0.3-0.5c0,0,1-1.2,1.3-1.5c0,0,0.1-0.1,0.1-0.2c0-0.1,0-0.2,0-0.2s-0.4,0-0.5,0
	c-0.1,0-0.2,0-0.3,0.1c-0.3,0.2-1.2,0.6-1.2,0.6l-0.8-1.1c0,0,0.4-0.3,0.6-0.4c0.2-0.1,0.5-0.4,0.6-0.6c0.1-0.2,0.3-0.5,0.3-0.5
	s-0.4,0.1-0.8,0.2c1.2-0.9,2.9-2.3,3.8-2.7c1.2-0.6,2.4-0.7,3.1,0.3C166.6,43.2,166.7,44.1,166.5,44.8z M236,51.9c0,0-1-2-1.5-2.8
	c-0.1-0.3-0.2-0.5-0.3-0.8c-0.1-0.6-0.2-1.6-0.2-1.6s-0.2,0.3-0.4,0.6c-0.2,0.3-0.3,0.8-0.4,1.2c-0.1,0.5-0.2,1.4-0.2,1.4
	s-0.2-0.7-0.3-1.3c0-0.3,0-3,0-3.6c0-0.1-0.1-0.8-0.2-1c-0.1-0.2-0.3-0.5-0.3-0.5s-0.2,0.2-0.3,0.4c-0.1,0.1-0.7,1.6-0.7,1.6
	s-1.8-1.6-2.2-2c-0.3-0.3-0.4-0.7-0.5-1.1c-0.1-0.5-0.1-3.1-0.1-3.1l-1.5,2.2c0,0-0.4-2-0.7-3.1c-0.1-0.4-0.2-0.7-0.2-0.7l-1,1.7
	c0,0-0.1-1.2-0.3-2.3c-0.1-0.8-0.3-4-0.3-4.1c0-0.1,0.1-0.1,0.1-0.4c0-0.2,0.1-0.5,0.1-0.5h-0.2l-2,3.6l-0.1,0.3
	c0,0-0.1-0.4-0.2-0.7c-0.2-0.8-0.4-2.5-0.5-3.2c0-0.6,0.1-6.7,0.1-6.7s-0.5,0.5-0.7,0.8c-0.1,0.2-0.3,0.6-0.4,0.8
	c0,0.1,0,0.1-0.1,0.2c-0.5,2.1-1.5,6.1-1.6,6.3c-0.4,0.8-0.8,1.4-1.8,2.4c-0.1,0.1-0.3,0.3-0.4,0.4l0-0.9c0,0-0.2,0.4-0.3,0.6
	c-0.2,0.3-0.3,0.6-0.6,0.8c-0.7,0.8-2.3,2.5-2.3,2.5s-0.3-0.5-0.5-0.9c-0.2-0.5-0.4-1.1-0.5-1.6c-0.1-0.7-0.2-2-0.2-2
	s-0.5,1.6-0.5,1.8c0,0,0,0.1,0,0.1c0,0,0,0.1,0,0.1c0,0.1,0,0.1,0,0.2c0,0.4-0.9,3.7-0.9,3.7s-0.6-1.7-1-2.7
	c-0.2-0.4-0.3-0.9-0.3-1.1c0-0.1,0-0.6-0.1-0.7c0,0,0,0-0.1,0l-0.2,0c0,0,0.1,2.6,0,3.6c0,0.9-0.2,2.1-0.5,3c0,0,0,0.1-0.1,0.1
	c0,0,0,0.1-0.1,0.1h-0.1c0,0,0-0.2,0-0.3c0-0.1,0-0.2-0.1-0.3c-0.5-1-0.8-1-0.9-1.6c-0.1-0.4-0.1-1.3-0.1-1.3s-0.3,0.3-0.5,0.5
	c-0.4,0.5-0.5,1.1-0.6,1.6c-0.1,0.5-0.2,3.6-0.2,3.6s-0.6-1.1-0.8-1.3c-0.2-0.2-0.7-0.6-0.9-0.9c0,0,0,0-0.1,0.1
	c0.1,0.4,0.5,1.4,0.5,1.8c0.2,0.8,0.1,1.3-0.3,2c-0.2,0.4-0.5,0.9-0.9,1.2c0,0-0.1,0-0.1,0c0,0-0.1,0-0.1,0.1
	c-0.4,0.6-1,1.7-1.1,1.8c0,0.1,0,0.2,0.1,0.3c0,0.1,0,0.1,0.1,0.1h0.1v0.1h-0.1c0,0,0.1,0.3,0.1,0.7c0,0.2-0.1,1.8-0.1,1.9l-1.1,4.5
	c-0.3-0.1-0.2-0.3-0.1-0.5c0.1-0.2,0.1-0.7,0.1-0.9c0-0.3,0-0.5,0-0.7c0-0.2,0.6-1.3,0.8-1.9c0.1-0.2,0.1-0.6,0.2-1
	c0-0.3-0.1-1.5-0.1-1.6c-0.1-0.3-0.2-0.3-0.1-0.6c0.1-0.3,1-1.7,1.1-2c0.2-0.6,0.2-2.1,0.1-2.9c-0.1-0.6-0.3-1.4-0.3-1.4
	s0.6-0.3,1-0.7c0.1-0.1,0.3-0.2,0.4-0.3c0-0.1-0.1-0.2-0.1-0.2s0.1,0,0.1,0.1c0.9-0.8,1.7-2,2-2.9c0.2-0.6,0.6-2,0.4-2.7
	c0-0.1-0.1-0.3-0.1-0.4c0-0.2,0.4-1.9,0.5-2.8c0.1-0.9-0.3-3.5-0.6-4.1c-0.2-0.3-0.5-0.8-0.5-0.8s-0.7,4.2-0.9,4.5
	c-0.1,0.3-0.7,1.5-1.1,1.7c-0.2,0.1-0.3,0.1-0.5,0.2c-0.1,0-0.1,0.1-0.2,0.1c-0.2,0.1-1.3,1.7-1.4,1.8c-0.8,0.5-1.7-0.2-2-1.1
	c-0.4-0.9-0.5-2.3-0.2-3.3c0.1-0.3,0.4-0.9,0.6-1.1c0.2-0.2,0.4-0.4,0.5-0.5c-0.1-0.1-0.3-0.2-0.3-0.3c-0.2-0.4-0.1-1-0.3-0.9
	c-0.3,0.1-1.1,1.3-1.2,1.4c-1,1.5-1.3,3.1-0.6,5c0.5,1.4,1.4,2.5,2.7,2c0.3-0.1,0.7-0.3,0.9-0.5c0.2-0.2,1-1.3,1-1.3
	c0.2-0.1,0.5-0.2,0.6-0.2c0.1-0.1,0.1-0.2,0.1-0.2s0.1,0.1,0.3,0.1c0,0,0.1,0.1,0.1,0.1c0,0,0,0,0,0c0-0.3,0-0.6,0-0.6
	s0.2,0.1,0.4,0.2c0.9,0.6,0.7,1.9,0.4,2.8c-0.4,1.3-1.3,2.6-2.5,3.4c-1.6,1.3-3.7,1.5-5.8,0.5c-0.9-0.5-1.6-1.1-2.1-2
	c-0.6-1-1-2.5-0.8-3.6c0.1-0.5,0.5-1.7,0.5-1.7l-0.8,0.6c0,0-0.5-0.8-0.7-1.3c-0.1-0.2-0.2-0.6-0.2-0.7c0-0.6-0.1-2.3-0.2-2.5
	c-0.1-0.1-0.1-0.2-0.1-0.2l-0.1,0.2c0,0.1-0.1,0.1-0.2,0.1c-0.6-0.2-0.8-0.3-1.4-0.9c-0.8-0.7-0.9-0.8-1.4-1.8
	c-0.2-0.4-0.3-0.6-0.2-0.9c0-0.1,0.1-0.2,0.1-0.3c0-0.1-0.2-1.5-0.2-1.5s-0.1,0.1-0.2,0.1c-0.5,0.4-0.7,1.4-0.6,1.9
	c0.2,1.3,1.4,2.9,2.9,3.4c0.3,0.1,0.6,0.2,0.6,0.2s-0.1,0.6-0.1,1c-0.1,1,0.2,2.5,0.9,3.3c0.1,0.2,0.3,0.4,0.5,0.5
	c0.1,0.1,0.1,0.1,0.1,0.2l0.1,2.8c0,0.1,0,0.1,0,0.2c0.4,1.5,0.6,2.3,1.6,3.3c0.9,0.9,1.8,1.2,3.1,1.5c0.2,0.1,0.4,0.1,0.8,0.1
	c0.2,0,0.4,0,0.4,0v-0.2c0,0,0.3,0,0.7,0c0.9-0.1,1.9-0.2,1.9-0.2s0.2,0.5,0.3,0.8c0.3,0.8,0.3,2.4,0,3.2c-0.1,0.3-0.2,0.6-0.3,0.9
	c-0.1,0.2-0.4,0.7-0.4,0.7c0,0-0.2,0-0.2,0c0,0,0,0,0,0c0,0,0-0.1,0-0.1c0,0,0,0-0.1-0.1l-0.1-0.1c0,0,0,0.2,0.1,0.5
	c0.1,0.7,0.4,1.8,0.4,2.1c0,0.4,0,1.3-0.1,1.7c-0.1,0.4-0.4,1-0.4,1l-0.2-0.5l0-0.1c0,0,0,0.1,0,0.2c0,0.5-0.2,1.8-0.3,2.4
	c0,0.3-0.1,0.4-0.2,0.6c-0.1,0.3-1.3,2-1.9,3.1c-1.2,2-1.3,3.4-0.9,5.7c0.2,1,0.4,1.6,0.8,2c0.1,0.1,0.2,0.2,0.3,0.3
	c0.2,0.1,1.2,0.6,2,0.9c0.4,0.2,0.8,0.4,1,0.5c1.2,0.7,1.7,1.6,2,2.9c0.1,0.2,0.1,0.8,0.1,1c0,0.4-0.2,0.8-0.2,0.8l-0.8-1.1
	c0,0-0.7,1.9-0.7,2.2c0,0.1,0,0.2-0.1,0.2c-0.2,0-1.1-0.6-1.1-0.6l-0.5,1.1c0,0-0.3-0.3-0.5-0.5c-0.3-0.2-0.6-0.4-1-0.5
	c-0.1,0-0.1,0-0.2,0l-6.8-0.3c-0.1,0-0.1,0-0.2,0c-0.9-0.2-1.4-0.6-1.5-1.2c-0.1-0.3,0-1.6,0-1.9c0-0.2-0.1-0.3-0.2-0.5
	c0-0.1-0.1-0.1-0.1-0.2l0-0.2l-0.4-7.9l5.4-2.9c0,0-0.4,0-0.5,0.1c-0.1,0-0.1,0.1-0.1,0.1c-0.1,0.1-0.1,0.1-0.2,0.1l-4.7,2.2
	c-0.1,0-0.1,0-0.2,0c-0.7-0.3-1.4-0.5-2.2-0.9c-0.4-0.2-2.2-1.3-2.4-1.4c0,0-0.1-0.1-0.1-0.1c-0.2-0.2-0.7-0.4-0.7-0.4
	s0.5,0.5,1,0.8c0.8,0.6,2.5,1.7,3.4,2.1c0.4,0.2,0.9,0.4,0.9,0.4l0.2,7.7l0,0.3c0,0.1,0,0.1-0.1,0.2c-0.1,0.1-0.1,0.2-0.2,0.3
	c0,0.1,0.1,1.5,0,1.9c-0.1,1.1-1.5,1.5-2.6,1.5c-0.6,0-4.4-0.3-4.9-0.3c-1,0.1-2.8,0.5-3.5,1.3c-0.2,0.3-0.6,0.8-0.6,0.8l-0.5-2
	l-1.1,0.9l-0.5-2.1c0,0-0.4,0.3-0.5,0.6c-0.2,0.2-0.4,0.7-0.4,0.7s-0.1-0.1-0.1-0.2c-0.1-0.1-0.1-0.6-0.1-0.8c0-1,0.3-1.6,1.1-2.3
	c0.2-0.1,1.2-0.7,2.1-1.2c0.4-0.3,0.9-0.5,1.2-0.7c0.2-0.1,0.4-0.2,0.5-0.3c0.2-0.1,0.7-0.8,0.8-1c0.6-1.1,1.1-4.4,0.9-6
	c-0.2-1.8-0.5-2.1-0.1-3.6c0-0.1,0-0.2,0.1-0.3c0.2-0.2,0.6-0.5,0.6-0.5s-0.5-0.3-0.8-0.6c-1.2-0.9-1.5-1.5-2.3-2.7
	c-0.2-0.3-0.9-1.8-1.3-2.6l-4.7-3.4c0,0,0,0,0,0l0.1-2h0.1l0,0.1l0-1.4c0-0.1,0-0.1-0.1-0.2c-1.1-0.8-1.7-1.4-1.9-2.8
	c-0.1-0.3-0.1-0.7-0.1-0.7s-0.3,0.3-0.5,0.6c-0.3,0.4-0.5,1.2-0.5,1.8c0,0.5,0.4,2.1,0.4,2.1l-1.9-0.2c0,0,0.4-0.6,0.6-1.1
	c0.8-1.4,0.8-2.5,0.1-3.8c-0.3-0.6-0.8-1.1-1.4-1.4c-0.3-0.1-0.7-0.3-0.7-0.3s0.3-0.3,0.4-0.4c0.2-0.3,0.4-1,0.3-1.2
	c0,0-0.1,0-0.2,0c-0.3,0.1-1.2,0.6-1.2,0.6s0.2-0.3,0.3-0.6c0.1-0.3,0.1-0.5,0.1-0.5s0.4,0.1,0.6,0.2c0.7,0.2,0.8,0.2,1.3,0
	c0.1,0,0.2-0.1,0.2-0.2c0-0.1,0.1-0.2,0.1-0.2s-0.3-0.2-0.5-0.3c-0.7-0.5-1-1.8-1-2.7c0-0.4,0-1,0-1s0.5,0.1,0.7,0.1
	c0.2,0,0.3,0.1,0.5,0.2c0.2,0.1,0.5,0.3,0.5,0.3s0-0.5,0-0.9c0-1-0.4-1.9-0.9-2.6c-0.3-0.5-2.3-3.1-2.3-3.1s0.3-0.1,0.4-0.1
	c0.3,0,0.8,0.1,1,0.3c0,0,0.8,0.7,1,0.6c0.2-0.1,0.1-0.6,0-0.8c-0.1-0.4-0.2-0.5-0.6-0.9c-0.1-0.1-0.1-0.1-0.2-0.2l-4.9-3.3
	c0,0,1.3-0.5,1.5-0.6c0.2,0,1.3,0,1.3,0s-0.3-0.3-0.4-0.4c-0.1-0.1-0.3-0.2-0.4-0.3c-0.6-0.2-3.9-1-4.5-1.2
	c-0.7-0.3-1.3-0.6-1.9-0.8c-1.4-0.6-3.9-1.1-5.4-1.2c-1.1-0.1-2.6,0-2.6,0l0,4.4c0,0.1,0,0.1,0,0.3c-0.1,0.3-0.1,0.7-0.2,1
	c-0.1,0.4-0.7,2.1-0.8,2.4l0,0c-0.3,0-2.2,1.2-2.7,1.6c-1.7,1.2-3.3,3.3-3.9,5.3c-0.1,0.4-0.3,0.9-0.4,1.2c-0.1,0.2-0.7,0.9-1,1.3
	c-1.1,1.4-2.8,5.8-3.2,6.9c-0.9,2.6-1.7,5.4-2.3,8.2c-0.2,0.9-0.4,2-0.4,2s-0.4-0.2-0.7-0.3c-0.7-0.2-1.7,0.1-2.3,0.5
	c-0.5,0.3-1.3,0.8-1.3,0.8s0.2-0.8,0.4-1.4c0.2-0.8,0.4-1.7,0.5-2.1c0.1-1.1,0.5-3.4,0.5-3.5c0.1-0.2,0.2-0.3,0.3-0.5
	c0.1-0.2,0.1-0.4,0.2-0.6c0.4-1.4,1-5.4,1.2-7.1c0.1-1.1,0.2-2.2,0.2-3.4c0-0.1,0-0.1,0-0.2c0,0,0-0.1-0.1-0.1c-0.1,0-0.2,0-0.2,0
	s-0.3,3.2-0.5,5.1c-0.1,0.9-0.4,3-0.6,3.8c-0.2,0.8-0.4,1.8-0.4,1.8l0.1-2.5c0.4-2.2,0.8-4.9,0.8-5.1c0-1.3,0.1-5.3,0.2-6.1
	c0.2-2.2,0.6-3.3,1.4-6.6c0-0.1,0-0.1,0-0.2c-0.1-0.6-0.2-1.1-0.2-1.7c0-0.5,0.1-2.9,0.1-3.5c0.1-0.5,0.4-2.9,0.8-3.5
	c0,0,0-0.1,0.1-0.1c0,0,0,0,0-0.1l-0.2-0.3c0,0,0.3-0.1,0.4-0.2c0,0,0.1-0.4,0.1-0.5c0-0.1,1-2.3,1.3-2.9c1.4-2.6,1.3-2.6,2.7-4.1
	c0.3-0.3,1.2-1.1,1.5-1.3c0.5-0.3,2.8-1.5,2.8-1.5l-0.2-2c0,0-0.1,0-0.2,0.1c0.3-0.2,0.6-0.3,0.6-0.3s0.2,1.9,0.3,2.1
	c0.2,0.5,0.5,0.7,1,0.3c0.2-0.1,0.5-0.4,0.5-0.4s-0.2-0.3-0.3-0.6c-0.5-0.9-1.4-3.4-0.5-4c0.7-0.5,3.2-1,3.9-0.9
	c0.9,0.1,0.3,1.4,0.3,2.7c0,0.5,0.2,1.1,0.6,1.2c0.4,0.1,0.8,0,0.8-0.1c0-0.1,0-0.3-0.1-0.3c-0.1-0.1-0.1-0.1-0.2-0.1c0,0,0,0,0-0.1
	c0.2,0,0.7,0.1,0.9,0.1c0.2,0,8.8,2.3,13.2,3.5c0.1,0,0.1,0,0.1,0.1l0,0.1l-2.7-0.4c0,0,0.5,0.4,0.8,0.6c0.3,0.2,1.5,0.7,1.5,0.7
	s-6.3-1.5-6.8-1.6c-0.5-0.1-1.8-0.2-2.1,0.1c-0.3,0.2-0.2,0.3,0,0.5c0.1,0.1,0.6,0.3,1,0.4c0.7,0.2,1.5,0.5,2.2,0.7
	c0.8,0.2,8.4,1.7,9.1,1.9c1.3,0.4,4.8,1.6,4.8,1.6v0c2.7,1,5.2,2.8,8,4.7c0.6,0.4,2.4,1.9,2.8,2.3c1.1,1.1,3.1,3.1,3.5,3.5
	c0.3,0.2,0.5,0.5,0.6,0.4c0.1-0.1,0.3-0.3,0.3-0.3l-3-4.4c0,0,0.2,0,0.5,0.1c0.1,0,1.5,1.3,1.6,1.3c0.2,0.1,0.5,0.1,0.5,0.1
	l-0.4-1.1c0,0,0.7,0.4,1.3,0.8c0.5,0.3,7,3.4,7.5,3.7c0.9,0.6,2.4,1.6,2.6,2.5c0.1,0.3,0,2.6,0,2.6s0.3-0.2,0.5-0.4
	c0.5-0.4,1-0.9,1-0.9s0.2,0.5,0.4,0.8c0.2,0.4,0.3,1.1,0.3,1.6c0,0.3-0.1,0.8-0.1,0.8s0.6-0.4,0.8-0.6c0.3-0.2,0.5-0.5,0.5-0.5
	s0.1,0.4,0.1,0.7c0,0.3,0.3,1.3,0.4,1.4c0.1,0.1,0.1,0.2,0.1,0.3c0,0,0,0.1,0,0.1s-0.1-0.1-0.1-0.1c0,0-0.3,0.2-0.4,0.2c0,0,0,0,0,0
	c0.1,0.1,0.2,0.3,0.3,0.4c0.1,0.1,0.2,0.2,0.3,0.3c0.4,0.3,0.5,0.2,0.6,0.6c0.1,0.5,0,1.2-0.2,1.7c-0.2,0.7-0.6,1.7-0.6,1.7
	s0.3-0.1,0.5-0.2c0.6-0.4,1.4-1.6,1.6-2c0.1-0.3,0.3-0.5,0.4-0.9c0.1-0.3,0.5-3.1,0.6-3.6c0.1-1.9-0.9-3.7-2.5-5.6
	c-0.4-0.5-1-1.1-1-1.1s1.5-2.8,2.6-4.7c1.3-2.3,3.5-5.5,5.3-7.3c0.2-0.2,2.3-2,3.5-3c-0.2,0.3-0.3,0.7-0.5,1.1
	c-0.3,0.8-0.5,1.7-0.5,2.6c0,0.5,0,1.4,0,1.4h0.1c0,0,0.1,0,0.1-0.1c0.6-1.8,1.4-2.8,2.9-4c0.2-0.2,0.5-0.3,0.8-0.5
	c0.2-0.1,0.3-0.2,0.5-0.3l3-1.2c0.6-0.2,1.5-0.3,2-0.3c0.4,0,1.1,0.2,1.1,0.2s-0.5,0.2-0.7,0.4c-0.4,0.3-0.6,0.5-0.8,1
	c0,0.1-0.1,0.1-0.1,0.2c0,0.1,0,0.2,0,0.2s3.3,0.4,3.7,0.5c0.8,0.2,2,0.7,2.6,1.3c1,1,1.8,2.4,2,3.7c0.1,0.8,0,1.3-0.5,1.1
	c-0.3-0.1-0.9-0.6-0.9-0.6s0,0.2,0,0.3c0.1,0.8,0.7,1.6,1.4,2.2c0.1,0,0.1,0.1,0.1,0.1c0.1,0.1,0.7,0.9,0.8,1.2
	c0.4,0.7,2.3,5.1,2.3,5.1s-0.5,0.1-0.7,0.2c-0.1,0-0.4,0.2-0.5,0.3c-0.1,0.1-0.4,0.4-0.4,0.4s1.3,1.3,1.5,1.6c0.1,0.1,1.3,4,1.3,4.2
	c0,0.2-0.1,1.1-0.2,1.3c-0.1,0.4-0.4,1-0.4,1s-0.2-0.3-0.4-0.5c-0.4-0.4-0.9-0.7-1.4-0.5c-0.1,0.1-0.3,0.1-0.3,0.1s0.8,2.6,1,3.1
	c0.1,0.3,1.2,2,1.7,2.9c0.8,1.4,1.2,2.6,1.1,4.3c0,0,0,0,0,0l0,0l-1.2-2.6c0,0-0.1,0.5-0.2,0.8c-0.1,0.8,0.2,1.7,0.4,2.4
	c0.2,0.7,1.6,3.9,1.8,4.6c0.2,0.6,0.8,2.6,0.8,3.6C236.1,51.4,236,51.9,236,51.9z"/>
<path fill="#19191C" d="M147.2,17.8c-0.2-0.4-0.4-0.8-0.4-0.8s0.2-0.2,0.3-0.4c0.3-0.3,1.1-1.6,1.1-1.8c0-0.2,0.1-0.3,0.1-0.3
	s-0.5,0.1-0.7,0.1c-0.1,0-0.2,0-0.3-0.1c-0.4-0.3-0.9-0.5-1.3-0.5c-0.3,0-1.5,0.2-1.8,0.1c-0.2,0-0.7-0.2-1.1-0.3
	c-1-0.3-2.2-0.2-3.1,0.2c-0.5,0.2-2.7,1.6-3,1.7c-0.5,0.2-1.4,0.4-1.4,0.4s0.2,0.4,0.3,0.6c0,0,0,0.1,0.1,0.1c0,0,0.1,0,0.2,0.1
	c0.5,0.2,1.3,0.6,1.5,0.7c0.1,0.1,0.4,0.6,0.4,0.7c0,0.2-0.3,1.1-0.3,1.3c0,0.2,0.2,0.9,0.3,1.1c0.1,0.1,0.3,0.2,0.4,0.3
	c0.3,0.3,0.2,1.1,0.3,1.6c0.1,0.7,0.5,1.1,1.2,1.7c1.7,1.5,4.3,1.7,6.1,0.4c0.8-0.6,1-1.1,1.3-2.1c0.1-0.4,0.3-0.9,0.3-1.1
	c0.1-0.5,0.1-1.1,0.2-1.1c0.1-0.1,0.4-0.1,0.6-0.3c0.2-0.1,0.4-0.3,0.4-0.4c0.1-0.2,0.1-0.6,0.1-0.6l-1.1,0
	C147.7,19,147.4,18.3,147.2,17.8z M140,18.5c0.4-1.2,1.6-2,2.6-2.2c1.2-0.2,2.2,0.3,3.1,1.3c0.1,0.1,0.2,0.2,0.3,0.4
	c0.2,0.4,0.6,1.2,0.6,1.2l-6.8,0.3C139.7,19.5,139.8,18.9,140,18.5z M146.7,21c0,0.2,0,0.4-0.1,0.6c-0.1,0.3-0.3,0.8-0.3,0.8
	s-0.5-0.6-0.8-0.9c-0.4-0.4-1.3-0.5-1.9-0.5c-0.7,0.1-1.4,0.5-1.6,1c-0.1,0.3-0.4,1.4-0.4,1.4s-0.3-0.2-0.5-0.3
	c-0.2-0.2-0.6-0.6-0.7-0.8c-0.2-0.3-0.6-1.3-0.6-1.3l7-0.7C146.7,20.4,146.7,20.8,146.7,21z"/>
<path fill="#19191C" d="M147,24.4c-0.3,0.7-1.2,1.5-1.8,1.8c-0.5,0.2-1.2,0.3-1.8,0.3c-0.1,0-0.3,0-0.5,0c-0.7-0.1-1.8-0.3-1.9-0.3
	c-0.1,0-0.2,0.1-0.2,0.3c0.1,0.2,0.8,0.5,0.9,0.5c2,0.6,4.5,0.1,5.7-1.8c0.3-0.4,0.8-1.5,0.3-1.8C147.3,23.1,147.2,23.9,147,24.4z"
	/>
<path fill="#19191C" d="M155,34.6c-0.5-0.1-1.8,0.1-2.2,0.2c-0.5,0.1-1.1,0.3-1.1,0.3l1.6-2.8c0,0-0.2,0-0.4-0.1
	c-0.5-0.1-1.1,0.1-1.5,0.5c-0.1,0.1-0.1,0.1-0.1,0.2l-1.3,2.4c-0.1,0.1-0.1,0.1-0.2,0.1c-0.4,0.1-0.9,0.2-1.3,0.4
	c-0.4,0.1-1.5,0.6-1.7,0.7c-0.2,0.2-0.3,1.2,0,1.7c0,0,0,0,0.1,0.1c0,0,0,0,0.1,0c0.5-0.3,1.3-0.7,1.6-0.8c0.5-0.2,1.1-0.3,1.1-0.3
	s-0.2,1.2-0.2,1.8c0,0.3,0,1,0,1.4c0,0.2,0.1,0.5,0.1,0.5s0.5-0.1,0.7-0.1c0.2,0,0.7,0.1,0.7,0.1s-0.1-0.5-0.1-0.8
	c-0.1-0.8,0.1-2.2,0.5-3.2c0-0.1,0.1-0.1,0.2-0.2c1-0.4,2-0.6,3.2-0.6c0.4,0,0.9,0,0.9,0l-0.2-1.3C155.4,34.7,155.2,34.7,155,34.6z"
	/>
<path fill="#19191C" d="M202.7,40.7c0,0,0-0.3-0.1-0.4c0-0.2,0-0.2-0.1-0.3c-0.1-0.2-0.5-0.6-0.5-0.6s0,0.2,0,0.4
	c0,0.1-0.3,0.9-0.4,1c-0.1,0.2-0.3,0.4-0.3,0.4s0-0.3-0.1-0.5c-0.1-0.2-0.2-0.4-0.2-0.4s-0.6,0.7-0.8,0.8c-0.5,0.3-1.3,0.4-1.9,0.2
	c-0.4-0.2-0.8-0.5-0.9-0.8c-0.1-0.2-0.2-1.3-0.2-1.3l-0.6,0.5c0,0-0.1-0.2-0.1-0.4c0-0.2,0-0.6,0.1-0.7c0.1-0.2,0.3-0.4,0.3-0.4
	s-0.3,0-0.5,0c-0.1,0-0.2,0-0.3,0.1c-0.1,0.1-0.4,0.2-0.4,0.2s-0.1-0.3-0.2-0.6c-0.2-0.9,0-2.2,0.6-2.9c0.2-0.2,0.6-0.6,0.6-0.6
	l-0.4-0.3c-0.1-0.1-0.4-0.2-0.5-0.1c-0.2,0-0.7,0.2-0.7,0.2s-0.2-0.5-0.3-0.8c-0.3-0.8-0.5-1.8-0.4-2.5c0-0.5,0.2-1.4,0.2-1.4
	s-0.5,0.2-0.8,0.3c-1.1,0.4-2.7-0.2-3.5-1.1c-0.3-0.3-0.7-0.8-0.7-0.8s-0.1,0.2-0.2,0.3c-0.1,0.3,0.8,1.8,0.9,1.9
	c0.2,0.3,1.4,1.4,1.9,1.6c0.2,0.1,0.4,0.1,0.4,0.1l0.2-0.4l0.2,2.7c0,0.1,0,0.1,0,0.2c0,0.2,0.1,0.3,0.2,0.5
	c0.2,0.5,0.7,1.4,0.7,1.4s0.2-0.1,0.4-0.2c0.2-0.1,0.5-0.5,0.5-0.5s-0.2,0.6-0.4,1c-0.6,1.6-0.1,3.4,0.8,4.8
	c0.2,0.3,0.5,0.6,0.6,0.7c0.1,0,0.1,0.1,0.1,0.1c0,0,0,0.1,0,0.1c0,0.1,1.2,0.8,1.5,1c0.3,0.1,1.1,0.4,1.3,0.4
	c0.6,0.1,1.5,0.1,1.5,0.1l-0.1,0c0,0,1-0.2,1.5-0.4c0.4-0.1,0.7-0.3,1-0.5c1.2-0.8,2.1-2.1,2.5-3.4c0.3-0.9,0.4-2.2-0.4-2.8
	c-0.2-0.1-0.4-0.2-0.4-0.2s0,0.3,0,0.6c0,0,0,0,0,0c-0.1,0.7-0.7,1.9-1.1,2.5C203.1,40.1,202.7,40.7,202.7,40.7z"/>
</svg>
