<?xml version="1.0" encoding="utf-8"?>
<!-- Generator: Adobe Illustrator 18.0.0, SVG Export Plug-In . SVG Version: 6.00 Build 0)  -->
<!DOCTYPE svg PUBLIC "-//W3C//DTD SVG 1.1//EN" "http://www.w3.org/Graphics/SVG/1.1/DTD/svg11.dtd">
<svg version="1.1" id="Layer_1" xmlns="http://www.w3.org/2000/svg" xmlns:xlink="http://www.w3.org/1999/xlink" x="0px" y="0px"
	 viewBox="0 0 250 80" enable-background="new 0 0 250 80" xml:space="preserve">
<g>
	<path fill="#19191C" d="M34,6.1C15.9,6.1,1.2,20.8,1.2,38.9c0,9.7,4.2,18.4,10.8,24.4l13.4-40.7c1.2-2.5,2.7-3.1,4.5-3.1h7.5
		c0.4,0,0.7,0,1.1,0c-2,0.7-4.1,2.6-5.1,6c-0.2,0.6-0.7,2.2-0.9,2.6l-2.4,8.2L20.8,69c4,1.8,8.5,2.7,13.1,2.7
		c18.1,0,32.8-14.7,32.8-32.8C66.8,20.8,52.1,6.1,34,6.1z M46.9,54.9L45.4,55c-0.2,0-3.5,0.3-4.3-2.4l-0.7-2.4
		c-0.5-1.7-1.3-4.6-1.9-6.3l-0.4-1.3c-0.5-1.7-1.4-5.3-1.9-7.1L35,31c0.3-1.2,0.4-1.9,0.8-3.1c1.3-4.3,4.1-5.2,5.3-5.2
		c0.3,0.2,0.2,0,0.4,0.7c0,0,2.9,11.6,5,19.4l2.3,8.5c0.9,2.9,2.7,3.5,2.7,3.5l0,0H46.9z M54.7,51.7c0,0-0.6,1.6-1.5,1.3
		c-1.9-0.5-2.2-2.8-2.8-4.7c-0.2-0.8-0.1-0.2-0.9-3.3L55.2,33c0,0-0.1,2.7,2.5,2.9c1.6,0.2,3.9-1.8,5.4-2.2L54.7,51.7z"/>
	<path fill="#19191C" d="M87.2,31.3h-3.5l2.2-6.5h10.3l2.1,6.5h-3.6v3.6h11.3v-3.6h-3.2l-7.8-22h3.4V6.1H83.9v3.2h3.4l-7.9,22h-3.5
		v3.6h11.4V31.3z M91,9.3h0.4l3.8,12.1H87L91,9.3z"/>
	<path fill="#19191C" d="M123.5,14.9H116v3.5h3.4v10.9c-1.8,1.6-4.1,2.5-5.7,2.5c-1.5,0-2.4-0.9-2.4-2.9V14.9h-6.8v3.5h2.8v10.7
		c0,4.2,1.9,6.2,5.6,6.2c2.1,0,4.3-0.9,6.5-2.6v2.3h7.4v-3.5h-3.4V14.9z"/>
	<path fill="#19191C" d="M131.7,33.8c1.4,1,3.1,1.4,5.3,1.4c4.6,0,7.7-2.5,7.7-6.1c0-1.4-0.5-3-1.7-4.2c-3.3-3.3-11-1.4-11-4.7
		c0-1.5,1.4-2.5,3.5-2.5c2,0,3.5,0.8,4.7,2.5v1.2h3.5v-6.6h-3.5v0.8c-1.3-0.7-3.1-1.1-4.9-1.1c-4.1,0-7,2.5-7,5.9
		c0,1.5,0.6,2.9,1.6,3.8c3.8,3.8,10.8,1.4,10.8,5.2c0,1.5-1.6,2.5-4.1,2.5c-2.6,0-4.5-1.2-4.8-3.2V28h-3.5v6.9h3.5V33.8z"/>
	<path fill="#19191C" d="M155.4,34.7v-3.6c-1.9,0.7-3.7,0.8-3.7-1.2V18.4h3.7v-3.5h-3.7V8.2l-4,3.6v3.1h-2.6v3.5h2.6v12.1
		c0,3.5,1.9,4.8,4.7,4.8C153.4,35.3,154.4,35,155.4,34.7z"/>
	<path fill="#19191C" d="M162,10.5c1.3,0,2.4-1.1,2.4-2.4c0-1.3-1.1-2.4-2.4-2.4c-1.3,0-2.4,1.1-2.4,2.4
		C159.6,9.4,160.7,10.5,162,10.5z"/>
	<polygon fill="#19191C" points="167.5,31.4 164.3,31.4 164.3,14.9 157.1,14.9 157.1,18.4 160.3,18.4 160.3,31.4 157.1,31.4 
		157.1,34.9 167.5,34.9 	"/>
	<path fill="#19191C" d="M172.3,31.4h-3.4v3.5h10.9v-3.5h-3.4V20.7c2-1.6,4.2-2.5,5.8-2.5c1.6,0,2.3,1.1,2.3,3.6v13.1h7.4v-3.5h-3.4
		V20.2c0-3.9-2.4-5.7-5.3-5.7c-2.1,0-4.1,0.8-6.8,2.8v-2.4h-7.5v3.5h3.5V31.4z"/>
	<path fill="#19191C" d="M86.6,67.4c-5.7,0-10-4.8-10-11.1c0-6.4,4.1-10.9,9.8-10.9c4.1,0,7.6,2.2,9.3,5.9h3.7v-9.2h-3.7v2.6
		c-2.5-2-5.8-3.1-9.5-3.1c-8.6,0-14.3,5.9-14.3,14.9c0,8.7,5.9,14.8,14.4,14.8c7,0,12.3-3.8,13.9-10.1l-3.8-2.1
		C95.1,64.8,90.5,67.4,86.6,67.4z"/>
	<path fill="#19191C" d="M121.3,56.3c0-4.5-2.4-6.1-5.5-6.1c-2.2,0-4.2,0.8-6.7,2.9V42.1h-7.6v3.5h3.6v21.8h-3.6v3.5h11.1v-3.5h-3.4
		v-11c2.2-1.7,4.3-2.6,5.7-2.6c1.9,0,2.5,1.4,2.5,3.4v13.7h7.4v-3.5h-3.4V56.3z"/>
	<path fill="#19191C" d="M142.7,56.4c0-3.2-2-6.1-7.8-6.1c-4.1,0-6.9,1.6-8.6,4.7l3.8,1c0.9-1.6,2.4-2.4,4.3-2.4
		c2.4,0,4.4,1,4.4,3.9V60c-1.6-1.1-3.7-1.7-5.5-1.7c-4.1,0-7.3,2.8-7.3,6.5c0,3.6,3,6.4,6.8,6.4c2.2,0,3.9-0.8,6.4-2.8v2.5h7v-3.5
		h-3.4V56.4z M138.7,65.8c-1.6,1.5-3.6,2.4-5.4,2.4c-2.1,0-3.6-1.4-3.6-3.3c0-2,1.6-3.4,3.8-3.4c1.7,0,3.5,0.7,5.2,2V65.8z"/>
	<path fill="#19191C" d="M179.5,56c0-3.5-2-5.5-5.3-5.5c-2.3,0-4.3,0.9-7.2,3.1c-0.9-2-2.6-3.1-4.8-3.1c-2.2,0-4.4,1-6.8,2.8v-2.5
		H148v3.5h3.4v13.1h-3.6v3.5h11.1v-3.5h-3.4V56.6c2.4-1.7,4.2-2.5,5.6-2.5c1.3,0,2.5,0.7,2.5,2.8v13.9h7.4v-3.5h-3.4V56.6
		c2-1.7,4.1-2.6,5.7-2.6c1.5,0,2.4,1,2.4,2.9v13.9h7.4v-3.5h-3.4V56z"/>
	<path fill="#19191C" d="M199.1,50.3c-2.9,0-5.1,1-7.3,3.4V42.1h-7.4v3.5h3.5v21.8h-3.6v3.5h7.5v-3h0.1c1.4,2,4.2,3.3,7.2,3.3
		c5.6,0,9.8-4.4,9.8-10.6C208.8,54.6,204.7,50.3,199.1,50.3z M198.2,67.7c-3.6,0-6.3-2.9-6.3-6.8c0-4.1,2.6-7,6.4-7
		c2.7,0,6.3,1.8,6.3,6.7C204.6,64.7,201.9,67.7,198.2,67.7z"/>
	<path fill="#19191C" d="M221,50.3c-5.2,0-10.5,4.1-10.5,10.6c0,6.2,4.7,10.6,11.2,10.6c4.3,0,7.9-1.9,10-5.2l-3.5-1.5
		c-1.5,2.1-3.9,3.3-6.5,3.3c-3.7,0-6.3-2.2-6.9-6.1h16.8C231.7,54.5,226.5,50.3,221,50.3z M214.9,58.9c0.6-3.3,3-5.5,6.1-5.5
		c3.1,0,5.9,2.3,6.6,5.5H214.9z"/>
	<path fill="#19191C" d="M246.5,50.5c-2.5,0-5,1.5-6.3,4.8h-0.1v-4.5h-7.2v3.5h4v13.1H233v3.5h12.3v-3.5H241v-5.7
		c0-4.6,1.4-7.2,6-7.2h2.1v-4H246.5z"/>
</g>
</svg>
