<?xml version="1.0" encoding="utf-8"?>
<!-- Generator: Adobe Illustrator 18.0.0, SVG Export Plug-In . SVG Version: 6.00 Build 0)  -->
<!DOCTYPE svg PUBLIC "-//W3C//DTD SVG 1.1//EN" "http://www.w3.org/Graphics/SVG/1.1/DTD/svg11.dtd">
<svg version="1.1" id="Layer_1" xmlns="http://www.w3.org/2000/svg" xmlns:xlink="http://www.w3.org/1999/xlink" x="0px" y="0px"
	 viewBox="0 0 250 80" enable-background="new 0 0 250 80" xml:space="preserve">
<g>
	<path fill="#19191C" d="M88.8-0.4c-0.2,0-0.3,0.1-0.3,0.3v9.8c0,0.2,0.1,0.3,0.3,0.3h4.1v43h-4.1c-0.2,0-0.3,0.1-0.3,0.3V63
		c0,0.2,0.1,0.3,0.3,0.3h10.1l2.4-3.9c3.9,3.2,8.9,5.1,14.4,5.1c12.6,0,22.8-10.2,22.8-22.8c0-12.6-10.2-22.8-22.8-22.8
		c-3,0-5.9,0.6-8.5,1.6c-0.1,0.1-0.1,0.1-0.1,0.2v11.7c0,0.1,0.1,0.2,0.2,0.2c0,0,0.1,0,0.1,0l0,0c2.2-2,5.1-3.3,8.4-3.3
		c6.8,0,12.3,5.5,12.3,12.3c0,6.8-5.5,12.3-12.3,12.3c-6.8,0-12.3-5.5-12.3-12.3v-37c0-2.9-2.3-5.2-5.2-5.2H88.8z"/>
	<g>
		<g>
			<g>
				<g>
					<path fill="#19191C" d="M89.6,79.3v-8.5h-1.1v-0.9h2.3v3.6c0.8-0.4,1.5-0.6,2-0.6c2,0,2.6,1.5,2.6,3.6c0,1.9-0.7,3.5-3,3.5
						C91.5,79.9,90.4,79.7,89.6,79.3z M90.7,74.4v4.3c0.6,0.3,1.2,0.3,1.6,0.3c1.1,0,1.8-0.6,1.8-2.5c0-2.2-0.7-2.7-1.6-2.7
						C91.9,73.8,91.2,74.1,90.7,74.4z"/>
					<path fill="#19191C" d="M101.9,79h1.1l0.1,0.7c-0.3,0.2-1,0.3-1.4,0.3c-0.5,0-0.8-0.1-0.9-0.8c0,0,0,0,0,0
						c-1,0.9-1.9,0.9-2.3,0.9c-1.6,0-2-1.2-2-2c0-1.2,0.9-1.9,2.6-2l1.7-0.1v-0.4c0-1.2-0.3-1.6-1.5-1.6c-0.7,0-1.4,0.1-2.1,0.4
						c-0.1-0.3-0.2-0.5-0.2-0.8c0.8-0.3,1.8-0.5,2.6-0.5c1.4,0,2.3,0.6,2.3,2.3V79z M99.1,76.7c-0.9,0.1-1.4,0.5-1.4,1.2
						c0,0.8,0.4,1.1,1.3,1.1c0.6,0,1.3-0.3,1.8-0.8v-1.6L99.1,76.7z"/>
					<path fill="#19191C" d="M105.1,79h3.2v-1.1h0.9v1.9h-5.6V79l4-5.1h-2.9V75H104v-2h5.1v0.8L105.1,79z"/>
					<path fill="#19191C" d="M115.4,79h1.1l0.1,0.7c-0.3,0.2-1,0.3-1.4,0.3c-0.5,0-0.8-0.1-0.9-0.8c0,0,0,0,0,0
						c-1,0.9-1.9,0.9-2.3,0.9c-1.6,0-2-1.2-2-2c0-1.2,0.9-1.9,2.6-2l1.7-0.1v-0.4c0-1.2-0.3-1.6-1.5-1.6c-0.7,0-1.4,0.1-2.1,0.4
						c-0.1-0.3-0.2-0.5-0.2-0.8c0.8-0.3,1.7-0.5,2.6-0.5c1.4,0,2.3,0.6,2.3,2.3V79z M112.6,76.7c-0.9,0.1-1.4,0.5-1.4,1.2
						c0,0.8,0.4,1.1,1.3,1.1c0.6,0,1.3-0.3,1.8-0.8v-1.6L112.6,76.7z"/>
					<path fill="#19191C" d="M122.4,79h1.1l0.1,0.7c-0.3,0.2-1,0.3-1.4,0.3c-0.5,0-0.8-0.1-0.9-0.8c0,0,0,0,0,0
						c-1,0.9-1.9,0.9-2.3,0.9c-1.6,0-2-1.2-2-2c0-1.2,0.9-1.9,2.6-2l1.7-0.1v-0.4c0-1.2-0.3-1.6-1.5-1.6c-0.7,0-1.4,0.1-2.1,0.4
						c-0.1-0.3-0.2-0.5-0.2-0.8c0.8-0.3,1.7-0.5,2.6-0.5c1.4,0,2.3,0.6,2.3,2.3V79z M119.6,76.7c-0.9,0.1-1.4,0.5-1.4,1.2
						c0,0.8,0.4,1.1,1.3,1.1c0.6,0,1.3-0.3,1.8-0.8v-1.6L119.6,76.7z"/>
					<path fill="#19191C" d="M126.4,73.9c0.5-0.5,1.6-1.1,2.4-1.1c0.2,0,0.4,0.1,0.4,0.4c0,0.3-0.1,0.8-0.4,1.1l-2.4,0.1V79h1.1v0.9
						h-3.2V79h1v-5.1h-1V73h2.1L126.4,73.9L126.4,73.9z"/>
				</g>
			</g>
		</g>
		<g>
			<g>
				<path fill="#19191C" d="M129.8,73.1h1.6l1,3l0.9,2.8h0.1c0.2-0.8,0.5-1.7,0.8-2.5c0.3-0.8,0.5-1.6,0.8-2.5h-0.6v-0.9h2.5V74H136
					c-0.7,2-1.4,3.9-2.1,5.9h-1.4l-2-5.9h-0.8V73.1z"/>
				<path fill="#19191C" d="M140.3,80c-2.2,0-2.9-1.6-2.9-3.5c0-1.8,0.8-3.6,3.1-3.6c2.3,0,3,1.8,3,3.6
					C143.4,78.2,142.6,80,140.3,80z M140.4,73.8c-1.5,0-1.9,1.4-1.9,2.7c0,1.4,0.3,2.6,1.9,2.6c1.5,0,1.8-1.3,1.8-2.6
					C142.2,75.3,141.9,73.8,140.4,73.8z"/>
				<path fill="#19191C" d="M144.2,74v-0.9h1.8V79h1v0.7c-0.4,0.2-0.9,0.3-1.2,0.3c-0.6,0-0.9-0.2-1-1v-5H144.2z"/>
				<path fill="#19191C" d="M153.2,73.3v1.8h-0.9V74c-0.3-0.1-0.7-0.1-0.9-0.1c-1.5,0-2.2,1-2.2,2.7c0,1.6,0.5,2.5,1.9,2.5
					c0.7,0,1.3-0.1,2-0.4l0.3,0.8c-0.6,0.3-1.5,0.6-2.4,0.6c-2.3,0-3-1.5-3-3.4c0-1.5,0.5-3.7,3.1-3.7
					C151.9,72.9,152.6,73,153.2,73.3z"/>
				<path fill="#19191C" d="M160.1,76.2v0.6h-4.5c0,1.3,0.4,2.3,1.9,2.3c0.8,0,1.4-0.2,2.2-0.5l0.3,0.7c-0.8,0.4-1.6,0.6-2.5,0.6
					c-2.4,0-3-1.7-3-3.5c0-1.2,0.5-3.6,3-3.6C160,72.9,160.1,75.3,160.1,76.2z M155.5,75.9h3.4c0-1.2-0.4-2.1-1.6-2.1
					C156.1,73.8,155.6,74.8,155.5,75.9z"/>
			</g>
		</g>
	</g>
	<g>
		<g>
			<path fill="#19191C" d="M150.5,36.1c4.7,0,8.6-3.8,8.6-8.6c0-4.7-3.8-8.6-8.6-8.6c-4.8,0-8.7,3.8-8.7,8.6
				C141.8,32.3,145.7,36.1,150.5,36.1z"/>
			<path fill="#19191C" d="M150.5,64.5c4.7,0,8.6-3.8,8.6-8.6c0-4.7-3.8-8.6-8.6-8.6c-4.8,0-8.7,3.8-8.7,8.6
				C141.8,60.7,145.7,64.5,150.5,64.5z"/>
		</g>
		<path fill="#19191C" d="M159.9,61.2c0.9,0,1.7,0.8,1.7,1.7c0,0.9-0.8,1.7-1.7,1.7c-0.9,0-1.7-0.7-1.7-1.7
			C158.2,62,158.9,61.2,159.9,61.2z M159.9,64.3c0.8,0,1.4-0.6,1.4-1.4c0-0.8-0.6-1.4-1.4-1.4c-0.8,0-1.4,0.6-1.4,1.4
			C158.4,63.7,159.1,64.3,159.9,64.3z M159.2,63.6l0.2,0v-1.4l-0.2,0v-0.2h0.9c0.4,0,0.6,0.1,0.6,0.5c0,0.3-0.1,0.5-0.4,0.5l0.3,0.6
			l0.2,0v0.2h-0.4l-0.3-0.8h-0.3v0.5l0.2,0v0.2h-0.6V63.6z M160,62.8c0.2,0,0.3-0.1,0.3-0.3c0-0.2-0.1-0.3-0.3-0.3h-0.4v0.6H160z"/>
	</g>
</g>
</svg>
