<?xml version="1.0" encoding="utf-8"?>
<!-- Generator: Adobe Illustrator 18.0.0, SVG Export Plug-In . SVG Version: 6.00 Build 0)  -->
<!DOCTYPE svg PUBLIC "-//W3C//DTD SVG 1.1//EN" "http://www.w3.org/Graphics/SVG/1.1/DTD/svg11.dtd">
<svg version="1.1" id="Layer_1" xmlns="http://www.w3.org/2000/svg" xmlns:xlink="http://www.w3.org/1999/xlink" x="0px" y="0px"
	 viewBox="0 0 250 80" enable-background="new 0 0 250 80" xml:space="preserve">
<path fill="#19191C" d="M71.9,31.1H45.6l-8-24.7l-8,24.7H3.4l21,15.5l-8,24.9L37.6,56l21.2,15.5l-8-24.9L71.9,31.1z M56,67.5
	L37.6,42.1v12.1L19.3,67.5l18.2-25.4l-11.4,3.7l-17.9-13l29.4,9.3l-7.1-9.6l7.1-21.6v31.2l7-9.6H67l-29.4,9.6l11.3,3.7L56,67.5z"/>
<polygon fill="#19191C" points="16.4,71.5 58.8,71.5 37.6,67 "/>
<g>
	<path fill="#19191C" d="M78.9,21.7h11.4c1.4,0,2.6,0.2,3.6,0.5c0.9,0.3,1.9,0.8,2.5,1.5c0.5,0.5,0.8,0.9,1.1,1.5
		c0.3,0.6,0.3,1.2,0.3,2l0,0c0,1.2-0.3,2.3-0.9,3.1c-0.6,0.8-1.4,1.4-2.5,1.9c1.4,0.5,2.5,1.1,3.2,1.9c0.8,0.8,1.2,2,1.2,3.6l0,0
		c0,2-0.8,3.4-2.2,4.5c-1.5,1.1-3.6,1.7-6.2,1.7H78.9V21.7z M88.8,30.7c0.9,0,1.7-0.2,2.2-0.5c0.5-0.3,0.8-0.8,0.8-1.4l0,0
		c0-0.6-0.3-1.1-0.8-1.4c-0.5-0.3-1.2-0.5-2.2-0.5h-4v3.9h4V30.7z M89.7,39.2c0.9,0,1.7-0.2,2.2-0.5c0.5-0.3,0.8-0.9,0.8-1.5l0,0
		c0-0.6-0.3-1.1-0.8-1.4c-0.5-0.3-1.2-0.6-2.3-0.6h-4.8v4.2h4.9V39.2z"/>
	<path fill="#19191C" d="M113.3,44.6c-1.5,0-3.1-0.2-4.3-0.6c-1.2-0.5-2.3-1.1-3.2-1.9c-0.9-0.8-1.5-1.9-2-3.2
		c-0.5-1.2-0.8-2.8-0.8-4.5V21.7h6.3v12.4c0,1.5,0.3,2.8,1.1,3.6c0.8,0.8,1.7,1.2,2.9,1.2c1.2,0,2.2-0.3,2.9-1.1
		c0.8-0.8,1.1-1.9,1.1-3.6V21.7h6.3v12.4c0,1.9-0.3,3.4-0.8,4.6s-1.2,2.3-2.2,3.2c-0.9,0.8-2,1.4-3.2,1.9
		C116.4,44.3,115,44.6,113.3,44.6z"/>
	<path fill="#19191C" d="M129.3,21.7h6.2v16.9h10.8V44h-17V21.7z"/>
	<path fill="#19191C" d="M150.4,21.7h6.2v16.9h10.8V44h-17V21.7z"/>
	<path fill="#19191C" d="M183.1,44.6c-1.7,0-3.2-0.3-4.8-0.9c-1.4-0.6-2.8-1.4-3.9-2.5c-1.1-1.1-1.9-2.3-2.5-3.7
		c-0.6-1.4-0.9-2.9-0.9-4.5l0,0c0-1.5,0.3-3.1,0.9-4.5c0.6-1.4,1.4-2.6,2.5-3.7c1.1-1.1,2.3-1.9,3.9-2.5c1.4-0.6,3.1-0.9,4.8-0.9
		c1.7,0,3.2,0.3,4.8,0.9c1.4,0.6,2.8,1.4,3.9,2.5c1.1,1.1,1.9,2.3,2.5,3.7c0.6,1.4,0.9,2.9,0.9,4.5l0,0c0,1.5-0.3,3.1-0.9,4.5
		c-0.6,1.4-1.4,2.6-2.5,3.7c-1.1,1.1-2.3,1.9-3.9,2.5C186.5,44.3,184.8,44.6,183.1,44.6z M183.1,39c0.9,0,1.7-0.2,2.3-0.5
		c0.6-0.3,1.2-0.8,1.9-1.2c0.6-0.5,0.9-1.2,1.1-1.9c0.3-0.8,0.5-1.5,0.5-2.3l0,0c0-0.8-0.2-1.5-0.5-2.3c-0.3-0.8-0.6-1.4-1.2-1.9
		c-0.5-0.6-1.1-0.9-1.9-1.4c-0.8-0.3-1.5-0.5-2.3-0.5c-0.9,0-1.7,0.2-2.3,0.5s-1.2,0.8-1.9,1.2c-0.5,0.6-0.9,1.2-1.1,1.9
		c-0.3,0.8-0.5,1.5-0.5,2.3l0,0c0,0.8,0.2,1.5,0.5,2.3c0.3,0.8,0.6,1.4,1.2,1.9c0.6,0.5,1.1,0.9,1.9,1.4C181.5,39,182.3,39,183.1,39
		z"/>
	<path fill="#19191C" d="M210.7,44.6c-1.5,0-3.1-0.3-4.5-0.9c-1.4-0.6-2.6-1.4-3.7-2.5c-1.1-1.1-1.9-2.3-2.5-3.7
		c-0.6-1.4-0.9-2.9-0.9-4.6l0,0c0-1.5,0.3-3.1,0.9-4.5c0.6-1.4,1.4-2.6,2.5-3.7c1.1-1.1,2.3-1.9,3.7-2.5s2.9-0.9,4.6-0.9
		c1.1,0,2.2,0.2,3.1,0.3s1.9,0.6,2.6,0.9c0.8,0.5,1.5,0.9,2.2,1.5s1.2,1.2,1.7,1.9l-4.6,3.6c-0.6-0.8-1.4-1.4-2.2-1.9
		s-1.7-0.8-2.8-0.8c-0.8,0-1.5,0.2-2.2,0.5c-0.6,0.3-1.2,0.8-1.7,1.2s-0.8,1.2-1.1,1.9c-0.3,0.8-0.5,1.5-0.5,2.3l0,0
		c0,0.8,0.2,1.5,0.5,2.3c0.3,0.8,0.6,1.4,1.1,1.9c0.5,0.5,1.1,0.9,1.7,1.2c0.6,0.3,1.4,0.5,2.2,0.5c0.6,0,1.1,0,1.5-0.2
		c0.5-0.2,0.9-0.3,1.2-0.6c0.5-0.3,0.8-0.5,1.1-0.9c0.3-0.5,0.8-0.8,1.1-1.1l4.6,3.2c-0.5,0.8-1.1,1.4-1.7,2
		c-0.6,0.6-1.4,1.1-2.2,1.5c-0.8,0.5-1.7,0.8-2.6,1.1C213.2,44.4,212,44.6,210.7,44.6z"/>
	<path fill="#19191C" d="M225,21.7h6.2v9.1l7.7-9.1h7.3l-8.5,9.6l8.8,12.7H239l-5.6-8.3l-2.3,2.5v5.7H225L225,21.7L225,21.7z"/>
</g>
<g>
	<path fill="#19191C" d="M78.9,52.9h4.5l4.9,7.7l4.9-7.7h4.6v18.2h-4.2V59.3l-5.3,7.9h-0.2L83,59.4v11.9h-4.2V52.9z"/>
	<path fill="#19191C" d="M120,71.6c-2.6,0-4.6-0.6-6-2c-1.5-1.4-2.2-3.4-2.2-6V53.1h4.2v10.4c0,1.5,0.3,2.6,1.1,3.4
		c0.8,0.8,1.7,1.1,3.1,1.1s2.3-0.3,3.1-1.1c0.8-0.8,1.1-1.9,1.1-3.2V53.1h4.2v10.4c0,1.4-0.2,2.6-0.6,3.7c-0.5,1.1-0.9,1.9-1.7,2.6
		c-0.8,0.6-1.5,1.2-2.6,1.5C122.5,71.3,121.2,71.6,120,71.6z"/>
	<path fill="#19191C" d="M149,71.5c-1.4,0-2.9-0.3-4.3-0.8c-1.4-0.5-2.6-1.2-3.9-2.2l2.5-2.8c0.9,0.6,1.7,1.2,2.6,1.5
		c0.9,0.5,1.9,0.6,2.9,0.6c0.9,0,1.5-0.2,2-0.5c0.5-0.3,0.8-0.8,0.8-1.2l0,0c0-0.3,0-0.5-0.2-0.6s-0.3-0.5-0.6-0.6
		c-0.3-0.2-0.6-0.3-1.2-0.5c-0.5-0.2-1.1-0.3-2-0.6c-0.9-0.2-1.9-0.5-2.6-0.8c-0.8-0.3-1.4-0.6-2-1.1c-0.6-0.5-0.9-0.9-1.2-1.5
		c-0.3-0.6-0.5-1.4-0.5-2.3l0,0c0-0.8,0.2-1.5,0.5-2.3c0.3-0.6,0.8-1.2,1.4-1.7c0.6-0.5,1.2-0.9,2.2-1.1c0.8-0.3,1.7-0.5,2.6-0.5
		c1.4,0,2.6,0.2,3.9,0.6c1.2,0.5,2.3,0.9,3.2,1.7l-2.2,3.1c-0.9-0.6-1.7-0.9-2.5-1.4c-0.8-0.3-1.7-0.5-2.5-0.5
		c-0.8,0-1.4,0.2-1.9,0.5c-0.2,0.3-0.3,0.8-0.3,1.2l0,0c0,0.3,0,0.6,0.2,0.8c0.2,0.2,0.3,0.5,0.6,0.6c0.3,0.2,0.8,0.3,1.2,0.5
		c0.5,0.2,1.2,0.3,2,0.6c0.9,0.3,1.9,0.5,2.6,0.8c0.8,0.3,1.4,0.6,1.9,1.1s0.9,0.9,1.2,1.5c0.3,0.6,0.5,1.2,0.5,2l0,0
		c0,0.9-0.2,1.7-0.5,2.5c-0.3,0.8-0.8,1.2-1.4,1.9c-0.6,0.5-1.4,0.8-2.2,1.1C150.9,71.5,150,71.5,149,71.5z"/>
	<path fill="#19191C" d="M169.1,52.9h14.4v3.6h-10.2v3.7h9v3.6h-9v3.9h10.4v3.6h-14.5V52.9z"/>
	<path fill="#19191C" d="M204.9,71.6c-2.6,0-4.6-0.6-6-2c-1.5-1.4-2.2-3.4-2.2-6V53.1h4.2v10.4c0,1.5,0.3,2.6,1.1,3.4
		s1.7,1.1,3.1,1.1s2.3-0.3,3.1-1.1s1.1-1.9,1.1-3.2V53.1h4.2v10.4c0,1.4-0.2,2.6-0.6,3.7c-0.5,1.1-0.9,1.9-1.7,2.6
		c-0.8,0.6-1.5,1.2-2.6,1.5C207.3,71.3,206.1,71.6,204.9,71.6z"/>
	<path fill="#19191C" d="M227.1,52.9h4.5l4.9,7.7l4.9-7.7h4.5v18.2h-4.2V59.3l-5.4,7.9h-0.2l-5.3-7.7v11.9h-4.2V52.9H227.1z"/>
</g>
</svg>
