<?xml version="1.0" encoding="utf-8"?>
<!-- Generator: Adobe Illustrator 18.0.0, SVG Export Plug-In . SVG Version: 6.00 Build 0)  -->
<!DOCTYPE svg PUBLIC "-//W3C//DTD SVG 1.1//EN" "http://www.w3.org/Graphics/SVG/1.1/DTD/svg11.dtd">
<svg version="1.1" id="Layer_1" xmlns="http://www.w3.org/2000/svg" xmlns:xlink="http://www.w3.org/1999/xlink" x="0px" y="0px"
	 viewBox="0 0 250 80" enable-background="new 0 0 250 80" xml:space="preserve">
<g>
	<path fill="#19191C" d="M123.3,51.6c13.6,0,24.7-11.1,24.7-24.7c0-13.6-11.1-24.7-24.7-24.7c-13.6,0-24.7,11.1-24.7,24.7
		C98.6,40.6,109.7,51.6,123.3,51.6z M123.3,3.3c13,0,23.6,10.6,23.6,23.6s-10.6,23.6-23.6,23.6c-13,0-23.6-10.6-23.6-23.6
		S110.3,3.3,123.3,3.3z"/>
	<path fill="#19191C" d="M123.3,49.9c12.7,0,23-10.3,23-23c0-12.7-10.3-23-23-23c-12.7,0-23,10.3-23,23
		C100.3,39.6,110.6,49.9,123.3,49.9z M123.3,4.3c12.5,0,22.6,10.1,22.6,22.6c0,12.5-10.1,22.6-22.6,22.6
		c-12.5,0-22.6-10.1-22.6-22.6C100.7,14.5,110.8,4.3,123.3,4.3z"/>
	<path fill="#19191C" d="M123.6,53.3L123.6,53.3l0.2-0.3h-0.2c-14.4,0-26.1-11.7-26.1-26.1l0-0.3l-0.3,0.2v0.1
		C97.2,42,108.5,53.3,123.6,53.3z"/>
	<path fill="#19191C" d="M104.7,7.9c1.2-1.2,2.6-2.3,4-3.3c-1.5,0.9-2.9,1.9-4.1,3.1c-1.1,1.1-2,2.3-2.7,3.5
		C102.7,10,103.6,8.9,104.7,7.9z"/>
	<path fill="#19191C" d="M99.7,15.4c1.3-2.7,3-5.2,5.2-7.4c2.4-2.4,5.2-4.3,8.3-5.6l0.2-0.1l-0.2-0.3l-0.1,0
		c-3.4,1.5-6.2,2.9-8.6,5.3c-2.4,2.4-3.8,5.3-5,7.8c-0.1,0.3-0.3,0.6-0.4,1l0,0.1l0.3,0.1C99.4,16.1,99.5,15.7,99.7,15.4z
		 M108.7,4.6c-1.4,1-2.8,2.1-4,3.3c-1,1-2,2.1-2.8,3.3c0.8-1.2,1.6-2.4,2.7-3.5C105.8,6.4,107.2,5.4,108.7,4.6z"/>
	<path fill="#19191C" d="M142.6,45.5c-1,1-2.2,2-3.4,2.8c1.3-0.8,2.4-1.7,3.5-2.8c1.2-1.2,2.1-2.4,2.9-3.8
		C144.8,43.1,143.7,44.4,142.6,45.5z"/>
	<path fill="#19191C" d="M142.4,45.3c-2.4,2.4-5.2,4.3-8.3,5.6l0.1,0.3l0,0c3.5-1.5,6.3-2.9,8.7-5.4c2.4-2.4,3.7-4.9,5.2-8.5
		l0.1-0.2L148,37C146.7,40.1,144.8,42.9,142.4,45.3z M139.2,48.4c1.2-0.8,2.3-1.8,3.4-2.8c1.2-1.2,2.2-2.4,3.1-3.7
		c-0.8,1.4-1.7,2.6-2.9,3.8C141.7,46.7,140.5,47.6,139.2,48.4z"/>
	<path fill="#19191C" d="M147.9,16.8c-2.6-6.9-7.8-12-14.7-14.4C139.9,5,145.2,10.2,147.9,16.8z"/>
	<path fill="#19191C" d="M149.7,26.9l0,0.2l0.3,0c0-7.8-2.6-14.4-7.6-19.3c-4.8-4.7-11.4-7.2-18.8-7.2l-0.1,0.1l0.1,0.2
		C138,0.8,149.7,12.5,149.7,26.9z M147.9,16.8c-2.7-6.6-8.1-11.8-14.7-14.4C140.2,4.8,145.4,9.9,147.9,16.8z"/>
	<path fill="#19191C" d="M116.6,29.8c1.1-2.4,4.3-6.5,11.8-6.9l-4.9-15.1l-4.6,13.5l-13.9,0L116.6,29.8z"/>
	<polygon fill="#19191C" points="134.8,42.7 134.5,42.8 134.6,42.8 134.8,42.8 	"/>
	<polygon fill="#19191C" points="134.8,42.8 134.6,42.8 134.6,42.9 134.8,42.8 	"/>
	<polygon fill="#19191C" points="134.8,42.8 134.6,42.9 134.7,42.9 134.9,42.9 	"/>
	<polygon fill="#19191C" points="134.9,42.9 134.7,42.9 134.8,43 134.9,42.9 	"/>
	<polygon fill="#19191C" points="134.9,42.9 134.8,43 134.9,43 134.9,43 	"/>
	<polygon fill="#19191C" points="134.9,43 134.9,43.1 134.9,43 	"/>
	<polygon fill="#19191C" points="117.5,32.4 116.2,34.8 117.4,35.5 118.3,35.9 119.3,36.5 120.6,34.1 119.2,33.3 118.5,32.9 	"/>
	<g>
		<path fill="#19191C" d="M129.7,27c0,0-0.3-1-0.5-1.9c-0.5,0.1-1,0.2-1.5,0.3l-0.1-0.3c0.5-0.1,1-0.2,1.5-0.3
			c-0.3-0.9-0.5-1.6-0.5-1.6c-6.1,0.6-11.7,1.5-16.7,19.9c-0.1,0.1,2.1-1.5,4.5-3.3c0.2-1.4,0.5-2.9,1-4.4l-1.2-0.7l1.3-2.4l1,0.5
			c0.6-1.2,1.3-2.4,2.2-3.4l0.5,0.4c-0.8,1-1.5,2.2-2,3.5l1.4,0.8l-1.3,2.4l-1.1-0.6c-0.3,1-0.5,2-0.7,3.1c2.6-1.9,5-3.7,5-3.7
			C122.7,35.2,121.7,28.3,129.7,27z M125.8,25.7l0.2,0.4c-1,0.5-1.9,1-2.7,1.7l-0.4-0.3C123.7,26.8,124.7,26.2,125.8,25.7z"/>
		<path fill="#19191C" d="M134.8,42.6L134.8,42.6l0-0.1l0-0.1l0-0.1l0-0.1l0-0.1l0-0.1l0-0.1l0-0.1l0-0.1l0-0.1l0-0.1l0-0.1l0-0.1
			l0-0.1l0-0.1l0-0.1l0-0.1l0-0.1l0-0.1l0-0.1l0-0.1l0-0.1l0-0.1l0-0.1l0-0.1l0-0.1l0-0.1l0-0.1l0-0.1l0-0.1l0-0.1l0-0.1l0-0.1
			l0-0.1l0-0.1l0-0.1l0-0.1l0-0.1l0-0.1l0-0.1l0-0.1l0-0.1l0-0.1l0-0.1l0-0.1l0-0.1l0-0.1l0-0.1l0-0.1l0-0.1l0-0.1l0-0.1l0-0.1
			l0-0.1l0-0.1l0-0.1l0-0.1l0-0.1l0-0.1l0-0.1l0-0.1l0-0.1l0-0.1l0-0.1l0-0.1l0-0.1l0-0.1l0-0.1l0-0.1l0-0.1l0-0.1l0-0.1l0-0.1
			l0-0.1l0-0.1l0-0.1l0-0.1l0-0.1l0-0.1l0-0.1l0-0.1l0-0.1l0-0.1l0-0.1l0-0.1l0-0.1l0-0.1l0-0.1l0-0.1l0-0.1l0-0.1l0-0.1l0-0.1
			l0-0.1l0-0.1l0-0.1l0-0.1l0-0.1l0-0.1l0-0.1l0-0.1l0-0.1l0-0.1l0-0.1l0-0.1l0-0.1l0-0.1l0-0.1l0-0.1l0-0.1l0-0.1l0-0.1l0-0.1
			l0-0.1l0-0.1l0-0.1l0-0.1l0-0.1l0-0.1l0-0.1l0-0.1l0-0.1l0-0.1l0-0.1l0-0.1l0-0.1l0-0.1l0-0.1l0-0.1l0-0.1l0-0.1l0-0.1l0-0.1
			l0-0.1l0-0.1l0-0.1l0-0.1l0-0.1l0-0.1l0-0.1l0-0.1l0-0.1l0-0.1l0-0.1l0-0.1l0-0.1l0-0.1l0-0.1l0-0.1l0-0.1l0-0.1l0-0.1l0-0.1
			l0-0.1l0-0.1l0-0.1l0-0.1l0-0.1l0-0.1l0-0.1l0-0.1l0-0.1l0-0.1l0-0.1l0-0.1l0-0.1l0-0.1l0-0.1l0-0.1l0-0.1l0-0.1l0-0.1l0-0.1
			l0-0.1l0-0.1l0-0.1l0-0.1l0-0.1l0-0.1l0-0.1l0-0.1l0-0.1l0-0.1l0-0.1l0-0.1l0-0.1l0-0.1l0-0.1l0-0.1l0-0.1l0-0.1l0-0.1l0-0.1
			l0-0.1l0-0.1l0-0.1l0-0.1l0-0.1l0-0.1l0-0.1l0-0.1l0-0.1l0-0.1l0-0.1l0-0.1l0-0.1l0-0.1l0-0.1l0-0.1l0-0.1l0-0.1l0-0.1l0-0.1
			l0-0.1l0-0.1l0-0.1l0-0.1l0-0.1l0-0.1l0-0.1l0-0.1l0-0.1l0-0.1l0-0.1l0-0.1l0-0.1l0-0.1l0-0.1l0-0.1l0-0.1l0-0.1l0-0.1l0-0.1
			l0-0.1l0-0.1l0-0.1l0-0.1l0-0.1l0-0.1l0-0.1l0-0.1l0-0.1l0-0.1l0-0.1l0-0.1c-0.4,0.1-0.9,0.2-1.3,0.4c-0.1,0-0.2,0.1-0.4,0.1
			c-0.1,0-0.2,0.1-0.3,0.1c-0.1,0-0.2,0.1-0.3,0.1c-0.1,0-0.2,0.1-0.2,0.1c-0.1,0-0.2,0.1-0.2,0.1c-0.1,0-0.1,0.1-0.2,0.1
			c-0.1,0-0.1,0.1-0.2,0.1c-0.1,0-0.1,0.1-0.2,0.1c0,0-0.1,0.1-0.1,0.1c0,0-0.1,0.1-0.1,0.1c0,0-0.1,0.1-0.1,0.1
			c0,0-0.1,0.1-0.1,0.1c0,0-0.1,0.1-0.1,0.1c0,0-0.1,0.1-0.1,0.1c0,0-0.1,0.1-0.1,0.1c0,0-0.1,0.1-0.1,0.1c0,0-0.1,0.1-0.1,0.1
			c0,0-0.1,0.1-0.1,0.1c0,0-0.1,0.1-0.1,0.1c0,0-0.1,0.1-0.1,0.1c0,0-0.1,0.1-0.1,0.1c0,0-0.1,0.1-0.1,0.1c0,0,0,0.1-0.1,0.1
			c0,0,0,0.1-0.1,0.1c0,0,0,0.1-0.1,0.1c0,0,0,0.1-0.1,0.1c0,0,0,0.1-0.1,0.1c0,0,0,0.1-0.1,0.1c0,0,0,0-0.1,0.1c0,0,0,0-0.1,0.1
			c0,0,0,0-0.1,0.1c0,0,0,0-0.1,0.1c0,0,0,0-0.1,0.1c0,0,0,0-0.1,0.1c0,0,0,0-0.1,0.1c0,0,0,0,0,0.1c0,0,0,0,0,0.1c0,0,0,0,0,0.1
			c0,0,0,0,0,0.1c0,0,0,0,0,0.1c0,0,0,0,0,0.1c0,0,0,0,0,0.1c0,0,0,0,0,0.1c0,0,0,0,0,0.1c0,0,0,0,0,0.1c0,0,0,0,0,0.1
			c0,0,0,0,0,0.1c0,0,0,0,0,0.1c0,0,0,0,0,0.1c0,0,0,0,0,0.1c0,0,0,0,0,0.1c0,0,0,0,0,0.1c0,0,0,0,0,0.1c0,0,0,0,0,0.1
			c0,0,0,0,0,0.1c0,0,0,0,0,0.1c0,0,0,0,0,0.1c0,0,0,0,0,0.1c0,0,0,0,0,0.1c0,0,0,0,0,0.1c0,0,0,0,0,0.1c0,0,0,0,0,0.1
			c0,0,0,0,0,0.1c0,0,0,0,0,0.1c0,0,0,0,0,0.1c0,0,0,0,0,0.1c0,0,0,0,0,0.1s0,0,0,0.1c0,0,0,0,0,0.1c0,0,0,0,0,0.1c0,0,0,0,0,0.1
			c0,0,0,0,0,0.1s0,0,0,0.1c0,0,0,0,0,0.1c0,0,0,0,0,0.1c0,0,0,0,0,0.1c0,0,0,0,0,0.1c0,0,0,0,0,0.1c0,0,0,0,0,0.1c0,0,0,0,0,0.1
			c0,0,0,0,0,0.1c0,0,0,0,0,0.1c0,0,0,0,0,0.1c0,0,0,0,0,0.1c0,0,0,0,0,0.1c0,0,0,0,0,0.1s0,0,0,0.1c0,0,0,0,0,0.1c0,0,0,0,0,0.1
			c0,0,0,0,0,0.1c0,0,0,0,0,0.1c0,0,0,0,0,0.1c0,0,0,0,0,0l0,0l0.1,0.1l0.1,0.1l0.1,0.1l0.1,0.1l0.1,0.1l0.1,0.1l0.1,0.1l0.1,0.1
			l0.1,0.1l0.1,0.1l0.1,0.1l0.1,0.1l0.1,0.1l0.1,0.1l0.1,0.1l0.1,0.1l0.1,0.1l0.1,0.1l0.1,0.1l0.1,0.1l0.1,0.1l0.1,0.1l0.1,0.1
			l0.1,0.1l0.1,0.1l0.1,0.1l0.1,0.1l0.1,0.1l0.1,0.1l0.1,0.1l0.1,0.1l0.1,0.1l0.1,0.1l0.1,0.1l0.1,0.1l0.1,0.1l0.1,0.1l0.1,0.1
			l0.1,0.1l0.1,0.1l0.1,0.1l0.1,0.1l0.1,0.1l0.1,0.1l0.1,0.1l0.1,0.1l0.1,0.1l0.1,0.1l0.1,0.1l0.1,0.1l0.1,0.1l0.1,0.1l0.1,0.1
			l0.1,0.1l0.1,0.1l0.1,0.1l0.1,0.1l0.1,0.1l0.1,0.1l0.1,0.1l0.1,0.1l0.1,0.1L128,38l0.1,0.1l0.1,0.1l0.1,0.1l0.1,0.1l0.1,0.1
			l0.1,0.1l0.1,0.1l0.1,0.1l0.1,0.1l0.1,0.1l0.1,0.1l0.1,0.1l0.1,0.1l0.1,0.1l0.1,0.1l0.1,0.1l0.1,0.1l0.1,0.1l0.1,0.1l0.1,0.1
			l0.1,0.1l0.1,0.1l0.1,0.1l0.1,0.1l0.1,0.1l0.1,0.1l0.1,0.1l0.1,0.1l0.1,0.1l0.1,0.1l0.1,0.1l0.1,0.1l0.1,0.1l0.1,0.1l0.1,0.1
			l0.1,0.1l0.1,0.1l0.1,0.1l0.1,0.1l0.1,0.1l0.1,0.1l0.1,0.1l0.1,0.1l0.1,0.1l0.1,0.1l0.1,0.1l0.1,0.1l0.1,0.1l0.1,0.1l0.1,0.1
			l0.1,0.1l0.1,0.1l0.1,0.1l0.1,0.1l0.1,0.1l0.1,0.1l0.1,0.1l0.1,0.1l0.1,0.1l0.1,0.1l0.1,0.1l0.1,0.1l0.1,0.1l0.1,0.1l0.1,0.1
			l0.1,0.1l0.1,0.1l0.1,0.1l0.1,0.1l0.1,0.1l0.1,0.1l0.1,0.1l0.1,0.1l0.1,0.1l0.1,0.1l0.1,0.1l0.1,0.1l0.1,0.1l0.1,0.1l0.1,0.1
			l0.1,0.1l0.1,0.1l0.1,0.1l0.1,0.1l0.1,0.1l0.1,0.1l0.1,0.1l0.1,0.1l0.1,0.1l0.1,0.1l0.1,0.1l0.3-0.1L134.8,42.6L134.8,42.6z"/>
		<path fill="#19191C" d="M129.8,25c1,3.1,1.2,4.1,1.2,4.1l11.1-8l-13.6-0.1c0.5,1.4,0.9,2.6,1.2,3.7
			C129.7,24.8,129.8,24.9,129.8,25z"/>
	</g>
	<path fill="#19191C" d="M95.1,66.2c-0.7,0-1-0.6-1-1.7c0-1.1,0.4-1.7,1-1.7c0.4,0,0.7,0.3,0.9,0.7l0.8-0.2
		c-0.2-0.8-0.7-1.2-1.7-1.2c-1.2,0-1.9,0.9-1.9,2.4c0,1.5,0.7,2.4,1.9,2.4c0.9,0,1.5-0.4,1.8-1.2L96,65.5
		C95.7,66,95.5,66.2,95.1,66.2z"/>
	<polygon fill="#19191C" points="99.6,64.8 101.2,64.8 101.2,64 99.6,64 99.6,62.9 101.8,62.9 101.8,62.1 98.7,62.1 98.7,66.9 
		101.9,66.9 101.9,66.1 99.6,66.1 	"/>
	<polygon fill="#19191C" points="106.6,65.4 106.6,65.4 104.7,62.1 103.8,62.1 103.8,66.9 104.6,66.9 104.6,63.5 104.7,63.5 
		106.6,66.9 107.5,66.9 107.5,62.1 106.6,62.1 	"/>
	<polygon fill="#19191C" points="111.4,66.9 111.4,62.9 112.7,62.9 112.7,62.1 109.3,62.1 109.3,62.9 110.5,62.9 110.5,66.9 	"/>
	<path fill="#19191C" d="M117,66.9h1l-1-2.1c0.6-0.2,0.9-0.6,0.9-1.2c0-0.8-0.4-1.4-1.5-1.4h-1.9v4.7h0.9v-1.9h0.8L117,66.9z
		 M115.3,64.2v-1.3h0.8c0.5,0,0.8,0.2,0.8,0.7c0,0.4-0.2,0.7-0.9,0.7H115.3z"/>
	<path fill="#19191C" d="M122.2,65.8l0.3,1h0.9l-1.3-4.7h-1.1l-1.4,4.7h0.9l0.3-1H122.2z M121.5,63L121.5,63l0.5,2.1h-1.1L121.5,63z
		"/>
	<polygon fill="#19191C" points="126,62.1 125.1,62.1 125.1,66.9 128.1,66.9 128.1,66.1 126,66.1 	"/>
	<polygon fill="#19191C" points="132.7,62.9 133.9,62.9 133.9,66.9 134.8,66.9 134.8,62.9 136.1,62.9 136.1,62.1 132.7,62.1 	"/>
	<polygon fill="#19191C" points="138.8,64.8 140.4,64.8 140.4,64 138.8,64 138.8,62.9 141,62.9 141,62.1 137.9,62.1 137.9,66.9 
		141.1,66.9 141.1,66.1 138.8,66.1 	"/>
	<polygon fill="#19191C" points="143.5,66.9 144.3,65.3 145.1,66.9 146.1,66.9 144.8,64.4 146,62.1 145,62.1 144.3,63.6 143.6,62.1 
		142.6,62.1 143.8,64.4 142.5,66.9 	"/>
	<path fill="#19191C" d="M150.3,66.9h0.9l-1.3-4.7h-1.1l-1.4,4.7h0.9l0.3-1h1.5L150.3,66.9z M148.7,65.1l0.6-2.1h0l0.5,2.1H148.7z"
		/>
	<path fill="#19191C" d="M154.4,66.2c-0.5,0-0.8-0.3-1-0.7l-0.7,0.3c0.3,0.7,1,1.1,1.8,1.1c1.1,0,1.7-0.5,1.7-1.5
		c0-1.5-2.4-1.4-2.4-2.2c0-0.4,0.3-0.5,0.7-0.5c0.4,0,0.7,0.2,0.8,0.6l0.8-0.3c-0.3-0.7-0.9-1.1-1.7-1.1c-0.8,0-1.5,0.5-1.5,1.3
		c0,1.5,2.4,1.3,2.4,2.2C155.2,66,154.9,66.2,154.4,66.2z"/>
	<path fill="#19191C" d="M75,73.1c0-1.1-0.6-1.9-2.1-1.9h-2.6v6.4h1.2V75h1.1l1.2,2.6h1.4l-1.4-2.9C74.6,74.6,75,73.9,75,73.1z
		 M72.5,74h-0.9v-1.8h1.1c0.7,0,1,0.3,1,0.9S73.5,74,72.5,74z"/>
	<path fill="#19191C" d="M78,72.9c-1.3,0-2,0.9-2,2.4c0,1.5,0.8,2.4,2,2.4c0.9,0,1.5-0.3,1.9-0.9l-0.8-0.5c-0.3,0.3-0.5,0.6-1,0.6
		c-0.5,0-0.9-0.4-1-1.3h2.8v-0.5C79.9,73.9,79.2,72.9,78,72.9z M77.1,74.8c0-0.6,0.4-1,0.9-1c0.5,0,0.9,0.4,0.9,1H77.1z"/>
	<path fill="#19191C" d="M83.7,73.3c-0.3-0.2-0.7-0.4-1.1-0.4c-1.2,0-1.8,0.8-1.8,1.6c0,0.6,0.3,0.9,0.7,1.2
		c-0.2,0.1-0.7,0.4-0.7,0.8c0,0.5,0.5,0.6,0.7,0.7v0c-0.4,0-0.8,0.3-0.8,0.9c0,0.7,0.8,1.1,2.1,1.1c1.5,0,2.1-0.7,2.1-1.4
		c0-1.9-3-0.8-3-1.6c0-0.3,0.4-0.3,0.9-0.3c1.2,0,1.7-0.6,1.7-1.5c0-0.4-0.1-0.6-0.2-0.8c0.2-0.1,0.5-0.1,0.7-0.1v-0.7
		C84.3,72.9,83.9,73,83.7,73.3z M82.3,77.6c1.1,0,1.4,0.3,1.4,0.5c0,0.2-0.2,0.5-1,0.5c-0.9,0-1.2-0.2-1.2-0.5
		C81.6,77.9,81.7,77.6,82.3,77.6z M82.5,75.3c-0.5,0-0.8-0.3-0.8-0.8c0-0.4,0.3-0.8,0.8-0.8c0.4,0,0.8,0.3,0.8,0.8
		C83.3,74.9,83,75.3,82.5,75.3z"/>
	<rect x="85.8" y="71.1" fill="#19191C" width="1.1" height="1"/>
	<rect x="85.8" y="73" fill="#19191C" width="1.1" height="4.6"/>
	<path fill="#19191C" d="M89.9,72.9c-1.3,0-2,0.9-2,2.4c0,1.5,0.8,2.4,2,2.4c1.3,0,2-0.9,2-2.4C92,73.9,91.2,72.9,89.9,72.9z
		 M89.9,76.8c-0.6,0-0.9-0.5-0.9-1.5c0-1,0.3-1.5,0.9-1.5c0.6,0,0.9,0.5,0.9,1.5C90.9,76.4,90.6,76.8,89.9,76.8z"/>
	<path fill="#19191C" d="M95.4,72.9c-0.5,0-1,0.3-1.4,0.6V73h-1v4.6H94v-3.3c0.2-0.2,0.6-0.5,1-0.5c0.4,0,0.6,0.2,0.6,0.8v3h1.1
		v-3.2C96.7,73.5,96.3,72.9,95.4,72.9z"/>
	<path fill="#19191C" d="M101.4,74.8c0-1.4-0.5-1.8-1.8-1.9c-0.7,0-1.4,0.4-1.7,0.8l0.7,0.5c0.2-0.3,0.5-0.6,1-0.6
		c0.4,0,0.7,0.2,0.7,0.6v0.4c-1.8,0.2-2.7,0.8-2.7,1.8c0,0.6,0.4,1.2,1.3,1.2c0.6,0,1-0.2,1.4-0.5l0.1,0.4h1.1
		c-0.1-0.2-0.1-0.4-0.1-0.7V74.8z M100.3,76.4c-0.2,0.2-0.7,0.5-1,0.5c-0.3,0-0.5-0.2-0.5-0.5c0-0.7,0.8-0.8,1.5-0.9V76.4z"/>
	<rect x="102.8" y="71.2" fill="#19191C" width="1.1" height="6.4"/>
	<polygon fill="#19191C" points="111.4,75.7 111.3,75.7 110.1,71.2 108.4,71.2 108.4,77.6 109.5,77.6 109.5,72.6 109.5,72.6 
		110.9,77.6 111.8,77.6 113.3,72.6 113.3,72.6 113.3,77.6 114.4,77.6 114.4,71.2 112.6,71.2 	"/>
	<path fill="#19191C" d="M117.5,72.9c-1.3,0-2,0.9-2,2.4c0,1.5,0.8,2.4,2,2.4c1.3,0,2-0.9,2-2.4C119.5,73.9,118.7,72.9,117.5,72.9z
		 M117.5,76.8c-0.6,0-0.9-0.5-0.9-1.5c0-1,0.3-1.5,0.9-1.5c0.6,0,0.9,0.5,0.9,1.5C118.4,76.4,118.1,76.8,117.5,76.8z"/>
	<path fill="#19191C" d="M122.7,72.9c-0.4,0-0.9,0.2-1.1,0.5h0v-2.2h-1.1v6.4h0.9l0.1-0.5c0.4,0.4,0.8,0.6,1.3,0.6
		c1.2,0,1.9-1.1,1.9-2.5C124.6,74.1,123.9,72.9,122.7,72.9z M122.4,76.8c-0.5,0-0.6-0.2-0.9-0.4v-2.2c0.2-0.2,0.5-0.4,0.9-0.4
		c0.7,0,1,0.5,1,1.5C123.5,76.3,123.1,76.8,122.4,76.8z"/>
	<rect x="125.7" y="71.1" fill="#19191C" width="1.1" height="1"/>
	<rect x="125.7" y="73" fill="#19191C" width="1.1" height="4.6"/>
	<rect x="128.4" y="71.2" fill="#19191C" width="1.1" height="6.4"/>
	<rect x="131" y="73" fill="#19191C" width="1.1" height="4.6"/>
	<rect x="131" y="71.1" fill="#19191C" width="1.1" height="1"/>
	<path fill="#19191C" d="M134.8,71.5h-1.1V73h-0.6v0.9h0.6v2.8c0,0.7,0.3,1.1,1.1,1.1c0.3,0,0.6,0,0.9-0.1v-0.9
		c-0.2,0-0.3,0.1-0.5,0.1c-0.3,0-0.4-0.1-0.4-0.3v-2.6h0.9V73h-0.9V71.5z"/>
	<path fill="#19191C" d="M138.1,75.9L138.1,75.9l-0.8-2.8h-1.1l1.2,4c0.1,0.2,0.1,0.4,0.1,0.6c0,0.2-0.1,0.3-0.2,0.5
		c-0.1,0.3-0.3,0.4-0.7,0.4c-0.2,0-0.3,0-0.5,0v0.9c0.1,0,0.3,0,0.5,0c0.9,0,1.3-0.4,1.8-1.7L140,73h-1.1L138.1,75.9z"/>
	<path fill="#19191C" d="M145.1,71.2l-1.9,6.4h1.2l0.4-1.4h2l0.4,1.4h1.2l-1.8-6.4H145.1z M145.1,75.2l0.8-2.8h0l0.7,2.8H145.1z"/>
	<path fill="#19191C" d="M152,76.4c-0.2,0.2-0.6,0.5-1,0.5c-0.4,0-0.6-0.2-0.6-0.8v-3h-1.1v3.2c0,0.9,0.4,1.5,1.4,1.5
		c0.5,0,1-0.3,1.4-0.6v0.5h1V73H152V76.4z"/>
	<path fill="#19191C" d="M155.8,71.5h-1.1V73H154v0.9h0.6v2.8c0,0.7,0.3,1.1,1.1,1.1c0.3,0,0.6,0,0.9-0.1v-0.9
		c-0.2,0-0.3,0.1-0.5,0.1c-0.3,0-0.4-0.1-0.4-0.3v-2.6h0.9V73h-0.9V71.5z"/>
	<path fill="#19191C" d="M160.1,72.9c-0.5,0-1,0.3-1.3,0.6v-2.3h-1.1v6.4h1.1v-3.3c0.2-0.2,0.6-0.5,1-0.5c0.4,0,0.6,0.2,0.6,0.8v3
		h1.1v-3.2C161.4,73.5,161,72.9,160.1,72.9z"/>
	<path fill="#19191C" d="M164.4,72.9c-1.3,0-2,0.9-2,2.4c0,1.5,0.8,2.4,2,2.4c1.3,0,2-0.9,2-2.4C166.4,73.9,165.7,72.9,164.4,72.9z
		 M164.4,76.8c-0.6,0-0.9-0.5-0.9-1.5c0-1,0.3-1.5,0.9-1.5c0.6,0,0.9,0.5,0.9,1.5C165.3,76.4,165,76.8,164.4,76.8z"/>
	<path fill="#19191C" d="M168.3,73.8L168.3,73.8l0-0.8h-1v4.6h1.1v-2.8c0-0.1,0.5-0.7,1-0.7c0.1,0,0.1,0,0.2,0v-1.2
		C169,72.9,168.6,73.3,168.3,73.8z"/>
	<rect x="170.6" y="73" fill="#19191C" width="1.1" height="4.6"/>
	<rect x="170.6" y="71.1" fill="#19191C" width="1.1" height="1"/>
	<path fill="#19191C" d="M174.5,71.5h-1.1V73h-0.6v0.9h0.6v2.8c0,0.7,0.3,1.1,1.1,1.1c0.3,0,0.6,0,0.9-0.1v-0.9
		c-0.2,0-0.3,0.1-0.5,0.1c-0.3,0-0.4-0.1-0.4-0.3v-2.6h0.9V73h-0.9V71.5z"/>
	<path fill="#19191C" d="M178.5,73l-0.8,2.8h0l-0.8-2.8h-1.1l1.2,4c0.1,0.2,0.1,0.4,0.1,0.6c0,0.2-0.1,0.3-0.2,0.5
		c-0.1,0.3-0.3,0.4-0.7,0.4c-0.2,0-0.3,0-0.5,0v0.9c0.1,0,0.3,0,0.5,0c0.9,0,1.3-0.4,1.8-1.7l1.5-4.6H178.5z"/>
</g>
</svg>
