<?xml version="1.0" encoding="utf-8"?>
<!-- Generator: Adobe Illustrator 18.0.0, SVG Export Plug-In . SVG Version: 6.00 Build 0)  -->
<!DOCTYPE svg PUBLIC "-//W3C//DTD SVG 1.1//EN" "http://www.w3.org/Graphics/SVG/1.1/DTD/svg11.dtd">
<svg version="1.1" id="Layer_1" xmlns="http://www.w3.org/2000/svg" xmlns:xlink="http://www.w3.org/1999/xlink" x="0px" y="0px"
	 viewBox="0 0 250 80" enable-background="new 0 0 250 80" xml:space="preserve">
<g>
	<path fill="#19191C" d="M128.6,32.5v3.9c7.2,1.8,12.5,8.3,12.5,16c0,9.2-7.4,16.6-16.6,16.6c-9.2,0-16.6-7.4-16.6-16.6
		c0-7.9,5.5-14.4,12.8-16.1v-3.9c-9.5,1.8-16.6,10.1-16.7,20c0,11.3,9.1,20.4,20.4,20.4c11.3,0,20.4-9.1,20.4-20.4
		C144.9,42.6,137.9,34.4,128.6,32.5z"/>
	<path fill="#19191C" d="M122.7,24.6h4v27.2h-4V24.6z"/>
</g>
<g>
	<path fill="#19191C" d="M3.1,51.8H0V24.6h3.1c7.4,0,7.9,3,7.9,13.6C11.1,48.8,10.5,51.8,3.1,51.8z M4,47.8c2.8,0,3-0.7,3-9.6
		c0-8.9-0.1-9.6-3-9.6V47.8z"/>
	<path fill="#19191C" d="M40.7,51.8l4.1-27.2h4.9l4.1,27.2h-3.9l-0.7-5.5h-3.8l-0.7,5.5H40.7z M47.5,33.5l-0.1-0.7h-0.2L47,33.5
		L45.9,42h2.7L47.5,33.5z"/>
	<path fill="#19191C" d="M81.5,28.7v-4.1h11.5v4.1h-3.8v23.1h-4V28.7H81.5z"/>
	<path fill="#19191C" d="M168.1,42.5v3.7c0,0,0,5.9-5.3,5.9s-5.3-5.9-5.3-5.9v-16c0,0,0-5.9,5.3-5.9s5.3,5.9,5.3,5.9v3.7h-3.7v-3.7
		c0,0,0.1-2-1.5-2c-1.4,0-1.4,2-1.4,2v16c0,0,0,2,1.4,2c1.7,0,1.5-2,1.5-2v-3.7H168.1z"/>
	<path fill="#19191C" d="M197.5,51.8l4.1-27.2h4.9l4.1,27.2h-3.9l-0.7-5.5h-3.8l-0.7,5.5H197.5z M204.3,33.5l-0.1-0.7h-0.2l-0.1,0.7
		l-1.1,8.6h2.7L204.3,33.5z"/>
	<path fill="#19191C" d="M240.5,24.6h4v23.5h5.3v3.7h-9.3V24.6z"/>
</g>
</svg>
