<?xml version="1.0" encoding="utf-8"?>
<!-- Generator: Adobe Illustrator 18.0.0, SVG Export Plug-In . SVG Version: 6.00 Build 0)  -->
<!DOCTYPE svg PUBLIC "-//W3C//DTD SVG 1.1//EN" "http://www.w3.org/Graphics/SVG/1.1/DTD/svg11.dtd">
<svg version="1.1" id="Layer_1" xmlns="http://www.w3.org/2000/svg" xmlns:xlink="http://www.w3.org/1999/xlink" x="0px" y="0px"
	 viewBox="0 0 250 80" enable-background="new 0 0 250 80" xml:space="preserve">
<g>
	<path fill="#19191C" d="M156,29.2C156,29.2,156,29.2,156,29.2c2.3-3,3.6-6.7,3.5-10.8c0-1.9-0.3-3.7-0.9-5.3c0,0,0,0,0,0
		c-0.2,1.2-1.6,3.7-4,7.3C154.6,20.4,156,24.5,156,29.2z"/>
	<path fill="#19191C" d="M139.9,36.1c0.5,0.1,0.9,0.2,1.4,0.2c0.2,0,0.5,0,0.7,0c4.9-0.1,9.3-2.1,12.5-5.4l0,0l-5.1-3.9L139.9,36.1z
		"/>
	<path fill="#19191C" d="M129.3,16.2l13.3-2.3c0,0,0.8-7.5,0.1-11.3c0,0,6.8,4.4,9.5,9c0,0,3.7-0.7,5.1-1.6c0,0,0,0,0,0
		c-3.1-5.5-9-9.2-15.7-9.1C131.8,1,124,9.1,124.1,18.9c0.1,8.6,6,15.6,14.2,17.1c0,0,0,0,0,0c1-2.9,2.3-9.6,2.7-12.3
		C140.9,23.7,138,23,129.3,16.2z"/>
	<g>
		<g>
			<path fill="#19191C" d="M35.5,71.7h1v1h0c0.5-0.8,1.3-1.2,2.2-1.2c0.8,0,1.6,0.3,1.9,1.2c0.5-0.7,1.3-1.2,2.1-1.2
				c1.4,0,2.3,0.6,2.3,2v5h-1.1V74c0-0.8-0.2-1.5-1.3-1.5c-1.1,0-1.8,0.7-1.8,1.7v4.2h-1.1V74c0-0.9-0.3-1.5-1.3-1.5
				c-1.3,0-1.8,1.2-1.8,1.7v4.2h-1.1V71.7z"/>
			<path fill="#19191C" d="M52.5,76.3c-0.3,1.5-1.4,2.3-2.9,2.3c-2.2,0-3.2-1.5-3.3-3.6c0-2,1.3-3.5,3.2-3.5c2.4,0,3.1,2.2,3.1,3.9
				h-5.1c0,1.2,0.6,2.2,2.1,2.2c0.9,0,1.6-0.4,1.8-1.3H52.5z M51.4,74.4c-0.1-1.1-0.9-1.9-1.9-1.9c-1.2,0-1.9,0.9-1.9,1.9H51.4z"/>
			<path fill="#19191C" d="M59.8,78.5h-1.1v-0.9h0c-0.4,0.8-1.2,1.1-2.2,1.1c-2.1,0-3.1-1.6-3.1-3.6c0-1.9,1-3.5,3.1-3.5
				c0.7,0,1.7,0.3,2.2,1.1h0v-3.5h1.1V78.5z M56.6,77.6c1.5,0,2.1-1.3,2.1-2.6c0-1.3-0.6-2.6-2.1-2.6c-1.5,0-2,1.3-2,2.6
				C54.5,76.4,55.2,77.6,56.6,77.6z"/>
			<path fill="#19191C" d="M62.7,70.4h-1.1v-1.4h1.1V70.4z M61.6,71.7h1.1v6.8h-1.1V71.7z"/>
			<path fill="#19191C" d="M69,73.8c-0.2-0.9-0.8-1.4-1.7-1.4c-1.6,0-2.1,1.3-2.1,2.7c0,1.2,0.6,2.5,2,2.5c1.1,0,1.7-0.6,1.9-1.7
				h1.1c-0.3,1.7-1.3,2.6-3,2.6c-2.1,0-3.2-1.4-3.2-3.5c0-2,1-3.6,3.2-3.6c1.5,0,2.8,0.7,2.9,2.3H69z"/>
			<path fill="#19191C" d="M77.5,78.4c-0.2,0.1-0.4,0.2-0.8,0.2c-0.6,0-0.9-0.3-0.9-1c-0.6,0.7-1.4,1-2.4,1c-1.2,0-2.2-0.6-2.2-1.9
				c0-1.5,1.1-1.9,2.3-2.1c1.2-0.2,2.3-0.2,2.3-1c0-1-0.8-1.1-1.5-1.1c-0.9,0-1.6,0.3-1.7,1.3h-1.1c0.1-1.7,1.4-2.3,2.9-2.3
				c1.2,0,2.6,0.3,2.6,1.9v3.5c0,0.5,0,0.8,0.4,0.8c0.1,0,0.2,0,0.3-0.1V78.4z M75.6,74.9c-0.4,0.3-1.3,0.3-2,0.5
				c-0.7,0.1-1.4,0.4-1.4,1.2c0,0.7,0.6,1,1.3,1c1.5,0,2.1-0.9,2.1-1.5V74.9z"/>
			<path fill="#19191C" d="M78.6,69.1h1.1v9.4h-1.1V69.1z"/>
			<path fill="#19191C" d="M89.7,73.8c-0.2-0.9-0.8-1.4-1.7-1.4c-1.6,0-2.1,1.3-2.1,2.7c0,1.2,0.6,2.5,2,2.5c1.1,0,1.7-0.6,1.9-1.7
				h1.1c-0.2,1.7-1.3,2.6-3,2.6c-2.1,0-3.2-1.4-3.2-3.5c0-2,1-3.6,3.2-3.6c1.5,0,2.8,0.7,2.9,2.3H89.7z"/>
			<path fill="#19191C" d="M97.9,76.3c-0.3,1.5-1.4,2.3-2.9,2.3c-2.2,0-3.2-1.5-3.3-3.6c0-2,1.3-3.5,3.2-3.5c2.4,0,3.1,2.2,3.1,3.9
				h-5.1c0,1.2,0.6,2.2,2.1,2.2c0.9,0,1.6-0.4,1.8-1.3H97.9z M96.8,74.4c-0.1-1.1-0.9-1.9-1.9-1.9c-1.2,0-1.9,0.9-1.9,1.9H96.8z"/>
			<path fill="#19191C" d="M99.1,71.7h1v1.1h0c0.5-0.8,1.2-1.2,2.2-1.2c1.8,0,2.3,1,2.3,2.5v4.5h-1.1v-4.6c0-0.8-0.5-1.4-1.4-1.4
				c-1.4,0-2,0.9-2,2.1v3.8h-1.1V71.7z"/>
			<path fill="#19191C" d="M108,71.7h1.4v1H108v4.2c0,0.5,0.1,0.6,0.8,0.6h0.5v1h-0.8c-1.2,0-1.6-0.2-1.6-1.5v-4.3h-1.2v-1h1.2v-2
				h1.1V71.7z"/>
			<path fill="#19191C" d="M116.4,76.3c-0.3,1.5-1.4,2.3-2.9,2.3c-2.2,0-3.2-1.5-3.3-3.6c0-2,1.3-3.5,3.2-3.5c2.4,0,3.1,2.2,3.1,3.9
				h-5.1c0,1.2,0.6,2.2,2.1,2.2c0.9,0,1.6-0.4,1.8-1.3H116.4z M115.3,74.4c-0.1-1.1-0.9-1.9-2-1.9c-1.2,0-1.9,0.9-1.9,1.9H115.3z"/>
			<path fill="#19191C" d="M117.6,71.7h1v1.4h0c0.5-1.1,1.3-1.6,2.5-1.6v1.2c-1.8,0-2.4,1-2.4,2.7v3h-1.1V71.7z"/>
			<path fill="#19191C" d="M128.6,71.5c2.1,0,3.3,1.6,3.3,3.6c0,2-1.1,3.5-3.3,3.5c-2.2,0-3.3-1.6-3.3-3.5
				C125.3,73.1,126.4,71.5,128.6,71.5z M128.6,77.6c1.2,0,2.1-0.9,2.1-2.6c0-1.7-0.9-2.6-2.1-2.6c-1.2,0-2.1,0.9-2.1,2.6
				C126.4,76.7,127.4,77.6,128.6,77.6z"/>
			<path fill="#19191C" d="M133.6,72.6h-1.1v-1h1.1v-1c0-1.1,0.7-1.7,1.9-1.7c0.2,0,0.5,0,0.7,0.1v1c-0.2-0.1-0.4-0.1-0.6-0.1
				c-0.5,0-0.9,0.2-0.9,0.8v0.9h1.3v1h-1.3v5.8h-1.1V72.6z"/>
			<path fill="#19191C" d="M145.3,73.8c-0.2-0.9-0.8-1.4-1.7-1.4c-1.6,0-2.1,1.3-2.1,2.7c0,1.2,0.6,2.5,2,2.5c1.1,0,1.7-0.6,1.9-1.7
				h1.1c-0.2,1.7-1.3,2.6-3,2.6c-2.1,0-3.2-1.4-3.2-3.5c0-2,1-3.6,3.2-3.6c1.5,0,2.8,0.7,2.9,2.3H145.3z"/>
			<path fill="#19191C" d="M153.5,76.3c-0.3,1.5-1.4,2.3-2.9,2.3c-2.2,0-3.2-1.5-3.3-3.6c0-2,1.3-3.5,3.2-3.5c2.4,0,3.1,2.2,3.1,3.9
				h-5.1c0,1.2,0.6,2.2,2.1,2.2c0.9,0,1.6-0.4,1.8-1.3H153.5z M152.4,74.4c-0.1-1.1-0.8-1.9-2-1.9c-1.2,0-1.9,0.9-1.9,1.9H152.4z"/>
			<path fill="#19191C" d="M154.8,71.7h1.1v1.1h0c0.5-0.8,1.2-1.2,2.2-1.2c1.8,0,2.3,1,2.3,2.5v4.5h-1.1v-4.6c0-0.8-0.5-1.4-1.4-1.4
				c-1.4,0-2,0.9-2,2.1v3.8h-1.1V71.7z"/>
			<path fill="#19191C" d="M163.6,71.7h1.3v1h-1.3v4.2c0,0.5,0.1,0.6,0.8,0.6h0.5v1h-0.8c-1.2,0-1.6-0.2-1.6-1.5v-4.3h-1.2v-1h1.2
				v-2h1.1V71.7z"/>
			<path fill="#19191C" d="M166.2,71.7h1.1v1.4h0c0.5-1.1,1.3-1.6,2.5-1.6v1.2c-1.8,0-2.5,1-2.5,2.7v3h-1.1V71.7z"/>
			<path fill="#19191C" d="M176.6,78.4c-0.2,0.1-0.4,0.2-0.8,0.2c-0.6,0-0.9-0.3-0.9-1c-0.6,0.7-1.4,1-2.4,1c-1.2,0-2.2-0.6-2.2-1.9
				c0-1.5,1.1-1.9,2.3-2.1c1.2-0.2,2.3-0.2,2.3-1c0-1-0.8-1.1-1.5-1.1c-0.9,0-1.6,0.3-1.7,1.3h-1.1c0.1-1.7,1.4-2.3,2.9-2.3
				c1.2,0,2.5,0.3,2.5,1.9v3.5c0,0.5,0,0.8,0.4,0.8c0.1,0,0.2,0,0.3-0.1V78.4z M174.8,74.9c-0.4,0.3-1.3,0.3-2,0.5
				c-0.7,0.1-1.4,0.4-1.4,1.2c0,0.7,0.6,1,1.3,1c1.5,0,2.1-0.9,2.1-1.5V74.9z"/>
			<path fill="#19191C" d="M177.7,69.1h1.1v9.4h-1.1V69.1z"/>
			<path fill="#19191C" d="M185.7,71.7h1.4v1h-1.4v4.2c0,0.5,0.1,0.6,0.8,0.6h0.5v1h-0.9c-1.2,0-1.6-0.2-1.6-1.5v-4.3h-1.2v-1h1.2
				v-2h1.1V71.7z"/>
			<path fill="#19191C" d="M194.1,76.3c-0.3,1.5-1.4,2.3-2.9,2.3c-2.2,0-3.2-1.5-3.3-3.6c0-2,1.3-3.5,3.2-3.5c2.4,0,3.1,2.2,3.1,3.9
				h-5.1c0,1.2,0.6,2.2,2.1,2.2c0.9,0,1.6-0.4,1.8-1.3H194.1z M193,74.4c-0.1-1.1-0.8-1.9-2-1.9c-1.2,0-1.9,0.9-1.9,1.9H193z"/>
			<path fill="#19191C" d="M197.2,74.9l-2.4-3.2h1.4l1.6,2.4l1.7-2.4h1.3l-2.3,3.1l2.6,3.7h-1.4l-1.9-2.8l-1.9,2.8h-1.4L197.2,74.9z
				"/>
			<path fill="#19191C" d="M208.2,78.4c-0.2,0.1-0.4,0.2-0.8,0.2c-0.6,0-0.9-0.3-0.9-1c-0.6,0.7-1.4,1-2.4,1c-1.2,0-2.2-0.6-2.2-1.9
				c0-1.5,1.1-1.9,2.3-2.1c1.2-0.2,2.3-0.2,2.3-1c0-1-0.8-1.1-1.5-1.1c-0.9,0-1.6,0.3-1.7,1.3H202c0.1-1.7,1.4-2.3,2.9-2.3
				c1.2,0,2.5,0.3,2.5,1.9v3.5c0,0.5,0,0.8,0.4,0.8c0.1,0,0.2,0,0.3-0.1V78.4z M206.3,74.9c-0.4,0.3-1.3,0.3-2,0.5
				c-0.7,0.1-1.4,0.4-1.4,1.2c0,0.7,0.6,1,1.3,1c1.5,0,2.1-0.9,2.1-1.5V74.9z"/>
			<path fill="#19191C" d="M209.9,76.3c0,1,0.9,1.3,1.8,1.3c0.7,0,1.6-0.2,1.6-1c0-0.9-1.1-1-2.2-1.3c-1.1-0.3-2.2-0.6-2.2-1.9
				c0-1.4,1.3-1.9,2.5-1.9c1.5,0,2.7,0.5,2.8,2.1h-1.1c-0.1-0.9-0.8-1.1-1.6-1.1c-0.7,0-1.4,0.2-1.4,0.9c0,0.8,1.2,0.9,2.2,1.2
				c1.1,0.2,2.2,0.6,2.2,1.9c0,1.6-1.5,2.1-2.9,2.1c-1.5,0-2.8-0.6-2.9-2.3H209.9z"/>
		</g>
		<g>
			<path fill="#19191C" d="M97.3,54.2c-0.3-1.8-1.4-2.7-3.2-2.7c-2.8,0-3.7,2.8-3.7,5.2c0,2.3,0.9,5,3.6,5c2,0,3.2-1.3,3.5-3.2h4.2
				c-0.6,4.2-3.5,6.5-7.7,6.5c-4.8,0-8.1-3.4-8.1-8.2c0-5,3-8.6,8.1-8.6c3.8,0,7.2,2,7.5,6H97.3z"/>
			<path fill="#19191C" d="M103.6,42.5h4.4v8.3h0.1c1.1-1.8,3-2.7,4.7-2.7c4.7,0,5.8,2.6,5.8,6.6v9.8h-4.4v-9c0-2.6-0.8-3.9-2.8-3.9
				c-2.4,0-3.4,1.3-3.4,4.6v8.4h-4.4V42.5z"/>
			<path fill="#19191C" d="M125.8,46.1h-4.4v-3.6h4.4V46.1z M121.4,48.5h4.4v16h-4.4V48.5z"/>
			<path fill="#19191C" d="M128.7,42.5h4.4v22h-4.4V42.5z"/>
			<path fill="#19191C" d="M147.3,62.5L147.3,62.5c-1.1,1.7-2.9,2.5-4.9,2.5c-4.8,0-7.2-4.1-7.2-8.5c0-4.3,2.4-8.3,7.1-8.3
				c1.9,0,3.7,0.8,4.7,2.4h0.1v-8h4.4v22h-4.2V62.5z M143.5,51.4c-2.9,0-3.9,2.5-3.9,5.1c0,2.5,1.1,5.1,3.9,5.1
				c2.9,0,3.8-2.5,3.8-5.2C147.3,53.9,146.3,51.4,143.5,51.4z"/>
			<path fill="#19191C" d="M154.2,48.5h4.2v3h0.1c0.8-2,3-3.4,5.1-3.4c0.3,0,0.7,0.1,1,0.2v4.1c-0.4-0.1-1.1-0.2-1.6-0.2
				c-3.2,0-4.3,2.3-4.3,5.1v7.2h-4.4V48.5z"/>
			<path fill="#19191C" d="M169.1,57.6c0.1,2.8,1.5,4,3.9,4c1.8,0,3.2-1.1,3.5-2.1h3.9c-1.2,3.8-3.9,5.4-7.5,5.4
				c-5,0-8.1-3.5-8.1-8.4c0-4.8,3.3-8.4,8.1-8.4c5.4,0,8.1,4.6,7.7,9.5H169.1z M176.2,54.8c-0.4-2.2-1.4-3.4-3.5-3.4
				c-2.8,0-3.6,2.2-3.6,3.4H176.2z"/>
			<path fill="#19191C" d="M182.1,48.5h4.2v2.2h0.1c1.1-1.8,3-2.7,4.9-2.7c4.7,0,5.8,2.6,5.8,6.6v9.8h-4.4v-9c0-2.6-0.8-3.9-2.8-3.9
				c-2.4,0-3.4,1.3-3.4,4.6v8.4h-4.4V48.5z"/>
			<path fill="#19191C" d="M198.8,42.5h4.4v4.7c0.1,2.7-1.8,4.8-4.4,5.2v-2c1.6-0.5,2-1.6,2-3.1h-2V42.5z"/>
			<path fill="#19191C" d="M207.6,59.3c0,1.9,1.6,2.7,3.4,2.7c1.3,0,2.9-0.5,2.9-2c0-1.3-1.8-1.8-5-2.5c-2.5-0.6-5.1-1.4-5.1-4.3
				c0-4.1,3.5-5.1,6.9-5.1c3.5,0,6.7,1.2,7,5.1h-4.2c-0.1-1.7-1.4-2.2-3-2.2c-1,0-2.4,0.2-2.4,1.5c0,1.6,2.5,1.8,5,2.4
				c2.6,0.6,5.1,1.5,5.1,4.5c0,4.2-3.6,5.6-7.3,5.6c-3.7,0-7.3-1.4-7.5-5.6H207.6z"/>
		</g>
		<g>
			<path fill="#19191C" d="M43.9,62.5L43.9,62.5c-1.1,1.7-2.9,2.5-4.9,2.5c-4.8,0-7.2-4.1-7.2-8.5c0-4.3,2.4-8.3,7.1-8.3
				c1.9,0,3.7,0.8,4.7,2.4h0.1v-8H48v22h-4.2V62.5z M40,51.4c-2.9,0-3.9,2.5-3.9,5.1c0,2.5,1.1,5.1,3.9,5.1c2.9,0,3.8-2.5,3.8-5.1
				C43.8,53.9,42.9,51.4,40,51.4z"/>
			<path fill="#19191C" d="M54.3,57.6c0.1,2.8,1.5,4,3.9,4c1.8,0,3.2-1.1,3.5-2.1h3.9c-1.2,3.8-3.9,5.4-7.5,5.4
				c-5,0-8.1-3.5-8.1-8.4c0-4.8,3.3-8.4,8.1-8.4c5.4,0,8,4.6,7.7,9.5H54.3z M61.4,54.8c-0.4-2.2-1.4-3.4-3.5-3.4
				c-2.8,0-3.6,2.2-3.6,3.4H61.4z"/>
			<path fill="#19191C" d="M67.9,42.5h4.4v22h-4.4V42.5z"/>
			<path fill="#19191C" d="M75.2,42.5h4.4v22h-4.4V42.5z"/>
		</g>
		<path fill="#19191C" d="M122,20c-8.3,2.3-24.5,10.4-29.9,24.8c0,0,7-14.3,30.6-20.2C122.3,23.1,122,21.6,122,20z"/>
		<path fill="#19191C" d="M56.2,36.7c0,0,21-7.5,33.4,7.3c0,0-4.4-11.6-17.8-11.2C61.4,33,56.2,36.7,56.2,36.7z"/>
	</g>
</g>
</svg>
