<?xml version="1.0" encoding="utf-8"?>
<!-- Generator: Adobe Illustrator 18.0.0, SVG Export Plug-In . SVG Version: 6.00 Build 0)  -->
<!DOCTYPE svg PUBLIC "-//W3C//DTD SVG 1.1//EN" "http://www.w3.org/Graphics/SVG/1.1/DTD/svg11.dtd">
<svg version="1.1" id="Layer_1" xmlns="http://www.w3.org/2000/svg" xmlns:xlink="http://www.w3.org/1999/xlink" x="0px" y="0px"
	 viewBox="0 0 250 80" enable-background="new 0 0 250 80" xml:space="preserve">
<g>
	<path d="M203.4,15.1c-17.9-5-34.5-8.4-50.7-10.1l-1.3-1.7l-0.1-0.1c-1.6-1.9-4.3-2.6-6.2-2.6h-40.4c-2,0-4.6,0.7-6.2,2.6L97.2,5
		c-16.1,1.8-32.7,5.1-50.6,10.1c-3.3,0.9-5.3,4.2-5,8.1l0,0.1c1,10.5,3.9,25.6,8,35.7l0,0.1c1,2.4,3.4,5,6.8,5.2l0.2,0
		c2.8,0.1,5.5,0.1,8.3,0.2l0.3,2.5c0.5,3.6,3.8,6.5,7.5,6.5h18l0.4,1.2c1,3,4.1,5.1,7.4,5.1h52.9c3.3,0,6.4-2.2,7.4-5.1l0.4-1.2h18
		c3.7,0,7-2.8,7.5-6.5l0.3-2.5c2.8-0.1,5.5-0.1,8.3-0.2l0.2,0c3.4-0.2,5.8-2.8,6.8-5.2l0-0.1c4.1-10.2,7-25.3,8-35.7l0-0.1
		C208.7,19.3,206.7,16,203.4,15.1z M207,23.1L207,23.1c-1,10.5-3.8,25.4-7.9,35.4l0,0.1c-0.8,1.9-2.8,4.2-5.6,4.4l-0.1,0
		c-3.2,0.1-6.3,0.1-9.5,0.2l-0.5,3.7c-0.4,2.9-3.1,5.2-6.1,5.2h-19l-0.7,2.1c-0.8,2.5-3.4,4.2-6.1,4.2H98.6c-2.7,0-5.3-1.8-6.1-4.2
		l-0.7-2.1h-19c-3,0-5.7-2.3-6.1-5.2l-0.5-3.7c-3.2-0.1-6.3-0.1-9.5-0.2l-0.1,0c-2.8-0.2-4.8-2.5-5.6-4.4l0-0.1
		c-4.1-10-6.9-25-7.9-35.3l0-0.1c-0.2-3.2,1.4-5.9,4-6.6C65,11.4,81.7,8.1,98,6.3l1.8-2.3c1.3-1.6,3.5-2.1,5.1-2.1h40.4
		c1.6,0,3.8,0.6,5.1,2.1l1.7,2.3c16.2,1.8,32.9,5.1,51,10.2C205.6,17.2,207.2,19.9,207,23.1z"/>
	<path d="M202.5,18.3c-18.3-5.1-35.1-8.5-51.5-10.2l-2.2-2.9c-0.8-1-2.4-1.4-3.6-1.4h-40.4c-1.2,0-2.8,0.4-3.6,1.4L99,8.1
		c-16.4,1.7-33.2,5.1-51.5,10.2c-1.7,0.5-2.8,2.3-2.6,4.7c1,10.2,3.8,25,7.8,34.8c0.6,1.4,2.1,3.1,4.1,3.3c4.1,0.1,8.3,0.2,12.4,0.2
		l-0.4-2.7c-4-0.1-8-0.1-12-0.2c-0.6,0-1.4-0.9-1.7-1.6c-3.9-9.5-6.7-24.3-7.6-34c-0.1-0.9,0.2-1.8,0.7-2
		c18.3-5.1,35.2-8.5,51.6-10.2l0.6-0.1l2.9-3.7c0.2-0.1,0.8-0.4,1.6-0.4h40.4c0.7,0,1.4,0.3,1.5,0.4l2.9,3.8l0.6,0.1
		c16.4,1.7,33.3,5,51.6,10.2c0.5,0.1,0.7,1.1,0.7,1.9c-0.9,9.7-3.7,24.5-7.6,34c-0.3,0.8-1.1,1.6-1.7,1.7c-4,0.1-8,0.1-12,0.2
		l-0.4,2.7c4.2-0.1,8.3-0.1,12.5-0.2c2-0.1,3.4-1.8,4-3.3c4-9.8,6.8-24.6,7.8-34.8C205.3,20.6,204.3,18.8,202.5,18.3z"/>
	<path d="M138.7,68.7c0.4,0,0.7-0.2,0.7-0.5c0-0.3-0.2-0.5-0.7-0.5c-0.5,0-0.7,0.2-0.7,0.5C138,68.5,138.3,68.7,138.7,68.7z"/>
	<path d="M143.9,68.5c0-0.2,0-0.5,0-0.6c-0.1,0.1-0.2,0.3-0.3,0.4l-0.7,0.9c-0.1,0.1-0.3,0.3-0.3,0.4c0.1,0,0.4,0,0.6,0h0.7V68.5z"
		/>
	<path d="M138.7,70.3c0.6,0,0.8-0.2,0.8-0.6c0-0.4-0.3-0.6-0.8-0.6c-0.6,0-0.8,0.2-0.8,0.6C137.9,70.1,138.2,70.3,138.7,70.3z"/>
	<path d="M134,67.7c-0.5,0-0.8,0.2-0.8,0.6c0,0.4,0.3,0.6,0.8,0.6c0.5,0,0.8-0.2,0.8-0.6C134.8,68,134.5,67.7,134,67.7z"/>
	<path d="M136.6,59.6c0,1.6,1,2.8,2.6,2.8c1.5,0,2.6-1.2,2.6-2.8c0-1.6-1-2.8-2.6-2.8C137.6,56.9,136.6,58.1,136.6,59.6z"/>
	<path d="M149.2,60.2h0.5c1.4,0,2-0.4,2-1.6c0-1.2-0.6-1.7-2-1.7h-0.5V60.2z"/>
	<path d="M78.3,60.4h0.5c1.4,0,2-0.6,2-1.7c0-1.2-0.6-1.7-2-1.7h-0.5V60.4z"/>
	<path d="M114.5,60l-0.6,1.5h2.2l-0.6-1.5c-0.2-0.6-0.5-1.5-0.5-1.5S114.7,59.4,114.5,60z"/>
	<path d="M181.2,58.7l0.7-5.4c-6.5-3.7-14.9-7.2-25.4-9.6l-2,6.4c-0.4,1.1-1.7,2-3.1,2H98.6c-1.3,0-2.7-0.9-3.1-2l-2-6.4
		c-10.6,2.4-19,5.8-25.4,9.6l0.7,5.4l0.4,2.7l0.7,5.1c0.2,1.4,1.5,2.5,2.9,2.5h21.4l1.4,4.3c0.4,1.1,1.7,2,3.1,2h52.9
		c1.3,0,2.7-0.9,3.1-2l1.4-4.3h21.4c1.4,0,2.8-1.1,2.9-2.5l0.7-5.1L181.2,58.7z M104.8,70.2l0.4-0.4c0.2,0.3,0.6,0.4,0.9,0.4
		c0.5,0,0.7-0.2,0.7-0.5c0-0.3-0.2-0.4-0.8-0.6c-0.7-0.2-1.1-0.4-1.1-1c0-0.6,0.5-1,1.1-1c0.5,0,0.8,0.2,1.1,0.5l-0.4,0.4
		c-0.2-0.2-0.5-0.3-0.8-0.3c-0.4,0-0.6,0.2-0.6,0.4c0,0.2,0.2,0.4,0.8,0.5c0.7,0.2,1.1,0.4,1.1,1c0,0.6-0.4,1.1-1.3,1.1
		C105.5,70.8,105.1,70.6,104.8,70.2z M110.1,67.3v3.5h-0.5v-3.5H110.1z M114.7,69.1v-1.8h0.5v3.5h-0.5l-1.4-2.2
		c-0.1-0.1-0.2-0.3-0.3-0.4c0,0.1,0,0.6,0,0.8v1.8h-0.5v-3.5h0.5l1.3,2.1c0.1,0.1,0.2,0.4,0.3,0.5C114.7,69.8,114.7,69.3,114.7,69.1
		z M117.4,69c0-1.1,0.6-1.8,1.5-1.8c0.6,0,0.9,0.2,1.2,0.6l-0.5,0.3c-0.2-0.3-0.4-0.4-0.7-0.4c-0.6,0-0.9,0.5-0.9,1.3
		c0,0.8,0.3,1.3,0.9,1.3c0.4,0,0.6-0.1,0.8-0.4l0.4,0.3c-0.2,0.4-0.7,0.7-1.2,0.7C118,70.8,117.4,70.1,117.4,69z M123.8,68.6v0.5h-1
		v1.1h1.8v0.5h-2.3v-3.5h2.2v0.5h-1.7v0.9H123.8z M129.3,68.1v-0.4c0.4,0,0.6-0.1,0.7-0.5h0.4v3.5h-0.5v-2.7H129.3z M137.3,69.7
		c0-0.4,0.2-0.7,0.6-0.9c-0.4-0.1-0.5-0.5-0.5-0.7c0-0.7,0.5-1,1.2-1c0.6,0,1.2,0.3,1.2,1c0,0.2-0.1,0.5-0.5,0.7
		c0.4,0.1,0.6,0.4,0.6,0.9c0,0.7-0.5,1.1-1.4,1.1C137.9,70.8,137.3,70.4,137.3,69.7z M142.1,70v-0.5l1.8-2.2h0.6v2.2h0.5V70h-0.5
		v0.8h-0.5V70H142.1z M133.1,70.8v-0.5c0.8,0,1.3-0.4,1.6-1.1c-0.2,0.2-0.5,0.3-0.9,0.3c-0.6,0-1.2-0.3-1.2-1.1
		c0-0.8,0.6-1.2,1.4-1.2c0.7,0,1.3,0.4,1.3,1.4C135.3,69.5,134.8,70.8,133.1,70.8z M170.5,55.3c1.1,0,1.9,0.4,2.5,1.4l-1.4,0.9
		c-0.3-0.5-0.6-0.7-1.1-0.7c-0.5,0-0.8,0.3-0.8,0.7c0,0.5,0.3,0.7,1.1,1.1l0.4,0.2c1.5,0.6,2.3,1.3,2.3,2.7c0,1.6-1.2,2.4-2.9,2.4
		c-1.6,0-2.7-0.8-3.2-1.8l1.4-0.8c0.4,0.6,0.9,1.1,1.7,1.1c0.7,0,1.2-0.4,1.2-0.9c0-0.6-0.5-0.8-1.3-1.2l-0.4-0.2
		c-1.3-0.5-2.1-1.2-2.1-2.6C167.9,56.3,168.9,55.3,170.5,55.3z M159.4,55.4v2.9c0,0.4-0.1,1-0.1,1.4c0.2-0.4,0.5-1,0.7-1.3l2.2-3h2
		l-2.8,3.8l3.2,4.6h-2.1l-2.2-3.3l-0.8,1v2.3h-1.7v-8.4H159.4z M149.8,55.4c2.4,0,3.8,1.1,3.8,3.2c0,1.3-0.6,2.1-1.6,2.6l1.8,2.6h-2
		l-1.4-2.1c-0.2,0-0.3,0-0.5,0h-0.6v2.1h-1.7v-8.4H149.8z M139.2,55.3c2.4,0,4.4,1.8,4.4,4.3c0,2.5-1.9,4.3-4.4,4.3
		c-2.4,0-4.4-1.8-4.4-4.3C134.8,57.1,136.7,55.3,139.2,55.3z M122.5,55.4l1.2,3.4c0.2,0.6,0.4,1.5,0.4,1.5s0.2-1,0.5-1.5l1.6-3.5
		h0.2l1.7,3.5c0.3,0.6,0.5,1.5,0.5,1.5s0.2-0.9,0.4-1.5l1.2-3.4h1.7l-3.1,8.5h-0.2l-1.9-4.1c-0.2-0.5-0.5-1.3-0.5-1.3
		s-0.3,0.8-0.5,1.3l-2,4.1h-0.2l-3.1-8.5H122.5z M115.1,55.3l3.9,8.5h-1.8l-0.4-1h-3.4l-0.4,1h-1.7l3.7-8.5H115.1z M102.3,55.4h5.9
		v0.1l-3.9,6.8h3.7v1.5h-6.3v-0.1l3.9-6.8h-3.2V55.4z M92.7,55.4h5.9v0.1l-3.9,6.8h3.7v1.5H92v-0.1l3.9-6.8h-3.2V55.4z M88.3,55.4
		v8.4h-1.7v-8.4H88.3z M78.9,55.4c2.4,0,3.8,1.2,3.8,3.3c0,2-1.4,3.3-3.8,3.3h-0.6v1.9h-1.7v-8.4H78.9z"/>
	<path d="M146.9,44.1h-5.6c-0.3,0-0.6,0.3-0.7,0.7h-0.7c0,0.2,0,0.4,0,0.6c0,0.2,0,0.4,0,0.7h0.7c0.1,0.4,0.4,0.6,0.7,0.6l5.6,0
		c0.4,0,0.8-0.6,0.8-1.3C147.7,44.6,147.3,44.1,146.9,44.1z"/>
	<path d="M136.3,46.6H114c-0.3,1.2-0.9,2.2-1.7,2.2H138C137.2,48.8,136.5,47.8,136.3,46.6z"/>
	<path d="M113.5,42.8h23.3c0.3-0.5,0.7-0.9,1.2-0.9h-25.7C112.8,41.9,113.2,42.3,113.5,42.8z"/>
	<path d="M139.8,44.7c-0.1-1.5-0.8-2.8-1.8-2.8c-0.5,0-0.9,0.3-1.2,0.9h1.8c0.3,0.5,0.5,1.2,0.6,2.1h0.5v0.3h-0.5c0,0.1,0,0.1,0,0.2
		c0,0.1,0,0.2,0,0.4h0.4v0.6h-0.4c0,0.1,0,0.2,0,0.3h-2.8c0.3,1.2,0.9,2.2,1.7,2.2c1,0,1.7-1.3,1.8-2.8c0-0.2,0-0.4,0-0.7
		C139.9,45.1,139.8,44.9,139.8,44.7z"/>
	<path d="M114.1,45.7c0,0.2,0,0.4-0.1,0.6h25.1h0.4v-0.6h-0.4H114.1z"/>
	<path d="M114.1,44.8c0,0.1,0,0.2,0,0.3h25.1h0.5v-0.3h-0.5H114.1z"/>
	<path d="M114,46.6c0-0.1,0-0.2,0-0.3c0-0.2,0.1-0.4,0.1-0.6c0-0.1,0-0.2,0-0.4c0-0.1,0-0.1,0-0.2c0-0.1,0-0.2,0-0.3
		c-0.1-0.8-0.3-1.5-0.6-2.1c-0.3-0.5-0.7-0.9-1.2-0.9c-1,0-1.7,1.3-1.8,2.8c0.2,0,0.3,0,0.5,0c0.1-1.4,0.8-2.3,1.3-2.3
		c0.6,0,1.4,1.2,1.4,3c0,1.8-0.7,3-1.4,3c-0.6,0-1.2-0.9-1.3-2.3c-0.2,0-0.3,0-0.5,0c0.1,1.5,0.8,2.8,1.8,2.8
		C113.1,48.8,113.7,47.8,114,46.6z"/>
	<path d="M112.1,46c0.2,0,0.4-0.3,0.4-0.6c0-0.4-0.2-0.6-0.4-0.6c0,0-0.6,0-1.2,0c-0.2,0-0.3,0-0.5,0c-0.4,0-0.7,0-0.7,0
		c-0.1-0.4-0.4-0.6-0.7-0.6h-5.6c-0.4,0-0.8,0.6-0.8,1.3c0,0.7,0.3,1.2,0.7,1.3l5.7,0c0.3,0,0.6-0.3,0.7-0.6c0,0,0.3,0,0.7,0
		c0.2,0,0.3,0,0.5,0C111.5,46,112.1,46,112.1,46z"/>
	<path d="M144,31.5l0.5-10.2c0.2-3.5-0.6-6.1-2.3-7.5c1.3,1.5,1.8,3.8,1.7,6.9l-0.5,10.2c-0.3,5.5-2.6,8.3-6.9,8l-6.2-0.4l0,0.6
		l6.8,0.5C141.4,39.7,143.7,36.9,144,31.5z"/>
	<path d="M137.1,17.2c0.8,0.1,1.3,0.1,1.7,0.3c-0.3-0.7-1-0.9-2.3-1l-0.9,17.3c0.2,0,0.5,0,0.7,0L137.1,17.2z"/>
	<polygon points="113,14.3 112.4,14.3 113,31.8 113.6,31.8 	"/>
	<polygon points="118.5,36.7 118.4,32.2 117.8,32.2 117.9,36 109.4,36.5 109.4,37.1 	"/>
	<polygon points="123.5,18.4 128.6,18.4 128.6,13.9 127.9,13.9 128,17.7 122.9,17.8 122.9,22.1 123.5,22 	"/>
	<polygon points="129,36.5 129,32.1 128.4,32.1 128.4,35.9 119.3,36 119.3,36.7 	"/>
	<polygon points="123.5,27.1 127.5,27.1 127.4,22.6 126.8,22.6 126.8,26.5 122.9,26.5 122.9,31.5 123.6,31.5 	"/>
	<polygon points="154.1,15.9 155.6,38.2 152,37.8 152,38.4 156.3,38.8 154.6,15.9 	"/>
	<polygon points="150,28.3 150.7,28.4 151,27.4 150.8,24.5 	"/>
	<polygon points="149,32.7 148.1,37.4 144.7,37 144.5,37.5 148.7,38 149.7,33.3 151.3,33.5 151.3,33 	"/>
	<polygon points="161.3,28 161.9,26 161.7,17 161,16.9 	"/>
	<polygon points="168.5,18.2 161.9,39.4 158.5,38.8 158.5,39.3 162.5,40.1 169.2,18.4 	"/>
	<polygon points="171.2,36.8 171.9,36.9 172.6,32.4 176.4,33.3 177.1,28.9 176.4,28.8 175.8,32.7 171.9,31.8 	"/>
	<polygon points="178.3,24.4 173.3,23.3 172.6,27.4 173.3,27.6 173.9,23.9 178.9,25 179.6,20.6 178.9,20.5 	"/>
	<polygon points="175.9,42.3 167,40.4 166.9,40.8 176.5,43 177.2,38.6 176.5,38.4 	"/>
	<polygon points="181.1,26.1 181.3,25.7 181.2,25.7 	"/>
	<polygon points="185.2,26.7 186.1,22.6 185.3,22.4 184.6,26.1 181.9,29.6 180.3,29.2 180.1,29.6 182.5,30.3 	"/>
	<path d="M186.2,41.7c-0.2,1.3-0.5,3.4,0.7,3.9c-0.5-1-0.1-3,0.1-3.8L186.2,41.7z"/>
	<path d="M195.2,25.7c1.7,2,1.7,5,1.3,7.6l-4-0.9c0,0.2-0.1,0.3-0.1,0.5l4.7,1.1C197.6,31.1,197.5,27.7,195.2,25.7z"/>
	<path d="M183.6,49.5c3,3.4,8.7,3,10.3-3c1.8-6.9-4.7-11.8-3.7-15.6c0.4-1.4,1-1.6,1.6-1.3c-0.1-0.3-0.3-0.5-0.7-0.6
		c-0.6-0.2-1.2-0.1-1.6,1.3c-1,3.8,5.6,8.7,3.7,15.6C191.8,51.5,186.7,52.2,183.6,49.5z"/>
	<path d="M100.9,19.5c0.2,0,0.4,0,0.5,0.1c-0.3-0.6-0.7-0.7-1.2-0.7L99.7,19l0.3,4.4l0.2,0c0.1,0,0.3,0,0.4-0.1l-0.2-3.7L100.9,19.5
		z"/>
	<path d="M105.5,25.8c2.5,3.1,2.3,10.8-3.5,11.4l-4.9,0.5l0,0.7l5.4-0.5C108.9,37.2,108.7,28.3,105.5,25.8z"/>
	<path d="M101.2,32.9l-0.3-4.6l0.4,0c0.4,0,0.8,0,1,0.1c-0.3-0.6-0.9-0.8-1.7-0.7l-0.4,0l0.3,5.3l0.4,0
		C101,32.9,101.1,32.9,101.2,32.9z"/>
	<path d="M105.3,25.6c1.1-1.2,1.4-3,1.3-4.5c-0.2-2.5-0.9-3.9-1.9-4.8c0.7,0.9,1.2,2.2,1.3,4.1c0.1,1.6-0.2,3.4-1.3,4.6
		C104.9,25.2,105.1,25.3,105.3,25.6c0,0.1,0.1,0.1,0.2,0.2C105.4,25.7,105.4,25.7,105.3,25.6z"/>
	<path d="M92.9,16.1l-0.5,0.1L94,32c0.4,3.9-1.3,6.5-4.5,7.1c-1.6,0.3-2.9-0.1-3.9-0.9c1,1.3,2.6,1.8,4.5,1.5c3.3-0.5,5-3.2,4.5-7.1
		L92.9,16.1z"/>
	<path d="M88.4,33.8l-1.8-16.6l-0.5,0.1l1.7,15.9c0.1,1.1,0.4,1.4,0.8,1.5c0,0,0,0,0,0C88.5,34.4,88.5,34.2,88.4,33.8z"/>
	<path d="M73.9,25.7c-0.2-1.5,0-1.8,0.7-2c0.1,0,0.3-0.1,0.4-0.1c-0.2-0.7-0.5-0.7-1-0.6c-0.7,0.2-1,0.5-0.7,2L75,35.7
		c0.2,1,0.4,1.4,0.7,1.5c0,0,0.1,0,0.1,0c-0.1-0.2-0.1-0.5-0.2-0.8L73.9,25.7z"/>
	<path d="M80,24.1c-0.3-1.8-1-3.1-2-3.9c0.7,0.8,1.2,1.9,1.4,3.2l1.8,10.8c0.5,3.1-0.6,6.3-4.1,7.2c-1.8,0.4-3.2,0.1-4.2-0.8
		c1.1,1.3,2.7,1.9,4.8,1.4c3.6-0.9,4.7-4.1,4.1-7.2L80,24.1z"/>
	<path d="M61.5,28.5c-0.5-0.9-1.2-0.8-2.7-0.3l3.8,16.6l0.4-0.2l-3.6-15.8C60.4,28.5,61.1,28.3,61.5,28.5z"/>
	<path d="M67.6,29.8c-0.6-2.5-1.5-4.3-2.7-5.4c0.9,1.1,1.6,2.7,2.1,4.8l2.3,9.9c1.2,5.3-0.2,8.8-4.3,10.1l-6.1,2.1L59,52l6.6-2.2
		c4.1-1.4,5.5-4.8,4.3-10.1L67.6,29.8z"/>
	<path d="M76.6,40.3c3.1-0.8,4.2-3.5,3.7-6.5L78.5,23c-0.5-3-2.3-5-5.5-4.2c-3.1,0.8-4.2,3.5-3.7,6.5L71.1,36
		C71.6,39,73.5,41,76.6,40.3z M74.1,35.2l-1.8-10.6c-0.3-1.6,0-2.4,1.2-2.7c1.2-0.3,1.7,0.4,2,1.9l1.8,10.6c0.3,1.6,0,2.4-1.2,2.7
		c-0.1,0-0.2,0-0.2,0c0,0,0,0,0,0c0,0-0.1,0-0.1,0C74.8,37.3,74.3,36.6,74.1,35.2z"/>
	<path d="M75.9,37.2C75.9,37.2,75.8,37.2,75.9,37.2c0,0-0.1,0-0.1,0C75.8,37.2,75.8,37.2,75.9,37.2z"/>
	<path d="M75.9,37.2C75.9,37.2,75.8,37.2,75.9,37.2c0,0-0.1,0-0.1,0C75.8,37.2,75.8,37.2,75.9,37.2z"/>
	<path d="M89.1,37.8c2.9-0.5,4.4-2.7,4-6.4l-1.7-15.8l-3,0.5l1.7,16c0.2,1.6-0.3,2.4-1.4,2.6c0,0-0.1,0-0.1,0c0,0,0,0,0,0
		c0,0,0,0,0,0c-1,0.1-1.5-0.6-1.7-2.1l-1.7-16l-3,0.5l1.7,15.8C84.2,36.6,86.2,38.3,89.1,37.8z"/>
	<path d="M88.6,34.7C88.6,34.7,88.6,34.7,88.6,34.7C88.6,34.7,88.6,34.7,88.6,34.7C88.6,34.7,88.6,34.7,88.6,34.7z"/>
	<path d="M88.6,34.7C88.6,34.7,88.6,34.7,88.6,34.7C88.6,34.7,88.6,34.7,88.6,34.7C88.6,34.7,88.6,34.7,88.6,34.7z"/>
	<path d="M106,29.3c-0.2-2.7-1.2-4.1-2.8-4.8c1.4-0.8,1.9-2.8,1.8-4.7c-0.2-3.6-1.8-5.5-5.1-5.2l-4.5,0.4l1.4,21.3l4.8-0.5
		C105.1,35.6,106.2,32.8,106,29.3z M98.7,17.8l1.2-0.1c1.3-0.1,2.1,0.8,2.2,2.8c0.1,1.6-0.5,2.6-1.5,2.8l0,0.1c0,0-0.1,0-0.1,0
		l-0.5,0l0,0l-0.9,0.1L98.7,17.8z M100.6,33L100.6,33l-0.9,0.1l-0.4-6.5l1-0.1c1.8-0.2,2.6,0.9,2.7,3c0.1,2.1-0.3,3.2-1.8,3.4l0,0
		C101,33,100.8,33,100.6,33z"/>
	<path d="M100,23.4L100,23.4l0.5,0c0,0,0.1,0,0.1,0l0-0.1c-0.1,0-0.2,0.1-0.4,0.1L100,23.4z"/>
	<path d="M100,23.4L100,23.4l0.5,0c0,0,0.1,0,0.1,0l0-0.1c-0.1,0-0.2,0.1-0.4,0.1L100,23.4z"/>
	<path d="M101,32.9l-0.4,0l0,0c0.2,0,0.4,0,0.6-0.1l0,0C101.1,32.9,101,32.9,101,32.9z"/>
	<path d="M101,32.9l-0.4,0l0,0c0.2,0,0.4,0,0.6-0.1l0,0C101.1,32.9,101,32.9,101,32.9z"/>
	<polygon points="111.4,13.7 108.4,13.9 109.1,35.2 116.9,34.8 116.8,31.6 113.6,31.8 113.6,31.8 113,31.8 113,31.8 112,31.9 	"/>
	<rect x="113" y="31.8" width="0.6" height="0"/>
	<rect x="113" y="31.8" width="0.6" height="0"/>
	<polygon points="127,13.3 118.9,13.4 119,34.8 127.5,34.7 127.5,31.5 123.6,31.5 123.6,31.5 122.9,31.5 122.9,31.5 122,31.5 
		122,25.3 125.9,25.2 125.9,22 123.5,22 123.5,22 122.9,22.1 122.9,22.1 122,22.1 121.9,16.6 127,16.5 	"/>
	<rect x="123.2" y="21.7" width="0" height="0.6"/>
	<rect x="123.2" y="21.7" width="0" height="0.6"/>
	<rect x="123.2" y="31.2" width="0" height="0.6"/>
	<rect x="123.2" y="31.2" width="0" height="0.6"/>
	<path d="M58.3,49.5l0.1,0.5l5.9-2c3.7-1.2,5.1-4.3,3.9-9.4L66,28.7c-1.2-5.1-3.7-6.9-7.3-5.6l-6,2l0.1,0.5c0.3-0.1,0.7,0.2,0.9,0.7
		l5.1,22.1C58.9,48.9,58.7,49.4,58.3,49.5z M57.8,27.1l1.2-0.4c1.9-0.6,2.7,0,3.3,2.6l2.5,10.9c0.6,2.6,0.1,3.7-1.8,4.3l0,0l0,0.1
		c-0.1,0.1-0.3,0.1-0.4,0.2l0-0.1L61.9,45L57.8,27.1z"/>
	<path d="M62.6,44.8c0.2-0.1,0.3-0.1,0.4-0.2l0-0.1L62.6,44.8L62.6,44.8z"/>
	<path d="M62.6,44.8c0.2-0.1,0.3-0.1,0.4-0.2l0-0.1L62.6,44.8L62.6,44.8z"/>
	<path d="M153.1,15.2l-3.8-0.4l-5,20.9l2.9,0.3l0.9-4.7l3.3,0.4l0.2,4.8l2.9,0.3L153.1,15.2z M148.9,28.3l1.9-9l0,0l0.5,9.3
		L148.9,28.3z"/>
	<polygon points="167.5,17.6 164.5,17.1 160.5,31.4 160.5,31.4 160.1,16.3 157.1,15.8 158.2,37.6 161.2,38.1 	"/>
	<polygon points="175.5,37.8 170.2,36.6 171.1,30.4 175,31.3 175.5,28.2 171.6,27.3 172.4,21.9 177.5,23 178,19.9 169.9,18.1 
		166.7,39.1 175,40.9 	"/>
	<polygon points="181.3,28.3 183.7,25.2 184.4,21.8 181.6,21 180.9,24.4 182,24.7 180.1,27.9 	"/>
	<path d="M130.1,36.6l0,0.5l6.2,0.4c3.8,0.3,5.9-2.1,6.2-7.4L143,20c0.3-5.3-1.6-7.9-5.4-8.2l-6.1-0.4l0,0.5c0.4,0,0.6,0.5,0.6,1
		l-1.2,22.9C130.7,36.3,130.4,36.7,130.1,36.6z M135.6,15.3l1.3,0.1c2,0.1,2.6,1.1,2.5,3.8l-0.6,11.3c-0.1,2.7-0.9,3.6-2.8,3.4
		l-1.3-0.1L135.6,15.3z"/>
	<path d="M185.2,49.3c3.3,1.2,6.1-0.2,7.2-4.2c1.8-6.7-4.8-11.4-3.7-15.6c0.4-1.5,1.3-2.2,2.4-1.8c0.8,0.3,1.6,1.3,1.2,3.4l3.5,0.8
		c0.6-3.6-0.4-6.7-3.3-7.8c-3.5-1.3-6,0.2-7.1,4.1c-1.9,7.1,4.9,11.1,3.7,16c-0.4,1.5-1.4,1.9-2.6,1.5c-1.1-0.4-1.6-2-1.1-4.5
		l-4.1-0.8l-0.1,0.5c0.3,0.1,0.5,0.4,0.5,0.9C181.1,45,182.3,48.2,185.2,49.3z"/>
	<polygon points="196.5,24.9 196.9,24.9 196.9,22.6 197.7,22.6 197.7,22.3 195.8,22.3 195.8,22.6 196.5,22.6 	"/>
	<path d="M199.4,23.7l-1.2-1.4h0v2.6h0.4v-1.3c0-0.1,0-0.4,0-0.4s0.1,0.2,0.2,0.3l0.6,0.8h0l0.7-0.8c0.1-0.1,0.2-0.3,0.2-0.3
		s0,0.2,0,0.4v1.3h0.4v-2.6h0L199.4,23.7z"/>
</g>
</svg>
