<?xml version="1.0" encoding="utf-8"?>
<!-- Generator: Adobe Illustrator 18.0.0, SVG Export Plug-In . SVG Version: 6.00 Build 0)  -->
<!DOCTYPE svg PUBLIC "-//W3C//DTD SVG 1.1//EN" "http://www.w3.org/Graphics/SVG/1.1/DTD/svg11.dtd">
<svg version="1.1" id="Layer_1" xmlns="http://www.w3.org/2000/svg" xmlns:xlink="http://www.w3.org/1999/xlink" x="0px" y="0px"
	 viewBox="0 0 250 80" enable-background="new 0 0 250 80" xml:space="preserve">
<g>
	<path fill-rule="evenodd" clip-rule="evenodd" fill="#19191C" d="M44.2,10c-7.6-3.5-17.3-2.1-23.3,0.8c-6,2.9-9.6,6.7-12.4,11.6
		l-2,4.4C3.9,33.9,4.1,42,7.6,49.3c2.6,5.2,6.4,9.3,11.2,12.1c-0.7-1-1.3-2.1-1.8-3.2C9.4,42.4,15.9,15.9,44.2,10L44.2,10z"/>
	<path fill-rule="evenodd" clip-rule="evenodd" fill="#19191C" d="M55.4,17.1c0.9,1,1.7,2.1,2.5,3.3c-2.2,0.4-3.7,2.5-3.4,4.7
		c0.3,2.3,2.4,3.9,4.8,3.6c0.8-0.1,1.5-0.4,2.1-0.9c0.1,0.2,0.1,0.3,0.2,0.5c0.5,1.9,0.9,3.9,1,5.8c-0.6-0.2-1.3-0.3-2-0.2
		c-2.3,0.3-3.9,2.4-3.6,4.7c0.3,2.3,2.4,3.9,4.8,3.6c0.1,0,0.2,0,0.3-0.1c-0.5,2.1-1.2,4.2-2.1,6.1c-0.9-0.9-2.2-1.3-3.5-1.2
		c-2.3,0.3-3.9,2.4-3.6,4.7c0.2,1.5,1.2,2.8,2.6,3.3c-1.3,1.5-2.8,2.8-4.4,4c-0.6-2-2.5-3.3-4.6-3c-2.3,0.3-3.9,2.4-3.6,4.7
		c0.1,0.8,0.5,1.6,1,2.2c-0.7,0.2-1.3,0.5-2,0.6c-1.7,0.5-3.2,0.8-4.6,1.1c-0.4-2-2.3-3.4-4.4-3.1c-1.5,0.2-2.8,1.3-3.2,2.7
		c-0.8,2.5,0.1,7.1,0.4,9.6c-9.3-15.9-9.1-37.8,4.9-51.1c-2.9,4.1-5,8.8-5.9,13.3c-1.5,7.4-0.8,13.9,0.4,17.9c7,0.2,12.7-2.4,16.4-7
		c4-5.1,4.4-11.6,3.4-16.5c-1.2-6.2-4.3-10.6-1.4-16.3c0,0.3,0,0.6,0,0.9c0.3,2.3,2.4,3.9,4.8,3.6C53.7,18.8,54.8,18.1,55.4,17.1
		L55.4,17.1z"/>
	<path fill="#19191C" d="M83,41.7c-2.2,0-3.9-0.5-5.1-1.5c-1.2-1-1.8-2.7-1.8-4.9l0-5.4c0-2.3,0.6-3.9,1.9-4.9c1.2-1,3-1.5,5.2-1.5
		l6,0c2.2,0,3.9,0.5,5.2,1.5c1.2,1,1.8,2.7,1.8,4.9l0,4.3l-15.6-0.1l0,1.1c0,0.9,0.2,1.6,0.6,2c0.4,0.4,1.1,0.5,1.8,0.5l12.7,0.1
		l-0.6,3.9L83,41.7L83,41.7z M91.6,30.2c0-1-0.2-1.7-0.6-2.1c-0.4-0.4-1-0.6-1.9-0.6l-6,0c-0.9,0-1.5,0.2-1.9,0.6
		c-0.4,0.4-0.6,1-0.6,1.9l0,1.5l11,0.1L91.6,30.2L91.6,30.2z M107,41.9c-2.2,0-3.9-0.5-5.1-1.5c-1.2-1-1.8-2.7-1.8-4.9l0-5.4
		c0-2.3,0.6-3.9,1.9-4.9c1.2-1,3-1.5,5.2-1.5l7.5,0c0.7,0,1.4,0.1,1.9,0.3c0.6,0.2,1,0.5,1.4,0.8c0.4,0.3,0.7,0.6,0.9,1
		c0.2,0.3,0.4,0.7,0.5,0.9l-2.5,2.6c-0.2-0.4-0.5-0.8-0.8-1.1c-0.4-0.3-0.9-0.5-1.7-0.5l-7.3,0c-0.8,0-1.4,0.2-1.8,0.6
		c-0.4,0.4-0.7,1-0.7,1.9l0,5.4c0,0.9,0.2,1.5,0.6,1.9c0.4,0.4,1.1,0.6,1.8,0.6l7.4,0c0.8,0,1.3-0.2,1.7-0.5
		c0.4-0.3,0.7-0.7,0.8-1.1l2.5,2.5c-0.1,0.3-0.3,0.6-0.5,0.9c-0.2,0.3-0.5,0.7-0.9,1c-0.4,0.3-0.9,0.5-1.4,0.7
		c-0.6,0.2-1.2,0.3-1.9,0.3L107,41.9L107,41.9z M129.7,42c-2.5,0-4.2-0.5-5.3-1.5c-1.1-1-1.6-2.6-1.6-4.9l0-5.4
		c0-2.3,0.6-3.9,1.7-4.9c1.1-1,2.9-1.5,5.3-1.5l6,0c2.5,0,4.3,0.5,5.4,1.5c1.1,1,1.6,2.6,1.6,4.9l0,5.4c0,2.3-0.6,3.9-1.7,4.9
		c-1.1,1-2.9,1.5-5.4,1.5L129.7,42L129.7,42z M138.3,30.2c0-0.9-0.2-1.6-0.6-2c-0.4-0.4-1-0.5-1.9-0.6l-6,0c-0.9,0-1.5,0.2-1.9,0.5
		c-0.4,0.4-0.6,1-0.6,2l0,5.4c0,0.9,0.2,1.6,0.6,2c0.4,0.4,1,0.5,1.9,0.6l6,0c0.9,0,1.5-0.2,1.9-0.5c0.4-0.4,0.6-1,0.6-2L138.3,30.2
		L138.3,30.2z M171.8,42.2l0.1-10.9c0-0.5,0-1-0.1-1.4c-0.1-0.4-0.2-0.8-0.3-1.1c-0.2-0.3-0.4-0.5-0.7-0.7c-0.3-0.2-0.8-0.3-1.3-0.3
		l-3.3,0c-0.9,0-1.6,0.2-2,0.5c-0.4,0.4-0.6,0.9-0.6,1.7l-0.1,12.1l-4.4,0l0.1-12.1c0-0.8-0.2-1.3-0.6-1.7c-0.4-0.4-1-0.5-1.9-0.6
		l-3.2,0c-0.7,0-1.2,0.1-1.5,0.4c-0.4,0.3-0.6,0.7-0.8,1.3l-0.1,12.6l-4.4,0l0.1-18.2l4.2,0l0,2.6c0.4-0.8,0.9-1.4,1.6-1.9
		c0.7-0.5,1.7-0.7,2.9-0.7l1.4,0c1.8,0,3.1,0.3,4.1,0.8c1,0.5,1.6,1.4,2,2.7c0.3-1.2,0.9-2.1,1.8-2.6c0.8-0.5,2-0.8,3.4-0.8l1.6,0
		c1.3,0,2.4,0.2,3.2,0.5c0.8,0.3,1.5,0.8,2,1.4c0.5,0.6,0.8,1.4,1,2.3c0.2,0.9,0.3,2,0.3,3.2l-0.1,10.9L171.8,42.2L171.8,42.2z
		 M185.6,42.3c-2.1,0-3.7-0.4-4.5-1.1c-0.9-0.7-1.3-1.9-1.3-3.4l0-2c0-1.6,0.5-2.7,1.4-3.3c0.9-0.7,2.4-1,4.4-1l6.3,0
		c0.9,0,1.6,0.1,2.1,0.2c0.5,0.1,0.9,0.3,1.2,0.5l0-2.1c0-0.9-0.3-1.4-0.8-1.7c-0.5-0.3-1.4-0.4-2.6-0.4L181.2,28l0.5-4l10.7,0.1
		c1.5,0,2.7,0.2,3.6,0.5c0.9,0.3,1.7,0.7,2.2,1.2c0.5,0.5,0.9,1.1,1.1,1.8c0.2,0.7,0.3,1.4,0.3,2.2l-0.1,12.5
		c-0.7,0-1.3-0.2-1.9-0.6c-0.6-0.4-1-1.2-1.2-2.3c-0.3,0.8-0.8,1.5-1.6,2.1c-0.8,0.5-1.8,0.8-3.2,0.8L185.6,42.3L185.6,42.3z
		 M195.2,34.9c-0.4-0.2-0.8-0.3-1.3-0.4s-1.2-0.1-2-0.1l-5.5,0c-0.7,0-1.2,0.1-1.6,0.4c-0.3,0.3-0.5,0.8-0.5,1.6
		c0,0.8,0.2,1.3,0.5,1.6c0.3,0.3,0.8,0.4,1.5,0.4l5.5,0c0.8,0,1.5-0.1,2.2-0.4c0.6-0.3,1-0.8,1.2-1.5L195.2,34.9L195.2,34.9z
		 M202.9,42.4c0.1-0.7,0.2-1.3,0.3-2c0.1-0.7,0.2-1.3,0.3-2l12.6,0.1c0.6,0,1.1-0.1,1.4-0.4c0.3-0.2,0.5-0.8,0.5-1.6
		c0-0.8-0.1-1.3-0.4-1.6c-0.3-0.2-0.8-0.4-1.4-0.4l-6.7,0c-2.1,0-3.7-0.3-4.7-1c-1-0.6-1.5-1.7-1.5-3.3l0-2c0-0.8,0.1-1.5,0.4-2.1
		c0.3-0.6,0.7-1,1.2-1.3c0.5-0.3,1.2-0.5,2-0.7c0.8-0.1,1.8-0.2,2.8-0.2l12.4,0.1l-0.7,4L210,28.1c-0.6,0-1.1,0.1-1.4,0.4
		c-0.3,0.2-0.5,0.8-0.5,1.5c0,0.7,0.1,1.2,0.4,1.5c0.3,0.3,0.8,0.4,1.4,0.4l6.7,0c2.1,0,3.6,0.3,4.6,1c1,0.6,1.5,1.7,1.5,3.3l0,2
		c0,0.9-0.1,1.6-0.4,2.1c-0.3,0.5-0.7,1-1.2,1.3c-0.5,0.3-1.2,0.5-2,0.7c-0.8,0.1-1.8,0.2-2.8,0.2L202.9,42.4L202.9,42.4z
		 M225.4,42.5c0.1-0.7,0.2-1.3,0.3-2c0.1-0.7,0.2-1.3,0.3-2l12.6,0.1c0.6,0,1.1-0.1,1.4-0.4c0.3-0.2,0.5-0.8,0.5-1.6
		c0-0.8-0.1-1.3-0.4-1.6c-0.3-0.2-0.8-0.4-1.4-0.4l-6.7,0c-2.1,0-3.7-0.3-4.7-1c-1-0.6-1.5-1.7-1.5-3.3l0-2c0-0.8,0.1-1.5,0.4-2.1
		c0.3-0.6,0.7-1,1.2-1.3c0.5-0.3,1.2-0.5,2-0.7c0.8-0.1,1.8-0.2,2.8-0.2l12.4,0.1l-0.7,4l-11.6-0.1c-0.6,0-1.1,0.1-1.4,0.4
		c-0.3,0.2-0.5,0.8-0.5,1.5c0,0.7,0.1,1.2,0.4,1.5c0.3,0.3,0.8,0.4,1.4,0.4l6.7,0c2.1,0,3.6,0.3,4.6,1c1,0.6,1.5,1.7,1.5,3.3l0,2
		c0,0.9-0.1,1.6-0.4,2.1c-0.3,0.5-0.7,1-1.2,1.3c-0.5,0.3-1.2,0.5-2,0.7c-0.8,0.1-1.8,0.2-2.8,0.2L225.4,42.5L225.4,42.5z"/>
	<path fill="#19191C" d="M78.9,47.3l0,6.4l-1,0l0-6.4l-2.4,0l0-0.9l5.8,0l0,0.9L78.9,47.3L78.9,47.3z M91.6,47.3l0,2.2l3.8,0l0,0.9
		l-3.8,0l0,2.5l4,0l0,0.9l-5,0l0-7.3l5,0l0,0.9L91.6,47.3L91.6,47.3z M110,51.2l1,0c0,0.2,0,0.3,0,0.4c0,0.6,0,1-0.1,1.3
		c-0.2,0.5-0.6,0.8-1.3,1c-0.2,0-0.9,0.1-1.9,0.1c-0.5,0-0.8,0-1,0c-0.2,0-0.4-0.1-0.6-0.1c-0.7-0.2-1.1-0.9-1.2-2
		c0-0.5-0.1-1-0.1-1.6c0-1.1,0-1.9,0.1-2.2c0.1-0.6,0.4-1,0.9-1.3c0.3-0.2,0.7-0.3,1.3-0.3c0.3,0,0.7,0,1.4,0c0.6,0,1.1,0,1.3,0.1
		c0.6,0.2,0.9,0.6,1,1.3c0,0.2,0.1,0.5,0.1,0.9c0,0,0,0.1,0,0.2l-1,0c0-0.2,0-0.3,0-0.3c0-0.6-0.1-1-0.3-1.1
		c-0.2-0.1-0.6-0.2-1.2-0.2c-0.8,0-1.4,0-1.7,0.1c-0.2,0-0.4,0.1-0.5,0.2c-0.1,0.1-0.2,0.2-0.3,0.4c-0.1,0.2-0.1,0.6-0.1,1
		c0,1.7,0,2.8,0.1,3.2c0.1,0.3,0.2,0.5,0.3,0.6c0.2,0.1,0.4,0.2,0.8,0.2c0.2,0,0.5,0,0.7,0c0.6,0,1,0,1.3-0.1c0.3,0,0.5-0.1,0.6-0.2
		c0.1-0.1,0.2-0.5,0.2-1C110.1,51.7,110.1,51.5,110,51.2L110,51.2z M126.7,46.6l0,7.3l-1,0l0-3.3l-4.2,0l0,3.3l-1,0l0-7.3l1,0l0,3.1
		l4.2,0l0-3.1L126.7,46.6L126.7,46.6z M143.1,46.7l0,7.3l-1.5,0l-4-6.4l0,6.4l-1,0l0-7.3l1.5,0l4,6.4l0-6.4L143.1,46.7L143.1,46.7z
		 M156.1,46.6c0.5,0,1,0,1.2,0.1c0.3,0,0.5,0.1,0.7,0.2c0.6,0.3,1,0.9,1.1,1.8c0,0.2,0,0.7,0,1.4c0,1.1,0,1.8-0.1,2.1
		c-0.1,0.5-0.2,0.8-0.3,1.1c-0.2,0.3-0.4,0.5-0.7,0.6c-0.3,0.1-0.7,0.2-1.2,0.3c-0.3,0-0.6,0-1,0c-0.7,0-1.1,0-1.4-0.1
		c-0.3,0-0.5-0.1-0.8-0.2c-0.4-0.2-0.7-0.6-0.9-1.1c-0.1-0.4-0.2-0.8-0.2-1.3c0-0.3,0-0.8,0-1.4c0-0.7,0-1.1,0.1-1.4
		c0.1-0.9,0.5-1.5,1.1-1.8c0.3-0.1,0.6-0.2,1.1-0.2C155.3,46.6,155.6,46.6,156.1,46.6L156.1,46.6z M155.9,47.6c-0.5,0-0.8,0-1,0
		c-0.2,0-0.4,0.1-0.5,0.1c-0.3,0.1-0.4,0.3-0.5,0.7c-0.1,0.3-0.1,0.5-0.1,0.9l0,1.1c0,0.9,0,1.4,0,1.6c0,0.3,0.1,0.6,0.2,0.8
		c0.1,0.2,0.2,0.3,0.4,0.4c0.2,0.1,0.4,0.1,0.7,0.1c0.2,0,0.6,0,0.9,0c0.5,0,0.9,0,1.1,0c0.2,0,0.4-0.1,0.5-0.1
		c0.3-0.1,0.4-0.3,0.5-0.7c0.1-0.3,0.1-0.5,0.1-0.9l0-1.1c0-0.9,0-1.4,0-1.6c0-0.3-0.1-0.6-0.2-0.8c-0.1-0.2-0.2-0.3-0.4-0.4
		c-0.2-0.1-0.4-0.1-0.7-0.1C156.6,47.6,156.3,47.6,155.9,47.6L155.9,47.6z M169.8,46.8l0,6.4l3.9,0l0,0.9l-4.9,0l0-7.3L169.8,46.8
		L169.8,46.8z M185.9,46.8c0.5,0,1,0,1.2,0.1c0.3,0,0.5,0.1,0.7,0.2c0.6,0.3,1,0.9,1.1,1.8c0,0.3,0,0.7,0,1.4c0,1.1,0,1.8-0.1,2.1
		c-0.1,0.5-0.2,0.8-0.3,1.1c-0.2,0.3-0.4,0.5-0.7,0.6c-0.3,0.1-0.7,0.2-1.2,0.3c-0.3,0-0.6,0-1,0c-0.7,0-1.1,0-1.4-0.1
		c-0.3,0-0.5-0.1-0.8-0.2c-0.4-0.2-0.7-0.6-0.9-1.1c-0.1-0.4-0.2-0.8-0.2-1.3c0-0.3,0-0.8,0-1.4c0-0.7,0-1.1,0.1-1.4
		c0.1-0.9,0.5-1.5,1.1-1.8c0.3-0.1,0.6-0.2,1.1-0.2C185.1,46.8,185.5,46.8,185.9,46.8L185.9,46.8z M185.7,47.7c-0.5,0-0.8,0-1,0
		c-0.2,0-0.4,0.1-0.5,0.1c-0.3,0.1-0.4,0.3-0.5,0.7c-0.1,0.3-0.1,0.5-0.1,0.9l0,1.1c0,0.9,0,1.4,0,1.6c0,0.3,0.1,0.6,0.2,0.8
		c0.1,0.2,0.2,0.3,0.4,0.4c0.2,0.1,0.4,0.1,0.7,0.1c0.2,0,0.6,0,0.9,0c0.5,0,0.9,0,1.1,0c0.2,0,0.4-0.1,0.5-0.1
		c0.3-0.1,0.4-0.3,0.5-0.7c0.1-0.3,0.1-0.5,0.1-0.9l0-1.1c0-0.9,0-1.4,0-1.6c0-0.3-0.1-0.6-0.2-0.8c-0.1-0.2-0.2-0.3-0.4-0.4
		c-0.2-0.1-0.4-0.1-0.7-0.1C186.5,47.7,186.2,47.7,185.7,47.7L185.7,47.7z M201.4,50.6l3.2,0c0,0.2,0,0.5,0,0.8c0,0.5,0,0.9,0,1.2
		c-0.1,0.9-0.4,1.4-1,1.7c-0.3,0.1-1,0.2-2.1,0.2c-0.7,0-1.3,0-1.6-0.1c-0.3-0.1-0.6-0.2-0.9-0.4c-0.4-0.3-0.6-0.8-0.6-1.5
		c0-0.3,0-0.6,0-1c0-0.1,0-0.3,0-0.8c0-0.1,0-0.2,0-0.3c0-0.7,0-1.2,0.1-1.5c0.1-0.3,0.2-0.7,0.3-0.9c0.2-0.5,0.7-0.8,1.3-0.9
		c0.2,0,0.7-0.1,1.4-0.1c0.8,0,1.3,0,1.5,0c0.3,0,0.5,0.1,0.7,0.1c0.6,0.2,1,0.7,1,1.4c0,0.1,0,0.4,0,0.8l-1,0c0-0.5,0-0.9-0.1-1.1
		c-0.1-0.2-0.3-0.3-0.7-0.3c-0.3,0-0.8,0-1.5-0.1c-0.6,0-1,0-1.3,0.1c-0.3,0.1-0.5,0.3-0.6,0.7c0,0.2-0.1,0.9-0.1,2
		c0,0.9,0,1.4,0,1.6c0,0.4,0.1,0.7,0.2,0.8c0.1,0.2,0.3,0.3,0.5,0.4c0.3,0.1,0.9,0.1,1.8,0.1c0.5,0,0.9,0,1.1-0.1
		c0.2,0,0.4-0.1,0.5-0.2c0.1-0.2,0.2-0.6,0.2-1.4c0-0.1,0-0.2,0-0.4l-2.3,0L201.4,50.6L201.4,50.6z M215.3,47.1l0,7.3l-1,0l0-7.3
		L215.3,47.1L215.3,47.1z M226.2,48l0,2.2l3.8,0l0,0.9l-3.8,0l0,2.5l4,0l0,0.9l-5,0l0-7.3l5,0l0,0.9L226.2,48L226.2,48z M245.1,49.3
		l-1,0c0-0.3,0-0.6,0-0.7c-0.1-0.3-0.2-0.5-0.5-0.5c-0.2,0-0.5-0.1-1-0.1c-0.7,0-1.1,0-1.3,0c-0.4,0.1-0.6,0.2-0.7,0.5
		c-0.1,0.2-0.1,0.4-0.1,0.6c0,0.3,0,0.6,0.1,0.8c0.1,0.2,0.3,0.3,0.7,0.4c0.1,0,0.5,0,1.2,0.1c0.7,0,1.2,0.1,1.5,0.1
		c0.5,0.1,0.9,0.4,1.1,0.8c0.1,0.3,0.2,0.7,0.2,1.2c0,0.8-0.1,1.3-0.4,1.6c-0.3,0.3-0.6,0.5-1.1,0.5c-0.4,0-0.9,0.1-1.5,0
		c-0.8,0-1.3,0-1.6-0.1c-0.6-0.2-1-0.7-1.1-1.5c0-0.2,0-0.5,0-0.9l1,0c0,0.1,0,0.2,0,0.3c0,0.4,0,0.6,0.1,0.8
		c0.1,0.2,0.1,0.3,0.3,0.4c0.1,0.1,0.3,0.1,0.6,0.1c0.3,0,0.6,0,1,0c0.5,0,0.9,0,1.2-0.1c0.2,0,0.4-0.1,0.5-0.2
		c0.1-0.1,0.2-0.5,0.2-1.1c0-0.3,0-0.5-0.1-0.6c-0.1-0.2-0.3-0.3-0.6-0.4c-0.2,0-0.6,0-1.2-0.1c-0.7,0-1.1-0.1-1.2-0.1
		c-0.5-0.1-0.9-0.3-1.2-0.6c-0.2-0.3-0.3-0.7-0.3-1.3c0-0.9,0.2-1.4,0.6-1.7c0.3-0.2,0.7-0.4,1.1-0.4c0.3,0,0.7,0,1.1,0
		c0.8,0,1.4,0.1,1.7,0.2c0.6,0.2,1,0.7,1,1.5C245.1,48.9,245.1,49,245.1,49.3L245.1,49.3z"/>
</g>
</svg>
