<?xml version="1.0" encoding="utf-8"?>
<!-- Generator: Adobe Illustrator 18.0.0, SVG Export Plug-In . SVG Version: 6.00 Build 0)  -->
<!DOCTYPE svg PUBLIC "-//W3C//DTD SVG 1.1//EN" "http://www.w3.org/Graphics/SVG/1.1/DTD/svg11.dtd">
<svg version="1.1" id="Layer_1" xmlns="http://www.w3.org/2000/svg" xmlns:xlink="http://www.w3.org/1999/xlink" x="0px" y="0px"
	 viewBox="0 0 250 80" enable-background="new 0 0 250 80" xml:space="preserve">
<polygon fill="#19191C" points="19.8,13 30.1,2.4 20.6,2.4 9.9,13.4 20.6,24.3 30,24.3 "/>
<polygon fill="#19191C" points="27.1,13 37.3,24.3 45.3,24.3 35.1,13 45.3,2.4 37.2,2.4 "/>
<path fill="#19191C" d="M212.6,56.3C212.6,56.3,212.5,56.3,212.6,56.3l-8,0l10.2,11.2L204.6,78h8l10.1-10.5L212.6,56.3z"/>
<polygon fill="#19191C" points="229.4,56.3 219.9,56.3 219.9,56.3 219.9,56.3 230.1,67.5 219.8,78 229.4,78 240.2,67.4 "/>
<g>
	<path fill="#19191C" d="M24.4,32.4h2.5v16.9h-2.5V32.4z"/>
	<path fill="#19191C" d="M49.1,32.4h3.5v16.9H50v-14h0l-6.6,14h-2.2l-6.6-13.8h0v13.8H32V32.4h3.5l6.7,14L49.1,32.4z"/>
	<path fill="#19191C" d="M57.5,32.4h8.7c3.7,0,5.7,1.7,5.7,4.9c0,3.2-1.9,5.3-5.5,5.3H60v6.8h-2.5V32.4z M66.1,40.4
		c2.5,0,3.3-1.4,3.3-3.1c0-1.6-0.9-2.7-2.9-2.7H60v5.8H66.1z"/>
	<path fill="#19191C" d="M75.8,32.4h10.5c3.4,0,4.6,2.3,4.6,4.5c0,2.1-1,3.6-2.8,4.2v0c1.5,0.2,2.4,1.6,2.5,3.6
		c0.1,3.2,0.2,3.9,0.8,4.6h-2.7c-0.4-0.5-0.4-1.2-0.5-3.2c-0.2-3-1.2-4-3.3-4h-6.6v7.2h-2.5V32.4z M85.4,40c2.5,0,3.1-1.5,3.1-2.7
		c0-1.6-1-2.7-3-2.7h-7.1V40H85.4z"/>
	<path fill="#19191C" d="M103.9,32c6.8,0,9.4,4.6,9.4,8.9s-2.6,8.9-9.4,8.9c-6.8,0-9.4-4.6-9.4-8.9S97.1,32,103.9,32z M103.9,34.2
		c-3.9,0-6.9,2.2-6.9,6.7s3,6.7,6.9,6.7c3.9,0,6.9-2.2,6.9-6.7S107.8,34.2,103.9,34.2z"/>
	<path fill="#19191C" d="M129.6,32.4h2.7l-7.4,16.9h-2.7l-7.5-16.9h2.8l6.1,14.3L129.6,32.4z"/>
	<path fill="#19191C" d="M135.5,32.4h13.6v2.2h-11.1v4.9h10.8v2.2h-10.8v5.5h11.3v2.2h-13.9V32.4z"/>
	<path fill="#19191C" d="M170.5,32.4h3.5v16.9h-2.5v-14h0l-6.6,14h-2.2L156,35.6h0v13.8h-2.5V32.4h3.5l6.7,14L170.5,32.4z"/>
	<path fill="#19191C" d="M178.9,32.4h13.6v2.2h-11.1v4.9h10.8v2.2h-10.8v5.5h11.3v2.2h-13.9V32.4z"/>
	<path fill="#19191C" d="M199.4,35.9L199.4,35.9l0,13.5h-2.5V32.4h2.9l10.9,13.5h0V32.4h2.5v16.9h-2.9L199.4,35.9z"/>
	<path fill="#19191C" d="M222.9,34.6h-6.4v-2.2h15.3v2.2h-6.4v14.8h-2.5V34.6z"/>
</g>
<path fill="#19191C" d="M109.8,62.4H104v4.4h5.7c2,0,2.5-1.2,2.5-2.2C112.2,63.3,111.4,62.4,109.8,62.4z"/>
<linearGradient id="SVGID_1_" gradientUnits="userSpaceOnUse" x1="207.2919" y1="67.147" x2="10.6274" y2="67.147">
	<stop  offset="0.6794" style="stop-color:#19191C"/>
	<stop  offset="1" style="stop-color:#19191C;stop-opacity:0"/>
</linearGradient>
<path fill="url(#SVGID_1_)" d="M197.2,56.3H10.9V78h186.6l10.1-10.5L197.2,56.3z M93.9,68.9h-5.2v5.5h-2V60.7h7.1c3,0,4.6,1.4,4.6,4
	C98.4,67.2,96.8,68.9,93.9,68.9z M112.4,74.5c-0.3-0.4-0.3-1-0.4-2.6c-0.1-2.5-1-3.2-2.7-3.2H104v5.9h-2V60.7h8.5
	c2.8,0,3.8,1.9,3.8,3.7c0,1.7-0.8,2.9-2.3,3.4v0c1.2,0.2,1.9,1.3,2,2.9c0.1,2.6,0.2,3.2,0.7,3.7H112.4z M125.2,74.8
	c-5.5,0-7.7-3.7-7.7-7.2c0-3.5,2.1-7.2,7.7-7.2c5.5,0,7.7,3.7,7.7,7.2C132.9,71.1,130.7,74.8,125.2,74.8z M144.9,70
	c0,3.6-2,4.8-4.6,4.8c-4.6,0-4.7-3.2-4.7-5h1.9v0.7c0,1.9,1,2.8,2.7,2.8c1.7,0,2.6-1,2.6-2.7v-9.8h2V70z M160.6,74.5h-11.3V60.7
	h11.1v1.8h-9v4h8.8v1.8h-8.8v4.5h9.2V74.5z M170.9,73c2.4,0,4.3-1.2,4.8-3.8h2c-0.3,3.1-3,5.6-6.9,5.6c-3.5,0-7.2-1.9-7.2-7.3
	c0-4,2.5-7.2,7.2-7.2c2.8,0,6.6,1.2,6.9,5.3h-2c-0.3-1.9-1.8-3.5-4.7-3.5c-3.3,0-5.3,1.9-5.3,5.6C165.6,70.3,167,73,170.9,73z
	 M192,62.4h-5.2v12h-2v-12h-5.2v-1.8H192V62.4z"/>
<path fill="#19191C" d="M94,62.4h-5.3v4.7h4.9c2,0,2.7-1.1,2.7-2.5C96.3,63.3,95.5,62.4,94,62.4z"/>
<path fill="#19191C" d="M125.2,62.1c-3.1,0-5.6,1.8-5.6,5.5c0,3.7,2.5,5.5,5.6,5.5c3.1,0,5.6-1.8,5.6-5.5
	C130.8,63.9,128.3,62.1,125.2,62.1z"/>
<path fill="#19191C" d="M109.2,8.5h-5.3v4.7h4.9c2,0,2.7-1.1,2.7-2.5C111.5,9.4,110.7,8.5,109.2,8.5z"/>
<polygon fill="#19191C" points="118.6,14.7 123.8,14.7 121.2,8.6 "/>
<path fill="#19191C" d="M90.3,8.2c-3.1,0-5.6,1.8-5.6,5.5c0,3.7,2.5,5.5,5.6,5.5c3.1,0,5.6-1.8,5.6-5.5C95.9,10,93.5,8.2,90.3,8.2z"
	/>
<linearGradient id="SVGID_2_" gradientUnits="userSpaceOnUse" x1="41.802" y1="13.358" x2="239.736" y2="13.358">
	<stop  offset="0.6039" style="stop-color:#19191C"/>
	<stop  offset="1" style="stop-color:#19191C;stop-opacity:0"/>
</linearGradient>
<path fill="url(#SVGID_2_)" d="M52.4,2.4L42.3,13l10.3,11.3h186.5V2.4H52.4z M79,20.5h-2V9.1h0l-5.4,11.4h-1.8L64.3,9.3h0v11.2h-2
	V6.7h2.9l5.5,11.4l5.5-11.4H79V20.5z M90.3,20.9c-5.5,0-7.7-3.7-7.7-7.2c0-3.5,2.1-7.2,7.7-7.2c5.5,0,7.7,3.7,7.7,7.2
	C98,17.2,95.9,20.9,90.3,20.9z M109.1,15h-5.2v5.5h-2V6.7h7.1c3,0,4.6,1.4,4.6,4C113.6,13.3,112,15,109.1,15z M126.3,20.5l-1.8-4
	h-6.8l-1.8,4h-2.2l6.2-13.8h2.3l6.2,13.8H126.3z M137.5,19.1c2.4,0,4.3-1.2,4.8-3.8h2c-0.3,3.1-3,5.6-6.9,5.6
	c-3.5,0-7.2-1.9-7.2-7.3c0-4,2.5-7.2,7.2-7.2c2.8,0,6.6,1.2,6.9,5.3h-2c-0.3-1.9-1.8-3.5-4.7-3.5c-3.3,0-5.3,1.9-5.3,5.6
	C132.2,16.4,133.7,19.1,137.5,19.1z"/>
</svg>
