<?xml version="1.0" encoding="utf-8"?>
<!-- Generator: Adobe Illustrator 18.0.0, SVG Export Plug-In . SVG Version: 6.00 Build 0)  -->
<!DOCTYPE svg PUBLIC "-//W3C//DTD SVG 1.1//EN" "http://www.w3.org/Graphics/SVG/1.1/DTD/svg11.dtd">
<svg version="1.1" id="Layer_1" xmlns="http://www.w3.org/2000/svg" xmlns:xlink="http://www.w3.org/1999/xlink" x="0px" y="0px"
	 viewBox="0 0 250 80" enable-background="new 0 0 250 80" xml:space="preserve">
<path fill="#19191C" d="M16,39.6c-8.5,0-14.5-5.8-14.5-13.8C1.5,18,7.5,12,16,12c8.5,0,14.5,5.9,14.5,13.8
	C30.5,33.8,24.6,39.6,16,39.6z M16,13.3c-4.6,0-10.2,4.1-10.2,12.6c0,8.5,5.5,12.5,10.2,12.5c4.7,0,10.1-3.9,10.1-12.5
	C26.2,17.4,20.7,13.3,16,13.3z"/>
<path fill="#19191C" d="M42.5,39.4c-2.9,0-4.1-1.1-5.4-2.6l0,10.6c-1.5-0.1-2.3-0.1-3.7,0c0-4,0.1-11.2,0.1-11.2s0-13.1-0.1-14.1
	c1.4,0,1.8,0,3.6,0v2.1c1.2-1.5,3-2.7,5.3-2.7c5.1,0,8.2,4,8.2,8.8C50.5,35.5,47.2,39.4,42.5,39.4z M41.2,22.9c-1.7,0-3.4,1.5-4.2,3
	v8.8c0.8,1.6,2.4,3.3,4.4,3.3c3.4,0,5-4.5,5-7.8C46.4,26.5,44.6,22.9,41.2,22.9z"/>
<path fill="#19191C" d="M57.4,30c0.1,2.6,1.3,7.6,6.5,7.6c1.8,0,3.7-0.7,5.4-2.4l0.5,0.7c-0.9,0.9-3,3.5-7.8,3.5
	c-4.5,0-8.6-3.4-8.6-9.2c0-5.7,4.8-8.9,8.6-8.9c4.2,0,8.7,2.8,8.5,8.7H57.4z M62,22.2c-2.1,0-4.5,2.1-4.5,6.6h9.1
	C66.6,24.7,64.7,22.2,62,22.2z"/>
<path fill="#19191C" d="M85.5,39c0.1-2.3,0.1-4,0-6.2c0-1.5,0-3.5,0-5.1c0-1.6-0.8-4.1-3.3-4.1c-2.2,0-4.4,2.2-4.8,2.9
	c0,1.4,0,3.2,0,4.8c0,2.7,0.1,5.6,0.1,7.7c-1.3-0.1-2.6-0.1-3.8,0c0,0,0.1-3.9,0.1-8c0-3.3,0-6.9-0.1-8.9c1.3,0,2.2,0,3.7,0
	c0,1,0,1.9-0.1,2.8c1.7-1.7,3.7-3.4,6.5-3.4c2.3,0,4,1.3,4.8,3c0.4,1,0.5,2.3,0.4,3.7c0,1,0,2.5,0,4.3c0,1.9,0,4.2,0.1,6.5
	C87.9,38.9,86.6,38.9,85.5,39z"/>
<path fill="#19191C" d="M106,38.3c-1.6,0.8-3.2,1.2-5.7,1.2c-2.1,0-4.4-0.7-6.2-1.8v-1.6c1.1,0.6,2.7,1.6,6.1,1.6
	c2.8,0,6.2-1.6,6.2-5.1c0-3.1-2.6-4.2-4.7-5.2c-1.5-0.7-3.1-1.6-4.5-2.5c-2.1-1.3-3-3.5-3-5.6c0-4,3.5-7.3,8.7-7.3c2,0,4,0.5,6,1.5
	l-0.2,1.3c-1.8-0.7-2.9-1-5-1c-3.1,0-5.6,2.2-5.6,4.7c0,2.5,1.7,3.4,3.8,4.4c1,0.5,2.3,1.2,4.1,2.2c2.6,1.4,4.3,3.6,4.3,6.4
	C110.4,34.3,109,36.8,106,38.3z"/>
<path fill="#19191C" d="M122.9,31.7c-1.4,3.8-3.6,9.8-3.6,9.8c-1.2,3.3-2.9,5.6-5.2,5.6c-0.9,0-1.2,0-1.8-0.1v-2
	c0.6,0.1,0.7,0.2,1.4,0.2c1.9,0,3.4-1.2,4.4-4.2c0,0-1.9-5.7-3.2-9.2c-1.4-3.8-3.6-9.7-3.6-9.7c0.8,0.1,2.8,0.1,3.9,0
	c0,0,1.2,3.9,2.1,6.3c1,2.9,2.7,7.3,2.7,7.3l4.8-13.6c0.6,0,1.2,0,1.9,0C126.6,22.1,124.3,28,122.9,31.7z"/>
<path fill="#19191C" d="M151.1,39c0-2.2,0-4.3,0-6.2c0-1.5,0-3.5,0-5.1c0-1.6-0.6-4.1-3-4.1c-2,0-4,1.9-4.4,2.6c0,0.3,0,1.2,0,2
	c0,1,0,2.5,0,4.3c0,1.9,0.1,4.1,0.1,6.5c-1.2-0.1-2.7-0.1-3.7,0c0-2.3,0-4.1,0-6.2c0-1.5,0-3.5,0-5.1c0-1.6-0.6-4.1-3-4.1
	c-2.1,0-4,2.2-4.4,2.9c0,1.4,0,3.2,0,4.8c0,2.7,0.1,5.6,0.1,7.7c-1.2-0.1-2.6-0.1-3.8,0c0,0,0.1-3.9,0.1-8c0-3.3,0-6.9-0.1-8.9
	c1.2,0,2.4,0,3.7,0c0,1,0,1.9-0.1,2.8c1.5-1.7,3.4-3.4,5.9-3.4c2.2,0,4,1.3,4.7,3c0,0.1,0.1,0.3,0.1,0.4c1.5-1.6,3.6-3.4,6.1-3.4
	c2.3,0,4,1.3,4.7,3c0.4,1,0.4,2.3,0.4,3.7c0,1,0,2.5,0,4.3c0,1.9,0,4.1,0.1,6.5C153.7,38.9,152.2,38.9,151.1,39z"/>
<path fill="#19191C" d="M180.8,39c0-2.2,0-4.3,0-6.2c0-1.5,0-3.5,0-5.1c0-1.6-0.6-4.1-3-4.1c-2,0-4,1.9-4.4,2.6c0,0.3,0,1.2,0,2
	c0,1,0,2.5,0,4.3c0,1.9,0.1,4.1,0.1,6.5c-1.2-0.1-2.7-0.1-3.7,0c0-2.3,0-4.1,0-6.2c0-1.5,0-3.5,0-5.1c0-1.6-0.6-4.1-3-4.1
	c-2.1,0-4,2.2-4.4,2.9c0,1.4,0,3.2,0,4.8c0,2.7,0.1,5.6,0.1,7.7c-1.2-0.1-2.6-0.1-3.8,0c0,0,0.1-3.9,0.1-8c0-3.3,0-6.9-0.1-8.9
	c1.2,0,2.4,0,3.7,0c0,1,0,1.9-0.1,2.8c1.5-1.7,3.4-3.4,5.9-3.4c2.2,0,4,1.3,4.7,3c0,0.1,0.1,0.3,0.1,0.4c1.5-1.6,3.6-3.4,6.1-3.4
	c2.3,0,4,1.3,4.7,3c0.4,1,0.4,2.3,0.4,3.7c0,1,0,2.5,0,4.3c0,1.9,0,4.1,0.1,6.5C183.4,38.9,181.8,38.9,180.8,39z"/>
<path fill="#19191C" d="M191.9,30c0.1,2.6,1.3,7.6,6.5,7.6c1.8,0,3.7-0.7,5.4-2.4l0.5,0.7c-0.9,0.9-3,3.5-7.8,3.5
	c-4.5,0-8.6-3.4-8.6-9.2c0-5.7,4.8-8.9,8.6-8.9c4.2,0,8.7,2.8,8.5,8.7H191.9z M196.5,22.2c-2.1,0-4.5,2.1-4.5,6.6h9.1
	C201.1,24.7,199.2,22.2,196.5,22.2z"/>
<path fill="#19191C" d="M213.2,39.4c-1.5,0-4.8-0.6-4.7-5.7c0-1.5,0.1-3.7,0.1-5.6c0-2.3-0.1-4.1-0.1-5h-2.3c2.1-1.8,4-3.6,5.9-5.6
	v4.7h5v1h-5c0,2.4,0,6.1,0,10.4c0,2.5,1.1,4.1,3.4,4.1c0.7,0,1.5-0.3,2.3-1l0.4,0.7C216.5,39,214.8,39.4,213.2,39.4z"/>
<path fill="#19191C" d="M230.1,24.4c-1-0.4-4.3-1.8-6.1,2.7c0,1.4,0,2.6,0,4.3c0,2.7,0.1,5.6,0.1,7.7c-1.3-0.1-2.6-0.1-3.8,0
	c0,0,0.1-3.9,0.1-8c0-3.3,0-6.9-0.1-8.9c1.3,0,2.2,0,3.7,0c0,1,0,2.2-0.1,3.1c0.7-1.7,2.6-4.4,6.5-3.6L230.1,24.4z"/>
<path fill="#19191C" d="M243.7,31.7c-1.4,3.8-3.6,9.8-3.6,9.8c-1.2,3.3-2.9,5.6-5.2,5.6c-0.9,0-1.2,0-1.8-0.1v-2
	c0.6,0.1,0.7,0.2,1.4,0.2c1.9,0,3.4-1.2,4.4-4.2c0,0-1.9-5.7-3.2-9.2c-1.4-3.8-3.6-9.7-3.6-9.7c0.8,0.1,2.8,0.1,3.9,0
	c0,0,1.2,3.9,2.1,6.3c1,2.9,2.7,7.3,2.7,7.3l4.8-13.6c0.6,0,1.2,0,1.9,0C247.5,22.1,245.2,28,243.7,31.7z"/>
<g>
	<rect x="1.6" y="52.8" fill="#19191C" width="244.9" height="0.7"/>
</g>
<g>
	<path fill="#19191C" d="M29.3,62.4c-0.3,0.1-0.7,0.1-1.1,0.1c-0.3,0-0.5,0-0.7,0c0,1.9,0,2.6,0,3.3c-0.3,0-0.8,0-1.1,0
		c0-0.3,0-2.7,0-3.7c0-1.4,0-3,0-3.5c0.3,0,0.6,0,0.9,0c0.6,0,0.9,0,1.5,0c1.1,0,2.1,0.7,2.1,1.9C31,61.6,30.1,62.2,29.3,62.4z
		 M29.4,59.3c-0.3-0.2-0.6-0.3-1.1-0.3c-0.2,0-0.5,0-0.8,0c0,0.3,0,0.8,0,1l0,2c0.1,0,0.2,0,0.4,0c0.5,0,0.8,0,1.2-0.2
		c0.5-0.2,0.9-0.9,0.9-1.4C29.9,60.1,29.7,59.6,29.4,59.3z"/>
	<path fill="#19191C" d="M32.4,63.4c0,0.7,0.3,2,1.8,2c0.5,0,1-0.2,1.4-0.6l0.1,0.2c-0.2,0.2-0.8,1-2.1,1c-1.2,0-2.3-0.9-2.3-2.5
		c0-1.5,1.3-2.4,2.3-2.4c1.1,0,2.4,0.8,2.3,2.4H32.4z M33.6,61.3c-0.6,0-1.2,0.6-1.2,1.8h2.5C34.9,61.9,34.4,61.3,33.6,61.3z"/>
	<path fill="#19191C" d="M39.7,61.9c-0.3-0.1-1.2-0.5-1.7,0.7c0,0.4,0,0.7,0,1.2c0,0.7,0,1.5,0,2.1c-0.4,0-0.7,0-1,0
		c0,0,0-1.1,0-2.2c0-0.9,0-1.9,0-2.4c0.4,0,0.6,0,1,0c0,0.3,0,0.6,0,0.8c0.2-0.5,0.7-1.2,1.7-1L39.7,61.9z"/>
	<path fill="#19191C" d="M43.3,59c-0.2-0.2-0.5-0.3-0.7-0.3c-0.6,0-1,0.3-1,1.1c0,1.1,0,0.8,0,1.4h1v0.3h-1l0,4.3h-1l0-3.4
		c0-0.2,0-0.5,0-0.9h-0.5v-0.3h0.5c0-0.6,0-1,0-1.4c0-1.4,0.9-1.6,1.3-1.6c0.4,0,0.9,0.1,1.4,0.6L43.3,59z"/>
	<path fill="#19191C" d="M45.7,65.9c-1.4,0-2.4-0.9-2.4-2.4c0-1.5,1.1-2.4,2.4-2.4c1.4,0,2.4,0.9,2.4,2.4
		C48.2,65,47.1,65.9,45.7,65.9z M45.7,61.3c-0.8,0-1.4,0.9-1.4,2.2c0,1.3,0.6,2.2,1.4,2.2c0.8,0,1.4-0.9,1.4-2.2
		C47.1,62.1,46.6,61.3,45.7,61.3z"/>
	<path fill="#19191C" d="M52,61.9c-0.3-0.1-1.2-0.5-1.7,0.7c0,0.4,0,0.7,0,1.2c0,0.7,0,1.5,0,2.1c-0.4,0-0.7,0-1,0c0,0,0-1.1,0-2.2
		c0-0.9,0-1.9,0-2.4c0.4,0,0.6,0,1,0c0,0.3,0,0.6,0,0.8c0.2-0.5,0.7-1.2,1.7-1L52,61.9z"/>
	<path fill="#19191C" d="M58.9,65.8c0-0.6,0-1.2,0-1.7c0-0.4,0-1,0-1.4c0-0.4-0.2-1.1-0.8-1.1c-0.5,0-1.1,0.5-1.2,0.7
		c0,0.1,0,0.3,0,0.5c0,0.3,0,0.7,0,1.2c0,0.5,0,1.1,0,1.8c-0.3,0-0.7,0-1,0c0-0.6,0-1.1,0-1.7c0-0.4,0-1,0-1.4
		c0-0.4-0.2-1.1-0.8-1.1c-0.6,0-1.1,0.6-1.2,0.8c0,0.4,0,0.9,0,1.3c0,0.7,0,1.5,0,2.1c-0.3,0-0.7,0-1,0c0,0,0-1.1,0-2.2
		c0-0.9,0-1.9,0-2.4c0.3,0,0.6,0,1,0c0,0.3,0,0.5,0,0.8c0.4-0.5,0.9-0.9,1.6-0.9c0.6,0,1.1,0.4,1.3,0.8c0,0,0,0.1,0,0.1
		c0.4-0.4,1-0.9,1.7-0.9c0.6,0,1.1,0.4,1.3,0.8c0.1,0.3,0.1,0.6,0.1,1c0,0.3,0,0.7,0,1.2c0,0.5,0,1.1,0,1.8
		C59.6,65.8,59.2,65.8,58.9,65.8z"/>
	<path fill="#19191C" d="M64.8,65.9c-0.5,0-0.8-0.4-0.9-0.7c-0.2,0.3-0.7,0.8-1.5,0.8c-0.9,0-1.3-0.6-1.3-1.3c0-0.6,0.2-0.8,0.7-1.2
		c0.6-0.4,1.5-0.6,2-0.8c0-1.1-0.9-1.2-1.2-1.2c-0.5,0-0.9,0.3-1.3,0.5v-0.3c0.4-0.3,1-0.7,1.8-0.7c0.6,0,1.7,0.3,1.7,1.7
		c0,0.4,0,1.2,0,2.3c0,0.2,0.1,0.4,0.2,0.5c0.2,0.1,0.4,0,0.5-0.1l0.1,0.2C65.5,65.8,65.1,65.9,64.8,65.9z M63.9,62.9
		c-0.6,0.2-1.7,0.6-1.7,1.6c0,0.4,0.1,1,0.8,1c0.4,0,0.9-0.4,0.9-0.6V62.9z"/>
	<path fill="#19191C" d="M69.9,65.8c0-0.6,0-1.1,0-1.7c0-0.4,0-1,0-1.4c0-0.4-0.2-1.1-0.9-1.1c-0.6,0-1.2,0.6-1.3,0.8
		c0,0.4,0,0.9,0,1.3c0,0.7,0,1.5,0,2.1c-0.4,0-0.7,0-1,0c0,0,0-1.1,0-2.2c0-0.9,0-1.9,0-2.4c0.4,0,0.6,0,1,0c0,0.3,0,0.5,0,0.8
		c0.5-0.5,1-0.9,1.7-0.9c0.6,0,1.1,0.4,1.3,0.8c0.1,0.3,0.1,0.6,0.1,1c0,0.3,0,0.7,0,1.2c0,0.5,0,1.1,0,1.8
		C70.5,65.8,70.2,65.8,69.9,65.8z"/>
	<path fill="#19191C" d="M74.4,65.9c-1.3,0-2.3-1.1-2.3-2.4c0-1.4,1.1-2.4,2.4-2.4c0.9,0,1.6,0.4,1.9,0.8L76.2,62
		c-0.3-0.2-0.7-0.4-1.3-0.4c-0.8,0-1.7,0.6-1.7,1.9c0,1.2,0.8,2,1.7,2c0.7,0,1.2-0.3,1.3-0.5l0.1,0.2C75.6,65.9,74.8,65.9,74.4,65.9
		z"/>
	<path fill="#19191C" d="M78.1,63.4c0,0.7,0.3,2,1.8,2c0.5,0,1-0.2,1.4-0.6l0.1,0.2c-0.2,0.2-0.8,1-2.1,1c-1.2,0-2.3-0.9-2.3-2.5
		c0-1.5,1.3-2.4,2.3-2.4c1.1,0,2.4,0.8,2.3,2.4H78.1z M79.4,61.3c-0.6,0-1.2,0.6-1.2,1.8h2.5C80.6,61.9,80.1,61.3,79.4,61.3z"/>
	<path fill="#19191C" d="M83.5,65.9c-0.3,0-0.6-0.3-0.6-0.6s0.3-0.6,0.6-0.6c0.3,0,0.6,0.3,0.6,0.6S83.9,65.9,83.5,65.9z"/>
	<path fill="#19191C" d="M88.5,65.8c0,0,0-2.9,0-3.7c0-0.8,0-3.5,0-3.5c0.4,0,0.8,0,1.1,0c0,0,0,2.6,0,3.5c0,0.8,0,3.7,0,3.7
		C89.3,65.8,88.9,65.8,88.5,65.8z"/>
	<path fill="#19191C" d="M94.5,65.8c0-0.6,0-1.1,0-1.7c0-0.4,0-1,0-1.4c0-0.4-0.2-1.1-0.9-1.1c-0.6,0-1.2,0.6-1.3,0.8
		c0,0.4,0,0.9,0,1.3c0,0.7,0,1.5,0,2.1c-0.4,0-0.7,0-1,0c0,0,0-1.1,0-2.2c0-0.9,0-1.9,0-2.4c0.4,0,0.6,0,1,0c0,0.3,0,0.5,0,0.8
		c0.5-0.5,1-0.9,1.7-0.9c0.6,0,1.1,0.4,1.3,0.8c0.1,0.3,0.1,0.6,0.1,1c0,0.3,0,0.7,0,1.2c0,0.5,0,1.1,0,1.8
		C95.1,65.8,94.8,65.8,94.5,65.8z"/>
	<path fill="#19191C" d="M100.2,65.8c0-0.6,0-1.1,0-1.7c0-0.4,0-1,0-1.4c0-0.4-0.2-1.1-0.9-1.1c-0.6,0-1.2,0.6-1.3,0.8
		c0,0.4,0,0.9,0,1.3c0,0.7,0,1.5,0,2.1c-0.4,0-0.7,0-1,0c0,0,0-1.1,0-2.2c0-0.9,0-1.9,0-2.4c0.4,0,0.6,0,1,0c0,0.3,0,0.5,0,0.8
		c0.5-0.5,1-0.9,1.7-0.9c0.6,0,1.1,0.4,1.3,0.8c0.1,0.3,0.1,0.6,0.1,1c0,0.3,0,0.7,0,1.2c0,0.5,0,1.1,0,1.8
		C100.8,65.8,100.5,65.8,100.2,65.8z"/>
	<path fill="#19191C" d="M104.7,65.9c-1.4,0-2.4-0.9-2.4-2.4c0-1.5,1.1-2.4,2.4-2.4c1.4,0,2.4,0.9,2.4,2.4
		C107.2,65,106.1,65.9,104.7,65.9z M104.7,61.3c-0.8,0-1.4,0.9-1.4,2.2c0,1.3,0.6,2.2,1.4,2.2c0.8,0,1.4-0.9,1.4-2.2
		C106.1,62.1,105.5,61.3,104.7,61.3z"/>
	<path fill="#19191C" d="M111,63.6c-0.4,0.9-0.9,2.2-0.9,2.2c-0.2,0-0.5,0-0.7,0c0,0-0.6-1.6-0.8-2.2c-0.4-1.1-0.9-2.3-0.9-2.3
		c0.3,0,0.8,0,1.1,0c0,0,0.4,1.1,0.6,1.8c0.2,0.7,0.7,1.9,0.7,1.9s0.5-1.2,0.8-1.8c0.3-0.7,0.7-1.9,0.7-1.9c0.2,0,0.2,0,0.5,0
		C112,61.2,111.4,62.8,111,63.6z"/>
	<path fill="#19191C" d="M116.4,65.9c-0.5,0-0.8-0.4-0.9-0.7c-0.2,0.3-0.7,0.8-1.5,0.8c-0.9,0-1.3-0.6-1.3-1.3
		c0-0.6,0.2-0.8,0.7-1.2c0.6-0.4,1.5-0.6,2-0.8c0-1.1-0.9-1.2-1.2-1.2c-0.5,0-0.9,0.3-1.3,0.5v-0.3c0.4-0.3,1-0.7,1.8-0.7
		c0.6,0,1.7,0.3,1.7,1.7c0,0.4,0,1.2,0,2.3c0,0.2,0.1,0.4,0.2,0.5c0.2,0.1,0.4,0,0.5-0.1l0.1,0.2C117.1,65.8,116.7,65.9,116.4,65.9z
		 M115.5,62.9c-0.6,0.2-1.7,0.6-1.7,1.6c0,0.4,0.1,1,0.8,1c0.4,0,0.9-0.4,0.9-0.6V62.9z"/>
	<path fill="#19191C" d="M119.6,65.9c-0.4,0-1.3-0.2-1.3-1.5c0-0.4,0-1,0-1.5c0-0.6,0-1.1,0-1.3h-0.6c0.6-0.5,1.1-1,1.6-1.5v1.3h1.3
		v0.3h-1.3c0,0.7,0,1.7,0,2.8c0,0.7,0.3,1.1,0.9,1.1c0.2,0,0.4-0.1,0.6-0.3l0.1,0.2C120.5,65.8,120,65.9,119.6,65.9z"/>
	<path fill="#19191C" d="M122.2,59.8c-0.3,0-0.6-0.3-0.6-0.6s0.3-0.6,0.6-0.6c0.3,0,0.6,0.3,0.6,0.6S122.5,59.8,122.2,59.8z
		 M121.7,65.8c0,0,0-1.8,0-2.3c0-0.5,0-2.3,0-2.3c0.4,0,0.7,0,1,0c0,0,0,1.8,0,2.3c0,0.5,0,2.3,0,2.3
		C122.4,65.8,122,65.8,121.7,65.8z"/>
	<path fill="#19191C" d="M126.3,65.9c-1.4,0-2.5-0.9-2.5-2.4c0-1.5,1.1-2.4,2.5-2.4c1.4,0,2.4,0.9,2.4,2.4
		C128.7,65,127.6,65.9,126.3,65.9z M126.3,61.3c-0.8,0-1.4,0.9-1.4,2.2c0,1.3,0.6,2.2,1.4,2.2c0.8,0,1.4-0.9,1.4-2.2
		C127.6,62.1,127.1,61.3,126.3,61.3z"/>
	<path fill="#19191C" d="M133,65.8c0-0.6,0-1.1,0-1.7c0-0.4,0-1,0-1.4c0-0.4-0.2-1.1-0.9-1.1c-0.6,0-1.2,0.6-1.3,0.8
		c0,0.4,0,0.9,0,1.3c0,0.7,0,1.5,0,2.1c-0.4,0-0.7,0-1,0c0,0,0-1.1,0-2.2c0-0.9,0-1.9,0-2.4c0.4,0,0.6,0,1,0c0,0.3,0,0.5,0,0.8
		c0.5-0.5,1-0.9,1.7-0.9c0.6,0,1.1,0.4,1.3,0.8c0.1,0.3,0.1,0.6,0.1,1c0,0.3,0,0.7,0,1.2c0,0.5,0,1.1,0,1.8
		C133.7,65.8,133.3,65.8,133,65.8z"/>
	<path fill="#19191C" d="M136.3,65.9c-0.3,0-0.6-0.3-0.6-0.6s0.3-0.6,0.6-0.6c0.3,0,0.6,0.3,0.6,0.6S136.6,65.9,136.3,65.9z"/>
	<path fill="#19191C" d="M149.7,62.1c-0.5,1.4-1.3,3.7-1.3,3.7c-0.2,0-0.7,0-1,0c0,0-0.5-1.8-0.9-2.9c-0.3-1.2-0.9-3-0.9-3
		s-0.7,1.8-1.1,2.9c-0.4,1.1-0.6,1.8-1,2.9c-0.2,0-0.8,0-1,0c0,0-0.6-2.2-1-3.7c-0.4-1.3-1-3.5-1-3.5c0.3,0,0.7,0,1.1,0
		c0,0,0.5,1.8,0.8,2.9c0.3,1.2,0.9,3.1,0.9,3.1s0.6-1.7,1-2.7c0.5-1.3,0.8-2.2,1.2-3.3c0.1,0,0.7,0,0.8,0c0,0,0.6,1.9,0.9,3.1
		c0.3,1.1,0.9,2.9,0.9,2.9s0.6-1.8,1-2.9c0.4-1.2,1-3.1,1-3.1c0.2,0,0.4,0,0.6,0C150.9,58.7,150.1,60.8,149.7,62.1z"/>
	<path fill="#19191C" d="M155,65.8c0-0.6,0-1.1,0-1.7c0-0.4,0-1,0-1.4c0-0.4-0.2-1.1-0.9-1.1c-0.6,0-1.2,0.6-1.3,0.8
		c0,0.4,0,0.9,0,1.3c0,0.7,0,1.5,0,2c-0.4,0-0.7,0-1,0c0,0,0-3,0-4.1c0-0.9,0-2.9,0-3.5c0.4,0,0.6,0,1,0c0,0.9,0,3.1,0,3.7
		c0.5-0.5,1-0.9,1.7-0.9c0.6,0,1.1,0.4,1.3,0.8c0.1,0.3,0.1,0.6,0.1,1c0,0.3,0,0.7,0,1.2c0,0.5,0,1.1,0,1.8
		C155.6,65.8,155.3,65.8,155,65.8z"/>
	<path fill="#19191C" d="M160.9,65.9c-0.5,0-0.8-0.4-0.9-0.7c-0.2,0.3-0.7,0.8-1.5,0.8c-0.9,0-1.3-0.6-1.3-1.3
		c0-0.6,0.2-0.8,0.7-1.2c0.6-0.4,1.5-0.6,2-0.8c0-1.1-0.9-1.2-1.2-1.2c-0.5,0-0.9,0.3-1.3,0.5v-0.3c0.4-0.3,1-0.7,1.8-0.7
		c0.6,0,1.7,0.3,1.7,1.7c0,0.4,0,1.2,0,2.3c0,0.2,0.1,0.4,0.2,0.5c0.2,0.1,0.4,0,0.5-0.1l0.1,0.2C161.5,65.8,161.2,65.9,160.9,65.9z
		 M160,62.9c-0.6,0.2-1.7,0.6-1.7,1.6c0,0.4,0.1,1,0.8,1c0.4,0,0.9-0.4,0.9-0.6V62.9z"/>
	<path fill="#19191C" d="M164,65.9c-0.4,0-1.3-0.2-1.3-1.5c0-0.4,0-1,0-1.5c0-0.6,0-1.1,0-1.3h-0.6c0.6-0.5,1.1-1,1.6-1.5v1.3h1.3
		v0.3h-1.3c0,0.7,0,1.7,0,2.8c0,0.7,0.3,1.1,0.9,1.1c0.2,0,0.4-0.1,0.6-0.3l0.1,0.2C164.9,65.8,164.5,65.9,164,65.9z"/>
	<path fill="#19191C" d="M166.8,63.4c0,0.7,0.3,2,1.8,2c0.5,0,1-0.2,1.4-0.6l0.1,0.2c-0.2,0.2-0.8,1-2.1,1c-1.2,0-2.3-0.9-2.3-2.5
		c0-1.5,1.3-2.4,2.3-2.4c1.1,0,2.4,0.8,2.3,2.4H166.8z M168.1,61.3c-0.6,0-1.2,0.6-1.2,1.8h2.5C169.3,61.9,168.8,61.3,168.1,61.3z"
		/>
	<path fill="#19191C" d="M174.2,63.6c-0.4,0.9-0.9,2.2-0.9,2.2c-0.2,0-0.5,0-0.7,0c0,0-0.6-1.6-0.8-2.2c-0.4-1.1-0.9-2.3-0.9-2.3
		c0.3,0,0.8,0,1.1,0c0,0,0.4,1.1,0.6,1.8c0.2,0.7,0.7,1.9,0.7,1.9s0.5-1.2,0.8-1.8c0.3-0.7,0.7-1.9,0.7-1.9c0.2,0,0.2,0,0.5,0
		C175.2,61.2,174.6,62.8,174.2,63.6z"/>
	<path fill="#19191C" d="M176.9,63.4c0,0.7,0.3,2,1.8,2c0.5,0,1-0.2,1.4-0.6l0.1,0.2c-0.2,0.2-0.8,1-2.1,1c-1.2,0-2.3-0.9-2.3-2.5
		c0-1.5,1.3-2.4,2.3-2.4c1.1,0,2.4,0.8,2.3,2.4H176.9z M178.1,61.3c-0.6,0-1.2,0.6-1.2,1.8h2.5C179.3,61.9,178.8,61.3,178.1,61.3z"
		/>
	<path fill="#19191C" d="M184.2,61.9c-0.3-0.1-1.2-0.5-1.7,0.7c0,0.4,0,0.7,0,1.2c0,0.7,0,1.5,0,2.1c-0.4,0-0.7,0-1,0
		c0,0,0-1.1,0-2.2c0-0.9,0-1.9,0-2.4c0.4,0,0.6,0,1,0c0,0.3,0,0.6,0,0.8c0.2-0.5,0.7-1.2,1.7-1L184.2,61.9z"/>
	<path fill="#19191C" d="M188.4,59.8c-0.3,0-0.6-0.3-0.6-0.6s0.3-0.6,0.6-0.6c0.3,0,0.6,0.3,0.6,0.6S188.7,59.8,188.4,59.8z
		 M187.9,65.8c0,0,0-1.8,0-2.3c0-0.5,0-2.3,0-2.3c0.4,0,0.7,0,1,0c0,0,0,1.8,0,2.3c0,0.5,0,2.3,0,2.3
		C188.5,65.8,188.2,65.8,187.9,65.8z"/>
	<path fill="#19191C" d="M191.7,65.9c-0.4,0-1.3-0.2-1.3-1.5c0-0.4,0-1,0-1.5c0-0.6,0-1.1,0-1.3h-0.6c0.6-0.5,1.1-1,1.6-1.5v1.3h1.3
		v0.3h-1.3c0,0.7,0,1.7,0,2.8c0,0.7,0.3,1.1,0.9,1.1c0.2,0,0.4-0.1,0.6-0.3l0.1,0.2C192.6,65.8,192.1,65.9,191.7,65.9z"/>
	<path fill="#19191C" d="M197.8,65.9c-0.4,0-1.3-0.2-1.3-1.5c0-0.4,0-1,0-1.5c0-0.6,0-1.1,0-1.3h-0.6c0.6-0.5,1.1-1,1.6-1.5v1.3h1.3
		v0.3h-1.3c0,0.7,0,1.7,0,2.8c0,0.7,0.3,1.1,0.9,1.1c0.2,0,0.4-0.1,0.6-0.3l0.1,0.2C198.7,65.8,198.3,65.9,197.8,65.9z"/>
	<path fill="#19191C" d="M203.3,65.9c-0.5,0-0.8-0.4-0.9-0.7c-0.2,0.3-0.7,0.8-1.5,0.8c-0.9,0-1.3-0.6-1.3-1.3
		c0-0.6,0.2-0.8,0.7-1.2c0.6-0.4,1.5-0.6,2-0.8c0-1.1-0.9-1.2-1.2-1.2c-0.5,0-0.9,0.3-1.3,0.5v-0.3c0.4-0.3,1-0.7,1.8-0.7
		c0.6,0,1.7,0.3,1.7,1.7c0,0.4,0,1.2,0,2.3c0,0.2,0.1,0.4,0.2,0.5c0.2,0.1,0.4,0,0.5-0.1l0.1,0.2C204,65.8,203.6,65.9,203.3,65.9z
		 M202.4,62.9c-0.6,0.2-1.7,0.6-1.7,1.6c0,0.4,0.1,1,0.8,1c0.4,0,0.9-0.4,0.9-0.6V62.9z"/>
	<path fill="#19191C" d="M208.4,65.8c-0.6-0.7-1.9-2.2-1.9-2.2l-0.3,0.2c0,1,0,2,0,2c-0.4,0-0.7,0-1,0c0,0,0-3,0-3.9
		c0-0.9,0-3.7,0-3.7c0.4,0,0.7,0,1,0c0,0,0,2.8,0,3.7c0,0.3,0,0.9,0,1.5c0.2-0.2,0.9-0.8,1.3-1.1c0.6-0.6,1.3-1.2,1.3-1.2
		c0.1,0,0.4,0,0.6,0l-2.2,1.8c0.4,0.4,2.1,2.3,2.1,2.3l0.4,0.4C209.3,65.8,208.8,65.8,208.4,65.8z"/>
	<path fill="#19191C" d="M211.1,63.4c0,0.7,0.3,2,1.8,2c0.5,0,1-0.2,1.4-0.6l0.1,0.2c-0.2,0.2-0.8,1-2.1,1c-1.2,0-2.3-0.9-2.3-2.5
		c0-1.5,1.3-2.4,2.3-2.4c1.1,0,2.4,0.8,2.3,2.4H211.1z M212.3,61.3c-0.6,0-1.2,0.6-1.2,1.8h2.5C213.5,61.9,213,61.3,212.3,61.3z"/>
	<path fill="#19191C" d="M217.8,65.7c-0.3,0.2-0.6,0.2-1.1,0.2c-0.4,0-0.9-0.1-1.2-0.3v-0.3c0.2,0.1,0.5,0.3,1.2,0.3
		c0.5,0,1-0.3,1-0.8c0-0.6-0.6-0.7-1-0.9c-0.3-0.1-0.7-0.3-0.9-0.5c-0.3-0.3-0.4-0.6-0.4-0.9c0-0.9,0.8-1.5,1.7-1.5
		c0.4,0,0.8,0.1,1.2,0.3l0,0.2c-0.3-0.1-0.6-0.2-1-0.2c-0.5,0-0.9,0.4-0.9,0.8c0,0.5,0.3,0.6,0.8,0.8c0.2,0.1,0.5,0.2,0.8,0.4
		c0.4,0.2,0.7,0.6,0.7,1.1C218.6,65,218.3,65.4,217.8,65.7z"/>
	<path fill="#19191C" d="M220.5,65.9c-0.3,0-0.6-0.3-0.6-0.6s0.3-0.6,0.6-0.6c0.3,0,0.6,0.3,0.6,0.6S220.8,65.9,220.5,65.9z"/>
</g>
</svg>
