<?xml version="1.0" encoding="utf-8"?>
<!-- Generator: Adobe Illustrator 18.0.0, SVG Export Plug-In . SVG Version: 6.00 Build 0)  -->
<!DOCTYPE svg PUBLIC "-//W3C//DTD SVG 1.1//EN" "http://www.w3.org/Graphics/SVG/1.1/DTD/svg11.dtd">
<svg version="1.1" id="Layer_1" xmlns="http://www.w3.org/2000/svg" xmlns:xlink="http://www.w3.org/1999/xlink" x="0px" y="0px"
	 viewBox="0 0 250 80" enable-background="new 0 0 250 80" xml:space="preserve">
<g>
	<path fill="#19191C" d="M55.4,49.1c-0.5-0.4-0.9-1-0.9-1.7c0-1.2,0.9-2,2.1-2c0.6,0,1,0.2,1.3,0.4c2.1,1.7,4.3,2.6,7,2.6
		c2.7,0,4.4-1.3,4.4-3.2v-0.1c0-1.8-1-2.8-5.6-3.8c-5.4-1.3-8.3-2.9-8.3-7.5v-0.1c0-4.3,3.6-7.3,8.6-7.3c3.2,0,5.7,0.8,8,2.3
		c0.5,0.3,1,0.9,1,1.8c0,1.1-0.9,2-2.1,2c-0.4,0-0.8-0.1-1.2-0.3c-1.9-1.3-3.7-1.9-5.7-1.9c-2.6,0-4,1.3-4,3v0.1c0,1.9,1.1,2.8,6,4
		c5.3,1.3,8,3.2,8,7.4v0.1c0,4.7-3.7,7.5-9,7.5C61.5,52.3,58.2,51.2,55.4,49.1z"/>
	<path fill="#19191C" d="M79.2,29c0-1.3,0.8-2.3,2.1-2.3h7.7c5.9,0,9.5,3.4,9.5,8.5v0.1c0,5.6-4.4,8.4-10,8.4h-5.1v6.2
		c0,1.2-0.8,2.2-2.1,2.2c-1.3,0-2.1-1-2.1-2.2V29z M88.6,39.9c3.3,0,5.3-1.9,5.3-4.6v-0.1c0-2.9-2-4.4-5.3-4.4h-5.3v9H88.6z"/>
	<path fill="#19191C" d="M99.6,49l9.3-20.9c0.5-1.1,1.4-1.8,2.7-1.8h0.2c1.3,0,2.1,0.7,2.6,1.8l9.3,20.9c0.2,0.3,0.3,0.7,0.3,0.9
		c0,1.2-0.9,2.1-2.1,2.1c-1,0-1.8-0.6-2.2-1.5l-2-4.7h-12.2l-2.1,4.8c-0.4,0.9-1.1,1.4-2,1.4c-1.1,0-2-0.9-2-2.1
		C99.3,49.7,99.4,49.4,99.6,49z M116,41.8l-4.4-10.2l-4.4,10.2H116z"/>
	<path fill="#19191C" d="M128.2,28.8c0-1.2,0.9-2.1,2.1-2.1h0.5c1.1,0,1.6,0.5,2.2,1.2l12.5,16.2V28.7c0-1.2,1.1-2.2,2.2-2.2
		c1.2,0,2.3,1,2.3,2.2v21.1c0,1.2-1,2.1-2.2,2.1h-0.2c-1,0-1.7-0.5-2.3-1.3l-13-16.7v15.9c0,1.2-0.9,2.2-2.1,2.2
		c-1.2,0-2.1-1-2.1-2.2V28.8z"/>
	<path fill="#19191C" d="M155.7,28.8c0-1.2,1.1-2.1,2.3-2.1h0.5c1.1,0,1.7,0.5,2.3,1.2l12.6,16.2V28.7c0-1.2,0.9-2.2,2.1-2.2
		c1.2,0,2.1,1,2.1,2.2v21.1c0,1.2-0.8,2.1-2,2.1h-0.2c-1,0-1.6-0.5-2.3-1.3L160.2,34v15.9c0,1.2-1.1,2.2-2.2,2.2
		c-1.2,0-2.3-1-2.3-2.2V28.8z"/>
	<path fill="#19191C" d="M185.1,28.8c0-1.2,1-2.2,2.3-2.2c1.2,0,2.2,1,2.2,2.2v21.1c0,1.2-1,2.2-2.2,2.2c-1.3,0-2.3-1-2.3-2.2V28.8z
		"/>
	<path fill="#19191C" d="M196.8,28.8c0-1.2,1-2.1,2.3-2.1h0.5c1.1,0,1.7,0.5,2.4,1.2l12.6,16.2V28.7c0-1.2,0.9-2.2,2.1-2.2
		c1.2,0,2.1,1,2.1,2.2v21.1c0,1.2-0.8,2.1-2.1,2.1h-0.2c-1,0-1.6-0.5-2.2-1.3L201.3,34v15.9c0,1.2-1.1,2.2-2.2,2.2
		c-1.2,0-2.3-1-2.3-2.2V28.8z"/>
	<path fill="#19191C" d="M223.6,39.4L223.6,39.4c0-7.1,5.3-13.1,12.9-13.1c3.8,0,6.3,0.9,8.6,2.5c0.4,0.3,0.9,0.9,0.9,1.8
		c0,1.2-1,2.2-2.2,2.2c-0.6,0-1-0.3-1.4-0.5c-1.6-1.2-3.4-2-6.1-2c-4.6,0-8.2,4.1-8.2,8.9v0.1c0,5.2,3.5,9,8.6,9
		c2.4,0,4.6-0.8,6.1-1.9v-4.6h-5c-1.1,0-2-0.8-2-1.9c0-1.1,0.9-1.9,2-1.9h7c1.3,0,2.2,0.8,2.2,2.1v6.7c0,1.3-0.5,2.2-1.5,2.8
		c-2.2,1.4-5.1,2.7-8.9,2.7C228.7,52.3,223.6,46.7,223.6,39.4z"/>
</g>
<path fill="#19191C" d="M42.7,18.9H15c-1.8,0-3.4,1.5-3.6,3.2l-0.3,2.4H9.4c-2.8,0-5.2,2.1-5.5,4.9L1,54.3c-0.2,1.4,0.3,2.8,1.2,3.8
	c0.9,1,2.2,1.6,3.6,1.6h24.9c2.8,0,5.2-2.1,5.5-4.9l0.2-1.7h2.4c1.8,0,3.4-1.5,3.6-3.2l3.2-27.8C45.8,20.4,44.5,18.9,42.7,18.9z
	 M15,26.1c0.2-1.9,1.9-3.5,3.8-3.5c1.9,0,3.3,1.5,3.1,3.4c-0.2,1.9-1.9,3.5-3.8,3.5C16.2,29.5,14.8,28,15,26.1z M17.5,36.3
	c1.9,0,3.3,1.5,3.1,3.4c-0.2,1.9-1.9,3.5-3.8,3.5c-1.9,0-3.3-1.5-3.1-3.4C13.9,37.9,15.6,36.3,17.5,36.3z M33.9,54.6
	c-0.2,1.6-1.6,2.9-3.2,2.9H5.9c-1.6,0-2.8-1.3-2.6-2.9l2.9-24.9c0.2-1.6,1.6-2.9,3.2-2.9h1.4l-0.3,2.9c0.3-0.1,0.6-0.1,0.9-0.1
	c1.9,0,3.3,1.5,3.1,3.4c-0.2,1.9-1.9,3.5-3.8,3.5c-0.3,0-0.7,0-1-0.1l-0.8,7.2c0.4-0.1,0.8-0.2,1.2-0.2c1.9,0,3.3,1.5,3.1,3.4
	c-0.2,1.9-1.9,3.5-3.8,3.5c-0.4,0-0.9-0.1-1.2-0.2C8,51.7,9.2,53.2,11,53.2h23.1L33.9,54.6z"/>
</svg>
