<?xml version="1.0" encoding="utf-8"?>
<!-- Generator: Adobe Illustrator 18.0.0, SVG Export Plug-In . SVG Version: 6.00 Build 0)  -->
<!DOCTYPE svg PUBLIC "-//W3C//DTD SVG 1.1//EN" "http://www.w3.org/Graphics/SVG/1.1/DTD/svg11.dtd">
<svg version="1.1" id="Layer_1" xmlns="http://www.w3.org/2000/svg" xmlns:xlink="http://www.w3.org/1999/xlink" x="0px" y="0px"
	 viewBox="0 0 250 80" enable-background="new 0 0 250 80" xml:space="preserve">
<g>
	<defs>
		<rect id="SVGID_1_" x="27.4" y="-54.1" width="188.3" height="188.3"/>
	</defs>
	<clipPath id="SVGID_2_">
		<use xlink:href="#SVGID_1_"  overflow="visible"/>
	</clipPath>
</g>
<path fill="#19191C" d="M11,6.7l23.8,50.7h182l23.8-50.7H11z M227.3,31.1l-11.6,24.5H35.9L24.3,31.1L13.8,8.6h223.7h0.2L227.3,31.1z
	"/>
<path fill="#19191C" d="M67.2,58.2l10.9,20.3h95.2l10.9-20.3H67.2z M108.9,72.5c-0.6,0.5-1.4,0.8-2.4,0.8c-1,0-1.8-0.3-2.5-0.9
	c-0.7-0.6-1.1-1.4-1-2.4l0,0h1.9c0,0.6,0.1,1.1,0.4,1.4c0.3,0.3,0.7,0.4,1.2,0.4c0.4,0,0.7-0.1,0.9-0.3c0.2-0.2,0.3-0.5,0.3-0.9
	c0-0.4-0.1-0.7-0.3-0.9c-0.2-0.2-0.6-0.5-1.1-0.7c-1.1-0.4-1.9-0.8-2.4-1.3c-0.5-0.5-0.8-1.1-0.8-2c0-0.8,0.3-1.5,0.9-2
	c0.6-0.5,1.4-0.8,2.4-0.8c1,0,1.8,0.3,2.4,0.9c0.6,0.6,0.9,1.3,0.9,2.2l0,0h-1.9c0-0.5-0.1-0.8-0.4-1.1c-0.2-0.3-0.6-0.4-1-0.4
	c-0.4,0-0.7,0.1-0.9,0.4c-0.2,0.2-0.3,0.5-0.3,0.9c0,0.3,0.1,0.6,0.4,0.8c0.2,0.2,0.7,0.5,1.3,0.7c1,0.3,1.7,0.7,2.2,1.2
	c0.5,0.5,0.7,1.2,0.7,2C109.8,71.3,109.5,72,108.9,72.5z M115.7,73.1h-2V62.9h2V73.1z M126.7,71.6c-0.3,0.4-0.7,0.8-1.2,1.2
	c-0.6,0.3-1.3,0.5-2.1,0.5c-1.1,0-2-0.3-2.6-1c-0.7-0.6-1-1.6-1-2.7v-3.1c0-1.2,0.3-2.1,1-2.7c0.6-0.6,1.5-1,2.5-1
	c1.1,0,2,0.3,2.5,0.8c0.6,0.6,0.9,1.3,0.9,2.4l0,0h-1.9c0-0.6-0.1-1-0.4-1.3c-0.2-0.3-0.6-0.4-1.1-0.4c-0.5,0-0.9,0.2-1.1,0.5
	c-0.3,0.3-0.4,0.9-0.4,1.6v3.1c0,0.7,0.1,1.2,0.4,1.6c0.3,0.3,0.7,0.5,1.2,0.5c0.4,0,0.7-0.1,0.9-0.2c0.2-0.1,0.3-0.3,0.5-0.5v-1.8
	h-1.3v-1.4h3.3V71.6z M137.9,73.1h-2l-3.1-6.5l0,0v6.5h-2V62.9h2l3.1,6.5l0,0v-6.5h2V73.1z M147.6,72.5c-0.6,0.5-1.4,0.8-2.4,0.8
	c-1,0-1.8-0.3-2.5-0.9c-0.7-0.6-1.1-1.4-1-2.4l0,0h1.9c0,0.6,0.1,1.1,0.4,1.4c0.3,0.3,0.7,0.4,1.2,0.4c0.4,0,0.7-0.1,0.9-0.3
	c0.2-0.2,0.3-0.5,0.3-0.9c0-0.4-0.1-0.7-0.3-0.9c-0.2-0.2-0.6-0.5-1.1-0.7c-1.1-0.4-1.9-0.8-2.4-1.3c-0.5-0.5-0.8-1.1-0.8-2
	c0-0.8,0.3-1.5,0.9-2c0.6-0.5,1.4-0.8,2.4-0.8c1,0,1.8,0.3,2.4,0.9c0.6,0.6,0.9,1.3,0.9,2.2l0,0h-1.9c0-0.5-0.1-0.8-0.4-1.1
	c-0.2-0.3-0.6-0.4-1-0.4c-0.4,0-0.7,0.1-0.9,0.4c-0.2,0.2-0.3,0.5-0.3,0.9c0,0.3,0.1,0.6,0.4,0.8c0.2,0.2,0.7,0.5,1.3,0.7
	c1,0.3,1.7,0.7,2.2,1.2c0.5,0.5,0.7,1.2,0.7,2C148.5,71.3,148.2,72,147.6,72.5z"/>
<g>
	<path fill="#19191C" d="M171.8,33.7c0.5-0.9,0.8-1.6,0.8-2.2c0-0.8-0.3-1.2-1-1.2c-0.5,0-1,0.2-1.6,0.7c-0.6,0.4-1,1-1.4,1.7
		c-0.8,1.6-1.1,2.9-1.1,4c0,0.8,0.2,1,0.7,0.6C169.7,36.3,171,35.1,171.8,33.7z"/>
	<path fill="#19191C" d="M103.2,33.3c0.5-0.9,0.8-1.6,0.8-2.2c0-0.8-0.3-1.2-1-1.2c-0.5,0-1,0.2-1.6,0.7c-0.6,0.4-1,1-1.4,1.7
		c-0.8,1.6-1.1,2.9-1.1,4c0,0.8,0.2,1,0.7,0.6C101.1,36,102.3,34.8,103.2,33.3z"/>
	<path fill="#19191C" d="M88.8,31.1c-0.3-0.3-0.7-0.5-1.1-0.5c-0.3,0-0.6,0.1-1,0.3c-0.7,0.4-1.7,1.6-3,3.6c-1.3,1.9-2,3.3-2.2,4.1
		c0,0.2,0,0.3,0.1,0.3c0.1,0,0.3,0,0.5-0.1c0.2-0.1,0.5-0.1,1-0.1c1.1,0,2,0.2,2.6,0.5c0.1,0,0.3-0.1,0.6-0.5c0.7-0.9,1.4-1.9,2-3.2
		c0.6-1.3,0.9-2.3,1-3.1C89.2,31.8,89.1,31.4,88.8,31.1z"/>
	<path fill="#19191C" d="M50.5,38.8c-1-0.2-2.1-0.5-3.3-0.7c-1.2-0.3-2.5-0.5-4-0.8c-0.4,0-0.8,0.1-1,0.3c-0.3,0.2-0.4,0.5-0.4,0.9
		c0,0.4,0.2,0.8,0.5,1.1c1,0.9,2.3,1.3,4,1.3c1.5,0,3-0.4,4.5-1.1c0.4-0.2,0.6-0.3,0.6-0.5C51.3,39,51.1,38.9,50.5,38.8z"/>
	<path fill="#19191C" d="M186.6,30.8c-0.7,0-1.6,0.2-2.6,0.9c-1,0.6-1.8,1.4-2.3,2.3c-1.1,1.7-1.6,3.1-1.6,4.3
		c0,1.1,0.4,1.7,1.3,1.7c0.4,0,1-0.3,1.6-0.9c0.1-0.1,0.3-0.3,0.6-0.6c0.2-0.3,0.6-0.7,1-1.2c1.1-1.3,2.2-3.2,3.3-5.6
		c0,0,0-0.1,0-0.2C187.8,31,187.4,30.8,186.6,30.8z"/>
	<path fill="#19191C" d="M205.1,31.4c-0.3-0.3-0.7-0.5-1.1-0.5c-0.3,0-0.6,0.1-1,0.3c-0.7,0.4-1.7,1.6-3,3.6c-1.3,1.9-2,3.3-2.2,4
		c0,0.2,0,0.3,0.1,0.3c0.1,0,0.3,0,0.5-0.1c0.2-0.1,0.5-0.1,1-0.1c1.1,0,2,0.2,2.6,0.5c0.1,0,0.3-0.1,0.6-0.5c0.7-0.9,1.4-1.9,2-3.2
		c0.6-1.3,0.9-2.3,1-3.1C205.6,32.2,205.4,31.8,205.1,31.4z"/>
	<path fill="#19191C" d="M16.5,10.4l20.5,43.4h177.4L235,10.4H16.5z M122.6,39.1c0,0.4-0.1,0.7-0.2,0.8c-1,1-2.2,1.7-3.5,1.8
		c-2.2,0.4-3.8,0.3-4.8-0.2c-1-0.5-1.6-1.2-1.6-2.1c0-0.2,0-0.5,0.1-0.9c0.1-0.5,0.3-1.1,0.4-1.7c0.2-0.6,0.4-1.2,0.7-1.9
		c0.4-1.1,0.7-1.8,0.9-2.1c0.2-0.3,0.2-0.6,0-1c-0.2-0.3-0.6-0.7-1.4-1.1c-0.2-0.1-0.3,0-0.5,0.3c-0.6,1.5-1,2.6-1.4,3.3
		c-0.3,0.7-0.5,1.1-0.5,1.2c-0.4,0.8-0.8,1.5-1.3,2.2c0,0.1-0.1,0.2-0.1,0.2s-0.5,0.7-1.2,1.4c-0.1,0.1-0.1,0.1-0.2,0.2
		c0,0,0,0-0.1,0.1c-0.3,0.3-0.6,0.5-0.9,0.8c-0.2,0.1-0.3,0.2-0.5,0.3c-0.1,0-0.1,0.1-0.2,0.1c0,0-0.1,0-0.1,0.1
		c-1,0.7-2.2,1.2-3.4,1.2c-2.7,0-4.7-0.5-5.8-1.4c-0.4-0.4-0.8-0.8-1.1-1.2c0,0.2-0.1,0.3-0.2,0.4c-1,1-2.2,1.6-3.5,1.8
		c-0.5,0.1-1.1,0.2-1.6,0.2c-0.5,0-1,0-1.4,0c-1.5-0.1-2.6-0.2-3.2-0.4c-0.2-0.1-0.4-0.1-0.6-0.1c-0.3,0.1-0.6,0.2-1,0.2
		c-0.4,0.1-0.9,0.2-1.4,0.2c0.1,0-0.1,0-0.5-0.1c-0.4,0-1-0.1-1.8-0.2c-0.2,0-0.3,0-0.5,0.2c-0.3,1.1-0.7,2.3-1,3.5
		c-0.3,1.2-0.7,2.4-1,3.7c-0.2,0.5-0.5,0.7-1,0.8c-1.1,0.3-1.9,0.3-2.5,0c-0.4-0.2-0.6-0.5-0.4-0.9c0.4-1,0.9-2.5,1.5-4.5
		c0.3-0.9,0.6-2,1-3.2c-0.4,0.2-0.9,0.3-1.4,0.4c-0.3,0-0.6,0.1-0.9,0.1c-0.3,0-0.6,0.1-0.9,0.1c-1.6,0-2.7-0.2-3.5-0.7
		c-0.5-0.3-0.7-0.9-0.7-1.6c0-0.4,0.1-0.9,0.2-1.6c0-0.1,0-0.2,0-0.3c0-0.1,0-0.1-0.1,0c0,0-0.1,0.1-0.1,0.1c0,0-0.1,0.1-0.1,0.2
		c-1.9,2.7-3.7,4-5.6,4c-0.5,0-0.9-0.1-1.4-0.2c-1.1-0.4-1.6-1.2-1.6-2.5c0,0,0-0.1,0-0.1c-0.5,0.2-0.9,0.3-1.4,0.4
		c-1.3,0.2-2.5,0.2-3.4,0c-0.3-0.1-0.6,0-0.9,0.3c-2.2,2.3-4.9,3.5-8,3.5c-0.5,0-1,0-1.6-0.1C45,43.1,44.5,43,44,42.8
		c-1.7-0.4-3-1.1-3.8-2.1c-0.8-0.9-1.1-1.8-1-2.8c0.2-1.7,1.3-2.7,3.2-2.9c1-0.1,2.9,0.2,5.6,0.8l4.7,1.2c0.4,0.1,0.7-0.1,0.9-0.4
		c0.6-1.2,1-2.2,1-3.1c0-1.7-1.4-3.2-4.1-4.5c-2.7-1.2-4-3.1-4-5.5c0-1,0.2-1.9,0.7-2.9c0.8-1.5,2-2.8,3.6-3.7
		c1.6-0.9,3.2-1.3,5-1.3c0.2,0,0.4,0,0.5,0c0.2,0,0.3,0,0.5,0.1c1.6,0.2,2.7,0.7,3.5,1.5c0.6,0.7,0.9,1.4,0.9,2.1
		c0,0.3,0,0.6-0.1,0.8c-0.4,0.8-0.9,1.2-1.5,1c-0.2,0-0.3-0.2-0.3-0.4c-0.1-0.2-0.1-0.4-0.2-0.7c-0.3-0.7-1.1-1.3-2.3-1.6
		c-0.4-0.1-0.9-0.2-1.4-0.2c-2.5,0-4.3,1-5.2,2.9c-0.3,0.6-0.4,1.2-0.4,1.6c0,1.1,0.8,2.1,2.3,3l3.6,2c1.6,1.2,2.4,2.7,2.4,4.5
		c0,1.3-0.3,2.7-0.8,4.1c-0.2,0.4-0.2,0.6-0.2,0.6c0,0.1,0.1,0.2,0.3,0.2c0.5,0.2,1.1,0.2,1.7,0.2c0.5,0,1-0.2,1.7-0.6
		c0.2-0.1,0.3-0.2,0.5-0.3c0.4-1.8,1.4-4.8,2.8-9c0.2-0.5,0.5-0.8,1.1-0.8c0.4,0,0.9,0.1,1.4,0.2c1,0.3,1.4,0.7,1.4,1.1
		c0,0.1-0.1,0.4-0.2,0.6c-0.1,0.3-0.3,0.8-0.6,1.5c-0.2,0.6-0.6,1.5-0.9,2.5c-0.9,2.3-1.4,3.8-1.5,4.3c0,0.3-0.1,0.5-0.1,0.7
		c0,0.2-0.1,0.4-0.1,0.5c0,0.5,0.3,0.8,1,0.8c0.4,0,0.9-0.3,1.5-1c0.8-0.8,1.7-2.5,2.9-5.1c0.5-1,0.8-1.9,1.1-2.7
		c0.3-0.7,0.5-1.4,0.7-1.9c0.3-0.9,1-1.3,2.2-1.2c1.1,0.1,1.7,0.4,1.7,0.8c0,0.2-0.1,0.5-0.2,0.8c-0.2,0.3-0.6,1.6-1.4,3.9
		c-0.8,2.4-1.3,3.8-1.4,4.4c-0.2,1-0.2,1.7,0.1,2c0.5,0.5,1.3,0.7,2.5,0.7c0.5,0,1-0.2,1.7-0.6c0.3-0.2,0.6-0.4,0.8-0.6
		c0.2-0.5,0.3-1.1,0.5-1.7c0.5-1.8,1-3.6,1.5-5.4c0.5-1.8,1-3.7,1.6-5.5c0.2-0.4,0.4-0.6,0.7-0.7c0.1,0,0.5-0.1,1.1-0.1
		c0.6,0,1,0,1.2,0.1c0.5,0.2,0.7,0.6,0.5,1.1c-0.1,0.3-0.3,0.8-0.5,1.5c-0.2,0.7-0.5,1.7-0.8,3c0,0.2,0,0.3,0,0.3c0,0,0.1,0,0.2-0.1
		c2-2.4,3.8-3.6,5.3-3.6c0.5,0,1.1,0.1,1.5,0.4c1.4,0.7,2.1,1.7,2.1,3.2c0,0.4-0.1,1.2-0.2,2.3c-0.1,1-0.7,2.2-1.6,3.6
		c-0.7,1-1.2,1.7-1.6,2.1c-0.3,0.3-0.3,0.5-0.1,0.5c0.7,0.3,1.7,0.3,3,0.2c0.5-0.1,1.1-0.3,1.7-0.6c0.7-0.4,1.2-0.8,1.6-1.3
		c-0.1-0.5-0.2-1.1-0.2-1.6c0-1.6,0.5-3.4,1.4-5.3c0.7-1.4,1.7-2.4,2.9-3c1-0.6,2.1-0.9,3.2-0.9c0.6,0,1.1,0.1,1.5,0.2
		c1.4,0.6,2.1,1.7,2.1,3.5c0,0.4,0,0.8-0.1,1.2c-0.2,1.1-1,2.5-2.6,4.2c-0.5,0.5-0.9,1-1.4,1.4c-0.5,0.4-0.9,0.8-1.4,1.1
		c-0.1,0.1-0.2,0.2-0.2,0.2c0,0.1,0.1,0.2,0.4,0.4c0.7,0.4,1.5,0.6,2.7,0.6c0.9-0.2,1.5-0.5,2.1-0.9c0.4-0.3,0.9-0.8,1.6-1.6
		c0.5-0.6,1.1-1.6,1.8-3.1c0.8-1.6,1.4-3.2,1.8-4.7c0-0.1,0-0.2,0.1-0.2c0,0,0-0.1,0-0.1c0-0.1-0.1-0.4-0.2-0.6
		c-0.1-0.3-0.2-0.6-0.2-0.9c0-0.1,0-0.2,0-0.3c0-0.1,0-0.2,0.1-0.4c0.3-1.4,0.9-2,2-2c0.9,0,1.4,0.6,1.5,1.7c0,0.2,0,0.5-0.2,0.9
		c0,0.1,0,0.2,0,0.3c0,0.1,0.2,0.1,0.3,0.2c0.2,0.1,0.4,0.2,0.7,0.3c0.3,0.1,0.6,0.3,1.1,0.6c0.9,0.5,1.4,0.8,1.7,1.1
		c0.5,0.4,0.7,0.9,0.6,1.5c-0.1,0.4-0.5,1.5-1.2,3.4c-0.4,0.9-0.7,1.6-0.9,2.2c-0.2,0.6-0.3,0.9-0.4,1.2c-0.1,0.7,0.1,1.1,0.8,1.2
		c0.3,0.1,0.9,0.1,1.7,0c0.5,0,1-0.2,1.7-0.6c0.9-0.5,1.5-1,2-1.7c0.1-0.1,0.2-0.1,0.3,0.1C122.5,38.2,122.6,38.6,122.6,39.1z
		 M145.4,17.2c-1.4,0-3.3,1.6-5.8,4.7c-1,1.3-2,2.5-2.7,3.8c-0.9,1.6-1.7,3.5-2.2,5.4c-0.5,1.8-0.9,3.4-0.9,4.8
		c0,1.6,0.5,2.6,1.4,3.2c0.2,0.2,0.5,0.2,0.9,0.2c1,0,2.2-0.6,3.8-1.8c1.4-1.1,2.4-2.2,2.9-3.2c0.5-0.8,0.9-1.2,1.2-1.2
		c0.3,0,0.6,0.2,0.8,0.5c0.2,0.4,0.4,0.7,0.4,1c0,0.4-0.1,0.7-0.4,1c-3.3,4.7-6.6,7-9.7,7c-1,0-2-0.3-2.9-0.8
		c-1.8-1.1-2.7-3.1-2.7-6c0-2.7,0.3-4.4,1.8-7.6c2.3-4.6,4.7-8,7.7-10.5c2.3-2,4.6-3,6.7-3c1.2,0,2.1,0.4,2.8,1.2
		c0.7,0.8,1,1.8,1,3.1c0,1.1-0.3,2.2-0.8,3.2c-0.6,1.3-1.7,2.5-3.1,3.5c-1.2,0.9-2.2,1.3-2.8,1.3c-0.5,0-1-0.3-1.3-0.9
		c-0.2-0.4-0.3-0.6-0.3-0.8c0-0.4,0.2-0.6,0.7-0.7c1.9-0.6,3.2-1.7,4-3.3c0.4-0.9,0.7-1.8,0.7-2.5C146.7,17.8,146.3,17.2,145.4,17.2
		z M212.4,39.5c0,0.4-0.1,0.7-0.2,0.8c-1,1-2.2,1.6-3.5,1.8c-0.5,0.1-1.1,0.2-1.6,0.2c-0.5,0-1,0-1.4,0c-1.5-0.1-2.6-0.2-3.2-0.4
		c-0.2-0.1-0.4-0.1-0.6-0.1c-0.3,0.1-0.6,0.2-1,0.2c-0.4,0.1-0.9,0.2-1.4,0.2c0.1,0-0.1,0-0.5-0.1c-0.4,0-1-0.1-1.8-0.2
		c-0.2,0-0.3,0-0.5,0.2c-0.3,1.1-0.7,2.3-1,3.5c-0.3,1.2-0.7,2.4-1,3.7c-0.2,0.4-0.5,0.7-1,0.8c-1.1,0.3-1.9,0.3-2.5,0
		c-0.4-0.2-0.6-0.5-0.4-0.9c0.4-1,0.9-2.5,1.5-4.5c0.3-0.9,0.6-2,1-3.2c-0.4,0.2-0.9,0.3-1.4,0.4c-0.3,0-0.6,0.1-0.9,0.1
		c-0.3,0-0.6,0-1,0c-1.7,0-2.8-0.2-3.4-0.7c-0.6-0.4-0.9-1-0.9-1.7c0-0.3,0.1-0.9,0.3-1.6c0-0.1,0-0.2,0-0.2c0,0-0.1,0-0.2,0.1
		c-0.1,0.1-0.1,0.2-0.2,0.2c-0.4,0.7-1,1.5-1.9,2.3c-1.3,1.2-2.6,1.8-3.8,1.8c-1.2,0-2.1-0.4-2.7-1.2c0,0,0,0-0.1-0.1
		c-0.7,0.4-1.5,0.7-2.3,0.9c-1,0.2-2.2,0.3-3.5,0.3c-2.7,0-4.6-0.4-5.8-1.3c-0.2-0.1-0.3-0.3-0.5-0.5c-0.9,0.8-1.9,1.3-3.1,1.5
		c-0.3,0-0.6,0.1-0.9,0.1c-0.3,0-0.7,0.1-1,0.1c-1.8,0-3.1-0.2-3.9-0.7c-0.8-0.5-1.2-1.1-1.2-1.8c0-0.1,0-0.2,0-0.4
		c0-0.2,0-0.3,0.1-0.5c0.1-0.7,0.5-2,1.2-3.9c0.2-0.5,0.4-1,0.6-1.6c0.2-0.5,0.4-1,0.6-1.6c0-0.1,0-0.2,0-0.3c0-0.3-0.1-0.4-0.4-0.4
		c-0.2,0-0.5,0.1-0.9,0.4c-0.8,0.5-1.9,1.9-3.6,4.3c-1.4,2.1-2.3,3.9-2.8,5.4c-0.2,0.6-0.5,1-1,1c-0.7,0.1-1.2,0.2-1.4,0.1
		c-0.6-0.1-0.8-0.6-0.7-1.2c0.2-1.2,0.6-2.8,1.2-4.9c0.6-2.1,1.3-4.6,2.2-7.6c1.6-5.1,2.5-8,2.8-8.7c0.3-0.5,0.6-0.9,1-1
		c0.2-0.1,0.7-0.1,1.3-0.1c0.6,0,1,0.1,1.2,0.2c0.4,0.3,0.5,0.6,0.5,1c0,0.3-0.1,0.6-0.2,0.9c-1.4,3.6-2.5,6.4-3.2,8.3
		c-0.8,1.9-1.2,3-1.3,3.4c-0.2,0.4-0.1,0.6,0.1,0.6c0.1,0,0.1,0,0.1-0.1c0-0.1,0.2-0.3,0.4-0.5c0.2-0.3,0.5-0.6,0.8-1
		c0.4-0.5,0.8-0.9,1.1-1.3c0.3-0.4,0.6-0.7,0.9-1c0.9-0.9,1.9-1.3,3.1-1.3c0.4,0,0.7,0,1,0.1c1,0.3,1.6,1.1,1.6,2.3
		c0,0.2,0,0.5-0.1,0.7c-0.3,0.8-0.6,1.8-1,2.9c-0.4,1.1-0.8,2.4-1.3,3.8c-0.2,0.5-0.2,0.9-0.2,1.3c0,0.5,0.3,0.9,0.8,1.1
		c0.5,0.2,1.3,0.3,2.2,0.3c0.4,0,1-0.2,1.7-0.6c0.3-0.2,0.6-0.4,0.8-0.5c-0.3-0.7-0.5-1.5-0.5-2.4c0-1.6,0.5-3.4,1.4-5.3
		c0.7-1.3,1.6-2.4,2.9-3c1-0.6,2.1-0.9,3.2-0.9c0.6,0,1.1,0.1,1.5,0.2c1.4,0.6,2.1,1.7,2.1,3.4c0,0.4,0,0.8-0.1,1.2
		c-0.2,1.1-1,2.5-2.6,4.2c-0.5,0.5-0.9,1-1.4,1.4c-0.5,0.4-0.9,0.8-1.4,1.1c-0.1,0.1-0.2,0.2-0.2,0.2c0,0.1,0.1,0.2,0.4,0.4
		c1,0.6,2.7,0.8,4.9,0.6c0.7-0.1,1.3-0.3,1.9-0.6c-0.1-0.4-0.1-0.8-0.1-1.2c0-1.5,0.5-3.2,1.4-5c0.9-1.8,2.3-3.2,4-4.2
		c1.3-0.7,2.6-1.1,3.9-1.1c1,0,1.9,0.2,2.7,0.6c0.4,0.2,0.6,0.2,0.8-0.1c0.2-0.3,0.3-0.4,0.4-0.6c0.2-0.2,0.4-0.3,0.6-0.4
		c0.2-0.1,0.7,0,1.3,0.1c0.7,0.1,1.1,0.2,1.2,0.4c0.2,0.3,0.3,0.6,0.1,1.1c-0.3,0.7-1,2.2-2,4.4c-0.4,0.9-0.7,1.7-0.9,2.3
		c-0.2,0.7-0.5,1.3-0.6,1.8c-0.2,0.5-0.2,0.9-0.2,1.2c0,0.3,0.1,0.5,0.2,0.7c0.4,0.4,1.2,0.6,2.4,0.6c0.4,0,1-0.2,1.7-0.6
		c0.3-0.2,0.6-0.4,0.8-0.6c0.2-0.5,0.3-1.1,0.5-1.7c0.5-1.8,1-3.6,1.5-5.4c0.5-1.8,1-3.7,1.6-5.5c0.2-0.4,0.4-0.6,0.7-0.7
		c0.1,0,0.5-0.1,1.1-0.1c0.6,0,1,0,1.2,0.1c0.5,0.2,0.7,0.6,0.5,1.1c-0.1,0.3-0.3,0.8-0.5,1.5c-0.2,0.7-0.5,1.7-0.8,3
		c0,0.2,0,0.3,0,0.3c0,0,0.1,0,0.2-0.1c2-2.4,3.8-3.6,5.3-3.6c0.5,0,1.1,0.1,1.5,0.4c1.4,0.7,2.1,1.7,2.1,3.2c0,0.4-0.1,1.2-0.2,2.3
		c-0.1,1-0.7,2.2-1.6,3.6c-0.7,1-1.2,1.7-1.6,2.1c-0.3,0.3-0.3,0.5-0.1,0.5c0.7,0.3,1.7,0.3,2.9,0.2c0.5-0.1,1.1-0.3,1.7-0.6
		c0.8-0.5,1.5-1,1.9-1.6c0.1-0.1,0.2-0.1,0.3,0.1C212.4,38.5,212.5,39,212.4,39.5z"/>
</g>
<polygon fill="#19191C" points="14.1,15.4 10.4,15.4 25.7,47 28.9,47 "/>
<polygon fill="#19191C" points="237.3,15.4 241,15.4 225.8,47 222.5,47 "/>
<polygon fill="#19191C" points="212.1,6.1 214.5,1.7 37.1,1.7 39.5,6.1 "/>
</svg>
