<?xml version="1.0" encoding="utf-8"?>
<!-- Generator: Adobe Illustrator 18.0.0, SVG Export Plug-In . SVG Version: 6.00 Build 0)  -->
<!DOCTYPE svg PUBLIC "-//W3C//DTD SVG 1.1//EN" "http://www.w3.org/Graphics/SVG/1.1/DTD/svg11.dtd">
<svg version="1.1" id="Layer_1" xmlns="http://www.w3.org/2000/svg" xmlns:xlink="http://www.w3.org/1999/xlink" x="0px" y="0px"
	 viewBox="0 0 250 80" enable-background="new 0 0 250 80" xml:space="preserve">
<g>
	<polygon fill="#19191C" points="139.8,21.8 139.3,21.7 142.5,23.4 	"/>
	<polygon fill="#19191C" points="184.8,50.9 185,51.2 184.3,49 	"/>
	<polygon fill="#19191C" points="169.4,29.6 169.4,29.3 169.2,29.3 	"/>
	<polygon fill="#19191C" points="169.3,29.8 169.2,29.8 169.2,29.8 	"/>
	<polygon fill="#19191C" points="169.9,29.4 169.7,29.7 170.4,29.6 	"/>
	<path fill="#19191C" d="M65.6,36.6C65.6,36.6,65.6,36.6,65.6,36.6C65.6,36.6,65.6,36.6,65.6,36.6C65.6,36.6,65.6,36.6,65.6,36.6z"
		/>
	<path fill="#19191C" d="M68.5,36.5c0.1,0,1.6-0.1,2.2-0.1c0.3,0,0.4,0.1,0.4,0.2c0,0.1-0.1,0.1-0.2,0.2c0.2,0,0.3-0.1,0.3-0.2
		c0-0.1-0.1-0.1-0.3-0.2c-0.2-0.1,0,0-0.4-0.1c-0.8-0.1-0.8-0.7-0.8-1.4c-0.1-1.1-0.1-3.1-0.1-5.6V18.5l3.2,0.1
		c2.5,0.1,3.1,0.6,3.2,1.4l0,0.3c0,0.4,0.1,0.4,0.2,0.4c0.1,0,0.2-0.1,0.2-0.3c0-0.3,0.1-2.1,0.1-2.8c0-0.2,0-0.3-0.1-0.3
		c-0.1,0-0.3,0.1-0.7,0.1c-0.4,0.1-1,0.1-1.8,0.1h-9.7c-0.3,0-1.3-0.1-2-0.1c-0.7-0.1-1-0.3-1.1-0.3c-0.1,0-0.2,0.3-0.3,0.5
		c-0.1,0.2-0.6,2.4-0.6,2.7c0,0.2,0.1,0.2,0.1,0.2c0.1,0,0.2-0.1,0.3-0.3c0.1-0.2,0.2-0.4,0.4-0.8c0.4-0.6,1-0.8,2.6-0.8l3.8-0.1
		v10.9c0,2.5,0,4.5-0.1,5.6c-0.1,0.7-0.2,1.3-0.7,1.4c-0.2,0.1-0.5,0.1-0.8,0.1c-0.1,0-0.2,0-0.2,0.1c0-0.1,0.1-0.1,0.3-0.1
		C67,36.5,68.4,36.5,68.5,36.5z"/>
	<path fill="#19191C" d="M65.6,36.7C65.6,36.7,65.6,36.7,65.6,36.7C65.6,36.7,65.6,36.7,65.6,36.7z"/>
	<path fill="#19191C" d="M81.5,36.1c0.2,0,0.3,0.2,0.4,0.5c0.3,0,0.9,0,1.8,0.1c0.9,0,2.2,0.1,3.9,0.1c0.9,0,1.1,0,1.3-0.6
		c0.1-0.5,0.3-2,0.3-2.1c0-0.2,0-0.3-0.2-0.3c-0.1,0-0.2,0.1-0.2,0.3c-0.1,0.9-0.4,1.3-1,1.5c-0.6,0.2-1.7,0.2-2.3,0.2
		c-2.2,0-2.7-0.3-2.7-1.8c0-0.4,0-3,0-3.7v-1.8c0-0.1,0-0.2,0.2-0.2c0.4,0,2.8,0,3.4,0.1c0.9,0.1,1.1,0.4,1.2,0.7
		c0.1,0.3,0.1,0.5,0.1,0.7c0,0.1,0.1,0.2,0.2,0.2c0.2,0,0.2-0.2,0.2-0.4c0-0.2,0.1-1,0.1-1.4c0.1-0.7,0.2-1.1,0.2-1.2
		c0-0.1-0.1-0.2-0.1-0.2c-0.1,0-0.2,0.1-0.3,0.3c-0.2,0.2-0.6,0.3-1.1,0.3c-0.5,0.1-3.5,0.1-3.8,0.1c-0.1,0-0.1-0.1-0.1-0.2v-5.9
		c0-0.2,0-0.2,0.1-0.2c0.3,0,2.9,0,3.3,0.1c1.2,0.2,1.5,0.3,1.6,0.7C88,22,88,22.3,88,22.5c0,0.2,0.1,0.3,0.2,0.3
		c0.1,0,0.2-0.1,0.2-0.2c0.1-0.3,0.1-1.2,0.1-1.4c0.1-0.6,0.2-0.9,0.2-1c0-0.1,0-0.2-0.1-0.2c-0.1,0-0.2,0.1-0.3,0.1
		c-0.2,0-0.6,0.1-1,0.1c-0.5,0-5.3,0-5.4,0c-0.1,0-1.6-0.1-2.6-0.1c-0.3,0-0.4,0.1-0.4,0.2c0,0.1,0.1,0.2,0.2,0.2
		c0.2,0,0.6,0,0.8,0.1c0.7,0.1,0.9,0.5,0.9,1.2c0.1,0.7,0.1,1.3,0.1,4.7v3.9c0,2.1,0,3.8-0.1,4.7c-0.1,0.6-0.2,1.1-0.6,1.2
		c-0.2,0-0.5,0.1-0.7,0.1c-0.1,0-0.2,0.1-0.2,0.2c0,0.1,0.1,0.2,0.4,0.2c0.4,0,0.9,0,1.3-0.1c0.1,0,0.2,0,0.3,0
		C81.3,36.2,81.4,36.1,81.5,36.1z"/>
	<path fill="#19191C" d="M106.4,36.4c0-0.1,0.1-0.2,0.2-0.2c0.1,0,0.3,0,0.5,0c-0.1,0-0.3-0.1-0.5-0.1c-0.7-0.2-0.9-0.5-1.3-1
		c-0.5-0.6-4.4-7-4.8-7.6l3.6-5.3c0.6-1,1.1-1.5,1.7-1.7c0.3-0.1,0.6-0.1,0.8-0.1c0.2,0,0.2-0.1,0.2-0.2c0-0.1-0.1-0.2-0.4-0.2
		c-0.8,0-1.7,0.1-1.9,0.1c-0.2,0-1.2-0.1-2-0.1c-0.3,0-0.4,0.1-0.4,0.2c0,0.1,0.1,0.2,0.2,0.2c0.1,0,0.4,0,0.6,0.1
		c0.2,0.1,0.4,0.2,0.4,0.4c0,0.3-0.1,0.5-0.2,0.8c-0.2,0.5-2.6,4.1-3.3,5.1c-1.2-1.9-2-3.4-3-5.2c-0.1-0.2-0.2-0.5-0.2-0.7
		c0-0.2,0.1-0.3,0.3-0.3c0.2-0.1,0.5-0.1,0.6-0.1c0.1,0,0.2-0.1,0.2-0.2c0-0.1-0.1-0.2-0.4-0.2c-0.8,0-2,0.1-2.2,0.1
		c-0.2,0-2-0.1-2.7-0.1c-0.3,0-0.4,0.1-0.4,0.2c0,0.1,0.1,0.2,0.2,0.2c0.1,0,0.6,0.1,1,0.2c0.8,0.2,1.2,0.8,1.7,1.7l3.6,5.9
		l-4.1,6.3c-0.7,1.1-1.2,1.5-1.9,1.7c-0.3,0.1-0.7,0.1-0.8,0.1c-0.1,0-0.2,0.2-0.2,0.3c0,0,0,0.1,0,0.1c0-0.1,0.1-0.2,0.4-0.2
		c1,0,2.5,0.1,2.7,0.1c0.1,0,1,0,1.8,0c0,0,0,0,0,0c0-0.1-0.1-0.2-0.2-0.2c-0.1,0-0.3,0-0.4-0.1c-0.2-0.1-0.4-0.2-0.4-0.4
		c0-0.2,0.1-0.6,0.3-1l3.5-5.7c1.4,2.2,2.6,4.3,3.8,6.5c0.2,0.4,0,0.6-0.1,0.6c-0.1,0-0.1,0.1-0.1,0.2c0,0.1,0.1,0.2,0.7,0.3
		c1.1,0,2,0,3.2,0c0,0,0-0.1,0-0.1C106.6,36.6,106.4,36.5,106.4,36.4z"/>
	<path fill="#19191C" d="M123.5,36.7c0-0.1,0.1-0.4,0.3-0.4c0,0,0.1,0,0.1,0c0,0-0.1,0-0.1,0c-0.2,0-0.6,0-0.9-0.1
		c-0.5-0.2-1.1-0.4-1.9-2.4c-1.4-3.3-5-12.4-5.4-13.3c-0.2-0.5-0.3-0.8-0.5-0.8c-0.2,0-0.3,0.1-0.5,0.8l-5.3,13.7
		c-0.4,1.1-0.9,1.9-1.9,2c-0.1,0-0.1,0-0.2,0c-0.2,0-0.4,0-0.5,0c-0.1,0-0.2,0.1-0.2,0.2c0,0.1,0.1,0.2,0.4,0.2c0,0,0,0,0,0
		c0.1-0.1,0.2-0.4,0.2-0.4c0.2,0,0.4,0.1,1,0.2c0.6,0.1,1.5,0.1,1.8,0.1h1.7c0,0,0.1-0.1,0.1-0.1c0-0.1-0.1-0.2-0.2-0.2h-0.2
		c-0.4,0-0.8-0.2-0.8-0.6c0-0.4,0.1-0.9,0.3-1.5l1.3-3.5c0.1-0.1,0.1-0.2,0.2-0.2h5.2c0.1,0,0.2,0,0.2,0.1l2,5
		c0.2,0.4-0.1,0.5-0.2,0.6c-0.1,0.1-0.2,0.1-0.2,0.2c0,0,0,0.1,0.1,0.1c0.2,0,0.5,0,0.6-0.1c0.3-0.1,0.5-0.1,0.6-0.1
		c0.1,0,0.1,0.1,0.1,0.3c0,0,0,0.1,0,0.2c1.4,0,2.6,0.1,3,0.1C123.6,36.8,123.5,36.7,123.5,36.7z M117.1,29.6h-4.6
		c-0.1,0-0.1-0.1-0.1-0.2l2.1-6c0.1-0.3,0.3-0.3,0.4,0l2.2,6C117.2,29.6,117.2,29.6,117.1,29.6z"/>
	<path fill="#19191C" d="M131.5,36.5c0.3-0.1,0.6-0.2,0.9-0.4c1.6-1.1,2.1-2.4,2.1-3.7c0-1.9-1-3.4-3.7-5.3l-0.6-0.4
		c-2.2-1.5-2.9-2.3-2.9-3.7c0-1.5,1.4-2.4,3-2.4c2,0,2.8,0.8,2.9,1.1c0.1,0.2,0.3,0.8,0.3,1.1c0,0.2,0.1,0.3,0.2,0.3
		c0.2,0,0.2-0.2,0.2-0.5c0-1.5,0.1-2.2,0.1-2.3c0-0.1-0.1-0.2-0.2-0.2c-0.2,0-0.4,0-0.8-0.1c-0.5-0.1-1.4-0.3-2.3-0.3
		c-3,0-5,1.5-5,4.1c0,1.5,0.8,2.9,3.2,4.7l1,0.8c2,1.5,2.9,2.2,2.9,3.8c0,1.6-1.2,2.9-3.4,2.9c-1.5,0-3.2-0.6-3.6-2.2
		c-0.1-0.3-0.1-0.6-0.1-0.8c0-0.2-0.1-0.3-0.2-0.3c-0.1,0-0.2,0.1-0.2,0.4c0,0.4-0.1,1.2-0.1,2.3c0,0.6,0,0.7,0.3,0.8
		c0.2,0,0.4,0,0.4,0C126,36.3,130.1,36.5,131.5,36.5z"/>
	<path fill="#19191C" d="M66,61.2l-0.7-0.6c-2.5-1.9-3.1-2.9-3.1-4.3c0-1.9,1.4-3,3.2-3c2.4,0,3.1,1.1,3.2,1.4
		c0.2,0.3,0.3,1,0.3,1.3c0,0.2,0.1,0.3,0.2,0.3c0.1,0,0.2-0.2,0.2-0.6c0-1.8,0.1-2.6,0.1-2.7c0,0,0,0,0,0c-0.4,0-0.7,0-0.8,0
		C68.4,53,67,53,66.3,53c-0.3,0-0.4-0.1-0.4-0.2c0-0.1,0.1-0.2,0.2-0.2c0.2,0,0.5-0.1,0.7-0.1c0.1,0,0.1,0,0.2-0.1
		c-0.4,0-0.8-0.1-1.2-0.1c-3.3,0-5.3,1.9-5.3,4.6c0,1.8,0.6,3.3,3.3,5.6l1.2,1c2.2,1.8,3,2.9,3,4.6c0,1.6-1.2,3.4-3.7,3.4
		c-1.7,0-3.4-0.7-3.8-2.6c-0.1-0.4-0.1-0.7-0.1-1c0-0.2,0-0.3-0.2-0.3c-0.1,0-0.2,0.1-0.2,0.4c0,0.4-0.1,1.4-0.1,2.7
		c0,0.7,0,0.8,0.4,1c1.1,0.5,2.2,0.7,3.4,0.7c1.4,0,2.8-0.3,3.9-1.1c1.8-1.3,2.2-3.2,2.2-4.3C69.7,65.2,69,63.6,66,61.2z"/>
	<path fill="#19191C" d="M87.9,65.3c-0.2,0-0.2,0.1-0.2,0.3c-0.1,0.4-0.4,1.3-0.9,1.8c-0.9,0.9-2,1-3.7,1c-4.8,0-8.2-3.7-8.2-7.9
		c0-2.2,0.4-4.2,2-5.7c0.8-0.7,2.2-1.5,5.1-1.5c2,0,3.7,0.5,4.5,1.2c0.6,0.5,1,1.3,1,2.2c0,0.3,0,0.5,0.2,0.5c0.1,0,0.2-0.1,0.3-0.5
		c0-0.3,0-1.5,0.1-2.2c0.1-0.8,0.1-1.1,0.1-1.2c0-0.1,0-0.2-0.1-0.2c-0.5,0-0.9,0-1.4,0c-0.4,0-0.8,0-0.8-0.2c0-0.1,0-0.1,0.1-0.1
		c-0.1,0-0.2,0-0.3-0.1c-1.1-0.2-2.4-0.3-3.3-0.3c-3.5,0-5.5,1-6.9,2.3c-2,2-2.5,4.5-2.5,6c0,2.1,0.5,4.6,2.8,6.5
		c1.8,1.5,4.1,2.3,7.5,2.3c1.5,0,3.2-0.1,4.1-0.5c0.4-0.2,0.4-0.2,0.6-0.6c0.2-0.7,0.5-2.7,0.5-2.8C88.1,65.5,88,65.3,87.9,65.3z"/>
	<path fill="#19191C" d="M108.3,53h-1.4c-1.1,0-1.7-0.1-2.2-0.3c-0.3,0-0.7,0-1,0c-0.3,0-0.4,0.1-0.4,0.2c0,0.1,0.1,0.2,0.2,0.2
		c0.2,0,0.6,0,0.8,0.1c0.7,0.1,0.8,0.5,0.9,1.2c0,0.7,0.1,1.4,0.1,4.8v0.5c0,0.1-0.1,0.1-0.1,0.1h-9.4c-0.1,0-0.1,0-0.1-0.1v-0.5
		c0-3.4,0-4.1,0-4.8c0.1-0.8,0.2-1.1,0.8-1.2c0.3-0.1,0.4-0.1,0.6-0.1c0,0,0,0,0.1,0c-1.1,0-2.3-0.1-2.4-0.1c0,0-1.5,0.1-2.2,0.1
		C92.1,53,92,53,92,52.9c0-0.1,0-0.1,0.1-0.1c-0.1,0-0.1,0-0.2,0c-0.3,0-0.4,0.1-0.4,0.2c0,0.1,0.1,0.2,0.2,0.2c0.2,0,0.6,0,0.8,0.1
		c0.7,0.1,0.9,0.5,0.9,1.2c0.1,0.7,0.1,1.3,0.1,4.7v3.9c0,2.1,0,3.8-0.1,4.7c-0.1,0.6-0.2,1.1-0.6,1.2c-0.2,0.1-0.5,0.1-0.7,0.1
		c-0.1,0-0.2,0.1-0.2,0.2c0,0.1,0.1,0.2,0.4,0.2c0.7,0,2.1-0.1,2.3-0.1c0.1,0,1.5,0.1,2.8,0.1c0.3,0,0.4-0.1,0.4-0.2
		c0-0.1-0.1-0.2-0.2-0.2c-0.2,0-0.7-0.1-1-0.1c-0.7-0.1-0.7-0.5-0.8-1.2c-0.1-0.9-0.1-2.6-0.1-4.7v-2.2c0-0.1,0.1-0.1,0.1-0.1h9.4
		c0.1,0,0.1,0,0.1,0.1V63c0,2.1,0,3.8-0.1,4.7c-0.1,0.6-0.2,1.1-0.6,1.2c-0.2,0.1-0.5,0.1-0.7,0.1c-0.1,0-0.2,0.1-0.2,0.2
		c0,0.1,0.1,0.2,0.4,0.2c0.7,0,2.1-0.1,2.2-0.1c0.1,0,1.6,0.1,2.8,0.1c0.3,0,0.4-0.1,0.4-0.2c0-0.1-0.1-0.2-0.2-0.2
		c-0.2,0-0.7-0.1-1-0.1c-0.7-0.1-0.7-0.5-0.8-1.2c-0.1-0.9-0.1-2.6-0.1-4.7V59c0-3.4,0-4,0.1-4.7c0.1-0.8,0.2-1.1,0.8-1.2
		c0.3-0.1,0.4-0.1,0.6-0.1c0.1,0,0.2-0.1,0.2-0.2c0-0.1-0.1-0.1-0.2-0.1c0,0,0.1,0.1,0.1,0.1C108.8,53,108.7,53,108.3,53z"/>
	<path fill="#19191C" d="M130.3,60.6c0-3.8-2.1-6.5-5.3-7.6c-0.3,0-0.6,0-0.8,0c-0.2,0-0.4-0.1-0.4-0.2c0-0.1,0-0.1,0.1-0.2
		c-0.8-0.2-1.7-0.3-2.6-0.3c-6.3,0-9,5-9,8.5c0,3.9,2.7,8.6,8.9,8.6C126.7,69.5,130.3,65.5,130.3,60.6z M121.9,68.6
		c-4.1,0-7.2-3.2-7.2-8.3c0-4.8,2.7-7.1,6.5-7.1c3.6,0,6.8,2.8,6.8,8C128,67.6,123.9,68.6,121.9,68.6z"/>
	<path fill="#19191C" d="M148.8,61.2c0,6.3-4.1,7.4-6.1,7.4c-4.1,0-7.2-3.2-7.2-8.3c0-4.8,2.7-7.1,6.5-7.1c1.7,0,3.3,0.6,4.5,1.8
		l0.7-1.4c-1.4-0.8-3.2-1.3-5.1-1.3c0,0,0,0-0.1,0c0.1,0.1,0.3,0.1,0.5,0.2c0.3,0.1,0.8,0.1,1,0.1c0.2,0,0.2,0.1,0.2,0.2
		c0,0.1-0.1,0.2-0.4,0.2c-1.2,0-2.7-0.1-2.8-0.1c0,0-1.2,0.1-2,0.1c-3.8,1.5-5.5,5.1-5.5,7.9c0,3.9,2.7,8.6,8.9,8.6
		c5.5,0,9.1-4,9.1-8.9c0-1.8-0.5-3.3-1.3-4.5l-1.7,1.3C148.6,58.5,148.8,59.8,148.8,61.2z"/>
	<path fill="#19191C" d="M154.8,52.9c0,0.1-0.1,0.2-0.5,0.2H154c0,0,0,0,0.1,0c0.2,0,0.6,0,0.8,0.1c0.7,0.1,0.9,0.5,0.9,1.2
		c0.1,0.7,0.1,1.3,0.1,4.7v3.9c0,2.1,0,3.8-0.1,4.7c-0.1,0.6-0.2,1.1-0.6,1.2c-0.2,0.1-0.5,0.1-0.7,0.1c-0.1,0-0.2,0.1-0.2,0.2
		c0,0.1,0.1,0.2,0.4,0.2c0.4,0,0.9,0,1.3-0.1c0.4,0,0.8,0,0.9,0c0.7,0,1.4,0,2.5,0.1c1.1,0.1,2.3,0.1,3.9,0.1c1.2,0,1.3-0.1,1.4-0.6
		c0.2-0.6,0.3-2,0.3-2.2c0-0.2-0.1-0.3-0.2-0.3c-0.1,0-0.2,0.1-0.2,0.3c-0.1,0.4-0.3,0.9-0.5,1.2c-0.5,0.6-1.5,0.7-2.7,0.7
		c-1.8,0-2.7-0.2-3-0.5c-0.4-0.4-0.5-1.7-0.5-4.9V59c0-3.4,0-4,0-4.7c0.1-0.8,0.2-1.1,0.8-1.2c0.3,0,0.6-0.1,0.7-0.1
		c0.1,0,0.2-0.1,0.2-0.2c0-0.1-0.1-0.2-0.4-0.2c-0.7,0-2.4,0.1-2.5,0.1c-0.1,0-1.2,0-2.2,0C154.8,52.7,154.8,52.8,154.8,52.9z"/>
	<path fill="#19191C" d="M173,59.8l-0.6-0.4c-2.2-1.5-2.9-2.3-2.9-3.7c0-1.5,1.4-2.4,3-2.4c2,0,2.8,0.8,2.9,1.1
		c0.1,0.2,0.3,0.8,0.3,1.1c0,0.2,0.1,0.3,0.2,0.3s0.2-0.2,0.2-0.5c0-1.5,0.1-2.2,0.1-2.3c0-0.1-0.1-0.2-0.2-0.2
		c-0.2,0-0.4,0-0.8-0.1c-0.5-0.1-1.4-0.3-2.3-0.3c-3,0-5,1.5-5,4.1c0,1.5,0.8,2.9,3.2,4.7l1,0.8c2,1.5,2.9,2.2,2.9,3.8
		c0,1.6-1.2,2.9-3.4,2.9c-1.5,0-3.2-0.6-3.6-2.2c-0.1-0.3-0.1-0.6-0.1-0.8c0-0.2-0.1-0.3-0.2-0.3c-0.1,0-0.2,0.1-0.2,0.4
		c0,0.4-0.1,1.2-0.1,2.3c0,0.6,0,0.7,0.3,0.8c0.9,0.4,2.2,0.6,3.3,0.6c1.2,0,2.7-0.2,3.6-0.8c1.6-1.1,2.1-2.4,2.1-3.7
		C176.7,63.2,175.8,61.6,173,59.8z"/>
	<path fill="#19191C" d="M77.5,79.3c-0.1,0-0.3,0-0.5-0.1c-0.2-0.1-0.6-0.2-1-1.2c-0.7-1.7-2.5-6.2-2.7-6.6
		c-0.1-0.2-0.2-0.4-0.3-0.4c-0.1,0-0.1,0.1-0.3,0.4l-2.7,6.8c-0.2,0.6-0.4,0.9-1,1c-0.1,0-0.3,0-0.3,0c-0.1,0-0.1,0-0.1,0.1
		c0,0.1,0.1,0.1,0.2,0.1c0.5,0,1,0,1.1,0c0.1,0,0.7,0,1,0c0.1,0,0.2,0,0.2-0.1c0-0.1,0-0.1-0.1-0.1h-0.1c-0.2,0-0.4-0.1-0.4-0.3
		c0-0.2,0.1-0.5,0.2-0.7l0.6-1.8c0-0.1,0.1-0.1,0.1-0.1h2.6c0.1,0,0.1,0,0.1,0.1l1,2.5c0.1,0.2,0,0.3-0.1,0.3c-0.1,0-0.1,0-0.1,0.1
		c0,0.1,0.2,0.1,0.4,0.1c0.8,0,1.6,0,1.8,0c0.1,0,0.3,0,0.3-0.1C77.7,79.3,77.6,79.3,77.5,79.3z M74.1,76h-2.3c0,0-0.1,0,0-0.1
		l1.1-3c0.1-0.2,0.1-0.2,0.2,0L74.1,76C74.2,76,74.2,76,74.1,76z"/>
	<path fill="#19191C" d="M83,74.7l-0.3-0.2c-1.1-0.8-1.5-1.2-1.5-1.9c0-0.8,0.7-1.2,1.5-1.2c1,0,1.4,0.4,1.5,0.5
		c0.1,0.1,0.2,0.4,0.2,0.5c0,0.1,0,0.1,0.1,0.1c0.1,0,0.1-0.1,0.1-0.2c0-0.7,0.1-1.1,0.1-1.2c0-0.1,0-0.1-0.1-0.1
		c-0.1,0-0.2,0-0.4-0.1c-0.3-0.1-0.7-0.1-1.2-0.1c-1.5,0-2.5,0.8-2.5,2.1c0,0.8,0.4,1.4,1.6,2.3l0.5,0.4c1,0.7,1.4,1.1,1.4,1.9
		c0,0.8-0.6,1.5-1.7,1.5c-0.8,0-1.6-0.3-1.8-1.1c0-0.2,0-0.3,0-0.4c0-0.1,0-0.1-0.1-0.1c-0.1,0-0.1,0.1-0.1,0.2
		c0,0.2-0.1,0.6-0.1,1.2c0,0.3,0,0.3,0.2,0.4c0.5,0.2,1.1,0.3,1.6,0.3c0.6,0,1.3-0.1,1.8-0.4c0.8-0.5,1.1-1.2,1.1-1.9
		C84.9,76.4,84.4,75.7,83,74.7z"/>
	<path fill="#19191C" d="M91.8,74.7l-0.3-0.2c-1.1-0.8-1.5-1.2-1.5-1.9c0-0.8,0.7-1.2,1.5-1.2c1,0,1.4,0.4,1.5,0.5
		c0.1,0.1,0.2,0.4,0.2,0.5c0,0.1,0,0.1,0.1,0.1c0.1,0,0.1-0.1,0.1-0.2c0-0.7,0.1-1.1,0.1-1.2c0-0.1,0-0.1-0.1-0.1
		c-0.1,0-0.2,0-0.4-0.1c-0.3-0.1-0.7-0.1-1.2-0.1c-1.5,0-2.5,0.8-2.5,2.1c0,0.8,0.4,1.4,1.6,2.3l0.5,0.4c1,0.7,1.4,1.1,1.4,1.9
		c0,0.8-0.6,1.5-1.7,1.5c-0.8,0-1.6-0.3-1.8-1.1c0-0.2,0-0.3,0-0.4c0-0.1,0-0.1-0.1-0.1c-0.1,0-0.1,0.1-0.1,0.2
		c0,0.2-0.1,0.6-0.1,1.2c0,0.3,0,0.3,0.2,0.4c0.5,0.2,1.1,0.3,1.6,0.3c0.6,0,1.3-0.1,1.8-0.4c0.8-0.5,1.1-1.2,1.1-1.9
		C93.7,76.4,93.2,75.7,91.8,74.7z"/>
	<path fill="#19191C" d="M102.1,71.1c-3.1,0-4.5,2.5-4.5,4.3c0,2,1.3,4.3,4.4,4.3c2.7,0,4.5-2,4.5-4.5
		C106.6,72.6,104.7,71.1,102.1,71.1z M102.4,79.2c-2,0-3.6-1.6-3.6-4.1c0-2.4,1.4-3.6,3.3-3.6c1.8,0,3.4,1.4,3.4,4
		C105.5,78.6,103.4,79.2,102.4,79.2z"/>
	<path fill="#19191C" d="M117.7,77.5c-0.1,0-0.1,0-0.1,0.2c0,0.2-0.2,0.7-0.4,0.9c-0.5,0.5-1,0.5-1.9,0.5c-2.4,0-4.1-1.9-4.1-4
		c0-1.1,0.2-2.1,1-2.9c0.4-0.4,1.1-0.8,2.5-0.8c1,0,1.8,0.3,2.2,0.6c0.3,0.2,0.5,0.7,0.5,1.1c0,0.2,0,0.2,0.1,0.2
		c0.1,0,0.1-0.1,0.1-0.2c0-0.2,0-0.8,0-1.1c0-0.4,0.1-0.5,0.1-0.6c0-0.1,0-0.1-0.1-0.1c-0.4,0-0.7-0.1-1.2-0.2
		c-0.6-0.1-1.2-0.1-1.6-0.1c-1.7,0-2.8,0.5-3.4,1.2c-1,1-1.3,2.3-1.3,3c0,1,0.3,2.3,1.4,3.2c0.9,0.8,2,1.2,3.7,1.2
		c0.7,0,1.6-0.1,2-0.2c0.2-0.1,0.2-0.1,0.3-0.3c0.1-0.4,0.3-1.3,0.3-1.4C117.8,77.6,117.8,77.5,117.7,77.5z"/>
	<path fill="#19191C" d="M124.6,79.3c-0.1,0-0.3,0-0.5-0.1c-0.3-0.1-0.4-0.3-0.4-0.6c-0.1-0.5-0.1-1.3-0.1-2.4v-1.9c0-1.7,0-2,0-2.4
		c0-0.4,0.1-0.5,0.4-0.6c0.1,0,0.2,0,0.3,0c0,0,0.1-0.1,0.1-0.1c0-0.1-0.1-0.1-0.2-0.1c-0.3,0-1.1,0-1.1,0c-0.1,0-0.8,0-1.1,0
		c-0.1,0-0.2,0-0.2,0.1c0,0,0,0.1,0.1,0.1c0.1,0,0.2,0,0.3,0c0.2,0.1,0.3,0.2,0.4,0.6c0,0.3,0,0.7,0,2.4v1.9c0,1.1,0,1.9-0.1,2.4
		c0,0.3-0.1,0.5-0.3,0.6c-0.1,0-0.2,0.1-0.3,0.1c-0.1,0-0.1,0.1-0.1,0.1c0,0.1,0.1,0.1,0.2,0.1c0.3,0,1.1,0,1.1,0c0.1,0,0.8,0,1.4,0
		C124.6,79.5,124.7,79.5,124.6,79.3C124.7,79.4,124.6,79.3,124.6,79.3z"/>
	<path fill="#19191C" d="M136,79.3c-0.1,0-0.3,0-0.5-0.1c-0.2-0.1-0.6-0.2-1-1.2c-0.7-1.7-2.5-6.2-2.7-6.6c-0.1-0.2-0.2-0.4-0.3-0.4
		c-0.1,0-0.1,0.1-0.3,0.4l-2.7,6.8c-0.2,0.6-0.4,0.9-1,1c-0.1,0-0.3,0-0.3,0c-0.1,0-0.1,0-0.1,0.1c0,0.1,0.1,0.1,0.2,0.1
		c0.5,0,1,0,1.1,0c0.1,0,0.7,0,1,0c0.1,0,0.2,0,0.2-0.1c0-0.1,0-0.1-0.1-0.1h-0.1c-0.2,0-0.4-0.1-0.4-0.3c0-0.2,0.1-0.5,0.2-0.7
		l0.6-1.8c0-0.1,0.1-0.1,0.1-0.1h2.6c0.1,0,0.1,0,0.1,0.1l1,2.5c0.1,0.2,0,0.3-0.1,0.3c-0.1,0-0.1,0-0.1,0.1c0,0.1,0.2,0.1,0.4,0.1
		c0.8,0,1.6,0,1.8,0c0.1,0,0.3,0,0.3-0.1C136.2,79.3,136.1,79.3,136,79.3z M132.6,76h-2.3c0,0-0.1,0,0-0.1l1.1-3
		c0.1-0.2,0.1-0.2,0.2,0L132.6,76C132.7,76,132.7,76,132.6,76z"/>
	<path fill="#19191C" d="M144.3,71.1c-0.1,0-0.2,0-0.3,0.1c-0.2,0-0.4,0.1-0.8,0.1h-4.3c-0.1,0-0.6,0-0.9-0.1
		c-0.3,0-0.4-0.1-0.5-0.1c0,0-0.1,0.1-0.1,0.2c0,0.1-0.2,1.1-0.2,1.2c0,0.1,0.1,0.1,0.1,0.1c0.1,0,0.1,0,0.1-0.1
		c0-0.1,0.1-0.2,0.2-0.3c0.2-0.3,0.4-0.3,1.1-0.3l1.6,0v4.6c0,1.1,0,1.9-0.1,2.4c0,0.3-0.1,0.5-0.3,0.6c-0.1,0-0.2,0.1-0.3,0.1
		c-0.1,0-0.1,0-0.1,0.1c0,0.1,0.1,0.1,0.2,0.1c0.3,0,1.1,0,1.2,0c0.1,0,0.8,0,1.4,0c0.1,0,0.2,0,0.2-0.1c0,0,0-0.1-0.1-0.1
		c-0.1,0-0.4,0-0.5-0.1c-0.3-0.1-0.4-0.3-0.4-0.6c-0.1-0.5-0.1-1.3-0.1-2.4v-4.6l1.4,0c1.1,0,1.3,0.3,1.4,0.6l0,0.1
		c0,0.2,0,0.2,0.1,0.2c0.1,0,0.1-0.1,0.1-0.1c0-0.1,0-0.9,0-1.2C144.4,71.2,144.4,71.1,144.3,71.1z"/>
	<path fill="#19191C" d="M150.8,79.3c-0.1,0-0.3,0-0.5-0.1c-0.3-0.1-0.4-0.3-0.4-0.6c-0.1-0.5-0.1-1.3-0.1-2.4v-1.9c0-1.7,0-2,0-2.4
		c0-0.4,0.1-0.5,0.4-0.6c0.1,0,0.2,0,0.3,0c0,0,0.1-0.1,0.1-0.1c0-0.1-0.1-0.1-0.2-0.1c-0.3,0-1.1,0-1.1,0c-0.1,0-0.8,0-1.1,0
		c-0.1,0-0.2,0-0.2,0.1c0,0,0,0.1,0.1,0.1c0.1,0,0.2,0,0.3,0c0.2,0.1,0.3,0.2,0.4,0.6c0,0.3,0,0.7,0,2.4v1.9c0,1.1,0,1.9-0.1,2.4
		c0,0.3-0.1,0.5-0.3,0.6c-0.1,0-0.2,0.1-0.3,0.1c-0.1,0-0.1,0.1-0.1,0.1c0,0.1,0.1,0.1,0.2,0.1c0.3,0,1.1,0,1.1,0c0.1,0,0.8,0,1.4,0
		C150.9,79.5,150.9,79.5,150.8,79.3C150.9,79.4,150.9,79.3,150.8,79.3z"/>
	<path fill="#19191C" d="M158.9,71.1c-3.1,0-4.5,2.5-4.5,4.3c0,2,1.3,4.3,4.4,4.3c2.7,0,4.5-2,4.5-4.5
		C163.4,72.6,161.5,71.1,158.9,71.1z M159.2,79.2c-2,0-3.6-1.6-3.6-4.1c0-2.4,1.4-3.6,3.3-3.6c1.8,0,3.4,1.4,3.4,4
		C162.2,78.6,160.2,79.2,159.2,79.2z"/>
	<path fill="#19191C" d="M175.6,71.2c-0.5,0-0.8,0-1,0c-0.1,0-0.7,0-1.2,0c-0.1,0-0.2,0-0.2,0.1c0,0,0,0.1,0.1,0.1
		c0.1,0,0.3,0,0.6,0.1c0.3,0.1,0.4,0.3,0.4,1l0.1,5.5c-0.3-0.4-1.6-1.7-2.7-2.8c-1.7-1.8-3.4-3.6-3.6-3.7c-0.1-0.1-0.3-0.3-0.4-0.3
		c-0.1,0-0.2,0.1-0.2,0.6v6.3c0,1,0,1.3-0.3,1.4c-0.2,0.1-0.4,0.1-0.5,0.1c-0.1,0-0.1,0-0.1,0.1c0,0.1,0.1,0.1,0.2,0.1
		c0.5,0,1,0,1.1,0s0.6,0,1.2,0c0.1,0,0.2,0,0.2-0.1c0-0.1,0-0.1-0.1-0.1c-0.1,0-0.4,0-0.6-0.1c-0.3-0.1-0.4-0.3-0.4-1.2l-0.1-5.2
		c0.3,0.4,1.6,1.7,2.9,3.1c1.2,1.2,2.8,2.9,2.9,3c0.6,0.6,0.7,0.7,0.9,0.7c0.1,0,0.1-0.1,0.1-0.8l0-6.4c0-0.7,0-0.9,0.4-1
		c0.1,0,0.2,0,0.3,0c0.1,0,0.1-0.1,0.1-0.1C175.8,71.2,175.7,71.2,175.6,71.2z"/>
	<path fill="#19191C" d="M50,48.4c-0.2,0-0.2,0.1-0.3,0.4c-0.1,0.5-0.4,1.6-1,2.2c-1,1.1-2.5,1.3-4.5,1.3c-5.5,0-9.3-4.5-9.3-9.4
		c0-2.6,0.4-4.9,2.3-6.7c0.9-0.9,2.5-1.9,5.9-1.9c2.3,0,4.2,0.7,5.1,1.5c0.7,0.6,1.1,1.6,1.1,2.6c0,0.4,0,0.5,0.2,0.5
		c0.2,0,0.2-0.2,0.2-0.5c0-0.4,0-1.8,0.1-2.7c0.1-0.9,0.1-1.2,0.1-1.4c0-0.2-0.1-0.3-0.3-0.3c-0.8-0.1-1.6-0.2-2.6-0.4
		c-1.3-0.2-2.7-0.3-3.7-0.3c-4,0-6.3,1.2-7.9,2.8c-2.3,2.3-2.9,5.3-2.9,7c0,2.4,0.6,5.4,3.1,7.6c2,1.8,4.6,2.8,8.5,2.8
		c1.6,0,3.6-0.2,4.6-0.6c0.5-0.2,0.5-0.3,0.7-0.7c0.3-0.9,0.6-3.1,0.6-3.3C50.2,48.6,50.1,48.4,50,48.4z"/>
	<path fill="#19191C" d="M66.1,52.7c-0.1,0-0.2,0.1-0.2,0.2c0,0.1,0.1,0.2,0.4,0.2c0.7,0,2.1-0.1,2.2-0.1c0.1,0,0.3,0,0.8,0
		c0.6,0,1.3,0,2,0c0.3,0,0.4-0.1,0.4-0.2c0-0.1-0.1-0.2-0.2-0.2c-0.2,0-0.7-0.1-1-0.1c-0.7-0.1-0.7-0.5-0.8-1.2
		c-0.1-0.9-0.1-2.6-0.1-4.7v-3.9c0-3.4,0-4,0.1-4.7c0.1-0.8,0.2-1.1,0.8-1.2c0.3-0.1,0.4-0.1,0.6-0.1c0,0,0,0,0,0
		c0.1,0,0.2-0.1,0.2-0.2c0-0.1-0.1-0.2-0.4-0.2c-0.7,0-2.1,0.1-2.2,0.1c-0.1,0-1.6-0.1-2.6-0.1c-0.2,0-0.3,0-0.3,0.1c0,0,0,0,0,0
		c0,0,0,0,0,0.1c0,0,0,0,0,0c0,0,0,0,0,0.1c0,0,0,0,0,0c0,0.1,0.1,0.1,0.2,0.1c0.2,0,0.6,0,0.8,0.1c0.7,0.1,0.8,0.5,0.9,1.2
		c0,0.7,0.1,1.4,0.1,4.8v0.5c0,0.1-0.1,0.1-0.1,0.1h-9.4c-0.1,0-0.1,0-0.1-0.1v-0.5c0-3.4,0-4.1,0-4.8c0.1-0.8,0.2-1.1,0.8-1.2
		c0.3-0.1,0.4-0.1,0.6-0.1c0.1,0,0.2-0.1,0.2-0.2c0-0.1-0.1-0.2-0.4-0.2c-0.7,0-2.1,0.1-2.2,0.1c-0.1,0-1.6-0.1-2.6-0.1
		c-0.3,0-0.4,0.1-0.4,0.2c0,0.1,0.1,0.2,0.2,0.2c0.2,0,0.6,0,0.8,0.1c0.7,0.1,0.9,0.5,0.9,1.2c0.1,0.7,0.1,1.3,0.1,4.7v3.9
		c0,2.1,0,3.8-0.1,4.7c-0.1,0.6-0.2,1.1-0.6,1.2c-0.2,0.1-0.5,0.1-0.7,0.1c-0.1,0-0.2,0.1-0.2,0.2c0,0.1,0.1,0.2,0.4,0.2
		c0.7,0,2.1-0.1,2.3-0.1c0.1,0,1.5,0.1,2.8,0.1c0.3,0,0.4-0.1,0.4-0.2c0-0.1-0.1-0.2-0.2-0.2c-0.2,0-0.7-0.1-1-0.1
		c-0.7-0.1-0.7-0.5-0.8-1.2c-0.1-0.9-0.1-2.6-0.1-4.7v-2.2c0-0.1,0.1-0.1,0.1-0.1h9.4c0.1,0,0.1,0,0.1,0.1v2.2c0,2.1,0,3.8-0.1,4.7
		c-0.1,0.6-0.1,0.9-0.5,1.1c-0.1,0-0.1,0.1-0.2,0.1C66.6,52.6,66.3,52.7,66.1,52.7z"/>
	<path fill="#19191C" d="M85.7,52.8c0,0.1,0.4,0.1,0.8,0.2c0.5,0,0.9,0,1.4,0c1.1,0,1.9,0,2.2,0c0.3,0,0.5-0.1,0.5-0.2
		c0-0.1-0.2-0.2-0.3-0.2c-0.2,0-0.6,0-0.9-0.1c-0.5-0.2-1.1-0.4-1.9-2.4c-1.4-3.3-5-12.4-5.4-13.3c-0.1-0.1-0.1-0.2-0.2-0.3
		c-0.1-0.3-0.2-0.5-0.4-0.5c-0.1,0-0.2,0.1-0.4,0.5c0,0.1-0.1,0.2-0.2,0.4l-5.3,13.7c-0.4,1.1-0.9,1.9-1.9,2c-0.2,0-0.5,0.1-0.7,0.1
		c-0.1,0-0.2,0.1-0.2,0.2c0,0.1,0.2,0.2,0.4,0.2c0.9,0,2.1-0.1,2.3-0.1c0.3,0,1.5,0.1,2,0.1c0.2,0,0.3-0.1,0.3-0.2
		c0-0.1-0.1-0.2-0.2-0.2h-0.2c-0.4,0-0.8-0.2-0.8-0.6c0-0.4,0.1-0.9,0.3-1.5l1.3-3.5c0.1-0.1,0.1-0.2,0.2-0.2h5.2
		c0.1,0,0.2,0,0.2,0.1l2,5c0.2,0.4-0.1,0.5-0.2,0.6c0,0-0.1,0-0.1,0C85.8,52.7,85.7,52.8,85.7,52.8z M83.5,46h-4.6
		c-0.1,0-0.1-0.1-0.1-0.2l2.1-6c0.1-0.3,0.3-0.3,0.4,0l2.2,6C83.6,46,83.6,46,83.5,46z"/>
	<path fill="#19191C" d="M92,36.5c-0.2,0-0.3,0-0.4,0.2c0,0,0,0,0,0c0,0.1,0.1,0.2,0.2,0.2c0.2,0,0.6,0,0.8,0.1
		c0.7,0.1,0.9,0.5,0.9,1.2c0.1,0.7,0.1,1.3,0.1,4.7v3.9c0,2.1,0,3.8-0.1,4.7c-0.1,0.6-0.2,1.1-0.6,1.2c-0.2,0.1-0.5,0.1-0.7,0.1
		c0,0-0.1,0-0.1,0c-0.1,0-0.1,0.1-0.1,0.1c0,0.1,0.1,0.2,0.4,0.2c0.7,0,2.2-0.1,2.2-0.1c0.1,0,1.3,0.1,2.4,0.1c0.1,0,0.2,0,0.4,0
		c0.3,0,0.4-0.1,0.4-0.2c0-0.1,0-0.2-0.2-0.2c-0.2,0-0.7-0.1-1-0.1c-0.7-0.1-0.8-0.5-0.9-1.2c-0.1-0.9-0.1-2.6-0.1-4.7v-0.5
		c0-0.1,0.1-0.2,0.2-0.2l2.9,0.1c0.2,0,0.2,0,0.3,0.1c0.5,0.6,1.5,2,2.4,3.2c1.3,1.6,2.1,2.7,3.1,3.2c0.1,0,0.2,0.1,0.3,0.1
		c0.5,0.2,1.1,0.3,2.2,0.3h1.4c0.4,0,0.5-0.1,0.5-0.2c0,0,0-0.1-0.1-0.1c0,0-0.1-0.1-0.2-0.1c-0.1,0-0.4,0-0.8-0.1
		c-0.6-0.1-1.3-0.3-2.5-1.5c-1.3-1.4-2.9-3.3-4.7-5.7c2.1-1.8,2.8-3.4,2.8-5c0-1.5-1-2.6-1.6-3c-1.2-0.8-2.8-1-4.2-1
		c-0.2,0-0.6,0-1.1,0c-0.8,0-1.6,0-1.8,0C94.6,36.5,93.1,36.5,92,36.5z M101.3,41.6c0,1.7-0.6,2.8-1.4,3.3c-0.5,0.4-1.2,0.4-1.7,0.4
		c-1,0-2.2-0.2-2.5-0.3c-0.1-0.1-0.2-0.2-0.2-0.3v-7c0-0.1,0.1-0.2,0.2-0.3c0.2-0.1,1-0.1,1.6-0.1C99.8,37.3,101.3,38.8,101.3,41.6z
		"/>
	<path fill="#19191C" d="M120.6,36.3c-0.1,0-0.3,0.1-0.6,0.1c-0.2,0-0.4,0-0.6,0.1c-0.3,0-0.6,0-1,0h-6.9h-1.7c-0.3,0-1.1,0-1.8-0.1
		c-0.6-0.1-0.8-0.2-1-0.2c-0.1,0-0.2,0.2-0.2,0.4c0,0,0,0,0,0c0,0,0,0.1,0,0.1c-0.1,0.4-0.5,2.1-0.5,2.3c0,0.1,0.1,0.2,0.2,0.2
		c0.1,0,0.2,0,0.2-0.2c0.1-0.2,0.1-0.3,0.4-0.7c0.3-0.5,0.9-0.7,2.3-0.7l3.3-0.1v9.2c0,2.1,0,3.8-0.1,4.7c-0.1,0.6-0.2,1.1-0.7,1.2
		c-0.2,0.1-0.5,0.1-0.7,0.1c-0.1,0-0.2,0.1-0.2,0.2c0,0.1,0.1,0.2,0.4,0.2c0.7,0,2.2-0.1,2.3-0.1c0.1,0,1.6,0.1,2.8,0.1
		c0.3,0,0.4-0.1,0.4-0.2c0-0.1,0-0.2-0.2-0.2c-0.2,0-0.7-0.1-1-0.1c-0.7-0.1-0.8-0.5-0.9-1.2c-0.1-0.9-0.1-2.6-0.1-4.7v-9.2l2.8,0.1
		c2.2,0.1,2.7,0.5,2.7,1.2l0,0.2c0,0.3,0.1,0.4,0.2,0.4c0.1,0,0.2-0.1,0.2-0.3c0-0.2,0.1-1.6,0.1-2.3c0-0.1,0-0.1,0-0.2
		C120.7,36.5,120.7,36.3,120.6,36.3z"/>
	<path fill="#19191C" d="M123.8,52.9c0,0.1,0.1,0.2,0.4,0.2c0.2,0,0.5,0,0.8,0c0.2,0,0.3,0,0.5,0c0.5,0,0.9,0,1,0
		c0.3,0,0.9,0,1.9,0.1c0.9,0,2.2,0.1,3.9,0.1c0.9,0,1.1,0,1.3-0.6c0.1-0.5,0.3-2,0.3-2.1c0-0.2,0-0.3-0.2-0.3
		c-0.1,0-0.2,0.1-0.2,0.3c-0.1,0.9-0.4,1.3-1,1.5c-0.6,0.2-1.7,0.2-2.3,0.2c-2.2,0-2.7-0.3-2.7-1.8c0-0.4,0-3,0-3.7v-1.8
		c0-0.1,0-0.2,0.2-0.2c0.4,0,2.8,0,3.4,0.1c0.9,0.1,1.1,0.4,1.2,0.7c0.1,0.3,0.1,0.5,0.1,0.7c0,0.1,0.1,0.2,0.2,0.2
		c0.2,0,0.2-0.2,0.2-0.4c0-0.2,0.1-1,0.1-1.4c0.1-0.7,0.2-1.1,0.2-1.2c0-0.1-0.1-0.2-0.1-0.2c-0.1,0-0.2,0.1-0.3,0.3
		c-0.2,0.2-0.6,0.3-1.1,0.3c-0.5,0.1-3.5,0.1-3.8,0.1c-0.1,0-0.1-0.1-0.1-0.2v-5.9c0-0.2,0-0.2,0.1-0.2c0.3,0,2.9,0,3.3,0.1
		c1.2,0.2,1.5,0.3,1.6,0.7c0.1,0.3,0.1,0.6,0.1,0.8c0,0.2,0.1,0.3,0.2,0.3c0.1,0,0.2-0.1,0.2-0.2c0.1-0.3,0.1-1.2,0.1-1.4
		c0.1-0.6,0.2-0.9,0.2-1c0-0.1,0-0.2-0.1-0.2c-0.1,0-0.2,0.1-0.3,0.1c-0.2,0-0.6,0.1-1,0.1c-0.1,0-0.2,0-0.4,0
		c-1.4,0-5.4-0.2-5.6-0.2c0,0-0.2,0-0.4,0c-0.4,0-0.9,0-1.5,0c0,0-0.1,0-0.1,0c-0.3,0-0.3,0.3-0.3,0.4c0,0.1,0.1,0.2,0.2,0.2
		c0.2,0,0.6,0,0.8,0.1c0.7,0.1,0.9,0.5,0.9,1.2c0.1,0.7,0.1,1.3,0.1,4.7v3.9c0,2.1,0,3.8-0.1,4.7c-0.1,0.6-0.2,1.1-0.6,1.2
		c-0.2,0-0.5,0.1-0.7,0.1c0,0,0,0-0.1,0C123.9,52.7,123.8,52.8,123.8,52.9z"/>
	<path fill="#19191C" d="M143.4,53c0.3,0,0.4-0.1,0.4-0.2c0-0.1,0-0.2-0.2-0.2c-0.2,0-0.7-0.1-1-0.1c-0.2,0-0.4-0.1-0.5-0.2
		c-0.3-0.2-0.4-0.5-0.4-1c-0.1-0.9-0.1-2.6-0.1-4.7v-0.5c0-0.1,0.1-0.2,0.2-0.2l2.9,0.1c0.2,0,0.2,0,0.3,0.1c0.5,0.6,1.5,2,2.4,3.2
		c0.5,0.6,0.9,1.2,1.3,1.7l1-1.8c-0.9-1.1-2-2.4-3.1-3.8c2.1-1.8,2.8-3.4,2.8-5c0-1.5-1-2.6-1.6-3c-1.2-0.8-2.8-1-4.2-1
		c-0.7,0-2.6,0.1-2.8,0.1c-0.1,0-1.6-0.1-2.7-0.1c-0.3,0-0.4,0.1-0.4,0.2c0,0.1,0.1,0.2,0.2,0.2c0.2,0,0.6,0,0.8,0.1
		c0.7,0.1,0.9,0.5,0.9,1.2c0.1,0.7,0.1,1.3,0.1,4.7v3.9c0,2.1,0,3.8-0.1,4.7c-0.1,0.6-0.2,1.1-0.6,1.2c-0.2,0.1-0.5,0.1-0.7,0.1
		c-0.1,0-0.2,0.1-0.2,0.2c0,0.1,0.1,0.2,0.4,0.2c0.1,0,0.2,0,0.3,0c0.8,0,1.9-0.1,2-0.1C140.7,53,142.2,53,143.4,53z M141.6,37.6
		c0-0.1,0.1-0.2,0.2-0.3c0.2-0.1,1-0.1,1.6-0.1c2.4,0,3.9,1.6,3.9,4.3c0,1.7-0.6,2.8-1.4,3.3c-0.5,0.4-1.2,0.4-1.7,0.4
		c-1,0-2.2-0.2-2.5-0.3c-0.1-0.1-0.2-0.2-0.2-0.3V37.6z"/>
	<path fill="#19191C" d="M154,53L154,53h0.3c0.4,0,0.5-0.1,0.5-0.2c0-0.1,0-0.1-0.1-0.1c0,0-0.1,0-0.1,0c0,0-0.1,0-0.2,0L154,53z"/>
	<path fill="#19191C" d="M217.3,20.5l-41.1-0.1l-6.8-20.9l-6.8,20.9h-27l22.8,12.9l-8.7,15.9l-1,1.8l-1.4,2.6l-0.7,1.4l-3.4,6.1
		l4.9-3.7l1.7-1.3L154,53l0.5-0.4l15-11.2l17.8,13l-6.8-21L217.3,20.5z M169.4,39.9l-24,18l24-27.7V39.9z M169.4,3.5v25.8v0.2
		l-0.2-0.3l-5.7-7.6L169.4,3.5z M169.9,29.4l5.5-7.8l36.4-0.2l-41.4,8.1l-0.7,0.1L169.9,29.4z M139.8,21.8l29.4,8l0.1,0l-0.1,0
		l-9.3,3.1l-17.3-9.5l-3.2-1.8L139.8,21.8z M184.8,50.9l-15.2-21l9.4,3l5.3,16.1l0.7,2.1L184.8,50.9z"/>
</g>
</svg>
