<?xml version="1.0" encoding="utf-8"?>
<!-- Generator: Adobe Illustrator 18.0.0, SVG Export Plug-In . SVG Version: 6.00 Build 0)  -->
<!DOCTYPE svg PUBLIC "-//W3C//DTD SVG 1.1//EN" "http://www.w3.org/Graphics/SVG/1.1/DTD/svg11.dtd">
<svg version="1.1" id="Layer_1" xmlns="http://www.w3.org/2000/svg" xmlns:xlink="http://www.w3.org/1999/xlink" x="0px" y="0px"
	 viewBox="0 0 250 80" enable-background="new 0 0 250 80" xml:space="preserve">
<g>
	<g>
		<g>
			<polygon fill="#19191C" points="90.5,29 101.9,42.4 113.9,56.6 126.2,42.1 109,42.1 97.8,29 156.5,29 113.9,79.6 71.4,29 			"/>
		</g>
	</g>
	<g>
		<g>
			<polygon fill="#19191C" points="182.6,29 140.1,79.6 130.6,68.3 163.3,29 			"/>
		</g>
	</g>
</g>
<g>
	<g>
		<g>
			<path fill="#19191C" d="M140.8,7.7h-4.3l-9,14.7h5.7l0.2-0.3l1-1.9h7.6l1.2,2.1h6.2L140.8,7.7z M136.3,16.9l1.9-3.3l1.8,3.3
				H136.3z"/>
		</g>
	</g>
	<g>
		<path fill="#19191C" d="M184.9,9.3c-1.6-1.3-3.9-1.9-7-1.9c-3.1,0-5.4,0.6-7,1.9c-1.6,1.3-2.4,3.2-2.4,5.7c0,2.6,0.8,4.5,2.4,5.8
			c1.6,1.3,3.9,1.9,7,1.9c3.1,0,5.4-0.6,7-1.9c1.6-1.3,2.4-3.2,2.4-5.8C187.3,12.4,186.5,10.5,184.9,9.3z M180.8,17.5
			c-0.7,0.5-1.6,0.8-2.9,0.8c-1.2,0-2.2-0.3-2.8-0.8c-0.7-0.5-1-1.4-1-2.4c0-1.1,0.3-1.9,1-2.4c0.7-0.5,1.6-0.8,2.8-0.8
			c1.2,0,2.2,0.3,2.9,0.8c0.7,0.5,1,1.4,1,2.4C181.8,16.1,181.5,16.9,180.8,17.5z"/>
	</g>
	<g>
		<polygon fill="#19191C" points="67.6,14.2 64.3,7.7 60.7,7.7 57.2,14.2 54.7,7.7 49,7.7 54.8,22.4 58.2,22.4 58.3,22.3 62.4,14.1 
			66.7,22.4 70.1,22.4 70.2,22.3 75.9,7.7 70.2,7.7 		"/>
	</g>
	<g>
		<path fill="#19191C" d="M96.4,15.1c-0.4-0.5-0.8-1-1.2-1.5c-0.4-0.5-0.8-1-1.2-1.4c-0.6-0.7-1.2-1.4-1.7-2.1
			c-0.5-0.7-1.8-2.3-1.9-2.4H85v14.7h5.2V15l5.9,7.4h5.6V7.7h-5.2V15.1z"/>
	</g>
	<g>
		<path fill="#19191C" d="M200.4,7.7v7.5c-0.4-0.5-0.8-1-1.2-1.5c-0.4-0.5-0.8-1-1.2-1.4c-0.6-0.7-1.2-1.4-1.7-2.1
			c-0.5-0.7-1.9-2.3-1.9-2.4h-5.5v14.7h5.2V15l5.9,7.4h5.6V7.7H200.4z"/>
	</g>
	<g>
		<polygon fill="#19191C" points="120.7,7.7 120.6,7.7 115.1,15.9 109.6,7.7 109.5,7.7 104.1,7.7 103.8,7.7 103.8,22.4 109.2,22.4 
			109.2,14.5 113.8,22.4 116.4,22.4 121,14.5 121,22.4 126.4,22.4 126.4,7.7 126.1,7.7 		"/>
	</g>
	<g>
		<rect x="77.3" y="7.7" fill="#19191C" width="4.9" height="14.7"/>
	</g>
	<g>
		<rect x="162.1" y="7.7" fill="#19191C" width="4.9" height="14.7"/>
	</g>
	<g>
		<polygon fill="#19191C" points="145.5,11.4 150.3,11.4 150.3,22.4 156,22.4 156,11.4 160.9,11.4 160.9,7.7 145.5,7.7 		"/>
	</g>
	<g>
		<path fill="#19191C" d="M82.4,2.9c0,1.6-1.3,2.9-2.9,2.9c-1.6,0-2.9-1.3-2.9-2.9C76.7,1.3,78,0,79.6,0C81.2,0,82.4,1.3,82.4,2.9z"
			/>
	</g>
	<g>
		<path fill="#19191C" d="M167.4,2.9c0,1.6-1.3,2.9-2.9,2.9c-1.6,0-2.9-1.3-2.9-2.9c0-1.6,1.3-2.9,2.9-2.9
			C166.1,0,167.4,1.3,167.4,2.9z"/>
	</g>
</g>
<g>
	<path d="M193,34c-1.4,0-2.6-1.2-2.6-2.6c0-1.4,1.2-2.6,2.6-2.6c1.4,0,2.6,1.2,2.6,2.6C195.6,32.9,194.4,34,193,34z M193,29.2
		c-1.3,0-2.3,1-2.3,2.3c0,1.3,1,2.3,2.3,2.3c1.2,0,2.3-1,2.3-2.3C195.3,30.2,194.3,29.2,193,29.2z"/>
</g>
<g>
	<g>
		<path fill="#19191C" d="M192,30h1.3c0.1,0,0.2,0,0.3,0.1c0.1,0,0.2,0.1,0.3,0.1c0.1,0.1,0.1,0.1,0.2,0.2c0.1,0.1,0.1,0.2,0.1,0.3
			c0,0.2,0,0.3-0.1,0.5c-0.1,0.1-0.2,0.2-0.4,0.3v0c0.1,0,0.2,0,0.2,0c0.1,0.1,0.2,0.1,0.2,0.2c0,0.1,0.1,0.1,0.1,0.2
			c0,0.1,0,0.1,0,0.2l0,0.2c0,0.1,0,0.1,0,0.2c0,0,0,0.1,0,0.2c0,0.1,0,0.1,0.1,0.2h-0.3c0,0,0-0.1,0-0.1l0-0.1l0-0.1
			c0-0.1,0-0.1,0-0.1c0-0.1,0-0.2,0-0.3c0-0.1,0-0.2,0-0.2c-0.1-0.2-0.1-0.2-0.2-0.3c-0.1,0-0.2-0.1-0.3-0.1h-1v1.2H192V30z
			 M192.3,31.3h1c0.1,0,0.2,0,0.2,0c0.1,0,0.1-0.1,0.2-0.1c0.1-0.1,0.1-0.1,0.1-0.2c0-0.1,0-0.1,0-0.2c0-0.2,0-0.3-0.1-0.4
			c-0.1-0.1-0.2-0.2-0.5-0.2h-1V31.3z"/>
	</g>
</g>
</svg>
