<?xml version="1.0" standalone="no"?>
<!DOCTYPE svg PUBLIC "-//W3C//DTD SVG 1.1//EN" "http://www.w3.org/Graphics/SVG/1.1/DTD/svg11.dtd" >
<svg xmlns="http://www.w3.org/2000/svg">
<metadata>Generated by IcoMoon</metadata>
<defs>
<font id="icomoon" horiz-adv-x="1024">
<font-face units-per-em="1024" ascent="960" descent="-64" />
<missing-glyph horiz-adv-x="1024" />
<glyph unicode="&#x20;" d="" horiz-adv-x="512" />
<glyph unicode="&#xe600;" d="M552.8 334.6c-46.2-46.4-92.6-93.2-140.2-141.2 1 14.8 2 28.8 3 43 2 27.6 4 55.2 5.4 82.6 0.2 3.8-2.8 8.4-5.4 11.6-58 67.2-116.2 134.2-174.4 201.2-15.2 17.6-30.2 35.4-46 52.4-3.8 4-10.6 7-16 7.2-31.8 0.6-63.6 0.4-95.4 0.4 95.4 95.4 189 189.2 282.6 282.8 0.6-13.2 1.4-28.4 1.8-43.6 0.4-17.2-0.2-34.6 0.6-51.8 0.2-4.6 2.6-10.4 5.8-13.2 81.6-71 164-141.4 245-213 14.8-13 28.6-15 46.8-12.6 24.8 3.4 49.8 3.6 74.8 5.4 8.4 0.6 16.8 1.4 25.4 2-47.6-47.2-94.4-93.8-141-140.2 108.6-132 214.6-260.8 320.4-389.6-0.8-1-1.8-1.8-2.6-2.8-129.2 105.6-258.6 211.4-390.6 319.4z" />
<glyph unicode="&#xe601;" d="M878.8 807.6c-22.6-38.8-45.2-77.8-67.8-116.8-34.6-59.6-69.2-119.2-103.6-179-12.4-21.4-25.4-42.2-36.6-64.2-0.6-2.2 0.6-3.6 1.6-5.2 24.2-41.8 48.4-83.6 72.8-125.6 39.2-67.8 78.6-135.4 118-203 6.2-10.4 11-21.6 19-31.2 0 121.6 0 243.4 0 365 0 121.2 0 242.4 0 363.6-2.2-1-2.6-2.2-3.4-3.6zM646 315.2c-25.4 43.8-50.6 87.4-76 131 0 0.6-0.2 1-0.2 1.6 0.2 0.4 0.2 0.8 0.2 1.4 0.8 1.2 1.8 2.2 2.4 3.6 68.4 118 136.8 236.4 205.2 354.4 1 1.8 3 2.8 1.8 6.8-2.2 0-4.6 0-7 0-135.6 0-271-0.6-406.6-0.6-2.4 0-4.8-0.4-7.2-0.6-3-1.6-3.8-5-5.2-7.6-59.6-103-119.4-206.2-179-309.4-9.2-16-18.2-32-27.2-48-0.4 0 0.6 0-1.4 0 0-0.4 0-1 0-1.4 2-2.4 3.4-4.6 4.8-7 66.4-115 133-229.6 199.4-344.4 2.6-4.4 4.4-10.8 8.6-12.8v0 0c2 0 3.8-0.4 5.8-0.4 136.2 0 272.4-0.2 408.8-0.2 8 0 8 0 4 7-43.6 75.4-87.4 151-131.2 226.6z" />
<glyph unicode="&#xe602;" d="M1013.632 551.072c-6.752 32.864-16.8 65.28-29.888 96.224-12.8 30.368-28.704 59.616-47.232 86.976-18.304 27.104-39.328 52.576-62.464 75.712-23.2 23.2-48.672 44.224-75.744 62.496-27.36 18.528-56.672 34.4-87.008 47.232-30.944 13.024-63.328 23.168-96.224 29.856-33.696 6.912-68.384 10.432-103.072 10.432s-69.376-3.52-103.136-10.432c-32.864-6.688-65.248-16.8-96.192-29.856-30.336-12.832-59.616-28.704-86.976-47.232-27.104-18.272-52.608-39.296-75.744-62.496-23.168-23.136-44.16-48.608-62.464-75.712-18.528-27.328-34.4-56.576-47.232-86.944-13.088-30.944-23.136-63.36-29.888-96.224-6.88-33.696-10.368-68.416-10.368-103.040 0-34.784 3.488-69.504 10.368-103.2 6.752-32.832 16.768-65.248 29.888-96.16 12.832-30.336 28.704-59.68 47.232-87.040 18.304-27.104 39.328-52.544 62.464-75.712 23.168-23.136 48.672-44.128 75.744-62.432 27.36-18.496 56.672-34.4 87.008-47.232 30.944-13.12 63.328-23.104 96.192-29.888 33.728-6.912 68.416-10.4 103.104-10.4s69.376 3.488 103.104 10.432c32.896 6.784 65.28 16.736 96.224 29.888 30.336 12.8 59.616 28.704 87.008 47.232 27.104 18.304 52.576 39.328 75.744 62.432 23.136 23.2 44.16 48.64 62.464 75.712 18.496 27.328 34.4 56.672 47.232 87.040 13.056 30.912 23.136 63.328 29.888 96.16 6.848 33.664 10.336 68.384 10.336 103.168 0 34.624-3.488 69.344-10.368 103.008zM949.12 452.384c-6.304 1.376-154.304 33.184-304.576 14.304-3.072 7.488-6.176 15.008-9.44 22.56-9.056 21.44-18.88 42.624-29.056 63.456 172.672 70.464 242.816 171.84 243.616 173.056 61.376-74.496 98.464-169.632 99.456-273.376zM800.8 776.128c-1.056-1.728-63.36-96.48-228.416-158.304-74.752 137.344-156.864 246.4-163.456 255.072 33.056 8.032 67.584 12.352 103.072 12.352 110.72 0 211.744-41.248 288.8-109.12zM407.296 872.544c-0.032-0.064-0.096-0.096-0.096-0.096s-0.512-0.128-1.312-0.288c0.416 0.128 0.928 0.224 1.408 0.384zM325.44 843.456c5.824-7.808 86.688-117.408 162.368-251.936-209.952-55.776-392.16-53.6-403.712-53.376 28.416 135.424 119.392 247.68 241.344 305.312zM74.752 448.064c0 4.64 0.192 9.184 0.384 13.792 7.68-0.16 223.744-5.056 448.864 62.304 12.576-24.512 24.544-49.44 35.488-74.336-5.824-1.632-11.488-3.328-17.248-5.216-235.968-76.256-355.648-288.576-355.648-288.576s0.16-0.128 0.192-0.192c-69.632 77.44-112.032 179.84-112.032 292.224zM512 10.784c-105.824 0-202.88 37.632-278.528 100.192 5.792-4.672 9.792-7.648 9.792-7.648s83.808 182.816 343.2 273.12c0.928 0.384 1.92 0.64 2.88 0.928 61.536-159.84 86.944-293.792 93.408-331.968-52.512-22.272-110.176-34.624-170.752-34.624zM756.352 85.344c-4.48 26.432-27.744 154.752-85.088 312.352 141.152 22.56 263.456-16.16 272.512-19.136-19.488-121.792-89.248-226.912-187.424-293.216z" />
<glyph unicode="&#xe603;" d="M54.286 442.857v169.143h145.714v124.571q0 106.286 59.429 164.857t158.286 58.571q84 0 130.286-6.857v-150.857h-89.714q-49.143 0-66.286-20.571t-17.143-61.714v-108h167.429l-22.286-169.143h-145.143v-433.714h-174.857v433.714h-145.714z" horiz-adv-x="585" />
<glyph unicode="&#xe604;" d="M889.8 945.2h-756.8c-71.4 0-126.2-54.8-126.2-126.2v-756.8c0-71.2 55-126.2 126.2-126.2h756.8c71.2 0 126.2 55 126.2 126.2v756.8c-0.2 71.4-55 126.2-126.2 126.2zM512 639c112 0 202.6-87.8 202.6-196.4 0-108.4-90.6-196.4-202.6-196.4-111.8 0-202.6 88-202.6 196.4 0.2 108.4 90.8 196.4 202.6 196.4zM889.8 93.8c0-22.2-9.4-31.6-31.6-31.6h-693.8c-22 0-31.6 9.4-31.6 31.6v441.4l78.6-17c-8.4-27.4-13-56.4-13-86.6 0-167.8 140.4-303.8 313.6-303.8s313.6 136 313.6 303.8c0 30.2-4.6 59.2-13 86.6l77 17v-441.4zM889.8 661.4c0-17.4-14.2-31.6-31.6-31.6h-126.2c-17.4 0-31.6 14.2-31.6 31.6v126.2c0 17.4 14.2 31.6 31.6 31.6h126.2c17.4 0 31.6-14.2 31.6-31.6v-126.2z" />
<glyph unicode="&#xe605;" d="M442.6 279.6c-26.6-139.6-59.2-273.6-155.6-343.4-29.8 211.2 43.6 369.6 77.8 538-58.2 98 7 294.8 129.6 246.4 151-59.6-130.6-363.8 58.4-401.8 197.4-39.6 278 342.4 155.6 466.6-176.8 179.2-514.8 4-473.2-253 10-62.8 75-81.8 26-168.6-113.2 25.2-147 114.6-142.6 233.4 7 194.8 175 331.2 343.4 350.2 213.2 23.8 413.2-78.4 440.8-278.8 31.2-226.2-96.2-471.4-324-453.6-61.8 4.6-87.8 35.2-136.2 64.6z" />
<glyph unicode="&#xe606;" d="M18.286 186.286q0 46.286 25.429 85.714t67.714 65.714q74.857 46.857 230.857 57.143-18.286 24-27.143 42.286t-8.857 41.714q0 20.571 12 48.571-26.286-2.286-38.857-2.286-84.571 0-142.571 55.143t-58 139.714q0 46.857 20.571 90.857t56.571 74.857q44 37.714 104.286 56t124.286 18.286h238.857l-78.857-50.286h-74.857q42.286-36 64-76t21.714-91.429q0-41.143-14-74t-33.714-53.143-39.714-37.143-34-35.143-14-37.714q0-20.571 18.286-40.286t44.286-38.857 51.714-42 44-59.429 18.286-81.143q0-51.429-27.429-98.857-41.143-69.714-120.571-102.571t-170.286-32.857q-75.429 0-140.857 23.714t-98 78.571q-21.143 34.286-21.143 74.857zM124.571 212.571q0-40 20-70.571t52.286-47.429 68-25.143 72.857-8.286q33.143 0 63.714 7.429t56.571 22.286 41.714 41.714 15.714 62.286q0 14.286-4 28t-8.286 24-15.429 23.714-16.857 20-22 19.714-20.857 16.571-23.714 17.143-20.857 14.857q-9.143 1.143-27.429 1.143-30.286 0-60-4t-61.429-14.286-55.429-26.286-39.143-42.571-15.429-60.286zM185.143 780.571q0-26.286 5.714-55.714t18-58.857 29.714-52.857 42.857-38.286 55.143-14.857q21.714 0 44.571 9.429t37.714 24.857q30.286 32.571 30.286 90.857 0 33.143-9.714 71.429t-27.714 74-48.286 59.143-66.857 23.429q-24 0-47.143-11.143t-37.429-30q-26.857-33.714-26.857-91.429zM619.429 500v61.714h121.143v124h60v-124h121.714v-61.714h-121.714v-125.143h-60v125.143h-121.143z" horiz-adv-x="951" />
<glyph unicode="&#xe607;" d="M613.8 548.8c0-46.723-37.877-84.6-84.6-84.6s-84.6 37.877-84.6 84.6c0 46.723 37.877 84.6 84.6 84.6s84.6-37.877 84.6-84.6zM749.2 317.2l-4.2 105.6 94.2 48-60.6 86.6 53.4 91.2-97.8 40-4.4 105.6-103.8-19.2-60.8 86.4-77-72.4-98.2 40-25.8-102.4-103.8-19.4 33.8-100.2-76.8-72.6 82.6-66-25.6-102.6 96.8-10-65.6-319.2 109.6 63 76-101 38 184.6 38-184.6 76 101 109.6-63-58.8 286.2 55.2-5.6zM319.8 538.6l51.8 49-22.8 67.6 70 13.2 17.4 69.2 66-26.8 52 48.8 41-58.4 70.2 13 3-71.2 66-27-36-61.6 40.8-58.4-63.2-32.8 2.8-71.2-71 7.2-36.2-61.4-55.8 44.2-63.6-32-23 67.6-71 7.4 17.2 69.2-55.6 44.4zM472.8 79.8l-48.4 64.4-70-40.2 41.4 202 17.4-51.4 91.4 46.2 6.8-32.8-38.6-188.2zM703.6 104l-70 40.2-48.4-64.4-39.6 192.6 44.8-35.6 53.6 91 14-1.4 45.6-222.4z" />
<glyph unicode="&#xe608;" d="M843.2 768l-136.8-73.8 6.6-12.4-6.2 1c-70.2 70.2-181.2 75.6-257.8 16.4v0.4l-136.8-13.4 4.2 8-136.8 73.8-178.4-306.2 138.4-101.6 12.4 23.2 53-24.4c-1-15.4 3.6-31 13.6-43.4 10.4-13 25.4-21 41.8-22.8 1.2-0.2 2.2-0.2 3.4-0.2 0.6-13 5.2-25.4 13.6-35.8 10.4-13 25.4-21 41.8-22.8 1.2-0.2 2.2-0.2 3.4-0.2 0.6-13 5.2-25.4 13.6-35.8 10.4-13 25.4-21 41.8-22.8 2.2-0.2 4.4-0.4 6.6-0.4 14.2 0 28 4.8 40 14.6l2.8 2.4 32-28.4c11.8-11.8 27.4-18.2 44-18.2s32.2 6.4 44 18.2c7.2 7.2 12.2 16.2 15.2 25.8 9.8-6 21-9.4 32.8-9.4 16.6 0 32.2 6.4 44 18.2 7.2 7.2 12.2 16.2 15.2 25.8 9.8-6 21-9.4 32.8-9.4 16.6 0 32.2 6.4 44 18.2 7.2 7.2 12.2 16.2 15.2 25.8 10-6.2 21.4-9.4 32.8-9.4 16 0 32 6 44 18.2 19.8 19.8 23.4 49.6 11 73l36.6 42 11.6-22 138.4 101.6-177.8 306.2zM108 453.4c-16.2 0-29.4 13.2-29.4 29.4s13.2 29.4 29.4 29.4c16.2 0 29.4-13.2 29.4-29.4s-13.2-29.4-29.4-29.4zM253 337l11.2-5.2c-4.4 0.6-8 2.6-11.2 5.2zM323.4 273c-6.2 0.6-11.6 3.6-15.6 8.4s-5.6 10.8-5 17c0.2 1 0.6 2 1 3l30.2-26.8c-3.2-1.4-6.8-2.2-10.6-1.6zM382.2 214.2c-6.2 0.6-11.6 3.6-15.6 8.4-3.8 4.8-5.6 10.8-5 17 0.2 2.6 1.2 5 2.2 7.2 0.2 0.2 0.6 0.4 0.8 0.6l32.8-29c-4.2-3.2-9.4-4.8-15.2-4.2zM796.2 294.8c-9-9-23.8-9-33.6 0.8l-180.8 160-27.8-27.8 151.2-133.8-1-1c4.4-4.4 6.8-10.2 6.8-16.4s-2.4-12-6.8-16.4c-8.8-8.8-23-9.6-33.6 0.8l-150.4 133-27.8-27.8 120.8-106.8-1-1c9-9 9-23.8 0-32.8-8.8-8.8-23-9.6-33.6 0.8l-119.8 106-27.8-27.8 90.2-79.8-1.2-0.8c4.4-4.4 6.8-10.2 6.8-16.4s-2.4-12-6.8-16.4c-8.8-8.8-23-9.6-33.6 0.8l-187.8 166-128.4 60 120 226.6 105.8 10.4c-6.4-8.2-9.2-13.8-9.8-15.6-0.4-1-38.4-99.2-50.2-125.2l-6.2-13.4 11.2-9.6c1.4-1.2 36.8-30.6 80.6-18.8 34.6 9.4 62.8 41.2 84 94.4l46.8-2.2 236.2-218.4-5.2-6 13-13c8.8-8.6 8.8-23.4-0.2-32.4zM814.4 376l-245.8 227.4-89.8 4.2-4.8-13.8c-16.8-47.8-38.2-76.6-62-83.2-12.8-3.6-24.8-0.2-33.4 3.6 15.6 37.4 42.8 107.6 43.8 110.2 0 0.2 10.8 12.6 35.8 30.8 61 61 160.2 61 221.2 0l16.6-12.4h38l118-223.4-37.6-43.4zM917 433.8c-15.2 0-27.4 12.2-27.4 27.4s12.2 27.4 27.4 27.4c15.2 0 27.4-12.2 27.4-27.4s-12.4-27.4-27.4-27.4z" />
<glyph unicode="&#xe609;" d="M325.6 563.2c-134.6 0.4-199.6-190.4-199.6-190.4l131.6-26.8c3.4 66 26.4 144.4 68 217.2zM449.8 49c0 0 190.8 65 190.4 199.6-72.8-41.6-151.2-64.6-217.2-68l26.8-131.6zM917.4 838.2c0 0-244 47-481.8-190.8-98.6-98.6-150.2-218.6-150-307.8 21.4-12.8 47-33 72-58 25.4-25.4 45.6-51 58.6-72.6 89-0.2 211.8 48.8 310.6 147.6 226.8 226.8 190.6 481.6 190.6 481.6zM383.8 307.6c-19.8 19.8-40.6 37.4-60.2 51.4 3 34 13.6 70.8 30.4 108 33.6-23.4 69.8-54 104.6-88.8 34-34 64-69.2 87-102.2-40.8-17.6-78.8-26.8-110-29.4-14 20-32 41.2-51.8 61zM700.4 382.6c-16-16-32.4-30.4-48.8-43.2-27 40.6-63.6 84.8-105.4 126.6-42.2 42.2-86.8 79.2-127.8 106 13.4 17 27.8 33.4 43.4 49 97.8 97.8 195.6 144.6 275 166.4 23.2-11.6 91-50.8 127.6-124.8-21.6-82.2-67.8-183.8-164-280zM660.6 663c-21.8 0-42.4-8.6-57.8-24-31.8-31.8-31.8-83.8 0-115.6 15.4-15.4 36-24 57.8-24s42.4 8.6 57.8 24 24 36 24 57.8c0 21.8-8.6 42.4-24 57.8-15.6 15.4-36 24-57.8 24zM693.4 548.4c-17.6-17.6-48.2-17.6-65.8 0-18.2 18.2-18.2 47.6 0 65.8 8.8 8.8 20.4 13.6 33 13.6 12.4 0 24.2-4.8 32.8-13.6s13.6-20.4 13.6-32.8-4.8-24.2-13.6-33zM146.2 87.4l-2.8-23.6 23.4 4.2c1.6 0.2 167.6 31.6 186.2 193.8l2.4 21-21-1.4c-92-6.2-176.2-93.2-188.2-194zM186.4 109.8c17.8 63.8 69.6 118 127.4 132.6-19.8-84-89-119.2-127.4-132.6z" />
<glyph unicode="&#xe60a;" d="M0 94.857v720h339.429q49.714 0 88.571-8t72.286-27.143 51.429-55.143 18-88q0-103.429-98.286-150.286 65.143-18.286 98.286-65.714t33.143-116.571q0-42.857-14-78t-37.714-59.143-56.286-40.571-69.143-24-76.571-7.429h-349.143zM158.286 217.143h169.143q117.143 0 117.143 95.429 0 102.857-113.714 102.857h-172.571v-198.286zM158.286 524h160.571q44.571 0 70.571 20.857t26 64.857q0 82.286-108.571 82.286h-148.571v-168zM649.714 354.857q0 118.857 74.571 197.429t192.286 78.571q78.857 0 137.429-38.857t87.429-102.286 28.857-141.714q0-9.714-1.143-26.857h-376q0-63.429 32.857-98t95.143-34.571q36 0 69.714 18.286t43.429 49.714h126.286q-57.143-175.429-244-175.429-122.286 0-194.571 75.429t-72.286 198.286zM764 695.429h292v70.857h-292v-70.857zM793.143 411.429h233.143q-10.286 111.429-114.286 111.429-51.429 0-83.429-30t-35.429-81.429z" horiz-adv-x="1170" />
<glyph unicode="&#xe60b;" d="M917.6 469.2c-22.4 92.2-72.2 104.4-89.8 105.6-1.8 0.2-3.2 0.4-4.4 0.4-16.2 0-54.8-26.4-54.8-26.4 0 2.8 0 5.4-0.2 8.2 4.6 27.2 5.2 50.6 31.6 50.6l2.4 43.6c-11.4 0-29.8 4.2-54.2 7.8-29.6 74-89 126.8-163 147.4 12.2 2 32.2 5.2 32.2 5.2-21.2 19.8-78.2 14.2-78.2 14.2 16.4 16.4 58.6 24.8 58.6 24.8-58.4 0-92.8-16-92.8-16 16.2 16.2 50 39.2 50 39.2s-181-22.4-256.6-171.2c0 0 0.4 0.2 1 0.4-8.8-13.8-16.4-28.6-22.8-44.2-23.4-3.6-41-7.6-52-7.6l2.4-43.6c23 0 26.4-18.2 30-40.8-0.4-6-0.6-12-0.6-18 0 0-38.6 25.8-54.8 25.8-14.8 0-72.8-14.6-83.4-119.6-6.4 7.8-9.2 20.2-9.2 20.2-11.8-86.2 18-123 33.8-136.2 26.6-30 65.4-34 78-34 44.6 0 102.6 48.8 102.6 48.8s-1.6-141.2 3-189.8c0 0 31-26 60.2-57 26.8-28.6 36.6-57.4 106.4-62v0c0-10.2-12.6-16-12.6-16 34.6 0 43 10.6 44.8 14.4-7.2-18.8-23.4-21.6-23.4-21.6 35.6 0 69 14.8 103 49.8 12.4 10.4 22.2 23 33.8 35.2 29.2 31 60.2 56.6 60.2 56.6 4.6 48.6 3 190 3 190s57.8-48.6 102.6-48.6c19.8 0 104.4 9.8 104.4 115.2 0 25-2.4 46-6.2 63.6 8.2-4.8 15-14.4 15-14.4zM768 632h20v-6h-20v6zM240 626v6h20v-6h-20zM570 529.6c-10.4 20.6-15 49.8-15 71.8 0 25.8 46.4 43.6 109.6 43.6 22.4 0 41.2-0.2 55.8-2.8 11.4-31.4 12-55.6 11-67.4 0 0-5.2 11-11.8 20.2-0.2-70.2-46.2-95.2-67.2-103-57 0.8-71.8 16.6-82.4 37.6zM318 669c16.4 43.4 48.8 65.6 90.4 65.6 29 0 54.2-7.8 72.6-16-5.4 11.6-6 16.8 4.2 8.8 10.4-8.2 20.4-16.8 27-26.4 0.6-0.4 0.8-0.6 1-0.8 2 1.6 45.4 34.2 104.6 34.2 38.8 0 69.8-19.4 87-57.6v0c2.6-4.6 4.8-9.2 7-13.8-9.6 0.8-19.8 1.2-30.4 1.2-95.2 0-126-19-167.8-19.6-41.8 0.6-72.4 19.6-167.6 19.6-10.8 0-21-0.4-30.6-1.2 0.6 2 1.6 4 2.6 6zM374.2 491.8c-20.4 7.4-66.4 31.6-67.8 100.6-5.8-8.6-10.2-17.6-10.2-17.6-1 11.8-0.8 35.8 10.2 67.2 14.8 2.6 33.8 3 56.2 3 63.2 0 109.6-17.8 109.6-43.6 0-22-4.6-51.2-15-71.8-10.6-21-25.4-36.8-83-37.8zM218.2 359c-40.4 0-66.4 41-66.4 87s19.8 80 44.6 80c24.8 0 88.4-46.8 88.4-46.8v-0.4c-15.2-3.2-20.4-6.4-20.4-8.4 0-2.2 4.4-5 12.8-5 0 0-24.2-15.4-24.2-32.4 0-5.6 16.6 2.4 16.6 2.4s-2.8-9.2-2.8-18.2 8.4-27.6 13.2-27.6c4.8 0-3.2 6.4 4.4 26 0 0 2.8-22.4 18.4-28l0.2-0.6c-0.2 0-44.6-28-84.8-28zM585.4 113.8c0 0-21-9.8-72.4-9.8s-72.4 9.8-72.4 9.8-91.4 87.2-91.4 144.6c0 48.4 0.4 179 20.8 219 0.2 0 0.4 0 0.6 0 153.8 0 82 112 142.8 114 60.8-2.2-10.6-113.8 142.4-114 20.6-39.6 21-171 21-219.4-0.2-57.4-91.4-144.2-91.4-144.2zM807 359c-39.8 0-83.4 27.4-84.6 28 17.8 3.8 21 28.6 21 28.6 7.4-19.4-0.4-26 4.4-26s13.2 18.6 13.2 27.6-2.8 18.2-2.8 18.2 16.6-8 16.6-2.4c0 17-24.2 32.4-24.2 32.4 8.4 0 12.8 3 12.8 5s-5.6 5.4-22.8 8.8c1.2 0.8 63.8 46.6 88.4 46.6 24.8 0 44.6-34 44.6-80 0-45.8-26.2-86.8-66.6-86.8zM537.2 437c6 0 15.6 19 15.6 19h44.2c0 0-16 6.6-37.6 6.6-21.8 0-27.2-2.6-30.2-2.6s-5.2-37.8-5.2-37.8l8.2 17.2c0 0-1-2.4 5-2.4zM490.8 437c6 0 5 2.4 5 2.4l8.2-17.2c0 0-2.2 37.8-5.2 37.8s-8.4 2.6-30.2 2.6-37.6-6.6-37.6-6.6h44.2c-0.2 0 9.4-19 15.6-19zM604.2 276.2c0 0-31-2.8-78.8-2.8s-87.4 5.8-87.4 5.8l-53.6 44.4 53-64.2c0 0 31.4-7.4 76-7.4 32.6 0 97.6 13 97.6 13l27.6 31.8-34.4-20.6zM513.4 193.4c15 0 22.4 10.6 22.4 10.6h-44.8c0 0 7.4-10.6 22.4-10.6zM613 584.6c-3.8 0-7 5.2-7 11.6 0 3.4 0.8 6.4 2.2 8.6-2 1.2-4.2 1.8-6.6 1.8-11.4 0-20.8-15.4-20.8-34.6s9.4-34.6 20.8-34.6 20.8 15.4 20.8 34.6c0 7-1.2 13.4-3.4 18.8-1.2-3.8-3.4-6.2-6-6.2zM433.8 584.6c-3.8 0-7 5.2-7 11.6 0 3.4 0.8 6.4 2.2 8.6-2 1.2-4.2 1.8-6.6 1.8-11.4 0-20.8-15.4-20.8-34.6s9.4-34.6 20.8-34.6 20.8 15.4 20.8 34.6c0 7-1.2 13.4-3.4 18.8-1-3.8-3.2-6.2-6-6.2zM644.8 683.8c0 0-50.8 14-98.8-3.8v-11.2c0 0.2 37 18.6 98.8 15zM480 669v11c-54 17.8-98.8 3.8-98.8 3.8 61.8 3.6 98.8-14.8 98.8-14.8z" />
<glyph unicode="&#xe60c;" d="M0 365.714q0 135.429 77.714 226.286-15.429 46.857-15.429 97.143 0 66.286 29.143 124.571 61.714 0 108.571-22.571t108-70.571q84 20 176.571 20 84.571 0 160-18.286 60 46.857 106.857 69.143t108 22.286q29.143-58.286 29.143-124.571 0-49.714-15.429-96 77.714-91.429 77.714-227.429 0-118.286-34.857-189.143-21.714-44-60.286-76t-80.571-49.143-97.143-27.143-98-12.571-95.429-2.571q-44.571 0-81.143 1.714t-84.286 7.143-87.143 17.143-78.286 29.429-69.143 46.286-49.143 65.714q-35.429 70.286-35.429 189.143zM128 265.143q0-50.286 18.286-87.714t46.286-58.857 69.714-34.286 80-16.857 85.143-4h96q46.857 0 85.143 4t80 16.857 69.714 34.286 46.286 58.857 18.286 87.714q0 68.571-39.429 116.571t-106.857 48q-23.429 0-111.429-12-40.571-6.286-89.714-6.286t-89.714 6.286q-86.857 12-111.429 12-67.429 0-106.857-48t-39.429-116.571zM219.429 265.143q0 22.857 7.143 46.857t24.571 43.429 41.429 19.429 41.429-19.429 24.571-43.429 7.143-46.857-7.143-46.857-24.571-43.429-41.429-19.429-41.429 19.429-24.571 43.429-7.143 46.857zM585.143 265.143q0 22.857 7.143 46.857t24.571 43.429 41.429 19.429 41.429-19.429 24.571-43.429 7.143-46.857-7.143-46.857-24.571-43.429-41.429-19.429-41.429 19.429-24.571 43.429-7.143 46.857z" horiz-adv-x="951" />
<glyph unicode="&#xe60d;" d="M1014.2 205.067l-61.8 63.8c-8.8 9-21.8 12.4-33.8 8.6-41-12.8-93.8-19.8-148.6-19.8-81.6 0-356.6 19.2-462.4 266.4-56.4 131.4-55.8 215.6 1.8 273.2 6.4 6.4 9.8 15 9.8 24s-4 17.6-10.6 23.8l-88.6 82.8c-8.4 7.8-20.2 10.8-31.4 7.8s-20-11.4-23.2-22.4l-46.6-154.2c-52.2-29.4-113.2-119.6-113.2-242.6 0-175.6 159.4-560.6 632.6-560.6 267 0 377 202 381.6 210.6 6.6 12.6 4.4 28.2-5.6 38.6zM638.2 22.267c-423.6 0-566 339.2-566.2 494 0 111.8 60.8 179.8 83.8 186.8 10.6 3.2 19 11.6 22.2 22.2l27 89.6 21.2-18c-54.2-96.8-16.4-214.4 20-299.2 122.2-284.4 431.8-306.6 523.8-306.6 53 0 104.8 6 148.4 17.2l29.8-30.6c-32.6-45.8-129.4-155.4-310-155.4zM782.2 140.667c-37.6-5.8-87.8-8.6-137.8-5.8-25 1.4-49.8 4.4-73.2 8.2-23 4.4-45 8-63.2 13.4-18.4 5-33.6 9-44.2 12.8-10.8 3.4-16.8 5.2-16.8 5.2s5.6-3.4 15.2-9.2c9.8-5.4 24-13.6 42-20.6 18-7.4 39.6-14.8 63.2-20.8 23.8-5.6 49.6-9.2 75.8-11.2 26-1 52.2-0.4 76.4 2.4 24.2 3 46.6 8 65.2 13.4 18.8 4.8 33.8 11.4 44.2 15.8 10.2 4.8 16.2 7.4 16.2 7.4s-6.4-1.2-17.4-3.2c-11-2.6-27-4.8-45.6-7.8z" />
<glyph unicode="&#xe60e;" d="M960 710.8c0 1 0 2-0.2 2.8l-447.2-326.2-446.8 326.2c-0.2-0.8 0.2-1.8 0.2-2.8v-50l289-210.8-289-210.6v-53l324.8 237.2 122-89.2 122 89.2 325.2-237.4v53.2l-289 210.6 289 210.8v50zM949.6 107.6h-874c-41.4 0-75 33.6-75 75v528.2c0 41.4 33.6 75 75 75h874c41.4 0 75-33.6 75-75v-528.2c0.2-41.4-33.6-75-75-75zM75.8 721.6c-5.8 0-10.8-4.8-10.8-10.8v-528.2c0-5.8 4.8-10.8 10.8-10.8h874c5.8 0 10.8 4.8 10.8 10.8v528.2c0 5.8-4.8 10.8-10.8 10.8h-874z" />
<glyph unicode="&#xe60f;" d="M493.6 0.667c-62.8 0-108.4 24.2-110.4 25.2-10.4 5.6-14.4 18.6-8.8 29s18.6 14.4 29 9c0.4-0.2 38.6-20 90.2-20 47.8 0 72.8 17.6 74 18.4 9.6 6.8 23 4.8 30-4.8 7-9.4 5-22.8-4.4-29.8-1.6-1.2-36.6-27-99.6-27zM493.6-85.333c-62.8 0-108.4 24.2-110.4 25.2-10.4 5.6-14.4 18.6-8.8 29s18.6 14.4 29 9c0.4-0.2 38.6-20 90.2-20 47.8 0 72.8 17.6 74 18.4 9.6 6.8 23 4.8 30-4.8 7-9.4 5-22.8-4.4-29.8-1.6-1.2-36.6-27-99.6-27zM558.2 640.867c-9.6 6.8-23.2 4.4-30-5.2l-47-67.2-48.8 67.4c-7 9.6-20.6 11.8-30 4.8-9.6-7-12.2-20.4-5.2-30l73-101.4v-322c8-1 14.4-1.6 22-1.6 8.2 0 16 0.8 22 1.8v328.8c0 4.6-1.4 9-4.2 12.6l-2 2.6 55.6 79.4c6.8 9.6 4.4 23.2-5.4 30zM492.4 121.067c-53.8 0-92.8 20-97 22.2-10.4 5.6-17 16.6-17 28.4 0 75.2-42.2 142.2-86.8 213-51 81.2-103.8 165.2-103.8 272.8-0.2 155.6 125.4 277.2 285.4 277.2 158.2 0 286.8-125.4 286.8-279.4 0-100.6-43.2-176.8-84.8-250.2-41.2-72.6-80-141.2-80-233 0-10.2-4.8-19.8-13-25.8-3.2-2.8-34.6-25.2-89.8-25.2zM442 193.867c12-4 29.8-8.2 50.4-8.2 17.2 0 30.2 3.2 39 6.2 5 98.8 47.2 173 87.8 244.8 39.4 69.4 76.4 134.8 76.4 218.4 0 118.6-99.8 215-222.2 215-124 0-221-93.4-221-212.4 0-89 45.6-161.6 94-238.4 43.6-69.6 88.6-141.2 95.6-225.4z" />
<glyph unicode="&#xe610;" d="M874.2 292.4h-724.4v396.6h724.4v-396.6zM192.6 335.4h638.8v310.6h-638.8v-310.6zM948.8 150.6h-873.6c-41.4 0-75.2 33.8-75.2 75.2v529.8c0 41.4 33.6 75.2 75 75.2h873.8c41.4 0 75-33.8 75-75.2v-529.6c0.2-41.6-33.6-75.4-75-75.4zM75.2 766.4c-5.8 0-10.8-5-10.8-10.8v-529.6c0-5.8 4.8-10.8 10.8-10.8h873.8c5.8 0 10.8 5 10.8 10.8v529.6c0 5.8-4.8 10.8-10.8 10.8h-873.8z" />
<glyph unicode="&#xe611;" d="M0 292v312q0 23.429 19.429 36.571l468 312q12 7.429 24.571 7.429t24.571-7.429l468-312q19.429-13.143 19.429-36.571v-312q0-23.429-19.429-36.571l-468-312q-12-7.429-24.571-7.429t-24.571 7.429l-468 312q-19.429 13.143-19.429 36.571zM88 374.286l110.286 73.714-110.286 73.714v-147.429zM123.429 292l344.571-229.714v205.143l-190.857 127.429zM123.429 604l153.714-102.857 190.857 127.429v205.143zM356.571 448l155.429-104 155.429 104-155.429 104zM556 62.286l344.571 229.714-153.714 102.857-190.857-127.429v-205.143zM556 628.571l190.857-127.429 153.714 102.857-344.571 229.714v-205.143zM825.714 448l110.286-73.714v147.429z" />
<glyph unicode="&#xe612;" d="M0 777.714q0 42.286 29.429 70t76.857 27.714 76-27.714 29.143-70q0.571-41.714-28.857-69.714t-77.429-28h-1.143q-46.857 0-75.429 28t-28.571 69.714zM10.857 36.571v566.286h188.571v-566.286h-188.571zM303.429 36.571q1.143 228 1.143 369.714t-0.571 169.143l-0.571 27.429h188v-82.286h-1.143q11.429 18.286 23.429 32t32.286 29.714 49.714 24.857 65.429 8.857q97.714 0 157.143-64.857t59.429-190v-324.571h-188v302.857q0 60-23.143 94t-72.286 34q-36 0-60.286-19.714t-36.286-48.857q-6.286-17.143-6.286-46.286v-316h-188z" />
<glyph unicode="&#xe613;" d="M865 537.867l-48.2 69 42.6 72.8c4.6 8 5.6 17.6 2.6 26.2-3 8.8-9.6 15.8-18 19.2l-77.8 32-3.6 84.2c-0.4 9.2-4.8 17.8-12 23.6s-16.6 8.2-25.6 6.4l-83-15.4-48.4 68.8c-5.4 7.6-13.6 12.4-22.8 13.4-9 0.8-18.2-2.2-25-8.4l-61.4-57.6-78 31.8c-8.6 3.4-18.2 3-26.4-1-8.2-4.2-14.2-11.6-16.6-20.6l-20.6-81.6-82.8-15.4c-9-1.8-17-7.2-21.6-15.2s-5.6-17.6-2.8-26.2l26.8-79.8-61.2-57.8c-6.6-6.4-10.4-15.2-10-24.4s4.8-17.8 12-23.6l65.8-52.6-20.2-81.8c-2.2-9-0.4-18.4 4.8-26s13.6-12.4 22.8-13.4l63-6.6-85.2-415 135.8 78 94-125.2 47 228.8 47-229.2 94 125.2 135.8-78-76.8 374.6 15.6-1.6c1-0.2 2.2-0.8 3.2-0.8 0.2 0 0.6 0 0.8 0 17.6 0 31.8 14.8 31.8 32.4 0 3-0.4 6.4-1.2 9l-3 76.8 75 38.2c8.2 4.2 14.2 11.8 16.4 20.6 2.6 9.2 0.8 18.6-4.6 26.2zM461.4 16.067l-60 79.8-86.6-49.8 59.2 289 13.4-39.4c3-8.8 9.6-15.8 18.2-19.2 8.6-3.6 18.2-3.2 26.4 1l65 32.8 12.4-60.6-48-233.6zM747.4 46.267l-86.8 49.8-60-79.8-48 233.6 5.2 25.2 15-12c5.6-4.6 12.6-7 19.8-7 2 0 3.8 0.2 5.8 0.4 9 1.6 17 7.2 21.6 15l42.6 72.4 23.8-2.4 61-295.2zM731.4 500.467c-11-5.6-17.8-17.2-17.4-29.6l2.6-68-67.6 6.8c-12.8 1.2-24.4-4.8-30.6-15.6l-34.4-58.6-53.2 42.2c-5.8 4.6-12.8 7-19.8 7-4.8 0-9.8-1.2-14.4-3.4l-60.6-30.6-22 64.6c-4 11.8-14.4 20.2-26.8 21.4l-67.6 7 16.4 66c3 12-1.4 24.8-11 32.6l-53.2 42.4 49.4 46.6c9 8.6 12.2 21.6 8.4 33.4l-21.6 64.4 66.8 12.6c12.2 2.2 22 11.4 25 23.6l16.6 66 63-25.6c11.6-4.8 24.6-2.2 33.8 6.2l49.6 46.4 39.2-55.6c7.2-10.2 19.6-15.4 31.8-13l66.8 12.4 2.8-68c0.4-12.4 8.2-23.4 19.8-28.2l62.8-25.8-34.2-58.6c-6.2-10.8-5.8-24.2 1.4-34.4l39-55.6-60.8-31zM531.2 471.067c-69.4 0-126 56.6-126 126s56.6 126 126 126c69.4 0 126-56.6 126-126s-56.6-126-126-126zM531.2 680.667c-46 0-83.6-37.4-83.6-83.6s37.4-83.6 83.6-83.6c46 0 83.6 37.4 83.6 83.6s-37.6 83.6-83.6 83.6z" />
<glyph unicode="&#xe614;" d="M490.6 877.365v0c7.4 20.2 29.6 30.6 49.8 23.2l180.2-65.6c20.2-7.4 30.6-29.6 23.2-49.8v0c-7.4-20.2-29.6-30.6-49.8-23.2l-180.2 65.6c-20.2 7.4-30.6 29.8-23.2 49.8zM701.2 704.765l81.8-256.2c-113.2-65.6-412.4-450-412.4-450l-24.4 9.6 120.4 376.6c20.2-4.8 36.4 0.6 45.4 4.4 40.6 17.6 57 63.8 39.8 101.4-18.8 41-65.2 54.2-102.4 36.8-37.2-17.6-52.2-63.6-35-101 4-8.8 12.4-24.4 31.8-33.8l-152.4-366.2-23.2 8.8c0 0 7.6 490.6-29.4 610.8l230 142.6 230-83.8z" />
<glyph unicode="&#xe615;" d="M874 75.765v768h-152v-768h-120v556h-150v-556h-120v406h-152v-406h-104v826h-46v-870h934v44z" />
<glyph unicode="&#xe616;" d="M91.2 392.365v121.8c0 4.4 1.4 8.6 4.4 12.6s6.4 6.4 10.4 7.2l102 15.4c5.2 16.8 12.2 33.6 21.4 50.4-14.6 20.8-34.2 46-58.6 75.6-3.6 4.4-5.4 8.8-5.4 13.2 0 3.6 1.6 7.8 5 12.6 9.6 13.2 27.6 32.8 54 59s43.6 39.2 51.6 39.2c4.8 0 9.6-1.8 14.2-5.4l75.6-58.6c16 8.4 32.8 15.4 50 20.8 5.8 49.8 11.2 83.8 16 102 2.6 10.2 9.2 15.4 19.8 15.4h121.8c5.2 0 9.6-1.6 13.4-4.6 3.8-3.2 6-7 6.2-11.8l15.4-101c18-5.8 34.4-12.6 49.4-20.4l77.8 58.6c3.2 3.2 7.6 5 13.2 5 4.8 0 9.4-1.8 13.6-5.4 47.2-43.6 77.4-74.6 90.4-93.2 2.6-3 3.8-7 3.8-12 0-4.4-1.4-8.6-4.4-12.6-5.4-7.6-14.8-19.8-28-36.4s-23-29.6-29.6-38.6c9.6-18.2 17-36.2 22.4-53.8l100.4-15.4c4.8-0.8 8.6-3 11.6-6.8s4.4-8.2 4.4-13v-121.8c0-4.4-1.4-8.6-4.4-12.6s-6.6-6.4-11-7.2l-101.4-15.4c-7-19.8-14-36.4-21.4-50 12.8-18.2 32.4-43.6 58.6-75.6 3.6-4.4 5.4-9 5.4-13.6 0-4.8-1.6-9-5-12.6-9.8-13.6-28-33.2-54.4-59.2s-43.6-39-51.6-39c-4.4 0-9.2 1.6-14.2 5l-75.6 59.2c-16-8.4-32.8-15.4-50-20.8-5.8-49.8-11.2-83.8-16-102-2.6-10.2-9.2-15.4-19.8-15.4h-121.8c-5.2 0-9.6 1.6-13.4 4.6-3.8 3.2-6 7-6.2 11.8l-15.4 101c-18 5.8-34.4 12.6-49.4 20.4l-76.8-59.2c-3.6-3.2-8.2-5-13.6-5-5.2 0-9.6 2-13.6 6-46 41.6-76.2 72.4-90.4 92.2-2.6 3.6-3.8 7.8-3.8 12.6 0 4.4 1.4 8.6 4.4 12.6 5.4 7.6 14.8 19.8 28 36.4s23 29.6 29.6 38.6c-9.8 18.2-17.4 36.4-22.4 54.4l-100.4 14.8c-4.8 0.8-8.6 3-11.6 6.8-3.2 4.2-4.6 8.4-4.6 13.2zM341.4 452.165c0-47.2 16.6-87.6 50-121s73.8-50 121-50 87.6 16.6 121 50c33.4 33.4 50 73.8 50 121s-16.6 87.6-50 121-73.8 50-121 50c-47.2 0-87.6-16.6-121-50-33.4-33.6-50-73.8-50-121z" />
<glyph unicode="&#xe617;" d="M721.2 112.857h-418c-33.4 0-61.2-28.4-61.2-62v-108h540v108c0 33.6-27.4 62-60.8 62zM556 881.257c0-30.155-24.445-54.6-54.6-54.6s-54.6 24.445-54.6 54.6c0 30.155 24.445 54.6 54.6 54.6s54.6-24.445 54.6-54.6zM373 588.857h259c29.2 0 47 31.4 31.4 55.8l-165.2 182-157.2-182.6c-14.6-24.4 3.2-55.2 32-55.2zM500.8 148.857h217.6c-101.4 88-142.2 220-121.2 340h30.6c21.2 0 38.6 9.8 38.6 31s-17.2 31-38.6 31h-250.6c-21.2 0-38.6-9.8-38.6-31s17.2-31 38.6-31h35c21.2-120-19.6-252-121.2-340h209.8z" />
<glyph unicode="&#xe618;" d="M1015.8 784.2c-37.2-16.4-77-27.6-119-32.6 43 25.6 75.8 66.2 91.2 114.4-40-23.6-84.4-41-131.4-50.2-37.8 40.2-91.6 65.4-151.2 65.4-114.4 0-207-92.6-207-207 0-16.2 1.8-32 5.4-47.2-172 8.6-324.6 91-426.8 216.4-17.8-30.6-28-66.2-28-104 0-71.8 36.6-135.2 92-172.4-34 1.2-65.8 10.4-93.8 26 0-0.8 0-1.8 0-2.6 0-100.4 71.4-184 166-203-17.4-4.8-35.6-7.2-54.6-7.2-13.4 0-26.4 1.2-39 3.6 26.4-82.2 102.8-142 193.4-143.8-70.8-55.6-160-88.6-257-88.6-16.8 0-33.2 1-49.4 2.8 91.6-58.8 200.4-93 317.4-93 380.8 0 589 315.4 589 589 0 9-0.2 18-0.6 26.8 40.6 29.2 75.8 65.6 103.4 107.2z" />
<glyph unicode="&#xe619;" d="M507 930.6l-427-237.2v-479l427-248.6 427 248.6v479z" />
<glyph unicode="&#xe61a;" d="M337 473.857c0 41 4.6 81 12.4 118.4-22.4-4.8-43.8-7.4-63.4-7.4h-178v-26h-56v-168h56v-56h177.8c20.8 0 44-3.8 68.2-10-11 47.6-17 98.8-17 149zM305 280.857h-106.4l64.8-183.8 115.4 0.6zM950 644.457c-3.2 12.6-6.6 24.6-10.2 35.8-19.6 59.6-47 96.4-77 96.4-0.8 0-1.8 0-2.6 0-0.2 0-0.6 0-0.8 0-0.6 0-1.2-0.2-1.8-0.2-0.4 0-0.6 0-1-0.2-0.6 0-1.2-0.2-1.6-0.4-0.4 0-0.6-0.2-1-0.2-0.6-0.2-1.2-0.4-1.8-0.4-0.2 0-0.6-0.2-0.8-0.2-0.8-0.2-1.6-0.6-2.6-0.8 0 0-0.2 0-0.2 0-0.8-0.4-1.6-0.6-2.4-1-0.2-0.2-0.6-0.2-0.8-0.4-0.6-0.2-1.2-0.6-1.6-0.8s-0.6-0.4-1-0.6c-0.2-0.2-0.4-0.2-0.6-0.4-0.2 0-0.2-0.2-0.4-0.2-0.2-0.2-0.4-0.2-0.6-0.4-0.4-0.2-0.6-0.4-1-0.6-0.6-0.4-1.2-0.8-1.6-1.2-0.2-0.2-0.6-0.4-0.8-0.6-0.8-0.6-1.6-1.2-2.4-1.8-0.2 0-0.2-0.2-0.4-0.2-0.2-0.2-0.4-0.4-0.6-0.6s-0.2-0.2-0.4-0.4c-0.4-0.2-0.6-0.6-1-0.8-0.2-0.2-0.6-0.6-0.8-0.8-0.6-0.4-1-1-1.6-1.4 0 0-0.2-0.2-0.2-0.2s0 0 0 0c-0.2-0.2-0.4-0.4-0.6-0.6-0.4-0.4-1-1-1.4-1.4s-0.6-0.6-1-1c-0.2-0.2-0.4-0.4-0.4-0.6-0.2-0.2-0.2-0.2-0.4-0.4s-0.4-0.4-0.6-0.8c-0.2-0.2-0.6-0.6-0.8-0.8-0.8-0.8-1.4-1.6-2.2-2.6-0.2-0.2-0.4-0.4-0.6-0.8-0.6-0.6-1.2-1.4-1.6-2-0.4-0.4-0.6-0.8-1-1.2 0 0 0 0 0 0 0-0.2-0.2-0.2-0.2-0.4-0.4-0.4-0.6-0.8-1-1.4-0.4-0.4-0.6-0.8-1-1.4s-0.8-1.2-1.2-1.8c0 0 0 0 0-0.2 0 0-0.2-0.2-0.2-0.2-0.2-0.4-0.4-0.6-0.8-1-0.4-0.6-0.8-1.2-1.4-2-0.2-0.4-0.6-0.8-0.8-1.4-0.2-0.2-0.2-0.4-0.4-0.6 0-0.2-0.2-0.2-0.2-0.4-0.4-0.8-1-1.4-1.4-2.2-0.2-0.4-0.6-0.8-0.8-1.4-0.4-0.6-0.6-1.2-1-1.6 0 0 0-0.2-0.2-0.2 0-0.2-0.2-0.2-0.2-0.4-0.4-0.6-0.6-1.2-1-1.8s-0.8-1.4-1.2-2c-0.4-0.6-0.6-1.2-1-1.8 0 0 0-0.2-0.2-0.2-0.4-0.6-0.6-1.2-1-1.8s-0.6-1.2-1-2c-0.4-0.6-0.6-1.4-1-2 0 0 0 0 0 0 0-0.2-0.2-0.4-0.2-0.4-0.2-0.4-0.4-1-0.6-1.4-0.4-1-1-2-1.4-3-0.2-0.4-0.4-1-0.6-1.4s-0.4-0.6-0.4-1c0-0.2-0.2-0.4-0.2-0.6-0.4-0.6-0.6-1.4-1-2-0.4-0.8-0.6-1.6-1-2.4-0.2-0.4-0.4-0.8-0.6-1.2 0-0.2-0.2-0.4-0.2-0.4s0-0.2-0.2-0.2c-0.4-0.8-0.6-1.6-1-2.4-0.2-0.6-0.6-1.4-0.8-2-0.4-0.8-0.6-1.4-1-2.2 0 0 0-0.2 0-0.2s0-0.2 0-0.2c-0.2-0.6-0.6-1.2-0.8-2-0.6-1.6-1.2-3.4-2-5-0.2-0.6-0.4-1.2-0.6-1.6-0.4-1.2-0.8-2.2-1.2-3.4-0.2-0.6-0.4-1.2-0.6-1.8-0.2-0.4-0.2-0.8-0.4-1.2 0-0.2-0.2-0.6-0.2-0.8-0.2-0.4-0.2-0.8-0.4-1.2-0.2-0.6-0.4-1.2-0.6-2-0.4-1-0.6-2-1-3.2-0.2-0.4-0.2-0.8-0.4-1.2 0-0.2-0.2-0.4-0.2-0.6 0 0 0 0 0 0-0.4-1-0.6-2.2-1-3.2-0.2-0.6-0.4-1-0.4-1.6-0.2-0.6-0.4-1.2-0.6-1.8-0.2-1-0.6-1.8-0.8-2.8-0.6-2-1.2-4-1.8-5.8-0.2-0.6-0.4-1.2-0.6-1.8-0.2-0.4-0.2-0.8-0.4-1.4-0.4-1.2-0.6-2.6-1-3.8-0.2-0.6-0.4-1.2-0.4-1.8-0.2-0.4-0.2-0.8-0.4-1.2s-0.2-0.8-0.4-1.2c-0.2-0.4-0.2-1-0.4-1.4-0.2-0.6-0.2-1.2-0.4-1.6-0.4-1.4-0.6-2.6-1-4 0-0.4-0.2-0.8-0.2-1 0 0 0 0 0-0.2-0.2-0.8-0.4-1.6-0.6-2.4-0.4-2-1-4.2-1.4-6.2-0.2-1.2-0.6-2.2-0.8-3.4-0.2-0.8-0.4-1.6-0.6-2.6 0-0.4-0.2-0.6-0.2-1-0.2-1.2-0.6-2.4-0.8-3.6 0-0.4-0.2-0.6-0.2-1s-0.2-0.8-0.2-1.4c-0.4-1.4-0.6-3-0.8-4.4 0-0.4-0.2-1-0.2-1.4-0.2-0.6-0.2-1-0.4-1.6 0-0.4-0.2-1-0.2-1.4-0.2-0.6-0.2-1-0.4-1.6 0-0.2 0-0.4 0-0.6-0.4-1.8-0.6-3.6-1-5.4-0.2-0.8-0.4-1.6-0.4-2.6-0.4-2.8-1-5.8-1.4-8.6 0-0.2 0-0.6-0.2-0.8 0-0.2 0-0.2 0-0.4s0-0.6-0.2-0.8c-0.2-1.2-0.4-2.6-0.6-3.8 0-0.4-0.2-1-0.2-1.4-0.2-1.4-0.4-3-0.6-4.4 0-0.2 0-0.6-0.2-0.8 0-0.4-0.2-0.8-0.2-1.2-0.2-1.8-0.6-3.6-0.8-5.2 0 0 0 0 0 0-0.2-0.8-0.2-1.6-0.4-2.4-0.2-1.2-0.4-2.6-0.6-3.8-0.2-2.2-0.6-4.2-0.8-6.4-0.2-1.4-0.4-2.8-0.4-4 0-0.4-0.2-1-0.2-1.4 0-0.2 0-0.6 0-0.8-0.2-1.8-0.4-3.6-0.6-5.4 0-0.4-0.2-1-0.2-1.4 0-0.2 0-0.2 0-0.4 0-0.4 0-1-0.2-1.4-0.2-1.2-0.2-2.4-0.4-3.6 0-0.4 0-0.8-0.2-1.4-0.2-1.8-0.6-3.8-0.8-5.6l92.2-22c0 0 0.4 0 0.8 0 8.8 0 16-27 16-60.2s-7.4-60.2-16.2-60.2c-0.2 0-0.6 0-0.6 0v-0.4l-93.2-22.2c0.4-5.4 1-10.8 1.6-16.2 0-0.2 0-0.4 0.2-0.6 0.6-5.2 1-10.4 1.6-15.6 0-0.2 0-0.2 0-0.4s0-0.4 0-0.4 0-0.6 0.2-0.8c0.2-1.2 0.2-2.4 0.4-3.6 0-0.6 0.2-1 0.2-1.6 0-0.2 0-0.4 0-0.4 0-0.2 0-0.2 0-0.4 0.4-2.8 0.8-5.6 1.2-8.4 0-0.4 0.2-0.8 0.2-1.4 0.4-2.8 0.8-5.6 1.2-8.4 0 0 0-0.2 0-0.2 0.4-2.8 0.8-5.6 1.4-8.4 0-0.4 0-0.6 0.2-1 0.4-2.8 1-5.4 1.4-8.2 0-0.2 0-0.4 0-0.4 0-0.2 0-0.4 0.2-0.6 0-0.4 0.2-0.6 0.2-1 0.2-1.2 0.4-2.2 0.6-3.4 0-0.4 0.2-0.8 0.2-1s0-0.4 0.2-0.6c0-0.2 0-0.4 0-0.4 0.8-4.4 1.6-8.8 2.6-13.2 0-0.4 0.2-0.8 0.2-1.2 0.4-1.8 0.8-3.8 1.2-5.6 0-0.4 0.2-0.6 0.2-1 0.4-2.2 1-4.4 1.4-6.4v0c0-0.2 0.2-0.4 0.2-0.6 0.2-0.6 0.2-1 0.4-1.4 0.2-1 0.4-2 0.8-3 0 0 0 0 0-0.2 0-0.4 0.2-0.8 0.2-1.2s0.2-0.6 0.2-1c0.2-1 0.4-2 0.8-2.8 0-0.2 0.2-0.4 0.2-0.6 0-0.4 0.2-0.6 0.2-1 0-0.2 0.2-0.4 0.2-0.6 0.2-1 0.4-1.8 0.8-2.8 0-0.4 0.2-0.8 0.2-1.2 0-0.2 0-0.4 0.2-0.4 0-0.2 0-0.2 0.2-0.4 0.6-2.2 1.2-4.6 1.8-6.8 0-0.4 0.2-0.8 0.4-1 0.6-2 1.2-4.2 1.8-6.2 0-0.2 0-0.4 0.2-0.6 0 0 0 0 0 0s0-0.2 0-0.2c0.6-1.6 1-3.4 1.6-5 0 0 0-0.2 0-0.2 0.2-0.4 0.2-0.8 0.4-1 0.4-1.2 0.8-2.4 1.2-3.6 0-0.2 0.2-0.4 0.2-0.6 0-0.4 0.2-0.6 0.4-1 0.2-0.8 0.6-1.6 0.8-2.4 0 0 0 0 0-0.2 0.2-0.4 0.4-1 0.6-1.4 0-0.2 0.2-0.4 0.2-0.4 0.2-0.8 0.6-1.6 0.8-2.4 0-0.2 0.2-0.4 0.2-0.6 0.2-0.4 0.2-0.8 0.4-1.2 0 0 0-0.2 0-0.2 1.4-3.8 2.8-7.4 4.2-11 0 0 0-0.2 0-0.2 0.2-0.4 0.4-0.8 0.4-1.2 0-0.2 0-0.2 0.2-0.4 0.2-0.8 0.6-1.4 0.8-2.2 0-0.2 0.2-0.4 0.2-0.4 0-0.2 0.2-0.2 0.2-0.4 0.4-1.2 1-2.2 1.4-3.4 0-0.2 0.2-0.4 0.2-0.6 0 0 0 0 0 0 0.2-0.6 0.4-1 0.6-1.6 0 0 0 0 0-0.2 0.2-0.2 0.2-0.4 0.4-0.8 0.4-1 1-2.2 1.4-3.2 0-0.2 0.2-0.2 0.2-0.4s0.2-0.2 0.2-0.4c0.2-0.6 0.6-1.2 0.8-1.8 0 0 0-0.2 0.2-0.2 0 0 0 0 0 0 0.6-1.4 1.4-3 2.2-4.4 0.2-0.6 0.6-1.2 1-2 4-7.8 8-14.8 12.2-21 0-0.2 0.2-0.2 0.2-0.4 0.2-0.4 0.4-0.6 0.6-1 0.4-0.6 0.8-1 1.2-1.6 0.2-0.2 0.2-0.4 0.4-0.6s0.4-0.6 0.6-0.8 0.8-1 1.2-1.6c0.2-0.2 0.2-0.4 0.4-0.6s0.2-0.2 0.4-0.4c1-1.2 2-2.4 2.8-3.6 0 0 0-0.2 0.2-0.2 0 0 0.2-0.2 0.2-0.2 0.6-0.6 1-1.2 1.6-1.8 0.2-0.2 0.4-0.4 0.4-0.6 0 0 0.2-0.2 0.2-0.2 0.4-0.4 0.8-0.8 1.2-1.4 0.2-0.4 0.6-0.6 0.8-1 0 0 0 0 0.2-0.2 0.6-0.6 1-1 1.6-1.6 0 0 0 0 0 0 0.2-0.2 0.4-0.4 0.6-0.6s0.4-0.4 0.6-0.6 1-0.8 1.4-1.4c0 0 0.2-0.2 0.2-0.2 0.2-0.2 0.6-0.4 0.8-0.6 0.4-0.4 0.8-0.8 1.4-1 0.2 0 0.2-0.2 0.4-0.2 0.2-0.2 0.2-0.2 0.4-0.4 0.6-0.4 1.2-1 1.8-1.4 0 0 0.2-0.2 0.2-0.2s0 0 0 0c1-0.8 2-1.4 3-2 0.2 0 0.2-0.2 0.4-0.2s0.2-0.2 0.4-0.2c0.4-0.2 1-0.6 1.4-0.8 0.2-0.2 0.4-0.2 0.8-0.4 0 0 0.2 0 0.2-0.2 0.6-0.2 1-0.6 1.6-0.8 0.2 0 0.4-0.2 0.4-0.2s0.2 0 0.2-0.2c0 0 0 0 0.2 0 0 0 0 0 0 0s0 0 0 0c0.8-0.4 1.6-0.6 2.4-1 0.2-0.2 0.6-0.2 0.8-0.2 0.6-0.2 1.2-0.4 1.8-0.6 0.4-0.2 0.6-0.2 1-0.2 0.6-0.2 1-0.4 1.6-0.4 0.4 0 0.6-0.2 1-0.2 0.6-0.2 1-0.2 1.6-0.4 0.4 0 0.6-0.2 1-0.2 0.6 0 1.2-0.2 1.8-0.2 0.2 0 0.6 0 0.8 0 0.8 0 1.8-0.2 2.6-0.2 30 0 57.2 36.8 77 96.4 1.2 3.8 2.4 7.6 3.6 11.4 2.4 7.8 4.6 16 6.6 24.4 13.6 54.8 21.6 123 21.6 196.8-0.2 73.4-8.2 141.6-21.8 196.4zM722.2 448.057c0 140.2 29.2 280.8 85.6 332.8h-62.6c0 0-159.8-107.6-310.8-163.4-10.4-40.4-18-88.8-18-143.6 0-73.2 11.4-133.8 26.4-180.4 147.6-63.6 302.4-178.6 302.4-178.6h62.8c-56.6 50-85.8 192.6-85.8 333.2z" />
<glyph unicode="&#xe61b;" d="M53.333 707.6v-507.4l458-262.2 458 262.2v507.4l-458 250.2-458-250.2zM891.333 656.6v-406.2l-374-211.4-374 211.2v406.4l374 201.4 374-201.4z" />
<glyph unicode="&#xe61c;" d="M-0.2 342.057l321.4-206.6v149.2l-191.4 118.2 191.4 118.2v150.2l-321.4-207.8v-121.4zM384.6 47.257h110.6l166.6 783.2h-111.4l-165.8-783.2zM702.6 671.257v-150.2l191.4-118.2-191.4-118.2v-149.2l321.4 206.6v121.4l-321.4 207.8z" />
<glyph unicode="&#xe61d;" d="M1011.8 281.8l-67.8 53c-9.6 7.4-22.6 9-33.6 3.8-37.6-17.8-87.2-31.6-139.6-38.8-78.2-10.8-344-29-478.4 193.6-71.4 118.4-82.2 199.2-34.6 262 2.2 2.8 3.8 5.8 4.8 9.2l11.6 18-160 127.8-11.6-76.2-22.2-140.8c-46-35.2-92.6-129.4-76.2-247.4 23.4-168.2 227.2-515.6 680.4-452.8 255.8 35.4 334.2 243.4 337.4 252.4 4.8 13 0.6 27.6-10.2 36.2zM675.8 56.8c-405.6-56.2-587.2 249.8-607.8 398-14.8 107.2 34.2 180.4 55.4 190 9.8 4.6 16.6 13.6 18.4 24.2l14 89.4 22.6-14.4c-39-100 12.8-207.4 59-284 154.8-256.2 454.2-236.2 542.4-224 50.8 7 99.6 19.8 139.8 36.2l32.6-25.6c-24.8-48.4-102-165.6-276.4-189.8zM797.6 190.2c-35.2-10.4-83-19.8-131.2-24-24.2-2-48.4-2.4-71.2-2-22.6 1-44.2 1.6-62.2 4.4-18.2 2.4-33.4 4.2-44.2 6.4-10.8 1.8-16.8 2.8-16.8 2.8s5.8-2.4 15.8-6.8c10-3.8 24.8-9.8 43-14.2 18.2-4.8 39.8-9 63.4-11.4 23.6-2.2 48.8-2.2 74-0.6 25.2 2.4 50 6.4 73 12.4 22.8 6.2 43.4 14 60.6 21.4 17.4 7.2 30.8 15.4 40.2 21 9.2 5.8 14.4 9.2 14.4 9.2s-5.8-2-16.2-5.4c-10.2-3.6-25-7.8-42.6-13.2zM187 426c-6.8 22.4-14.4 52.4-21.4 82.6s-14 60.6-18.6 83.6c-4.8 23.2-8 38.8-8 38.8s-3.6-15.8-3.8-40c-0.4-24 2.2-56.2 9.8-87.4 7-31.4 19.4-61.4 31.2-82.6s23.8-32.4 23.8-32.4-1.2 4-3.8 10.2c-3 6.6-5.4 16.2-9.2 27.2z" />
<glyph unicode="&#xe61e;" d="M902 268c-22.2 5.4-45 9.4-64.2 12l-0.2 40c18.4 0.4 39.8 0.2 61.4-1.2 28-2 55.8-6.4 76.4-11.6s33.8-10.6 33.8-10.6-12.2 7.6-32 16.2c-19.8 8.6-47.2 17.8-75.4 24.6-22.4 5.4-45.2 9.4-64.4 12l-1.4 360.8c-25.8 199.8-180.2 222.4-186.6 223.2l-49.4 5.8v-181.2h-184.2c-50.2 188-176 185.6-181.4 186.2l-48.4 3.2v-523.4c-18.4-0.4-40-0.2-61.8 1.2-28 2-55.8 6.4-76.4 11.6-20.6 5-33.8 10.6-33.8 10.6s12.2-7.6 32-16.2c19.8-8.6 47.2-17.8 75.4-24.6 22.4-5.4 45.4-9.4 64.6-12.2v-40c-18.4-0.4-40-0.2-61.8 1.2-28 2-55.8 6.4-76.4 11.6s-33.8 10.6-33.8 10.6 12.2-7.6 32-16.2c19.8-8.6 47.2-17.8 75.4-24.6 22.4-5.4 45.4-9.4 64.6-12.2v-54.4c0-179.4 146-320.2 326-320.2 168.2 0 311.2 132.4 324.8 300.2 18.6 0.4 40.4 0.2 62.4-1.2 28-2 55.8-6.4 76.4-11.6s33.8-10.6 33.8-10.6-12.2 7.6-32 16.2c-19.6 9-47.2 18.2-75.4 24.8zM752 277c0-138.4-111.8-251-247-251-137.6 0-247 107.4-247 244.6v575.4c38-20.6 66.6-60.8 84-138.6l14.2-29.6h315.8v162.6c36-19.4 80-58.8 80-137.4v-426zM412 417.4c36 0 36 146.4 0 146.4-38-0.2-38-146.4 0-146.4zM600 417.4c36 0 36 146.4 0 146.4s-36-146.4 0-146.4zM553.6 344h-77.4l38.6-38.8zM654.2 224.6c0.2 0 0.2 0 0 0 0 0 0 0 0 0zM646 214c-6.4-5.4-17.2-11-30.6-16.2-13.6-5-29.8-9.4-47.2-12.8-8.6-1.8-17.8-2.4-27-3.8l-9.8-0.8-15.4 111.2-15.4-111.6c-33 1.4-65.4 8.4-89.4 17.4-13.6 5-24.2 10.8-30.6 16.2-6.6 4.8-8.2 10.6-8.2 10.6s-0.2-1.4-0.4-3.8c-0.2-2.2 0.4-6.8 2.6-11.2 4-9.2 12.8-20.6 26-30.6 13-10.2 30-19.6 49.6-26 19.4-6.8 41.4-10.2 63.4-10.6 11 0.4 21.2 1.2 32.8 2.8 10.8 1.6 21 4.6 30.8 7.8 19.4 6.6 36.6 15.8 49.6 26 13.2 10 22 21.4 26 30.6 3.8 8.6 2.2 14.2 2 15-0.8-0.4-2.4-5.4-8.8-10.2z" />
<glyph unicode="&#xe61f;" d="M938.6 131.6c47 0.2 85 38.2 85 85.2v385.8c0 47.2-38.2 85.4-85.4 85.4h-853c-47.2 0-85.4-38.2-85.4-85.4v-385.8c0-47 38-85.2 85-85.2h853.8zM966.6 217c0-15.6-12.8-28.4-28.4-28.4h-853c-15.6 0-28.4 12.8-28.4 28.4v385.6c0 15.6 12.8 28.4 28.4 28.4h853c15.6 0 28.4-12.8 28.4-28.4v-385.6zM112.4 509.4h67.6v-67.6h-67.6v67.6zM203.8 509.4h67.6v-67.6h-67.6v67.6zM295.2 509.4h67.6v-67.6h-67.6v67.6zM386.6 509.4h67.6v-67.6h-67.6v67.6zM478 509.4h67.6v-67.6h-67.6v67.6zM569.2 509.4h67.6v-67.6h-67.6v67.6zM660.6 509.4h67.6v-67.6h-67.6v67.6zM752 509.4h67.6v-67.6h-67.6v67.6zM843.4 509.4h67.6v-67.6h-67.6v67.6zM112.4 584h67.6v-39.2h-67.6v39.2zM203.8 584h67.6v-39.2h-67.6v39.2zM295.2 584h67.6v-39.2h-67.6v39.2zM386.6 584h67.6v-39.2h-67.6v39.2zM478 584h67.6v-39.2h-67.6v39.2zM569.2 584h67.6v-39.2h-67.6v39.2zM660.6 584h67.6v-39.2h-67.6v39.2zM752 584h67.6v-39.2h-67.6v39.2zM843.4 584h67.6v-39.2h-67.6v39.2zM112.4 406.2h67.6v-67.6h-67.6v67.6zM203.8 406.2h67.6v-67.6h-67.6v67.6zM295.2 406.2h67.6v-67.6h-67.6v67.6zM386.6 406.2h67.6v-67.6h-67.6v67.6zM478 406.2h67.6v-67.6h-67.6v67.6zM569.2 406.2h67.6v-67.6h-67.6v67.6zM660.6 406.2h67.6v-67.6h-67.6v67.6zM752 406.2h67.6v-67.6h-67.6v67.6zM843.4 406.2h67.6v-67.6h-67.6v67.6zM112.4 303.2h120.8v-67.6h-120.8v67.6zM789.4 303.2h120.8v-67.6h-120.8v67.6zM258.6 303.2h505.6v-67.6h-505.6v67.6z" />
<glyph unicode="&#xe620;" d="M923.4 816h-808.2c-44.6 0-81.2-36.6-81.2-81.2v-451.2c0-44.6 36.4-81.6 81-81.6h335v-47l-179.4-21.8c-12-3-20.6-13.8-20.6-26.2v-27h538v27c0 12.4-8 23.2-20 26.2l-184 21.8v47h339.8c44.6 0 80.2 37 80.2 81.6v451.2c0 44.6-36 81.2-80.6 81.2zM950 734.8v-180c-14 13.8-32 31.4-54 53.8v104.2l-103.8 0.2c-15.2 15.2-31.2 31.2-48.8 49.2h180c14.8-0.2 26.6-12.6 26.6-27.4zM675 686h134.8c22.6-22 42.2-42.6 60.2-60v-134.8l-195 194.8zM870 481.6v-109.6h-700v314h495.4l204.6-204.4zM648.2 712.8l-49.2 49.2h134.8c17.4-18 33.8-33.8 49-49l-134.6-0.2zM870 635.6c-16 15-32.2 32.4-50.6 50.4h50.6v-50.4zM896 599c24-22.8 40-40.4 54-53.8v-134.8l-54 53.8v134.8zM923.4 256h-808.2c-14.8 0-27.2 12.6-27.2 27.6v451.2c0 14.8 12.4 27.2 27.2 27.2h474.2l49-49.2-496.4-0.2v-366.6h754v108.8l54-53.8v-117.4c0-15-11.8-27.6-26.6-27.6zM537.2 301.2c0-9.831-7.969-17.8-17.8-17.8s-17.8 7.969-17.8 17.8c0 9.831 7.969 17.8 17.8 17.8s17.8-7.969 17.8-17.8z" />
<glyph unicode="&#xe621;" d="M736.4 912h-472c-48.8 0-88.4-39.8-88.4-88.8v-766.8c0-48.8 39.4-88.4 88.2-88.4h472.4c48.8 0 87.4 39.6 87.4 88.4v766.8c0 49-38.8 88.8-87.6 88.8zM604.4 770h73.6v-73.4c-22 20.8-45.6 45.4-73.6 73.4zM678 686.2v-532.2h-354v616h270c32.6-34 60-60.6 84-83.8zM574.6 798.6c-16.6 16.6-34 35.4-53.2 53.4h147.6c50-50 79.2-78.8 97.2-96.2v-147.6c-14 14.2-34 33.4-60 59v132l-131.6-0.6zM766 823.2v-57c-18 17.2-44.4 43.8-86.6 85.8h57c16.2 0 29.6-12.6 29.6-28.8zM736.4 26h-472c-16.2 0-30.4 14.2-30.4 30.4v766.8c0 16.2 14.2 28.8 30.4 28.8h246.4c19.2-18 37-36.6 53.6-53.4l-270.6 0.2v-674.8h412v532.8c28-26.2 46-45.2 60-59v-541.4c0.2-16.2-13.2-30.4-29.4-30.4zM519.8 75.8c0-10.714-8.686-19.4-19.4-19.4s-19.4 8.686-19.4 19.4c0 10.714 8.686 19.4 19.4 19.4s19.4-8.686 19.4-19.4z" />
<glyph unicode="&#xe622;" d="M980.6 708.8c-26.2 27.2-53.8 51.4-82.6 72.4 0.4 1.2 0.6 2.2 0.8 2.8 10 47.8-20.8 94.8-68.8 104.8-22.8 4.8-45.8 0.4-64.8-11.6-12.6 18.6-32 31.8-54.8 36.6-27.4 5.8-56.4-2.2-77.2-21l-17-15c-16.2 0-32.4-0.6-48.6-2.4-86-9-169.2-42-244.4-96.6-19.4 6.8-40.4 9.6-62.2 7.4-79.6-8.4-137.4-79.8-129.2-159.4 0.4-2.8 0.8-5.8 1.2-8.6-45-8.2-76.8-50.2-72-96.4 2.4-23.2 13.6-43.8 30.8-58.2-13.8-17.6-20.4-40.2-18-63.4 1.4-14.2 6.6-27.6 14.2-39.4 0-1.6 0-3.2 0-4.8-37.6-23-60.4-66-55.6-112 5-47 37.2-85.6 81.2-99.4 0-3 0.2-6 0.4-9 4.2-40.2 36.8-70.6 75.8-73.6 15.8-21.2 33.2-41.8 52.4-61.8 9-9.4 21.6-13.6 33.6-12.2 8.6 1 17.2 4.6 24 11.2l679.4 652.2c7.8 7.6 12.2 17.8 12.6 28.6 0.4 10.6-3.8 21-11.2 28.8zM821.8 849c21-4.4 36-22 38-42.4-23.4 14.2-47.6 26.4-72 36.4 9.8 6.2 22 8.6 34 6zM702 874c7.4-1.6 14-4.8 19.8-9.2-14.2 3.4-28.4 6.4-42.6 8.4 7.4 2 15.2 2.4 22.8 0.8zM265.2 745.8c5.6 0.6 11.2 0.6 16.6 0.4-8.4-7.2-16.6-14.8-24.6-22.4-32.2-31-60.2-64.4-83.6-99.6-0.4 2.4-0.8 4.6-1 7-6.2 57.2 35.4 108.6 92.6 114.6zM144.2 578.6c0.6 0 1.4 0.2 2 0.2-13.6-25.4-25-51.6-34-78.2-6 7-9.8 15.8-10.8 25.4-2.6 26.2 16.4 49.8 42.8 52.6zM73 248.4c-2.2 21.2 4.6 41.6 17.6 57 4.4-40.8 14.4-80.8 29.8-119.8-25.8 10.4-44.4 34-47.4 62.8zM809.6 601.2c-0.6 1-1.2 2-2 3.2-3.6 5.8-9.4 12.4-15.2 19-6.4 6-12.8 12-18.4 15.8s-9.6 6-9.6 6 2-4.2 5.6-10c3.6-5.8 9.4-12.4 15.2-19 6.4-6 12.8-12.2 18.4-15.8 1.2-0.8 2.2-1.4 3.2-2l-100.8-96.8c-0.6 1-1.2 2-1.8 3.2-3.6 5.8-9.4 12.4-15.2 19-6.4 6-12.8 12-18.4 15.8s-9.6 6-9.6 6 2-4.2 5.6-10c3.6-5.8 9.4-12.4 15.2-19 6.4-6 12.8-12.2 18.4-15.8 1-0.8 2-1.4 3-2l-101.2-96.8c-0.6 1-1.2 2-1.8 3-3.6 5.8-9.4 12.4-15.2 19-6.4 6-12.8 12-18.4 15.8s-9.6 6-9.6 6 2-4.2 5.6-10c3.6-5.8 9.4-12.4 15.2-19 6.4-6 12.8-12.2 18.4-15.8 1-0.8 2-1.4 3-2l-100.8-96.6c-0.6 1-1.2 1.8-1.8 3-3.6 5.8-9.4 12.4-15.2 19-6.4 6-12.8 12-18.4 15.8s-9.6 6-9.6 6 2-4.2 5.6-10c3.6-5.8 9.4-12.4 15.2-19 6.4-6 12.8-12.2 18.4-15.8 1-0.6 2-1.2 2.8-1.8l-100.6-96.6c-0.6 0.8-1 1.8-1.8 2.8-3.6 5.8-9.4 12.4-15.2 19-6.4 6-12.8 12-18.4 15.8s-9.6 6-9.6 6 2-4.2 5.6-10c3.6-5.8 9.4-12.4 15.2-19 6.4-6 12.8-12.2 18.4-15.8 1-0.6 1.8-1.2 2.8-1.8l-100.6-96.6c-0.6 0.8-1 1.8-1.6 2.6-3.6 5.8-9.4 12.4-15.2 19-6.4 6-12.8 12-18.4 15.8s-9.6 6-9.6 6 2-4.2 5.6-10c3.6-5.8 9.4-12.4 15.2-19 6.4-6 12.8-12.2 18.4-15.8 1-0.6 1.8-1.2 2.6-1.8l-13.8-13.2c-62.8 75.4-98 158.2-103.6 243.2l0.2-0.2c-0.8 10.6-0.8 21-0.6 31.6l-0.2-0.2c0 4.2 0.2 8.2 0.4 12.4 2.2 42.8 12.2 85.2 29.2 126.4 4-3.6 7.8-6.8 11.2-9.2 5.6-3.8 9.6-6 9.6-6s-2 4.2-5.6 10c-2.8 4.4-7 9.6-11.4 14.8 18.2 41.6 43.8 81.6 75.8 118.6 0.6-0.8 1-1.8 1.6-2.8 3.6-5.8 9.4-12.4 15.2-19 6.4-6 12.8-12.2 18.4-15.8 5.6-3.8 9.6-6 9.6-6s-2 4.2-5.6 10c-3.6 5.8-9.4 12.4-15.2 19-6.4 6-12.8 12-18.4 15.8-1 0.8-2.2 1.4-3 2 10 11.4 20.6 22.6 32 33.4 23 22 47 41.6 72 58.2 3.6-5.2 8.6-11 13.8-16.8 6.4-6 12.8-12.2 18.4-15.8 5.6-3.8 9.6-6 9.6-6s-2 4.2-5.6 10c-3.6 5.8-9.4 12.4-15.2 19-5.2 5-10.6 10-15.4 13.6 43.4 28.2 89.2 48 136.2 59.2 2.2-1.4 3.6-2 3.6-2s-0.4 1-1.4 2.6c15.4 3.6 30.8 6.2 46.4 7.8 13.4 1.4 26.8 2 40 2 0.6-1 1.2-2 1.8-3.2 3.6-5.8 9.4-12.4 15.2-19 6.4-6 12.8-12.2 18.4-15.8 5.6-3.8 9.6-6 9.6-6s-2 4.2-5.6 10c-3.6 5.8-9.4 12.4-15.2 19-5.8 5.6-11.8 11.2-17 15 39.2-0.8 77.8-8 115.2-21.2 0.8-1.6 2.6-4.8 5-8.8 3.6-5.8 9.4-12.4 15.2-19 6.4-6 12.8-12.2 18.4-15.8 5.6-3.8 9.6-6 9.6-6s-2 4.2-5.6 10c-3.6 5.8-9.4 12.4-15.2 19-6.4 6-12.8 12-18.4 15.8-2 1.4-3.8 2.6-5.4 3.4 52.6-19.2 103.2-50.2 150.2-93l-83-80zM246.4 353.8c0 0-2 4.2-5.6 10s-9.4 12.4-15.2 19c-6.4 6-12.8 12-18.4 15.8s-9.6 6-9.6 6 2-4.2 5.6-10c3.6-5.8 9.4-12.4 15.2-19 6.4-6 12.8-12.2 18.4-15.8 5.4-3.8 9.6-6 9.6-6zM350.2 453.4c0 0-2 4.2-5.6 10s-9.4 12.4-15.2 19c-6.4 6-12.8 12-18.4 15.8s-9.6 6-9.6 6 2-4.2 5.6-10c3.6-5.8 9.4-12.4 15.2-19 6.4-6 12.8-12.2 18.4-15.8 5.4-3.8 9.6-6 9.6-6zM453.8 553.2c0 0-2 4.2-5.6 10s-9.4 12.4-15.2 19c-6.4 6-12.8 12-18.4 15.8s-9.6 6-9.6 6 2-4.2 5.6-10c3.6-5.8 9.4-12.4 15.2-19 6.4-6 12.8-12.2 18.4-15.8 5.4-4 9.6-6 9.6-6zM557.4 652.8c0 0-2 4.2-5.6 10s-9.4 12.4-15.2 19c-6.4 6-12.8 12-18.4 15.8s-9.6 6-9.6 6 2-4.2 5.6-10c3.6-5.8 9.4-12.4 15.2-19 6.4-6 12.8-12.2 18.4-15.8 5.6-3.8 9.6-6 9.6-6zM247.6 256.2c-6.4 6-12.8 12-18.4 15.8s-9.6 6-9.6 6 2-4.2 5.6-10c3.6-5.8 9.4-12.4 15.2-19 6.4-6 12.8-12.2 18.4-15.8 5.6-3.8 9.6-6 9.6-6s-2 4.2-5.6 10c-3.6 5.6-9.4 12.4-15.2 19zM351.2 355.8c-6.4 6-12.8 12-18.4 15.8s-9.6 6-9.6 6 2-4.2 5.6-10c3.6-5.8 9.4-12.4 15.2-19 6.4-6 12.8-12.2 18.4-15.8 5.6-3.8 9.6-6 9.6-6s-2 4.2-5.6 10c-3.6 5.8-9.2 12.4-15.2 19zM455 455.6c-6.4 6-12.8 12-18.4 15.8s-9.6 6-9.6 6 2-4.2 5.6-10c3.6-5.8 9.4-12.4 15.2-19 6.4-6 12.8-12.2 18.4-15.8 5.6-3.8 9.6-6 9.6-6s-2 4.2-5.6 10c-3.6 5.6-9.4 12.4-15.2 19zM558.6 555.2c-6.4 6-12.8 12-18.4 15.8s-9.6 6-9.6 6 2-4.2 5.6-10c3.6-5.8 9.4-12.4 15.2-19 6.4-6 12.8-12.2 18.4-15.8 5.6-3.8 9.6-6 9.6-6s-2 4.2-5.6 10c-3.6 5.8-9.4 12.4-15.2 19zM662.4 654.8c-6.4 6-12.8 12-18.4 15.8s-9.6 6-9.6 6 2-4.2 5.6-10c3.6-5.8 9.4-12.4 15.2-19 6.4-6 12.8-12.2 18.4-15.8 5.6-3.8 9.6-6 9.6-6s-2 4.2-5.6 10c-3.6 5.8-9.4 12.6-15.2 19z" />
<glyph unicode="&#xe623;" d="M968.192 673.741c-51.507-295.526-339.2-545.792-425.728-602.931-86.579-57.139-165.478 22.886-194.15 83.456-32.768 68.966-131.021 443.238-156.774 474.163-25.702 31.078-102.912-30.925-102.912-30.925l-37.427 49.971c0 0 156.774 190.72 276.070 214.528 126.464 25.242 126.259-197.837 156.672-321.69 29.44-119.859 49.203-188.467 74.854-188.467 25.754 0 74.854 66.867 128.666 169.318 53.914 102.554-2.304 193.075-107.622 128.717 42.086 257.434 439.859 319.334 388.352 23.859z" />
<glyph unicode="&#xe624;" d="M847.923 796.774c-73.83 73.882-129.28 62.822-129.28 62.822l-554.291-554.291-51.712-243.866 243.866 51.712 554.24 554.24c0 0 11.11 55.45-62.822 129.382zM341.965 142.49l-83.098-17.92c-8.038 15.002-17.715 30.003-35.379 47.718-17.664 17.664-32.717 27.29-47.718 35.328l17.971 83.149 24.013 24.013c0 0 45.261-0.922 96.307-51.968 51.098-51.098 52.019-96.358 52.019-96.358l-24.115-23.962z" />
<glyph unicode="&#xe625;" d="M870.4 819.2h-46.080v-102.4h-163.84v102.4h-296.96v-102.4h-163.84v102.4h-46.080c-56.32 0-102.4-46.080-102.4-102.4v-614.4c0-56.32 46.080-102.4 102.4-102.4h716.8c56.32 0 102.4 46.080 102.4 102.4v614.4c0 56.32-46.080 102.4-102.4 102.4zM870.4 102.4h-716.8v409.6h716.8v-409.6zM317.44 921.6h-71.68v-174.080h71.68v174.080zM778.24 921.6h-71.68v-174.080h71.68v174.080z" />
<glyph unicode="&#xe626;" d="M819.2 512h-614.4c-28.262 0-51.2-22.938-51.2-51.2s22.938-51.2 51.2-51.2h614.4c28.314 0 51.2 22.938 51.2 51.2s-22.886 51.2-51.2 51.2zM204.8 614.4h614.4c28.314 0 51.2 22.938 51.2 51.2s-22.886 51.2-51.2 51.2h-614.4c-28.262 0-51.2-22.938-51.2-51.2s22.938-51.2 51.2-51.2zM819.2 307.2h-614.4c-28.262 0-51.2-22.886-51.2-51.2s22.938-51.2 51.2-51.2h614.4c28.314 0 51.2 22.886 51.2 51.2s-22.886 51.2-51.2 51.2z" />
<glyph unicode="&#xe627;" d="M711.219 59.055c13.722-13.926 13.722-36.301 0-50.125s-35.891-13.875-49.613 0l-400.896 404.89c-13.722 13.824-13.722 36.198 0 50.125l400.896 404.89c13.722 13.824 35.891 13.824 49.613 0s13.722-36.301 0-50.125l-365.619-379.853 365.619-379.802z" />
<glyph unicode="&#xe628;" d="M678.4 438.857l-365.619 379.904c-13.722 13.824-13.722 36.198 0 50.125 13.722 13.824 35.891 13.824 49.613 0l400.896-404.89c13.722-13.875 13.722-36.301 0-50.125l-400.896-404.89c-13.722-13.875-35.891-13.824-49.613 0s-13.722 36.198 0 50.125l365.619 379.75z" />
<glyph unicode="&#xe629;" d="M128 448.008c0-148.026 88.322-275.968 216.43-336.578l-183.178 488.784c-21.308-46.508-33.252-97.982-33.252-152.206zM771.228 466.872c0 46.234-17.054 78.236-31.654 103.142-19.458 30.82-37.72 56.894-37.72 87.716 0 34.374 26.766 66.376 64.486 66.376 1.704 0 3.32-0.204 4.976-0.302-68.316 60.97-159.34 98.196-259.308 98.196-134.16 0-252.186-67.046-320.844-168.568 9.010-0.282 17.506-0.454 24.712-0.454 40.154 0 102.34 4.752 102.34 4.752 20.69 1.182 23.132-28.434 2.458-30.822 0 0-20.81-2.368-43.952-3.55l139.834-405.106 84.044 245.456-59.822 159.65c-20.688 1.184-40.278 3.55-40.278 3.55-20.702 1.192-18.272 32.002 2.438 30.822 0 0 63.4-4.752 101.134-4.752 40.146 0 102.35 4.752 102.35 4.752 20.702 1.182 23.14-28.434 2.446-30.822 0 0-20.834-2.372-43.948-3.55l138.78-402.018 38.312 124.632c16.58 51.75 29.216 88.9 29.216 120.9zM518.742 415.296l-115.226-326.058c34.416-9.858 70.794-15.238 108.488-15.238 44.716 0 87.604 7.518 127.518 21.2-1.018 1.602-1.974 3.304-2.75 5.154l-118.030 314.942zM848.962 627.428c1.652-11.91 2.588-24.686 2.588-38.458 0-37.93-7.292-80.596-29.202-133.95l-117.286-330.272c114.162 64.828 190.938 185.288 190.938 323.258 0 65.030-17.060 126.16-47.038 179.422zM512 960c-282.77 0-512-229.23-512-512s229.23-512 512-512 512 229.23 512 512-229.23 512-512 512zM512 0c-247.424 0-448 200.576-448 448s200.576 448 448 448 448-200.576 448-448-200.576-448-448-448z" />
<glyph unicode="&#xe62a;" d="M995.52 53.248c-6.432 4.256-123.136 80.8-296.736 118.368 63.68 80.672 104.576 189.184 121.952 261.408 24.128 100.096 14.752 295.936-81.376 417.984-56.192 71.328-134.816 108.992-227.36 108.992s-171.168-37.696-227.328-108.992c-96.128-122.016-105.472-317.856-81.376-417.952 17.376-72.224 58.24-180.736 121.952-261.408-173.6-37.568-290.304-114.112-296.704-118.368-23.456-15.616-33.952-44.8-25.76-71.744 8.128-27.040 33.056-45.536 61.216-45.536h896c28.192 0 53.056 18.496 61.248 45.504 8.224 26.944-2.272 56.128-25.728 71.744zM648.544 211.264l-10.432-13.248c-76.32-87.68-175.84-87.68-252.128 0l-10.464 13.248c-89.12 112.928-133.344 262.304-114.304 404.8 17.44 136.928 95.904 279.936 250.784 279.936s233.376-143.040 250.816-279.968c18.976-142.56-25.088-291.776-114.272-404.768zM64 0c4.416 2.944 112.832 74.048 274.752 109.056l79.488 17.184c28.384-18.624 59.52-30.24 93.76-30.24 34.272 0 65.376 11.616 93.76 30.24l79.488-17.184c160.64-34.752 268.672-105.056 274.752-109.056h-896z" />
<glyph unicode="&#xe62b;" d="M864 800.128l-704-0.128c-17.696 0-32-14.176-32-31.872v-448c0-17.696 14.304-32 32-32h704c17.696 0 32 14.304 32 32v448c0 17.696-14.304 32-32 32zM864 320h-704v448.128h704v-448.128zM928 928h-832c-53.024 0-96-42.944-96-96v-640c0-52.928 42.816-95.808 95.68-95.936h320.32v-38.944l-199.744-25.952c-14.272-3.552-24.256-16.352-24.256-31.040 0-17.696 14.304-32 32-32h576c17.696 0 32 14.304 32 32 0 14.688-9.984 27.488-24.256 31.072l-199.744 25.92v38.944h320.32c52.864 0.128 95.68 43.008 95.68 95.936v640c0 53.056-43.008 96-96 96zM960 192c0-17.632-14.368-32-32-32h-832c-17.664 0-32 14.368-32 32v640c0 17.664 14.336 32 32 32h832c17.632 0 32-14.336 32-32v-640z" />
<glyph unicode="&#xe62c;" d="M896 800h-768c-70.688 0-128-57.344-128-128v-416c0-70.688 57.312-128 128-128h768c70.688 0 128 57.312 128 128v416c0 70.656-57.312 128-128 128zM64 632l223.968-168-223.968-168v336zM960 256c0-35.328-28.736-64-64-64h-768c-35.296 0-64 28.672-64 64l250.624 188 139.776-104.864c17.056-12.736 37.312-19.2 57.6-19.2 20.256 0 40.512 6.432 57.568 19.2l139.808 104.864 250.624-188zM960 296l-224 168 224 168v-336zM550.368 364.736c-11.168-8.384-24.416-12.8-38.368-12.8s-27.232 4.448-38.4 12.8l-409.6 307.264c0 35.296 28.704 64 64 64h768c35.264 0 64-28.704 64-64l-409.632-307.264z" />
<glyph unicode="&#xe62d;" d="M864 960h-704c-70.688 0-128-57.312-128-128v-768c0-70.688 57.312-128 128-128h704c70.688 0 128 57.312 128 128v768c0 70.688-57.312 128-128 128zM928 64c0-35.264-28.736-64-64-64h-704c-35.296 0-64 28.736-64 64v768c0 35.296 28.704 64 64 64h704c35.264 0 64-28.704 64-64v-768zM832 832h-640c-17.696 0-32-14.304-32-32v-576c0-17.696 14.304-32 32-32h640c17.696 0 32 14.304 32 32v576c0 17.696-14.304 32-32 32zM832 800v-443.808l-104 112.96c-6.112 6.912-14.816 10.848-24 10.848s-17.952-3.936-24-10.848l-83.328-94.4-252.672 286.4c-6.080 6.912-14.816 10.848-24 10.848s-17.92-3.936-24-10.848l-104-119.936v258.784h640zM192 492.8l128 147.2 276.672-313.632 88.384-102.368h-493.056v268.8zM727.68 224l-109.696 126.56 86.016 97.44 128-140.128v-83.872h-104.32zM640 544c52.992 0 96 42.976 96 96s-43.008 96-96 96c-53.056 0-96-42.976-96-96s42.944-96 96-96zM640 704c35.264 0 64-28.704 64-64s-28.736-64-64-64c-35.328 0-64 28.704-64 64s28.672 64 64 64z" />
<glyph unicode="&#xe62e;" d="M252.058 256c-110.95 0-200.858 91.597-200.858 204.8s89.907 204.8 200.858 204.8c110.95 0 200.909-91.648 200.909-204.8s-89.958-204.8-200.909-204.8zM771.891 256c-111.002 0-201.011 91.597-201.011 204.8s90.010 204.8 201.011 204.8c110.899 0 200.909-91.648 200.909-204.8s-90.010-204.8-200.909-204.8z" />
<glyph unicode="&#xe62f;" d="M798.72 41.165c-39.731-18.944-75.776-32.307-107.981-39.936-32.256-7.578-67.174-11.469-104.602-11.469-42.547 0-80.128 5.478-112.896 16.333-32.666 10.906-60.518 26.419-83.661 46.438-23.091 20.224-39.117 41.574-48.026 64.256-8.96 22.682-13.414 55.552-13.414 98.611v330.445h-102.861v133.325c36.557 12.032 67.942 29.184 93.952 51.661 26.112 22.426 47.002 49.408 62.822 80.896 15.77 31.488 26.573 71.475 32.563 120.115h132.352v-238.131h220.928v-147.866h-220.928v-241.613c0-54.579 2.867-89.651 8.653-105.216 5.632-15.462 16.282-27.853 31.795-37.12 20.685-12.493 44.186-18.739 70.707-18.739 47.155 0 94.003 15.514 140.595 46.49v-148.48z" />
<glyph unicode="&#xe630;" d="M512 747.52c-335.923 0-512-247.45-512-286.72s176.077-286.72 512-286.72 512 247.45 512 286.72-176.077 286.72-512 286.72zM512 240.23c-125.645 0-227.533 98.765-227.533 220.57s101.888 220.57 227.533 220.57c125.696 0 227.584-98.765 227.584-220.57s-101.888-220.57-227.584-220.57zM512 460.8c-20.787 22.835 33.997 110.234 0 110.234-62.822 0-113.766-49.357-113.766-110.234s50.944-110.285 113.766-110.285c62.874 0 113.818 49.408 113.818 110.285 0 27.955-96.051-19.456-113.818 0z" />
<glyph unicode="&#xe631;" d="M0 486.857h80v-80h-80v80zM944 486.857h80v-80h-80v80zM629.4 486.857h80v-80h-80v80zM314.6 486.857h80v-80h-80v80z" />
<glyph unicode="&#xe632;" d="M408.582 603.127v206.837l-361.965-361.965 361.965-361.965v212.007c258.545 0 439.529-82.735 568.801-263.716-51.71 258.545-206.837 517.092-568.801 568.801z" />
<glyph unicode="&#xe633;" d="M930.133 559.503h-306.631v306.631c0 15.394-12.481 27.876-27.876 27.876h-167.253c-15.394 0-27.876-12.481-27.876-27.876v-306.631h-306.631c-15.394 0-27.876-12.481-27.876-27.876v-167.253c0-15.394 12.481-27.876 27.876-27.876h306.631v-306.631c0-15.394 12.481-27.876 27.876-27.876h167.253c15.394 0 27.876 12.481 27.876 27.876v306.631h306.631c15.394 0 27.876 12.481 27.876 27.876v167.253c0 15.394-12.481 27.876-27.876 27.876z" />
<glyph unicode="&#xe634;" d="M254.976 284.16v267.264h103.424l-179.2 203.776-179.2-203.776h103.424v-308.224c0-56.525 45.824-102.4 102.4-102.4h459.776l-131.174 143.36h-279.45zM920.525 344.576v308.224c0 56.525-45.875 102.4-102.4 102.4h-459.725l131.123-143.36h279.501v-267.264h-103.424l179.2-203.776 179.2 203.776h-103.475z" />
<glyph unicode="&#xe635;" d="M629.4 496h80v-80h-80v80zM314.6 496h80v-80h-80v80z" />
<glyph unicode="&#xe9d9;" d="M992 555.766l-331.669 48.195-148.331 300.546-148.327-300.546-331.673-48.195 240-233.942-56.655-330.33 296.655 155.961 296.655-155.961-56.657 330.33 240.002 233.942z" />
<glyph unicode="&#xf167;" d="M15.429 221.714q0 133.714 14.857 200 8 33.714 33.143 56.571t58.857 26.857q104.571 11.429 316.571 11.429t317.143-11.429q33.143-4 58.571-26.857t32.857-56.571q14.857-64 14.857-200 0-133.714-14.857-200-8-33.714-33.143-56.571t-58.286-26.286q-105.143-12-317.143-12t-317.143 12q-33.143 3.429-58.571 26.286t-32.857 56.571q-14.857 64-14.857 200zM78.857 364h60v-325.143h57.143v325.143h61.143v53.714h-178.286v-53.714zM152 950.857h60.571l40.571-150.286 38.857 150.286h58.286l-69.143-228v-154.857h-57.143v154.857q-8 42.286-34.857 121.143-21.143 58.857-37.143 106.857zM264.571 97.714q0-28 4.571-41.714 6.857-21.143 33.143-21.143 27.429 0 58.286 34.857v-30.857h50.857v282.286h-50.857v-216q-17.143-24-32.571-24-10.286 0-12 12-0.571 1.714-0.571 20v208h-50.857v-223.429zM350.857 660.571v100q0 45.714 16 66.857 21.714 29.143 60 29.143 39.429 0 60.571-29.143 16-21.143 16-66.857v-100q0-46.286-16-67.429-21.143-29.143-60.571-29.143-38.286 0-60 29.143-16 21.714-16 67.429zM402.286 650.857q0-40 24.571-40t24.571 40v120q0 39.429-24.571 39.429t-24.571-39.429v-120zM456 38.857h50.857v27.429q25.714-31.429 53.143-31.429 30.857 0 40.571 31.429 5.143 15.429 5.143 57.143v112.571q0 41.714-5.143 56.571-9.714 32-40.571 32-28.571 0-53.143-30.857v124h-50.857v-378.857zM506.857 93.714v172q12.571 12.571 25.714 12.571 22.286 0 22.286-38.286v-120.571q0-38.286-22.286-38.286-13.143 0-25.714 12.571zM545.714 628v225.143h52v-209.714q0-18.857 0.571-20 1.714-12.571 12-12.571 15.429 0 32.571 24.571v217.714h52v-285.143h-52v31.429q-30.286-35.429-58.857-35.429-26.286 0-33.714 21.143-4.571 13.714-4.571 42.857zM645.714 130.286q0-45.143 16.571-66.286 22.286-29.143 61.714-29.143 41.143 0 61.714 30.286 10.286 15.429 12 30.857 1.143 5.143 1.143 33.143v7.429h-52q0-29.143-1.143-34.857-4-20.571-22.857-20.571-26.286 0-26.286 39.429v49.714h102.286v58.857q0 45.143-15.429 66.286-22.286 29.143-60.571 29.143-38.857 0-61.143-29.143-16-21.143-16-66.286v-98.857zM696.571 213.143v26.286q0 38.857 25.714 38.857t25.714-38.857v-26.286h-51.429z" />
</font>
</defs>
</svg>
