<?xml version="1.0" encoding="utf-8"?>
<!-- Generator: Adobe Illustrator 18.1.1, SVG Export Plug-In . SVG Version: 6.00 Build 0)  -->
<!DOCTYPE svg PUBLIC "-//W3C//DTD SVG 1.1//EN" "http://www.w3.org/Graphics/SVG/1.1/DTD/svg11.dtd">
<svg version="1.1" id="Layer_1" xmlns="http://www.w3.org/2000/svg" xmlns:xlink="http://www.w3.org/1999/xlink" x="0px" y="0px"
	 viewBox="0 0 209 56" enable-background="new 0 0 209 56" xml:space="preserve">
<g>
	<g>
		<g>
			<g>
				<g>
					<path fill="#EDECED" d="M66.6,20.3h3.1l3.7,6.7l3.7-6.7h3.1l0.7,14.4h-3.3l-0.4-9.4l-3,5.6h-1.7l-3.1-5.5L69,34.7h-3.1
						L66.6,20.3z"/>
					<path fill="#EDECED" d="M90.4,35.1c-1.1,0-2-0.2-3-0.6c-0.9-0.4-1.7-0.9-2.4-1.6c-0.7-0.7-1.2-1.5-1.6-2.4
						c-0.4-0.9-0.6-1.9-0.6-3c0-1.1,0.2-2.1,0.6-3c0.4-0.9,0.9-1.7,1.6-2.4c0.7-0.7,1.5-1.2,2.4-1.6c0.9-0.4,1.9-0.6,3-0.6
						c1.1,0,2,0.2,3,0.6c0.9,0.4,1.7,0.9,2.4,1.6c0.7,0.7,1.2,1.5,1.6,2.4c0.4,0.9,0.6,1.9,0.6,3c0,1.1-0.2,2.1-0.6,3
						c-0.4,0.9-0.9,1.7-1.6,2.4c-0.7,0.7-1.5,1.2-2.4,1.6C92.5,34.9,91.5,35.1,90.4,35.1z M90.4,32c0.6,0,1.2-0.1,1.7-0.4
						c0.5-0.2,0.9-0.6,1.3-1c0.4-0.4,0.6-0.9,0.8-1.4c0.2-0.5,0.3-1.1,0.3-1.7c0-0.6-0.1-1.2-0.3-1.7c-0.2-0.5-0.5-1-0.8-1.4
						c-0.4-0.4-0.8-0.7-1.3-1c-0.5-0.2-1.1-0.4-1.7-0.4c-0.6,0-1.2,0.1-1.7,0.4c-0.5,0.2-0.9,0.6-1.3,1c-0.4,0.4-0.6,0.9-0.8,1.4
						c-0.2,0.5-0.3,1.1-0.3,1.7c0,0.6,0.1,1.2,0.3,1.7c0.2,0.5,0.5,1,0.8,1.4c0.4,0.4,0.8,0.7,1.3,1C89.2,31.9,89.8,32,90.4,32z"/>
					<path fill="#EDECED" d="M100.4,20.3h3.1l6.2,9.3v-9.3h3.2v14.4h-2.9l-6.4-9.5v9.5h-3.2V20.3z"/>
					<path fill="#EDECED" d="M116.1,20.3h3.3v5.7l4.8-5.7h3.8l-4.9,5.6l5.6,8.8h-3.9l-3.8-6.3l-1.5,1.6v4.6h-3.3V20.3z"/>
					<path fill="#EDECED" d="M130.3,20.3h9.8v2.8h-6.6V26h5.1v2.8h-5.1v3.1h7v2.9h-10.3V20.3z"/>
					<path fill="#EDECED" d="M143.1,20.3h9.8v2.8h-6.6V26h5.1v2.8h-5.1v3.1h7v2.9h-10.3V20.3z"/>
					<path fill="#EDECED" d="M165.8,20.3h5.4c0.9,0,1.6,0.1,2.3,0.3c0.6,0.2,1.1,0.5,1.5,0.8c0.4,0.3,0.7,0.7,0.8,1.2
						c0.2,0.5,0.3,0.9,0.3,1.4c0,0.5-0.1,0.9-0.2,1.2c-0.2,0.4-0.4,0.7-0.6,0.9c-0.2,0.3-0.5,0.4-0.7,0.6c-0.3,0.1-0.5,0.2-0.6,0.3
						c0.2,0.1,0.5,0.2,0.9,0.3c0.3,0.1,0.7,0.4,1,0.6c0.3,0.3,0.6,0.6,0.8,1.1c0.2,0.4,0.3,0.9,0.3,1.5c0,0.7-0.1,1.4-0.4,1.9
						c-0.3,0.5-0.6,0.9-1.1,1.3c-0.5,0.3-1.1,0.6-1.8,0.7c-0.7,0.2-1.5,0.2-2.3,0.2h-5.4V20.3z M170.9,26.1c0.2,0,0.5,0,0.7-0.1
						c0.2-0.1,0.4-0.1,0.6-0.3c0.2-0.1,0.3-0.3,0.4-0.5c0.1-0.2,0.2-0.5,0.2-0.8c0-0.3-0.1-0.6-0.2-0.8c-0.1-0.2-0.3-0.4-0.5-0.5
						c-0.2-0.1-0.4-0.2-0.6-0.3c-0.2-0.1-0.5-0.1-0.7-0.1H169v3.2H170.9z M171.1,32.2c0.2,0,0.5,0,0.8-0.1c0.3,0,0.6-0.1,0.8-0.2
						c0.2-0.1,0.4-0.3,0.6-0.6c0.2-0.2,0.2-0.6,0.2-1c0-0.4-0.1-0.7-0.2-0.9c-0.2-0.2-0.4-0.4-0.6-0.6c-0.2-0.1-0.5-0.2-0.8-0.3
						c-0.3-0.1-0.6-0.1-0.8-0.1H169v3.7H171.1z"/>
					<path fill="#EDECED" d="M186,35.1c-1.1,0-2-0.2-3-0.6c-0.9-0.4-1.7-0.9-2.4-1.6c-0.7-0.7-1.2-1.5-1.6-2.4
						c-0.4-0.9-0.6-1.9-0.6-3c0-1.1,0.2-2.1,0.6-3c0.4-0.9,0.9-1.7,1.6-2.4c0.7-0.7,1.5-1.2,2.4-1.6c0.9-0.4,1.9-0.6,3-0.6
						s2,0.2,3,0.6c0.9,0.4,1.7,0.9,2.4,1.6c0.7,0.7,1.2,1.5,1.6,2.4c0.4,0.9,0.6,1.9,0.6,3c0,1.1-0.2,2.1-0.6,3
						c-0.4,0.9-0.9,1.7-1.6,2.4c-0.7,0.7-1.5,1.2-2.4,1.6C188,34.9,187.1,35.1,186,35.1z M186,32c0.6,0,1.2-0.1,1.7-0.4
						c0.5-0.2,0.9-0.6,1.3-1c0.4-0.4,0.6-0.9,0.8-1.4c0.2-0.5,0.3-1.1,0.3-1.7c0-0.6-0.1-1.2-0.3-1.7c-0.2-0.5-0.5-1-0.8-1.4
						c-0.4-0.4-0.8-0.7-1.3-1c-0.5-0.2-1.1-0.4-1.7-0.4s-1.2,0.1-1.7,0.4c-0.5,0.2-0.9,0.6-1.3,1c-0.4,0.4-0.6,0.9-0.8,1.4
						c-0.2,0.5-0.3,1.1-0.3,1.7c0,0.6,0.1,1.2,0.3,1.7c0.2,0.5,0.5,1,0.8,1.4c0.4,0.4,0.8,0.7,1.3,1C184.8,31.9,185.4,32,186,32z"/>
					<path fill="#EDECED" d="M198.5,28.7l-5-8.4h3.7l3.1,5.4l3-5.4h3.5l-5,8.3v6h-3.3V28.7z"/>
					<polygon fill="#20A28E" points="157.2,26 162.3,26 161,28.7 155.9,28.7 					"/>
				</g>
			</g>
		</g>
	</g>
	<g>
		<path fill="#EDECED" d="M25.1,23.2c0.7-1.3,0.9-3.1,0.9-4.5c0-1.6-2.9-2.7-6.9-2.7c-1.4,0-2.6,0-3.5,0.2c-0.7,2-0.7,3.5-0.6,4.2
			c0,0,0.3-0.6,0.6-1.1c0.1,4.3,3,5.8,4.2,6.3C23.5,25.5,24.4,24.5,25.1,23.2z M22.9,18.4c0.1,0,0.3,0,0.4,0.1
			c-0.1,0.1-0.1,0.3-0.1,0.5c0,0.4,0.2,0.7,0.4,0.7c0.2,0,0.3-0.2,0.4-0.4c0.1,0.3,0.2,0.7,0.2,1.2c0,1.2-0.6,2.2-1.3,2.2
			s-1.3-1-1.3-2.2C21.6,19.3,22.2,18.4,22.9,18.4z"/>
		<path fill="#EDECED" d="M14.2,30.4c-0.5,1.2,0,1.6-0.3,1.6c-0.3,0-0.8-1.2-0.8-1.7s0.2-1.1,0.2-1.1s-1,0.5-1,0.2
			c0-1.1,1.5-2,1.5-2c-0.5,0-0.8-0.2-0.8-0.3c0-0.1,0.3-0.3,1.3-0.5l0,0c0,0-4-2.9-5.5-2.9s-2.8,2.1-2.8,5s1.6,5.5,4.2,5.5
			s5.3-1.8,5.3-1.8l0,0C14.4,31.8,14.2,30.4,14.2,30.4z"/>
		<path fill="#EDECED" d="M28.6,16c2.6,0,4.6-1.2,10.5-1.2c0.7,0,1,0,1.6,0.1C40.6,14.5,40,14.2,40,14v0c-1-2.4-2.7-3.6-5.2-3.6
			c-3.7,0-6.3,2.1-6.4,2.2c0,0,0,0,0,0c-0.4-0.6-1-1.1-1.7-1.7c-0.6-0.5-0.6-0.2-0.2,0.6c-1.2-0.5-2.7-1-4.5-1
			c-2.6,0-4.6,1.4-5.7,4.1c-0.1,0.1-0.1,0.2-0.2,0.4c0.6,0,1.2-0.1,1.9-0.1C24.1,14.7,26,15.9,28.6,16z M30,13.8
			c3-1.1,6.2-0.2,6.2-0.2c-3.9-0.2-6.2,0.9-6.2,0.9V13.8z M26,13.8v0.7c0,0-2.3-1.2-6.2-0.9C19.8,13.5,22,12.6,26,13.8z"/>
		<path fill="#EDECED" d="M28.6,19.1c-3.8,0.1,0.7,6.9-9,6.9c0,0,0,0,0,0c-1.3,3-1.3,11-1.3,14c0,3.6,5.7,9.7,5.7,9.7
			s1.3,1.3,4.5,1.3c0,0,0,0,0,0h0c3.2,0,4.5-1.2,4.5-1.2s5.7-5.7,5.7-9.3c0-3,0-11.5-1.3-14C27.9,26.5,32.4,19.2,28.6,19.1z
			 M29.6,27.6c0.2,0,0.5-0.1,1.9-0.1c1.4,0,2.4,0.5,2.4,0.5h-2.8c0,0-0.6,1.1-1,1.1c-0.4,0-0.3-0.2-0.3-0.2l-0.5,1
			C29.3,30,29.4,27.6,29.6,27.6z M25.8,27.5c1.4,0,1.7,0.1,1.9,0.1c0.2,0,0.3,2.4,0.3,2.4l-0.5-1.1c0,0,0.1,0.2-0.3,0.2
			c-0.4,0-1-1.1-1-1.1h-2.8C23.4,28,24.4,27.5,25.8,27.5z M28.6,44.7c-0.9,0-1.4-0.7-1.4-0.7H30C30,44,29.5,44.7,28.6,44.7z
			 M34.7,39.8c0,0-4.1,0.8-6.1,0.8c-2.8,0-4.8-0.5-4.8-0.5l-3.3-4l3.4,2.8c0,0,2.5,0.4,5.5,0.4c3,0,4.9-0.2,4.9-0.2l2.2-1.3
			L34.7,39.8z"/>
		<path fill="#EDECED" d="M41.6,16.1C40.7,16,39.5,16,38.1,16c-4,0-6.9,1.1-6.9,2.7c0,1.4,0.3,3.2,0.9,4.5c0.7,1.3,1.6,2.3,5.2,2.4
			c1.3-0.5,4.2-2.1,4.2-6.5c0.4,0.6,0.7,1.3,0.7,1.3C42.4,19.6,42.3,18.1,41.6,16.1z M34.1,22.7c-0.7,0-1.3-1-1.3-2.2
			c0-1.2,0.6-2.2,1.3-2.2c0.1,0,0.3,0,0.4,0.1c-0.1,0.1-0.1,0.3-0.1,0.5c0,0.4,0.2,0.7,0.4,0.7c0.2,0,0.3-0.2,0.4-0.4
			c0.1,0.3,0.2,0.7,0.2,1.2C35.4,21.7,34.9,22.7,34.1,22.7z"/>
		<path fill="#EDECED" d="M54.8,26.8c-1.5-6.2-5-7.2-6.4-7.3c-0.1,0-0.3,0-0.4,0c-0.7,0-1.6,0.4-2.4,0.9c0.2-1,0.4-1.2,0.9-1.2
			c0.5,0,0.8-0.4,0.9-0.8l0.2-2.7c0-0.2-0.1-0.5-0.2-0.6c-0.2-0.2-0.4-0.3-0.6-0.3c-0.4,0-1.1-0.1-1.8-0.2c-0.3-0.1-0.6-0.1-1-0.2
			c-1.6-3.7-4.5-6.7-8.1-8.4c0-0.1,0.1-0.1,0.1-0.2c0.1-0.3,0-0.7-0.2-0.9c-0.4-0.4-1.1-0.7-1.9-0.9c0.1,0,0.2,0,0.3-0.1
			c0.4-0.1,0.7-0.5,0.7-0.9c0-0.4-0.4-0.8-0.9-0.8c-0.8,0-1.5,0-2.2,0.1c0.3-0.2,0.4-0.6,0.3-1c-0.1-0.4-0.5-0.6-0.9-0.6
			C30.6,0.8,19.2,2.3,14.4,12c0,0.1,0,0.1-0.1,0.2c-0.4,0.7-0.8,1.4-1.1,2.2c-0.3,0-0.6,0.1-0.8,0.1c-0.8,0.1-1.4,0.2-1.8,0.2
			c-0.2,0-0.5,0.1-0.6,0.3c-0.2,0.2-0.2,0.4-0.2,0.6l0.2,2.7c0,0.5,0.4,0.8,0.9,0.8c0.5,0,0.7,0.1,0.9,1.3C10.7,20,9.7,19.5,9,19.5
			c-1.6,0-4.6,1.4-5.8,6.2c0,0-0.1,0-0.1,0c-0.4,0-0.8,0.3-0.8,0.7c-0.8,5.6,1.1,8.2,2.4,9.3c2,2.3,4.9,2.4,5.5,2.4
			c1.9,0,4.2-1.2,5.6-2.2c0,2.8,0,8,0.2,10.3c0,0.2,0.1,0.4,0.3,0.6c0,0,1.9,1.6,3.7,3.5c0.3,0.3,0.5,0.6,0.8,0.9
			c1,1.3,2.1,2.6,4.9,3.1c-0.1,0.2-0.1,0.3,0,0.5c0.1,0.4,0.4,0.7,0.8,0.7c0.2,0,0.4,0,0.6,0c0.1,0.3,0.5,0.5,0.8,0.5
			c2.5,0,4.9-1.1,7.1-3.4c0.6-0.5,1.1-1,1.5-1.6c0.2-0.2,0.4-0.5,0.6-0.7c1.8-1.9,3.7-3.5,3.7-3.5c0.2-0.1,0.3-0.4,0.3-0.6
			c0.2-2.3,0.2-7.5,0.2-10.3c1.4,0.9,3.6,2.2,5.6,2.2c2.8,0,7.4-1.7,7.4-8.1c0-0.8,0-1.5-0.1-2.2c0.1,0,0.1,0,0.2-0.1
			C54.7,27.6,54.9,27.2,54.8,26.8z M53,26.1c0.2,1.1,0.4,2.4,0.4,4c0,6.6-5.3,7.2-6.6,7.2c-2.8,0-6.4-3.1-6.4-3.1s0.1,8.9-0.2,11.9
			c0,0-1.9,1.6-3.8,3.6c-0.7,0.8-1.3,1.6-2.1,2.2c-2.1,2.2-4.2,3.1-6.5,3.1c0,0,1-0.2,1.5-1.4c-0.1,0.2-0.6,0.9-2.8,0.9
			c0,0,0.8-0.4,0.8-1l0,0c-4.4-0.3-5-2.1-6.7-3.9c-1.8-1.9-3.8-3.6-3.8-3.6c-0.3-3-0.2-11.9-0.2-11.9s-3.6,3.1-6.4,3.1
			c-0.8,0-3.2-0.2-4.9-2.1c-1-0.8-2.9-3.1-2.1-8.5c0,0,0.2,0.8,0.6,1.3c0.7-6.6,4.3-7.5,5.2-7.5c1,0,3.4,1.6,3.4,1.6
			c0-0.4,0-0.8,0-1.1c-0.2-1.4-0.4-2.6-1.9-2.6l-0.2-2.7c0.7,0,1.8-0.2,3.3-0.5c0.4-1,0.9-1.9,1.4-2.8c0,0-0.1,0-0.1,0
			C19.9,3,31.2,1.6,31.2,1.6S29.1,3,28.1,4c0,0,2.2-1,5.8-1c0,0-2.7,0.5-3.7,1.6c0,0,3.6-0.3,4.9,0.9c0,0-1.3,0.2-2,0.3
			c4.6,1.3,8.4,4.6,10.2,9.3c1.5,0.2,2.7,0.5,3.4,0.5l-0.2,2.7c-1.7,0-1.7,1.5-2,3.2c0,0.2,0,0.3,0,0.5c0,0,2.4-1.7,3.4-1.7
			c0.1,0,0.2,0,0.3,0c1.1,0.1,4.2,0.8,5.6,6.6C54,27,53.6,26.4,53,26.1z"/>
		<path fill="#EDECED" d="M48.4,23.4c-1.5,0-5.5,2.9-5.5,2.9c1.1,0.2,1.4,0.4,1.4,0.6c0,0.1-0.3,0.3-0.8,0.3c0,0,1.5,1,1.5,2
			c0,0.4-1-0.2-1-0.2s0.2,0.6,0.2,1.1S43.6,32,43.3,32c-0.3,0,0.2-0.4-0.3-1.6c0,0-0.2,1.6-1.3,1.8c0.1,0,2.8,1.8,5.3,1.8
			c2.5,0,4.2-2.6,4.2-5.5S50,23.4,48.4,23.4z"/>
	</g>
	<path fill="#20A28E" d="M39.2,14.8c-6,0-8,1.2-10.6,1.2c-2.6,0-4.6-1.2-10.6-1.2c-3.7,0-6.4,0.8-7.6,0.8l0.2,2.7
		c3.9,0-1.1,8.2,9.1,8.2c9.7,0,5.2-7.1,9-7.2c3.8,0.1-0.7,7.2,9,7.2c10.2,0,5.2-8.2,9.1-8.2l0.2-2.7C45.5,15.6,42.9,14.8,39.2,14.8z
		 M12.7,17.4h-1.1V17h1.1V17.4z M25,23.3c-0.7,1.4-1.7,2.4-5.6,2.4c-4.7,0-5.6-1.8-6.2-6.3C12.8,16.1,15.1,16,19,16
		c4,0,6.9,1.1,6.9,2.8C26,20.1,25.7,22,25,23.3z M43.9,19.4c-0.6,4.5-1.5,6.3-6.2,6.3c-3.9,0-4.9-1-5.6-2.4
		c-0.7-1.3-0.9-3.1-0.9-4.5c0-1.6,2.9-2.8,6.9-2.8C42.1,16,44.3,16.1,43.9,19.4z M45.8,17.4h-1.1V17h1.1V17.4z"/>
</g>
</svg>
