<?xml version="1.0" encoding="utf-8"?>
<!-- Generator: Adobe Illustrator 18.1.1, SVG Export Plug-In . SVG Version: 6.00 Build 0)  -->
<!DOCTYPE svg PUBLIC "-//W3C//DTD SVG 1.1//EN" "http://www.w3.org/Graphics/SVG/1.1/DTD/svg11.dtd">
<svg version="1.1" id="Layer_1" xmlns="http://www.w3.org/2000/svg" xmlns:xlink="http://www.w3.org/1999/xlink" x="0px" y="0px"
	 viewBox="0 0 180 163" enable-background="new 0 0 180 163" xml:space="preserve">
<g>
	<g>
		<g>
			<path fill="#FFFFFF" d="M92.1,107.9c0.2-0.3,0.3-0.6,0.5-1l-1.8-0.8c0,0-0.4,0.7-2.3,1.1c0.1-0.3,0.1-0.5,0.1-0.8l-0.7,0.9
				c0,0,0,0,0,0l-0.1-1.9c-6.9-0.4-8.8-2.7-11.1-5.6c-0.5-0.6-1.1-1.3-1.7-2c-3.1-3.3-6.4-6.2-7.4-7C66.8,84.4,67,67.3,67,67.2
				l0-2.2l-1.7,1.4c-0.1,0.1-7.2,6-12.4,6c-0.6,0-5.8-0.1-9.2-4l-0.1-0.1l-0.1,0c-1.5-1.2-4.6-4.8-4.3-13l1.2,1.5l0.2-2.4
				c1.4-14.1,9.5-14.3,9.6-14.3c1.2,0,4.7,1.8,6.6,3.1l1.8,1v-1.9c0-7.1,1.6-13.7,5.1-19.1l1.8-2.9l-0.5,0.2
				C72.4,9.4,84.6,4.7,91.1,3c-1,0.8-2,1.6-2.7,2.3l1.1,1.6c0,0,1.5-0.7,4.1-1.2c-0.3,0.2-0.6,0.5-0.9,0.7l-2,2l2.8-0.3
				c0,0,0.9-0.1,2.2-0.1c1.7,0,3.2,0.1,4.3,0.4c-0.3,0.1-0.6,0.1-0.9,0.1l0.1,2c13.7,3.8,22.8,16.3,22.8,31.8v1.9l1.4-1.1
				c1.9-1.3,5.1-3.2,6.3-3.2c0.1,0,0.2,0,0.4,0c2.1,0.2,6.7,1.4,9.6,9.4l-1.5-0.9l0.5,2.3c0.5,2.3,0.8,5,0.8,7.9
				c0,13.3-11,13.6-12.3,13.6c-5.2,0-12.3-5.9-12.4-5.9l-1.7-1.4l0,2.2c0,0.2,0.2,17.2-0.3,23.6c-1,0.9-4.3,3.7-7.4,7
				c-0.5,0.5-0.9,1-1.3,1.5c-0.9,1.1-1.8,2.1-2.9,2.9l-0.1,0.1C98.1,105.3,95.2,107.2,92.1,107.9z"/>
			<path fill="#242529" d="M141.6,52.5c-2.9-11.7-9.2-13.3-11.4-13.4c-0.2,0-0.4,0-0.6,0c-2.1,0-7,3.4-7,3.4
				c0-16.6-9.7-29-23.3-32.7c1.6-0.2,4.1-0.7,4.1-0.7c-2.7-2.5-9.9-1.8-9.9-1.8c2.1-2.1,7.5-3.2,7.5-3.2c-7.4,0-11.8,2-11.8,2
				c2.1-2.1,6.4-5,6.4-5s-23,2.9-32.6,21.8c0,0,0,0,0.1-0.1c-3.5,5.4-5.5,12.1-5.5,19.6c0,0-4.9-3.3-7-3.3c-1.9,0-9.3,1.9-10.6,15.2
				c-0.8-1-1.2-2.6-1.2-2.6c-1.5,10.9,2.3,15.6,4.3,17.3c3.4,3.8,8.3,4.3,9.9,4.3c5.7,0,13-6.2,13-6.2s-0.2,17.9,0.4,24.1
				c0,0,3.9,3.3,7.6,7.2c3.4,3.6,4.6,7.3,13.5,7.9l0,0c0,1.3-1.6,2-1.6,2c4.4,0,5.5-1.4,5.7-1.8c-0.9,2.4-3,2.7-3,2.7
				c4.5,0,8.8-1.9,13.1-6.3c1.6-1.3,2.8-2.9,4.3-4.5c3.7-3.9,7.6-7.2,7.6-7.2c0.6-6.2,0.4-24.1,0.4-24.1s7.4,6.2,13,6.2
				c2.5,0,13.3-1.2,13.3-14.6c0-3.2-0.3-5.8-0.8-8.1C140.7,51.3,141.6,52.5,141.6,52.5z M52.6,66.5c-5.1,0-8.5-5.2-8.5-11.1
				s2.5-10.2,5.7-10.2c3.2,0,11.2,5.9,11.2,5.9l0,0.1c-1.9,0.4-2.6,0.8-2.6,1.1c0,0.3,0.6,0.6,1.6,0.6c0,0-3.1,2-3.1,4.1
				c0,0.7,2.1-0.3,2.1-0.3s-0.4,1.2-0.4,2.3c0,1.1,1.1,3.5,1.7,3.5c0.6,0-0.4-0.8,0.5-3.3c0,0,0.4,2.9,2.3,3.6l0,0.1
				C63.4,62.9,57.8,66.5,52.6,66.5z M106.5,50c4.3,0,4.4,22.1,4.4,29.3S99.3,97.7,99.3,97.7S96.7,99,90.1,99h0c0,0,0,0,0,0
				c-6.5,0-9.2-1.3-9.2-1.3S69.3,86.6,69.3,79.3S69.4,50,73.7,50c0,0-9.6-1.9-9.8-13.1c-0.7,1.1-1.3,2.2-1.3,2.2
				c-0.2-1.9-0.1-6.3,2.8-12c2.1-5.5,6.2-8.3,11.5-8.3c3.7,0,6.9,1,9.2,2c-0.7-1.5-0.8-2.1,0.5-1.1c1.3,1,2.6,2.1,3.4,3.4
				c0.1,0.1,0.1,0.1,0.1,0.1c0.3-0.2,5.5-4.4,13.1-4.4c4.9,0,9.8,2.5,10.8,7.3v0c4,6.1,3.8,11,3.7,13c0,0-0.6-1.4-1.4-2.6
				C116.2,48.1,106.5,50,106.5,50z M127.5,66.5c-5.1,0-10.6-3.5-10.7-3.6c2.3-0.5,2.7-3.6,2.7-3.6c1,2.5-0.1,3.3,0.5,3.3
				c0.6,0,1.7-2.4,1.7-3.5c0-1.1-0.4-2.3-0.4-2.3s2.1,1,2.1,0.3c0-2.2-3.1-4.1-3.1-4.1c1.1,0,1.6-0.4,1.6-0.6c0-0.2-0.7-0.7-2.9-1.1
				c0.2-0.1,8.1-5.9,11.2-5.9c3.2,0,5.7,4.3,5.7,10.2S132.6,66.5,127.5,66.5z"/>
			<path fill="#242529" d="M91.5,58.5c0,0,0.3-4.8,0.7-4.8s1.1,0.1,3.8,0.1c2.8,0,4.8,1.3,4.8,1.3h-5.6c0,0-1.2,2-2,2
				c-0.8,0-0.6-0.5-0.6-0.5L91.5,58.5z"/>
			<path fill="#242529" d="M89,58.5c0,0-0.3-4.8-0.7-4.8s-1.1,0.1-3.8,0.1S79.7,55,79.7,55h5.6c0,0,1.2,2,2,2s0.6-0.5,0.6-0.5
				L89,58.5z"/>
			<path fill="#242529" d="M73.8,71l6.8,5.7c0,0,5.1,0.7,11.1,0.7s10-0.3,10-0.3l4.4-2.6l-3.5,4c0,0-8.3,1.7-12.4,1.7
				c-5.7,0-9.7-0.9-9.7-0.9L73.8,71z"/>
			<path fill="#242529" d="M87.3,86H93c0,0-0.9,1.3-2.8,1.3S87.3,86,87.3,86z"/>
			<path fill="#242529" d="M103.6,37c-0.1,0.5-0.4,0.8-0.8,0.8c-0.5,0-0.9-0.7-0.9-1.5c0-0.4,0.1-0.8,0.3-1.1
				c-0.3-0.1-0.5-0.2-0.8-0.2c-1.5,0-2.6,2-2.6,4.4c0,2.4,1.2,4.4,2.6,4.4c1.5,0,2.6-2,2.6-4.4C104,38.6,103.9,37.7,103.6,37z"/>
			<path fill="#242529" d="M80.8,37c-0.1,0.5-0.4,0.8-0.8,0.8c-0.5,0-0.9-0.7-0.9-1.5c0-0.4,0.1-0.8,0.3-1.1
				c-0.3-0.1-0.5-0.2-0.8-0.2c-1.5,0-2.6,2-2.6,4.4c0,2.4,1.2,4.4,2.6,4.4s2.6-2,2.6-4.4C81.3,38.6,81.1,37.7,80.8,37z"/>
			<path fill="#242529" d="M94,27.1c0,0,4.7-2.3,12.6-1.9c0,0-6.6-1.8-12.6,0.5V27.1z"/>
			<path fill="#242529" d="M86,27.1c0,0-4.7-2.3-12.6-1.9c0,0,5.6-1.8,12.6,0.5V27.1z"/>
			<path fill="#20A28E" d="M111.5,27.7c-12.1,0-16,2.4-21.3,2.5c-5.3-0.1-9.2-2.5-21.3-2.5c-7.4,0-12.8,1.7-15.4,1.7l0.3,5.5
				c7.9,0-2.3,16.6,18.2,16.6c19.6,0,10.4-14.2,18.1-14.5c7.7,0.3-1.4,14.5,18.2,14.5c20.5,0,10.4-16.6,18.3-16.6l0.3-5.5
				C124.4,29.4,118.9,27.7,111.5,27.7z M58,33h-3v-1h3V33z M83,44.8c-1.4,2.8-3.4,4.8-11.2,4.8c-9.4,0-11.4-3.5-12.5-12.6
				c-0.8-6.6,3.6-6.9,11.7-6.9c8,0,13.9,2.3,13.9,5.5C84.9,38.5,84.4,42.2,83,44.8z M121.1,37c-1.1,9.1-3.1,12.6-12.5,12.6
				c-7.8,0-9.8-2-11.2-4.8c-1.3-2.6-1.9-6.3-1.9-9.1c0-3.3,5.9-5.5,13.9-5.5C117.4,30.2,121.9,30.4,121.1,37z M126,33h-3v-1h3V33z"
				/>
		</g>
	</g>
	<g>
		<g>
			<g>
				<path fill="#242529" d="M1.5,127.2h3.9l4.8,8.5l4.6-8.5h3.9l0.8,18.2h-4.1l-0.5-11.9l-3.8,7.1H9l-4-7l-0.5,11.8H0.6L1.5,127.2z"
					/>
				<path fill="#242529" d="M31.8,145.9c-1.3,0-2.6-0.2-3.8-0.7c-1.2-0.5-2.2-1.2-3-2c-0.8-0.9-1.5-1.9-2-3
					c-0.5-1.2-0.7-2.4-0.7-3.8c0-1.4,0.2-2.6,0.7-3.8c0.5-1.2,1.1-2.2,2-3c0.8-0.9,1.8-1.5,3-2c1.2-0.5,2.4-0.7,3.8-0.7
					s2.6,0.2,3.8,0.7c1.2,0.5,2.2,1.2,3,2c0.8,0.9,1.5,1.9,2,3c0.5,1.2,0.7,2.4,0.7,3.8c0,1.3-0.2,2.6-0.7,3.8c-0.5,1.2-1.1,2.2-2,3
					c-0.8,0.9-1.8,1.5-3,2C34.4,145.7,33.1,145.9,31.8,145.9z M31.8,142c0.8,0,1.5-0.2,2.2-0.5c0.6-0.3,1.2-0.7,1.6-1.3
					c0.4-0.5,0.8-1.1,1-1.8c0.2-0.7,0.4-1.4,0.4-2.2c0-0.8-0.1-1.5-0.4-2.2c-0.2-0.7-0.6-1.3-1-1.8c-0.4-0.5-1-0.9-1.6-1.2
					c-0.6-0.3-1.4-0.5-2.2-0.5c-0.8,0-1.5,0.2-2.2,0.5c-0.6,0.3-1.2,0.7-1.6,1.2c-0.4,0.5-0.8,1.1-1,1.8c-0.2,0.7-0.4,1.4-0.4,2.2
					c0,0.8,0.1,1.5,0.4,2.2c0.2,0.7,0.6,1.3,1,1.8c0.4,0.5,1,0.9,1.6,1.3C30.2,141.9,31,142,31.8,142z"/>
				<path fill="#242529" d="M44.4,127.2h3.9l7.9,11.8v-11.8h4.1v18.2h-3.7l-8.1-12v12h-4.1V127.2z"/>
				<path fill="#242529" d="M64.3,127.2h4.1v7.3l6.1-7.3h4.8l-6.3,7.1l7.1,11.1h-5l-4.9-7.9l-1.9,2.1v5.9h-4.1V127.2z"/>
				<path fill="#242529" d="M82.3,127.2h12.5v3.6h-8.3v3.6h6.5v3.5h-6.5v3.9h8.9v3.6H82.3V127.2z"/>
				<path fill="#242529" d="M98.5,127.2H111v3.6h-8.3v3.6h6.5v3.5h-6.5v3.9h8.9v3.6H98.5V127.2z"/>
				<path fill="#242529" d="M127.4,127.2h6.8c1.1,0,2.1,0.1,2.9,0.4c0.8,0.3,1.4,0.6,1.9,1.1c0.5,0.4,0.8,0.9,1.1,1.5
					c0.2,0.6,0.3,1.2,0.3,1.8c0,0.6-0.1,1.1-0.3,1.5c-0.2,0.4-0.5,0.8-0.7,1.1c-0.3,0.3-0.6,0.6-0.9,0.8c-0.3,0.2-0.6,0.3-0.8,0.4
					c0.3,0.1,0.7,0.2,1.1,0.4c0.4,0.2,0.8,0.5,1.2,0.8c0.4,0.4,0.7,0.8,1,1.3c0.3,0.5,0.4,1.2,0.4,1.9c0,0.9-0.2,1.7-0.5,2.4
					c-0.3,0.7-0.8,1.2-1.4,1.6c-0.6,0.4-1.4,0.7-2.2,0.9c-0.9,0.2-1.9,0.3-3,0.3h-6.8V127.2z M133.8,134.5c0.3,0,0.6,0,0.9-0.1
					c0.3-0.1,0.6-0.2,0.8-0.3c0.2-0.2,0.4-0.4,0.6-0.6c0.1-0.3,0.2-0.6,0.2-1c0-0.4-0.1-0.7-0.2-1c-0.1-0.3-0.3-0.5-0.6-0.6
					c-0.2-0.2-0.5-0.3-0.8-0.3c-0.3-0.1-0.6-0.1-0.9-0.1h-2.4v4.1H133.8z M134.1,142.3c0.3,0,0.6,0,1-0.1c0.4,0,0.7-0.2,1-0.3
					c0.3-0.2,0.6-0.4,0.8-0.7c0.2-0.3,0.3-0.7,0.3-1.3c0-0.5-0.1-0.9-0.3-1.2c-0.2-0.3-0.5-0.6-0.8-0.7c-0.3-0.2-0.6-0.3-1-0.4
					c-0.4-0.1-0.7-0.1-1-0.1h-2.7v4.8H134.1z"/>
				<path fill="#242529" d="M153,145.9c-1.3,0-2.6-0.2-3.8-0.7c-1.2-0.5-2.2-1.2-3-2c-0.8-0.9-1.5-1.9-2-3c-0.5-1.2-0.7-2.4-0.7-3.8
					c0-1.4,0.2-2.6,0.7-3.8c0.5-1.2,1.1-2.2,2-3c0.8-0.9,1.8-1.5,3-2c1.2-0.5,2.4-0.7,3.8-0.7s2.6,0.2,3.8,0.7c1.2,0.5,2.2,1.2,3,2
					c0.8,0.9,1.5,1.9,2,3c0.5,1.2,0.7,2.4,0.7,3.8c0,1.3-0.2,2.6-0.7,3.8c-0.5,1.2-1.1,2.2-2,3c-0.8,0.9-1.8,1.5-3,2
					C155.6,145.7,154.3,145.9,153,145.9z M153,142c0.8,0,1.5-0.2,2.2-0.5c0.6-0.3,1.2-0.7,1.6-1.3c0.4-0.5,0.8-1.1,1-1.8
					c0.2-0.7,0.4-1.4,0.4-2.2c0-0.8-0.1-1.5-0.4-2.2c-0.2-0.7-0.6-1.3-1-1.8c-0.4-0.5-1-0.9-1.6-1.2c-0.6-0.3-1.4-0.5-2.2-0.5
					c-0.8,0-1.5,0.2-2.2,0.5c-0.6,0.3-1.2,0.7-1.6,1.2c-0.4,0.5-0.8,1.1-1,1.8c-0.2,0.7-0.4,1.4-0.4,2.2c0,0.8,0.1,1.5,0.4,2.2
					c0.2,0.7,0.6,1.3,1,1.8c0.4,0.5,1,0.9,1.6,1.3C151.4,141.9,152.2,142,153,142z"/>
				<path fill="#242529" d="M168.8,137.8l-6.4-10.6h4.7l4,6.9l3.9-6.9h4.5l-6.4,10.6v7.6h-4.2V137.8z"/>
				<polygon fill="#242529" points="116.4,134.4 122.9,134.4 121.3,137.9 114.8,137.9 				"/>
			</g>
		</g>
		<g>
			<g>
				<path fill="#20A28E" d="M15.7,152.4v8.1c0,0.6,0,1.3,0.1,1.7h-1.1l-0.1-1.2h0c-0.4,0.7-1.2,1.3-2.3,1.3c-1.6,0-2.9-1.4-2.9-3.4
					c0-2.2,1.4-3.6,3-3.6c1,0,1.7,0.5,2,1h0v-4H15.7z M14.5,158.2c0-0.2,0-0.4-0.1-0.5c-0.2-0.8-0.8-1.4-1.8-1.4c-1.3,0-2,1.1-2,2.6
					c0,1.4,0.7,2.5,2,2.5c0.8,0,1.6-0.5,1.8-1.5c0-0.2,0.1-0.3,0.1-0.5V158.2z"/>
				<path fill="#20A28E" d="M19.2,153.6c0,0.4-0.3,0.7-0.8,0.7c-0.4,0-0.7-0.3-0.7-0.7c0-0.4,0.3-0.8,0.8-0.8
					C18.9,152.8,19.2,153.2,19.2,153.6z M17.8,162.2v-6.7H19v6.7H17.8z"/>
				<path fill="#20A28E" d="M21,161c0.4,0.2,1,0.5,1.6,0.5c0.9,0,1.3-0.4,1.3-1c0-0.6-0.3-0.9-1.2-1.2c-1.2-0.4-1.8-1.1-1.8-1.9
					c0-1.1,0.9-2,2.3-2c0.7,0,1.3,0.2,1.6,0.4l-0.3,0.9c-0.3-0.2-0.7-0.4-1.4-0.4c-0.7,0-1.1,0.4-1.1,0.9c0,0.6,0.4,0.8,1.3,1.1
					c1.2,0.4,1.8,1,1.8,2c0,1.2-0.9,2-2.5,2c-0.7,0-1.4-0.2-1.9-0.5L21,161z"/>
				<path fill="#20A28E" d="M31.6,162c-0.3,0.2-1,0.4-1.9,0.4c-2,0-3.3-1.4-3.3-3.4c0-2.1,1.4-3.6,3.6-3.6c0.7,0,1.4,0.2,1.7,0.3
					l-0.3,0.9c-0.3-0.2-0.7-0.3-1.4-0.3c-1.5,0-2.4,1.1-2.4,2.5c0,1.6,1,2.5,2.3,2.5c0.7,0,1.2-0.2,1.5-0.3L31.6,162z"/>
				<path fill="#20A28E" d="M39.1,158.8c0,2.5-1.7,3.6-3.3,3.6c-1.8,0-3.2-1.3-3.2-3.5c0-2.2,1.5-3.6,3.3-3.6
					C37.8,155.3,39.1,156.7,39.1,158.8z M33.8,158.9c0,1.5,0.8,2.6,2,2.6c1.2,0,2-1.1,2-2.6c0-1.1-0.6-2.6-2-2.6
					C34.4,156.3,33.8,157.6,33.8,158.9z"/>
				<path fill="#20A28E" d="M41.1,155.5l1.3,3.8c0.2,0.6,0.4,1.2,0.5,1.7h0c0.2-0.6,0.3-1.1,0.6-1.7l1.3-3.8h1.3l-2.6,6.7h-1.2
					l-2.6-6.7H41.1z"/>
				<path fill="#20A28E" d="M48,159.1c0,1.6,1.1,2.3,2.3,2.3c0.9,0,1.4-0.2,1.9-0.3l0.2,0.9c-0.4,0.2-1.2,0.4-2.2,0.4
					c-2.1,0-3.3-1.4-3.3-3.4s1.2-3.6,3.1-3.6c2.2,0,2.8,1.9,2.8,3.2c0,0.2,0,0.4,0,0.6H48z M51.6,158.2c0-0.8-0.3-2-1.7-2
					c-1.2,0-1.8,1.1-1.9,2H51.6z"/>
				<path fill="#20A28E" d="M54.5,157.6c0-0.8,0-1.5-0.1-2.1h1.1l0,1.3h0.1c0.3-0.9,1-1.5,1.9-1.5c0.1,0,0.2,0,0.3,0v1.2
					c-0.1,0-0.2,0-0.4,0c-0.9,0-1.5,0.7-1.6,1.6c0,0.2-0.1,0.4-0.1,0.6v3.6h-1.2V157.6z"/>
				<path fill="#20A28E" d="M80.5,162c-0.3,0.2-1,0.4-1.9,0.4c-2,0-3.3-1.4-3.3-3.4c0-2.1,1.4-3.6,3.6-3.6c0.7,0,1.4,0.2,1.7,0.3
					l-0.3,0.9c-0.3-0.2-0.7-0.3-1.4-0.3c-1.5,0-2.4,1.1-2.4,2.5c0,1.6,1,2.5,2.3,2.5c0.7,0,1.2-0.2,1.5-0.3L80.5,162z"/>
				<path fill="#20A28E" d="M82.1,157.6c0-0.8,0-1.5-0.1-2.1h1.1l0,1.3h0.1c0.3-0.9,1-1.5,1.9-1.5c0.1,0,0.2,0,0.3,0v1.2
					c-0.1,0-0.2,0-0.4,0c-0.9,0-1.5,0.7-1.6,1.6c0,0.2-0.1,0.4-0.1,0.6v3.6h-1.2V157.6z"/>
				<path fill="#20A28E" d="M87.4,159.1c0,1.6,1.1,2.3,2.3,2.3c0.9,0,1.4-0.2,1.9-0.3l0.2,0.9c-0.4,0.2-1.2,0.4-2.2,0.4
					c-2.1,0-3.3-1.4-3.3-3.4s1.2-3.6,3.1-3.6c2.2,0,2.8,1.9,2.8,3.2c0,0.2,0,0.4,0,0.6H87.4z M91,158.2c0-0.8-0.3-2-1.7-2
					c-1.2,0-1.8,1.1-1.9,2H91z"/>
				<path fill="#20A28E" d="M97.5,162.2l-0.1-0.8h0c-0.4,0.5-1.1,1-2.1,1c-1.4,0-2.1-1-2.1-1.9c0-1.6,1.4-2.5,4-2.5v-0.1
					c0-0.6-0.2-1.6-1.5-1.6c-0.6,0-1.3,0.2-1.7,0.5l-0.3-0.8c0.6-0.4,1.4-0.6,2.2-0.6c2.1,0,2.6,1.4,2.6,2.7v2.5
					c0,0.6,0,1.2,0.1,1.6H97.5z M97.4,158.8c-1.3,0-2.8,0.2-2.8,1.5c0,0.8,0.5,1.2,1.2,1.2c0.9,0,1.4-0.6,1.6-1.1
					c0-0.1,0.1-0.3,0.1-0.4V158.8z"/>
				<path fill="#20A28E" d="M102,153.6v1.9h1.7v0.9H102v3.6c0,0.8,0.2,1.3,0.9,1.3c0.3,0,0.6,0,0.7-0.1l0.1,0.9
					c-0.2,0.1-0.6,0.2-1.1,0.2c-0.6,0-1-0.2-1.3-0.5c-0.3-0.4-0.5-1-0.5-1.7v-3.7h-1v-0.9h1v-1.6L102,153.6z"/>
				<path fill="#20A28E" d="M105.9,159.1c0,1.6,1.1,2.3,2.3,2.3c0.9,0,1.4-0.2,1.9-0.3l0.2,0.9c-0.4,0.2-1.2,0.4-2.2,0.4
					c-2.1,0-3.3-1.4-3.3-3.4s1.2-3.6,3.1-3.6c2.2,0,2.8,1.9,2.8,3.2c0,0.2,0,0.4,0,0.6H105.9z M109.5,158.2c0-0.8-0.3-2-1.7-2
					c-1.2,0-1.8,1.1-1.9,2H109.5z"/>
				<path fill="#20A28E" d="M129.6,159.1c0,1.6,1.1,2.3,2.3,2.3c0.9,0,1.4-0.2,1.9-0.3l0.2,0.9c-0.4,0.2-1.2,0.4-2.2,0.4
					c-2.1,0-3.3-1.4-3.3-3.4s1.2-3.6,3.1-3.6c2.2,0,2.8,1.9,2.8,3.2c0,0.2,0,0.4,0,0.6H129.6z M133.2,158.2c0-0.8-0.3-2-1.7-2
					c-1.2,0-1.8,1.1-1.9,2H133.2z"/>
				<path fill="#20A28E" d="M136.4,155.5l1.3,3.8c0.2,0.6,0.4,1.2,0.5,1.7h0c0.2-0.6,0.3-1.1,0.6-1.7l1.3-3.8h1.3l-2.6,6.7h-1.2
					l-2.6-6.7H136.4z"/>
				<path fill="#20A28E" d="M148.7,158.8c0,2.5-1.7,3.6-3.3,3.6c-1.8,0-3.2-1.3-3.2-3.5c0-2.2,1.5-3.6,3.3-3.6
					C147.4,155.3,148.7,156.7,148.7,158.8z M143.4,158.9c0,1.5,0.8,2.6,2,2.6c1.2,0,2-1.1,2-2.6c0-1.1-0.6-2.6-2-2.6
					C144,156.3,143.4,157.6,143.4,158.9z"/>
				<path fill="#20A28E" d="M150.4,152.4h1.2v9.8h-1.2V152.4z"/>
				<path fill="#20A28E" d="M154.4,155.5l1.3,3.8c0.2,0.6,0.4,1.2,0.5,1.7h0c0.2-0.6,0.3-1.1,0.6-1.7l1.3-3.8h1.3l-2.6,6.7h-1.2
					l-2.6-6.7H154.4z"/>
				<path fill="#20A28E" d="M161.2,159.1c0,1.6,1.1,2.3,2.3,2.3c0.9,0,1.4-0.2,1.9-0.3l0.2,0.9c-0.4,0.2-1.2,0.4-2.2,0.4
					c-2.1,0-3.3-1.4-3.3-3.4s1.2-3.6,3.1-3.6c2.2,0,2.8,1.9,2.8,3.2c0,0.2,0,0.4,0,0.6H161.2z M164.8,158.2c0-0.8-0.3-2-1.7-2
					c-1.2,0-1.8,1.1-1.9,2H164.8z"/>
			</g>
			<circle fill="#242529" cx="66.6" cy="158.7" r="1.2"/>
			<circle fill="#242529" cx="119.7" cy="158.7" r="1.2"/>
		</g>
	</g>
</g>
</svg>
