<?xml version="1.0" encoding="utf-8"?>
<!-- Generator: Adobe Illustrator 18.1.1, SVG Export Plug-In . SVG Version: 6.00 Build 0)  -->
<!DOCTYPE svg PUBLIC "-//W3C//DTD SVG 1.1//EN" "http://www.w3.org/Graphics/SVG/1.1/DTD/svg11.dtd">
<svg version="1.1" xmlns="http://www.w3.org/2000/svg" xmlns:xlink="http://www.w3.org/1999/xlink" x="0px" y="0px"
	 viewBox="0 0 91 95" enable-background="new 0 0 91 95" xml:space="preserve">
<g id="Layer_1">
	<g>
		<path fill="#EDECED" d="M39.9,39.1c1.1-2.1,1.5-5.1,1.5-7.4c0-2.6-4.8-4.5-11.2-4.5c-2.3,0-4.2,0-5.8,0.3
			c-1.1,3.2-1.2,5.7-1.1,6.9c0,0,0.4-0.9,1-1.8c0.1,7,4.8,9.5,6.9,10.3C37.3,42.9,38.8,41.3,39.9,39.1z M36.3,31.2
			c0.2,0,0.5,0.1,0.7,0.2c-0.1,0.2-0.2,0.5-0.2,0.9c0,0.7,0.3,1.2,0.7,1.2c0.3,0,0.5-0.3,0.6-0.6c0.2,0.6,0.3,1.2,0.3,1.9
			c0,2-1,3.5-2.1,3.5c-1.2,0-2.1-1.6-2.1-3.5C34.2,32.8,35.2,31.2,36.3,31.2z"/>
		<path fill="#EDECED" d="M22.1,50.8c-0.8,2,0,2.7-0.4,2.7c-0.5,0-1.4-1.9-1.4-2.8s0.3-1.9,0.3-1.9s-1.7,0.8-1.7,0.3
			c0-1.7,2.5-3.3,2.5-3.3c-0.9,0-1.3-0.3-1.3-0.5c0-0.2,0.5-0.5,2.1-0.9l0,0c0,0-6.5-4.8-9.1-4.8S8.5,43,8.5,47.7s2.7,8.9,6.8,8.9
			s8.7-2.9,8.7-2.9l0-0.1C22.4,53.1,22.1,50.8,22.1,50.8z"/>
		<rect x="17.5" y="28.5" fill="#EDECED" width="2" height="0.8"/>
		<path fill="#EDECED" d="M45.6,27.3c4.3-0.1,7.5-2,17.2-2c1.1,0,2,0,3,0.1C65.6,25,65,24.5,65,24v0c-2-3.9-4.8-5.9-8.8-5.9
			c-6.1,0-10.5,3.4-10.7,3.5c0,0,0,0-0.1-0.1c-0.7-1-1.7-1.9-2.7-2.7c-1-0.8-1-0.3-0.4,0.9c-1.9-0.8-4.5-1.6-7.4-1.6
			c-4.3,0-7.6,2.3-9.3,6.7c-0.1,0.2-0.2,0.4-0.3,0.6c1-0.1,2-0.1,3.1-0.1C38.2,25.3,41.4,27.3,45.6,27.3z M48,23.7
			c5-1.8,10.1-0.4,10.1-0.4C51.8,23,48,24.8,48,24.8V23.7z M41,23.7v1.1c0,0-3.8-1.9-10.1-1.5C30.9,23.3,36,21.9,41,23.7z"/>
		<path fill="#EDECED" d="M45.6,33c-6.2,0.2,1.1,12-14.6,12c0,0,0,0,0,0c-2.1,4-2.1,17.3-2.1,22.2c0,5.9,9.4,15.3,9.4,15.3
			s2.1,1.5,7.4,1.5c0,0,0,0,0,0h0c5.3,0,7.4-1.6,7.4-1.6s9.4-9.2,9.4-15.1c0-5,0-18.5-2.2-22.5C44.6,44.7,51.9,33.3,45.6,33z
			 M47.3,46.3c0.3,0,0.9,0.4,3.1,0.4c2.2,0,3.9,1.3,3.9,1.3h-4.5c0,0-1,1.3-1.6,1.3c-0.6,0-0.5-0.6-0.5-0.6l-0.8,1.6
			C46.7,50.3,47,46.3,47.3,46.3z M41,46.7c2.2,0,2.8-0.1,3.1-0.1c0.3,0,0.5,3.7,0.5,3.7l-0.8-1.8c0,0,0.1,0.8-0.5,0.8
			c-0.6,0-1.6-1.3-1.6-1.3h-4.5C37.2,48,38.8,46.7,41,46.7z M45.6,74.1c-1.5,0-2.3-1.1-2.3-1.1h4.6C47.9,73,47.2,74.1,45.6,74.1z
			 M55.6,66.3c0,0-6.7,1.3-10,1.3c-4.6,0-7.8-0.7-7.8-0.7l-5.4-6.6l5.5,4.6c0,0,4.1,0.6,9,0.6c4.9,0,8.1-0.3,8.1-0.3l3.5-2.1
			L55.6,66.3z"/>
		<rect x="71.8" y="28.5" fill="#EDECED" width="2" height="0.8"/>
		<path fill="#EDECED" d="M66.9,27.6c-1.5-0.3-3.4-0.3-5.7-0.3c-6.5,0-11.2,1.8-11.2,4.5c0,2.2,0.5,5.2,1.5,7.4
			c1.1,2.2,2.6,3.8,8.5,3.9c2.2-0.8,6.9-3.4,6.9-10.6c0.7,0.9,1.2,2.1,1.2,2.1C68.1,33.3,68,30.8,66.9,27.6z M54.7,38.3
			c-1.2,0-2.1-1.6-2.1-3.5c0-2,1-3.5,2.1-3.5c0.2,0,0.5,0.1,0.7,0.2c-0.1,0.2-0.2,0.5-0.2,0.9c0,0.7,0.3,1.2,0.7,1.2
			c0.3,0,0.5-0.3,0.6-0.6c0.2,0.6,0.3,1.2,0.3,1.9C56.8,36.7,55.9,38.3,54.7,38.3z"/>
		<path fill="#EDECED" d="M88.5,45C86,34.8,80.4,33.3,78,33.1c-0.2,0-0.4,0-0.6,0c-1.1,0-2.6,0.7-3.9,1.4c0.3-1.7,0.7-1.9,1.5-1.9
			c0.8,0,1.4-0.6,1.4-1.3l0.2-4.5c0-0.4-0.1-0.8-0.4-1c-0.3-0.3-0.6-0.4-1-0.4c-0.6,0-1.7-0.2-3-0.4c-0.5-0.1-1-0.2-1.6-0.3
			c-2.7-6.1-7.3-10.9-13.2-13.7c0.1-0.1,0.1-0.2,0.1-0.3c0.2-0.5,0-1.1-0.4-1.4c-0.7-0.7-1.8-1.2-3.1-1.5c0.1,0,0.3-0.1,0.4-0.1
			c0.7-0.1,1.2-0.8,1.1-1.5c-0.1-0.7-0.7-1.3-1.4-1.3c-1.3,0-2.5,0.1-3.6,0.2c0.5-0.4,0.7-1,0.5-1.6c-0.2-0.6-0.8-1-1.5-0.9
			C49,2.5,30.3,5,22.4,20.8c0,0.1-0.1,0.2-0.1,0.3c-0.7,1.1-1.3,2.3-1.9,3.6c-0.5,0.1-0.9,0.2-1.4,0.2c-1.2,0.2-2.3,0.4-3,0.4
			c-0.4,0-0.8,0.2-1,0.4c-0.3,0.3-0.4,0.7-0.4,1l0.2,4.5c0,0.7,0.7,1.3,1.4,1.3c0.8,0,1.2,0.2,1.5,2.1c-1.4-0.8-3-1.5-4.1-1.5
			c-2.6,0-7.6,2.2-9.4,10.2c0,0-0.1,0-0.1,0c-0.7,0-1.2,0.5-1.3,1.2C1.5,53.7,4.6,58,6.7,59.7c3.3,3.7,8.1,3.9,9,3.9
			c3.2,0,6.8-2,9.1-3.6c0,4.5,0,13.1,0.3,16.8c0,0.4,0.2,0.7,0.5,0.9c0,0,3.2,2.6,6,5.7c0.5,0.5,0.9,1,1.3,1.5c1.7,2.1,3.5,4.2,8,5
			c-0.1,0.3-0.1,0.5-0.1,0.8c0.1,0.7,0.7,1.1,1.4,1.1c0.3,0,0.6,0,0.9,0c0.2,0.5,0.7,0.8,1.3,0.8c4.2,0,7.9-1.8,11.5-5.5
			c0.9-0.8,1.7-1.7,2.5-2.5c0.3-0.4,0.7-0.8,1-1.1c2.9-3.1,6-5.7,6-5.7c0.3-0.2,0.5-0.6,0.5-1c0.4-3.7,0.4-12.3,0.3-16.8
			c2.3,1.6,5.9,3.6,9.1,3.6c4.5,0,12.1-2.8,12.1-13.2c0-1.3-0.1-2.5-0.2-3.6c0.1,0,0.2-0.1,0.3-0.1C88.3,46.3,88.6,45.6,88.5,45z
			 M85.5,43.8c0.4,1.8,0.6,4,0.6,6.5c0,10.8-8.7,11.8-10.7,11.8c-4.6,0-10.5-5-10.5-5s0.2,14.5-0.3,19.5c0,0-3.2,2.6-6.2,5.8
			c-1.2,1.3-2.2,2.5-3.5,3.6c-3.5,3.6-6.9,5.1-10.6,5.1c0,0,1.7-0.3,2.4-2.2c-0.2,0.4-1,1.5-4.6,1.5c0,0,1.3-0.6,1.3-1.6l0,0
			c-7.2-0.5-8.2-3.4-10.9-6.4c-3-3.2-6.2-5.8-6.2-5.8c-0.5-5-0.3-19.5-0.3-19.5s-5.9,5-10.5,5c-1.3,0-5.3-0.4-8-3.5
			C6,57.3,3,53.5,4.2,44.7c0,0,0.3,1.3,0.9,2.1c1.1-10.8,7.1-12.3,8.6-12.3c1.7,0,5.6,2.6,5.6,2.6c0-0.6,0-1.2,0.1-1.8
			c-0.4-2.3-0.7-4.2-3.1-4.2L16,26.7c1.1,0,2.9-0.4,5.3-0.8c0.6-1.6,1.4-3.1,2.3-4.5c-0.1,0-0.1,0-0.1,0C31.4,6.1,49.9,3.8,49.9,3.8
			s-3.5,2.3-5.1,4c0,0,3.5-1.6,9.5-1.6c0,0-4.3,0.9-6,2.6c0,0,5.9-0.6,8,1.5c0,0-2,0.3-3.3,0.5c7.6,2.1,13.7,7.5,16.7,15.1
			c2.5,0.4,4.4,0.8,5.6,0.8L75,31.1c-2.7,0-2.8,2.4-3.2,5.2c0,0.3,0,0.6,0,0.8c0,0,4-2.7,5.6-2.7c0.1,0,0.3,0,0.5,0
			c1.8,0.1,6.9,1.4,9.2,10.8C87.1,45.3,86.4,44.3,85.5,43.8z"/>
		<path fill="#EDECED" d="M78,39.5c-2.5,0-8.9,4.7-9.1,4.8c1.8,0.3,2.3,0.7,2.3,0.9c0,0.2-0.4,0.5-1.3,0.5c0,0,2.5,1.6,2.5,3.3
			c0,0.6-1.7-0.3-1.7-0.3s0.3,0.9,0.3,1.9s-0.9,2.8-1.4,2.8c-0.5,0,0.3-0.7-0.4-2.7c0,0-0.3,2.6-2.2,2.9c0.1,0.1,4.6,2.9,8.7,2.9
			c4.1,0,6.8-4.2,6.8-8.9S80.6,39.5,78,39.5z"/>
	</g>
</g>
<g id="Isolation_Mode">
</g>
</svg>
