<?xml version="1.0" encoding="utf-8"?>
<!-- Generator: Adobe Illustrator 18.1.1, SVG Export Plug-In . SVG Version: 6.00 Build 0)  -->
<!DOCTYPE svg PUBLIC "-//W3C//DTD SVG 1.1//EN" "http://www.w3.org/Graphics/SVG/1.1/DTD/svg11.dtd">
<svg version="1.1" xmlns="http://www.w3.org/2000/svg" xmlns:xlink="http://www.w3.org/1999/xlink" x="0px" y="0px"
	 viewBox="0 0 55 57" enable-background="new 0 0 55 57" xml:space="preserve">
<g id="Layer_1">
</g>
<g id="Isolation_Mode">
	<g>
		<path fill="#1A7A6C" d="M54.5,27.1c-1.5-6.1-4.8-6.9-6-7c-0.1,0-0.2,0-0.3,0c-1.1,0-3.7,1.8-3.7,1.8c0-0.2,0-0.3,0-0.5
			c0.3-1.8,0.3-3.4,2.1-3.4l0.2-2.9c-0.8,0-2-0.3-3.6-0.5c-2-4.9-5.9-8.4-10.8-9.8c0.8-0.1,2.1-0.3,2.1-0.3
			c-1.4-1.3-5.2-0.9-5.2-0.9c1.1-1.1,3.9-1.7,3.9-1.7c-3.9,0-6.2,1.1-6.2,1.1c1.1-1.1,3.3-2.6,3.3-2.6S18.3,1.6,13.3,11.6
			c0,0,0,0,0.1,0c-0.6,0.9-1.1,1.9-1.5,3C10.3,14.7,9.1,15,8.4,15l0.2,2.9c1.5,0,1.8,1.2,2,2.7c0,0.4,0,0.8,0,1.2
			c0,0-2.6-1.7-3.7-1.7c-1,0-4.8,1-5.6,8c-0.4-0.5-0.6-1.3-0.6-1.3c-0.8,5.7,1.2,8.2,2.3,9.1c1.8,2,4.4,2.3,5.2,2.3
			c3,0,6.8-3.2,6.8-3.2s-0.1,9.4,0.2,12.6c0,0,2.1,1.7,4,3.8c1.8,1.9,2.4,3.8,7.1,4.1l0,0c0,0.7-0.8,1.1-0.8,1.1c2.3,0,2.9-0.7,3-1
			c-0.5,1.3-1.6,1.4-1.6,1.4c2.4,0,4.6-1,6.9-3.3c0.8-0.7,1.5-1.5,2.2-2.3c1.9-2.1,4-3.8,4-3.8c0.3-3.2,0.2-12.6,0.2-12.6
			S44,38,47,38c1.3,0,6.9-0.6,6.9-7.7c0-1.7-0.2-3.1-0.4-4.2C54.1,26.4,54.5,27.1,54.5,27.1z M44.9,16h1.2v0.3h-1.2V16z M10.5,16.6
			H9.2v-0.4h1.2V16.6z M31.4,23.1c-0.7-1.4-1-3.3-1-4.8c0-1.7,3.1-2.9,7.3-2.9c1.6,0,3,0,4,0.3c0.7,2.1,0.6,3.6,0.6,4.4
			c0,0-0.4-0.7-0.9-1.3c0,4.7-3.1,6.3-4.5,6.9C33.1,25.5,32.1,24.5,31.4,23.1z M14.6,13.8c1.1-2.9,3.3-4.4,6-4.4
			c1.9,0,3.6,0.5,4.8,1.1c-0.4-0.8-0.4-1.1,0.3-0.6c0.7,0.5,1.4,1.1,1.8,1.8c0,0,0.1,0,0.1,0c0.1-0.1,3.4-2.3,7.3-2.3
			c2.6,0,5.1,1.3,6.1,3.8v0c0,0.3,0.1,0.6,0.3,0.9c-0.7-0.1-1.6-0.1-2.4-0.1c-6.3,0-8.4,1.3-11.2,1.3c-2.8,0-4.8-1.3-11.2-1.3
			c-0.7,0-1.4,0-2,0.1C14.5,14,14.5,13.9,14.6,13.8z M18.3,25.6c-1.3-0.5-4.4-2.1-4.5-6.7c-0.4,0.6-0.7,1.2-0.7,1.2
			c-0.1-0.8,0-2.4,0.7-4.5c1-0.2,2.2-0.2,3.7-0.2c4.2,0,7.3,1.2,7.3,2.9c0,1.5-0.3,3.4-1,4.8C23.1,24.5,22.2,25.5,18.3,25.6z
			 M7.9,34.4c-2.7,0-4.4-2.7-4.4-5.8s1.3-5.3,3-5.3c1.7,0,5.9,3.1,5.9,3.1l0,0c-1,0.2-1.4,0.4-1.4,0.6c0,0.1,0.3,0.3,0.9,0.3
			c0,0-1.6,1-1.6,2.2c0,0.4,1.1-0.2,1.1-0.2s-0.2,0.6-0.2,1.2s0.6,1.8,0.9,1.8s-0.2-0.4,0.3-1.7c0,0,0.2,1.5,1.2,1.9l0,0
			C13.6,32.6,10.6,34.4,7.9,34.4z M32.4,50.7c0,0-1.4,0.6-4.8,0.6c-3.4,0-4.8-0.6-4.8-0.6s-6.1-5.6-6.1-9.4c0-3.2,0-12.3,1.4-14.3
			c0,0,0,0,0,0c10.2,0,5.5-7.7,9.5-7.8c4,0.1-0.7,7.5,9.5,7.5c1.4,2.6,1.4,11.3,1.4,14.6C38.5,45,32.4,50.7,32.4,50.7z M47.1,34.4
			c-2.7,0-5.6-1.8-5.6-1.9c1.2-0.2,1.4-1.9,1.4-1.9c0.5,1.3,0,1.7,0.3,1.7c0.3,0,0.9-1.2,0.9-1.8s-0.2-1.2-0.2-1.2s1.1,0.5,1.1,0.2
			c0-1.1-1.6-2.2-1.6-2.2c0.6,0,0.9-0.2,0.9-0.3c0-0.1-0.4-0.4-1.5-0.6c0.1-0.1,4.2-3.1,5.9-3.1c1.7,0,3,2.3,3,5.3
			S49.8,34.4,47.1,34.4z"/>
		<path fill="#1A7A6C" d="M29.2,29.3c0.4,0,1-1.3,1-1.3h2.9c0,0-1.1-0.5-2.5-0.5c-1.4,0-1.8,0.1-2,0.1c-0.2,0-0.4,2.5-0.4,2.5
			l0.5-1.1C28.8,29.1,28.8,29.3,29.2,29.3z"/>
		<path fill="#1A7A6C" d="M26.1,29.3c0.4,0,0.3-0.2,0.3-0.2l0.5,1.1c0,0-0.1-2.5-0.4-2.5c-0.2,0-0.6-0.1-2-0.1
			c-1.4,0-2.5,0.5-2.5,0.5H25C25,28,25.7,29.3,26.1,29.3z"/>
		<path fill="#1A7A6C" d="M33.6,39.9c0,0-2.1,0.2-5.2,0.2c-3.2,0-5.8-0.4-5.8-0.4l-3.6-3l3.5,4.3c0,0,2.1,0.5,5.1,0.5
			c2.2,0,6.5-0.9,6.5-0.9l1.8-2.1L33.6,39.9z"/>
		<path fill="#1A7A6C" d="M27.6,45.7c1,0,1.5-0.7,1.5-0.7h-3C26.1,45,26.6,45.7,27.6,45.7z"/>
		<path fill="#1A7A6C" d="M34.2,19.4c-0.3,0-0.5-0.3-0.5-0.8c0-0.2,0.1-0.4,0.1-0.6c-0.1-0.1-0.3-0.1-0.4-0.1c-0.8,0-1.4,1-1.4,2.3
			c0,1.3,0.6,2.3,1.4,2.3s1.4-1,1.4-2.3c0-0.5-0.1-0.9-0.2-1.3C34.5,19.2,34.4,19.4,34.2,19.4z"/>
		<path fill="#1A7A6C" d="M22.3,19.4c-0.3,0-0.5-0.3-0.5-0.8c0-0.2,0.1-0.4,0.1-0.6c-0.1-0.1-0.3-0.1-0.4-0.1c-0.8,0-1.4,1-1.4,2.3
			c0,1.3,0.6,2.3,1.4,2.3c0.8,0,1.4-1,1.4-2.3c0-0.5-0.1-0.9-0.2-1.3C22.6,19.2,22.5,19.4,22.3,19.4z"/>
		<path fill="#1A7A6C" d="M36.6,12.8c0,0-3.6-0.9-6.6,0.2v0.7C30,13.8,32.5,12.6,36.6,12.8z"/>
		<path fill="#1A7A6C" d="M26,13.8V13c-4-1.2-6.6-0.2-6.6-0.2C23.5,12.6,26,13.8,26,13.8z"/>
	</g>
</g>
</svg>
