<?xml version="1.0" encoding="utf-8"?>
<?xml-stylesheet type="text/css" href="/css/app.min.css"?>
<!-- Generator: Adobe Illustrator 18.1.1, SVG Export Plug-In . SVG Version: 6.00 Build 0)  -->
<svg version="1.1" id="Layer_1" xmlns="http://www.w3.org/2000/svg" xmlns:xlink="http://www.w3.org/1999/xlink" x="0px" y="0px"
	 viewBox="0 0 1170 270" enable-background="new 0 0 1170 270" xml:space="preserve">
	<g id="menu-content-strategy">
		<a xlink:href="/how-we-help/content-strategy/" target="_top">
			<rect class="menu-item-text-container" x="2.1" y="25" stroke-miterlimit="10" width="280" height="48"/>
			<polyline class="menu-item-stroke" stroke-miterlimit="10" points="142,25 142,2 515,2 515,49 "/>
			<polygon class="menu-item-icon-bg" stroke-miterlimit="10" points="553.5,115.6 515,137.9 476.5,115.6
				476.5,71 515,48.7 553.5,71 "/>
			<text transform="matrix(1 0 0 1 71.8808 54.1657)">Content Strategy</text>
			<g class="icon">
				<path d="M507.7,98.9c-3.2,0-5.7,2.6-5.7,5.7s2.6,5.7,5.7,5.7c3.2,0,5.7-2.6,5.7-5.7S510.9,98.9,507.7,98.9z
					 M507.7,107.2c-1.4,0-2.6-1.1-2.6-2.6s1.1-2.6,2.6-2.6c1.4,0,2.6,1.1,2.6,2.6S509.1,107.2,507.7,107.2z"/>
				<polygon points="504,91.7 507.4,88.2 510.9,91.7 513.2,89.5 509.7,86 513.2,82.5 510.9,80.3 507.4,83.8 504,80.3
					501.7,82.5 505.2,86 501.7,89.5 		"/>
				<polygon points="526.6,80.5 520.9,86.2 523.2,88.5 525,86.6 525,90 528.2,90 528.2,86.6 530.1,88.5 532.4,86.2
					"/>
				<path d="M515.5,103.9v3.2c2.1,0,4.2-0.5,6-1.5l-1.4-2.8C518.8,103.5,517.7,103.9,515.5,103.9z"/>
				<path d="M523.6,99.7l2.6,1.8c1.1-1.7,1.8-3.6,2-5.6l-3.2-0.3C525,97,524.4,98.5,523.6,99.7z"/>
			</g>
		</a>
	</g>
	<g id="menu-web-design-and-development">
		<a xlink:href="/how-we-help/web-design-and-development/" target="_top">
			<rect class="menu-item-text-container" x="2.1" y="82.2" stroke-miterlimit="10" width="280" height="48"/>
			<polyline class="menu-item-stroke" stroke-miterlimit="10" points="282,106 334,106 334,93 381,93 "/>
			<polygon class="menu-item-icon-bg" stroke-miterlimit="10" points="458.5,115.6 420,137.9 381.5,115.6
				381.5,71 420,48.7 458.5,71 "/>
			<text transform="matrix(1 0 0 1 22.5175 111.5062)">Web Design and Development</text>
			<g class="icon">
				<path d="M435.5,79.9h-31c-1,0-1.8,0.9-1.8,1.9v18.6c0,1,0.8,1.9,1.8,1.9h14v3h-3.1c-1.9,0-3.5,1.6-3.5,3.6h13.9h5.8
					c0.9,0,1.6-0.7,1.6-1.6v-5h2.3c1,0,1.8-0.9,1.8-1.9V81.8C437.3,80.8,436.5,79.9,435.5,79.9z M424.3,105.3h-2.7v-3h2.7V105.3z
					 M431.6,107.3h-5.8V96.2h5.8V107.3z M435.3,97.3h-2.1v-1.1c0-0.9-0.7-1.6-1.6-1.6h-5.8c-0.9,0-1.5,0.7-1.5,1.6v1.1h-19.5V82h30.6
					V97.3z"/>
			</g>
		</a>
	</g>
	<g id="menu-analytics">
		<a xlink:href="/how-we-help/analytics/" target="_top">
			<rect class="menu-item-text-container" x="2.1" y="139.3" stroke-miterlimit="10" width="280" height="48"/>
			<polyline class="menu-item-stroke" stroke-miterlimit="10" points="282,163 334,163 334,176 428,176 "/>
			<polygon class="menu-item-icon-bg" stroke-miterlimit="10" points="505.5,197.6 467,219.9 428.5,197.6
				428.5,153 467,130.7 505.5,153 "/>
			<text transform="matrix(1 0 0 1 105.2177 168.8468)">Analytics</text>
			<g class="icon">
				<path d="M482.2,167.4c-2.7,0-4.8,2.2-4.8,4.8c0,1.2,0.4,2.3,1.2,3.1l-5.7,5.2c-0.8-0.6-1.8-0.9-2.8-0.9
					c-1.1,0-2,0.3-2.8,0.9l-5.3-4.7c0.4-0.7,0.7-1.6,0.7-2.5c0-2.7-2.2-4.8-4.8-4.8s-4.8,2.2-4.8,4.8c0,0.6,0.1,1.2,0.3,1.8l-6.3,6
					l1.5,1.6l6.1-5.8c0.8,0.8,2,1.2,3.2,1.2c0.9,0,1.8-0.3,2.6-0.7l5.4,4.8c-0.3,0.7-0.5,1.4-0.5,2.2c0,2.7,2.2,4.8,4.8,4.8
					c2.7,0,4.8-2.2,4.8-4.8c0-0.8-0.2-1.5-0.5-2.2l6.1-5.6c0.6,0.2,1.2,0.4,1.8,0.4c2.7,0,4.8-2.2,4.8-4.8
					C487,169.5,484.9,167.4,482.2,167.4z M457.8,174.8c-0.8,0-1.5-0.7-1.5-1.5c0-0.8,0.7-1.5,1.5-1.5c0.8,0,1.5,0.7,1.5,1.5
					C459.2,174.1,458.6,174.8,457.8,174.8z M470,185.9c-0.8,0-1.5-0.7-1.5-1.5s0.7-1.5,1.5-1.5s1.5,0.7,1.5,1.5
					C471.5,185.2,470.8,185.9,470,185.9z M482.2,173.7c-0.8,0-1.5-0.7-1.5-1.5s0.7-1.5,1.5-1.5s1.5,0.7,1.5,1.5S483,173.7,482.2,173.7z
					"/>
			</g>
		</a>
	</g>
	<g id="menu-website-maintenance">
		<a xlink:href="/how-we-help/website-maintenance/" target="_top">
			<rect class="menu-item-text-container" x="2.1" y="196.4" stroke-miterlimit="10" width="280" height="48"/>
			<polyline class="menu-item-stroke" stroke-miterlimit="10" points="142,244 142,268 562,268 562,220 "/>
			<polygon class="menu-item-icon-bg" stroke-miterlimit="10" points="600.5,197.6 562,219.9 523.5,197.6
				523.5,153 562,130.7 600.5,153 "/>
			<text transform="matrix(1 0 0 1 53.0156 226.1873)">Website Maintentance</text>
			<g class="icon">
				<path d="M579,165.7l-5.4,5.4l-5.2-5.2l5.5-5.5c-0.8-0.3-1.7-0.4-2.6-0.4c-4.4,0-8.1,3.6-8.1,8.1
					c0,1.6,0.5,3.1,1.3,4.3l-5.7,5.5l-1-1l-13.2,12.5l2,2.1l1,1.1l0,0l1,1l13.2-12.5l-1-1l5.7-5.4c1.3,1,3,1.6,4.8,1.6
					c4.4,0,8.1-3.6,8.1-8.1C579.4,167.2,579.2,166.4,579,165.7z"/>
			</g>
		</a>
	</g>
	<g id="menu-content-marketing">
		<a xlink:href="/how-we-help/content-marketing/" target="_top">
			<rect class="menu-item-text-container" x="888" y="25" stroke-miterlimit="10" width="280" height="48"/>
			<polyline class="menu-item-stroke" stroke-miterlimit="10" points="1028,25 1028,2 610,2 610,49 "/>
			<polygon class="menu-item-icon-bg" stroke-miterlimit="10" points="648.5,115.6 610,137.9 571.5,115.6
				571.5,71 610,48.7 648.5,71 "/>
			<text transform="matrix(1 0 0 1 952.8181 54.1657)">Content Marketing</text>
			<g class="icon">
				<path d="M627.4,92.2h-3.6c-0.5-6.8-5.9-12.2-12.7-12.7v-3.6h-2.1v3.6c-6.7,0.5-12.1,5.9-12.6,12.7h-3.7v2.1h3.7
					c0.5,6.7,5.9,12.1,12.6,12.6v3.7h2.1v-3.7c6.7-0.5,12.1-5.9,12.7-12.6h3.6V92.2z M620.6,92.2h-4.7c-0.4-2.4-2.3-4.4-4.8-4.8v-4.7
					C616.1,83.2,620.1,87.2,620.6,92.2z M608.9,92.2h-2.6c0.3-1.3,1.3-2.2,2.6-2.6V92.2z M608.9,94.3v2.5c-1.2-0.4-2.2-1.3-2.5-2.5
					H608.9z M611.1,94.3h2.6c-0.4,1.2-1.4,2.2-2.6,2.6V94.3z M611.1,92.2v-2.6c1.3,0.4,2.3,1.4,2.6,2.6H611.1z M608.9,82.7v4.7
					c-2.4,0.5-4.3,2.4-4.7,4.8h-4.7C600,87.2,604,83.2,608.9,82.7z M599.5,94.3h4.7c0.4,2.4,2.3,4.3,4.7,4.7v4.7
					C604,103.3,600,99.3,599.5,94.3z M611.1,103.8v-4.7c2.4-0.4,4.3-2.3,4.8-4.7h4.7C620,99.3,616.1,103.3,611.1,103.8z"/>
			</g>
		</a>
	</g>
	<g id="menu-social-media">
		<a xlink:href="/how-we-help/social-media/" target="_top">
			<rect class="menu-item-text-container" x="888" y="82.2" stroke-miterlimit="10" width="280" height="48"/>
			<polyline class="menu-item-stroke" stroke-miterlimit="10" points="888,106 836,106 836,93 743,93 "/>
			<polygon class="menu-item-icon-bg" stroke-miterlimit="10" points="743.5,115.6 705,137.9 666.5,115.6
				666.5,71 705,48.7 743.5,71 "/>
			<text transform="matrix(1 0 0 1 978.9265 111.5062)">Social Media</text>
			<g class="icon">
				<path d="M711.7,101.1c-1.3,0-2.5,0.6-3.3,1.5l-9.9-6.9c0.1-0.4,0.2-0.9,0.2-1.4c0-0.5-0.1-1-0.2-1.4l9.9-6.9
					c0.8,0.9,2,1.5,3.3,1.5c2.4,0,4.4-2,4.4-4.4s-2-4.4-4.4-4.4s-4.4,2-4.4,4.4c0,0.4,0,0.7,0.1,1.1l-10,7c-0.8-0.8-1.9-1.3-3.1-1.3
					c-2.4,0-4.4,2-4.4,4.4s2,4.4,4.4,4.4c1.2,0,2.3-0.5,3.1-1.3l10,7c-0.1,0.4-0.2,0.8-0.2,1.2c0,2.4,2,4.4,4.4,4.4s4.4-2,4.4-4.4
					C716.2,103.1,714.2,101.1,711.7,101.1z M711.7,81.6c0.7,0,1.4,0.6,1.4,1.4s-0.6,1.4-1.4,1.4s-1.4-0.6-1.4-1.4S711,81.6,711.7,81.6z
					 M694.3,95.6c-0.7,0-1.4-0.6-1.4-1.4s0.6-1.4,1.4-1.4s1.4,0.6,1.4,1.4S695,95.6,694.3,95.6z M711.7,106.9c-0.7,0-1.4-0.6-1.4-1.4
					c0-0.7,0.6-1.4,1.4-1.4s1.4,0.6,1.4,1.4C713.1,106.3,712.5,106.9,711.7,106.9z"/>
			</g>
		</a>
	</g>
	<g id="menu-seo">
		<a xlink:href="/how-we-help/seo/" target="_top">
			<rect class="menu-item-text-container" x="888" y="139.3" stroke-miterlimit="10" width="280" height="48"/>
			<polyline class="menu-item-stroke" stroke-miterlimit="10" points="888,163 836,163 836,176 790,176 "/>
			<polygon class="menu-item-icon-bg" stroke-miterlimit="10" points="790.5,197.6 752,219.9 713.5,197.6
				713.5,153 752,130.7 790.5,153 "/>
			<text transform="matrix(1 0 0 1 1010.5183 168.8468)">SEO</text>
			<g class="icon">
				<path d="M766.6,190.4l1.8-1.8l-8.7-8.1l-0.9,0.9l-5.6-5.3c1.3-1.7,2-3.7,2-6c0-5.5-4.4-9.9-9.9-9.9
					c-5.5,0-9.9,4.4-9.9,9.9s4.4,9.9,9.9,9.9c2.3,0,4.4-0.8,6.1-2.1l5.7,5.3l-0.9,0.9l8.7,8.1l0.9-0.9l0,0L766.6,190.4z M737.5,170
					c0-4.3,3.5-7.8,7.8-7.8s7.8,3.5,7.8,7.8s-3.5,7.8-7.8,7.8S737.5,174.3,737.5,170z"/>
			</g>
		</a>
	</g>
	<g id="menu-pay-per-click">
		<a xlink:href="/how-we-help/pay-per-click/" target="_top">
			<rect class="menu-item-text-container" x="888" y="196.4" stroke-miterlimit="10" width="280" height="48"/>
			<polyline class="menu-item-stroke" stroke-miterlimit="10" points="1023,244 1023,268 657,268 657,220 "/>
			<polygon class="menu-item-icon-bg" stroke-miterlimit="10" points="695.5,197.6 657,219.9 618.5,197.6
				618.5,153 657,130.7 695.5,153 "/>
			<text transform="matrix(1 0 0 1 977.7136 226.1873)">Pay Per Click</text>
			<g class="icon">
				<path d="M673.4,181.2l-15.4-4.7c0.5-0.7,0.8-1.5,0.8-2.4c0-2.2-1.8-4-4-4s-4,1.8-4,4c0,2.2,1.8,4,4,4
					c0.9,0,1.8-0.3,2.4-0.8l4.7,15.4l2.2-5.7l5.3,5.3l3.4-3.4l-5.3-5.3L673.4,181.2z M654.9,175.8c-1,0-1.8-0.8-1.8-1.8
					c0-1,0.8-1.8,1.8-1.8s1.8,0.8,1.8,1.8C656.8,175,655.9,175.8,654.9,175.8z"/>
				<path d="M644.9,174c0-5.6,4.5-10.1,10.1-10.1c5.5,0,10,4.4,10.1,9.9l2.2,0c-0.1-6.6-5.6-12-12.3-12
					c-6.8,0-12.3,5.5-12.3,12.3c0,6.4,5,11.8,11.4,12.2l0.1-2.2C649,183.7,644.9,179.3,644.9,174z"/>
			</g>
		</a>
	</g>
</svg>
